<svg xmlns="http://www.w3.org/2000/svg" width="523.74" height="476.145" viewBox="0 0 523.74 476.145">
  <g id="Computer_login-bro" data-name="Computer login-bro" transform="translate(-12.5 -44.59)">
    <g id="freepik--Pictures--inject-74" transform="translate(42.795 217.903)">
      <path id="Path_1036" data-name="Path 1036" d="M150.269,362.636H40.384a.554.554,0,0,1-.554-.554V201.494a.565.565,0,0,1,.554-.554H150.269a.554.554,0,0,1,.554.554V362.081A.554.554,0,0,1,150.269,362.636Zm-109.33-1.109H149.759V202.048H40.938Z" transform="translate(-39.83 -200.94)" fill="#263238"/>
      <path id="Path_1037" data-name="Path 1037" d="M143.623,352.911H45.854a.565.565,0,0,1-.554-.554V209.494a.554.554,0,0,1,.554-.554h97.769a.554.554,0,0,1,.554.554V352.357A.554.554,0,0,1,143.623,352.911ZM46.42,351.8h96.649V210.048H46.408Z" transform="translate(-39.237 -200.072)" fill="#263238"/>
      <path id="Path_1038" data-name="Path 1038" d="M117.459,314.7H67.344a.554.554,0,0,1-.554-.554V240.894a.554.554,0,0,1,.554-.554h50.115a.554.554,0,0,1,.554.554v73.249a.554.554,0,0,1-.554.554ZM67.9,313.589H116.9V241.448H67.9Z" transform="translate(-36.905 -196.665)" fill="#263238"/>
      <path id="Path_1039" data-name="Path 1039" d="M479.439,362.636H369.554a.554.554,0,0,1-.554-.554V201.494a.554.554,0,0,1,.554-.554H479.439a.565.565,0,0,1,.554.554V362.081A.554.554,0,0,1,479.439,362.636Zm-109.331-1.109H478.885V202.048H370.108Z" transform="translate(-4.118 -200.94)" fill="#263238"/>
      <path id="Path_1040" data-name="Path 1040" d="M472.779,352.911H375.054a.565.565,0,0,1-.554-.554V209.494a.554.554,0,0,1,.554-.554h97.758a.554.554,0,0,1,.554.554V352.357a.565.565,0,0,1-.588.554Zm-97.2-1.108h96.649V210.048H375.575Z" transform="translate(-3.521 -200.072)" fill="#263238"/>
      <path id="Path_1041" data-name="Path 1041" d="M446.629,314.7H396.514a.554.554,0,0,1-.554-.554V240.894a.554.554,0,0,1,.554-.554h50.115a.554.554,0,0,1,.554.554v73.249a.554.554,0,0,1-.554.554Zm-49.561-1.108h49.006V241.448H397.113Z" transform="translate(-1.193 -196.665)" fill="#263238"/>
    </g>
    <g id="freepik--Screen--inject-74" transform="translate(83.998 44.59)">
      <path id="Path_1042" data-name="Path 1042" d="M461.511,53.25H86.564A9.034,9.034,0,0,0,77.53,62.3V354.172a9.034,9.034,0,0,0,9.034,9.034H313.993l26.6,20.684-4.024-20.684H461.511a9.034,9.034,0,0,0,9.034-9.034V62.3a9.034,9.034,0,0,0-9.034-9.045Z" transform="translate(-76.942 -43.65)" fill="#263238"/>
      <path id="Path_1043" data-name="Path 1043" d="M340.644,384.466a.565.565,0,0,1-.344-.122l-26.449-20.562H86.611A9.6,9.6,0,0,1,77,354.226V62.35a9.611,9.611,0,0,1,9.588-9.6h374.98a9.611,9.611,0,0,1,9.588,9.6V354.226a9.6,9.6,0,0,1-9.588,9.588H337.285l3.9,20.019a.532.532,0,0,1-.255.576.555.555,0,0,1-.288.055ZM86.622,53.858a8.491,8.491,0,0,0-8.513,8.491V354.226a8.491,8.491,0,0,0,8.48,8.48H314.051a.565.565,0,0,1,.333.111L339.812,382.6l-3.736-19.2a.565.565,0,0,1,.111-.454.587.587,0,0,1,.432-.2H461.569a8.491,8.491,0,0,0,8.48-8.48V62.35a8.491,8.491,0,0,0-8.48-8.491Z" transform="translate(-77 -43.705)" fill="#263238"/>
      <path id="Path_1044" data-name="Path 1044" d="M467.451,45.09H92.5a9.034,9.034,0,0,0-9.034,9.034V346a9.034,9.034,0,0,0,9.034,9.034H319.922l26.6,20.684-4.013-20.684H467.451A9.034,9.034,0,0,0,476.486,346V54.124a9.034,9.034,0,0,0-9.034-9.034Z" transform="translate(-76.298 -44.536)" fill="#ff8400"/>
      <path id="Path_1045" data-name="Path 1045" d="M185.848,175.3s-10.087-16.8-25.5-17.736-18.246,12.482-23.522,15.851-9.6-2.882-16.328-.488-5.764,6.241-11.085,8.646-9.123-3.846-14.41-1.441-6.717,5.276-6.717,5.276H206.9s-3.325-9.123-8.646-10.553S191.612,179.624,185.848,175.3Z" transform="translate(-75.775 -32.338)" fill="#fff"/>
      <path id="Path_1046" data-name="Path 1046" d="M424.981,118.676s-7.371-12.293-18.623-13S393,114.819,389.144,117.279s-7.028-2.117-11.95-.355-4.223,4.567-8.081,6.329-6.651-2.816-10.542-1.108-4.922,3.869-4.922,3.869H440.5s-2.461-6.651-6.318-7.759S429.249,121.846,424.981,118.676Z" transform="translate(-46.986 -37.967)" fill="#fff"/>
      <path id="Path_1047" data-name="Path 1047" d="M400.35,77.676s-13.623-22.713-34.363-24.01S341.312,70.538,334.173,75.1s-12.98-3.891-22.059-.643-7.759,8.436-14.92,11.672-12.326-5.188-19.465-1.94-9.079,7.139-9.079,7.139H428.893s-4.545-12.326-11.672-14.277S408.131,83.507,400.35,77.676Z" transform="translate(-56.208 -43.612)" fill="#fff"/>
      <g id="Group_4263" data-name="Group 4263" transform="translate(7.139 48.241)" opacity="0.15">
        <path id="Path_1048" data-name="Path 1048" d="M121.422,285.74a3.813,3.813,0,0,0-5.542-1.363c-1.929,1.208-2.749,3.891-2.938,6.041-.222,2.516,1.718,7.837,1.718,7.837s3.126-2.339,3.325-2.505C120.047,293.732,122.863,288.633,121.422,285.74Z" transform="translate(-80.241 -66.89)"/>
        <path id="Path_1049" data-name="Path 1049" d="M93.96,313.269c.488-.654.92-1.241.975-1.33,1.463-2.483,2.816-8.136.665-10.553a3.813,3.813,0,0,0-5.675.144c-1.541,1.674-1.629,4.434-1.242,6.6s2.882,5.886,3.558,6.862L90.8,316.428c-2.217,2.217-4.434,4.523-6.651,6.651a9.291,9.291,0,0,0,.654,1.23l.1-.089c2.217-2.283,4.5-4.667,6.74-7.039l2.073-2.15c.233.377,2.982,4.833,5,6.174,1.785,1.2,4.434,2.217,6.551,1.485a3.835,3.835,0,0,0,2.383-5.166c-1.363-2.926-7.094-3.924-9.976-3.569-.211,0-3.126.721-3.858.942,1.519-1.585,3.048-3.148,4.611-4.622a69.439,69.439,0,0,1,6.651-5.6c.111.177,2.971,4.844,5.033,6.219,1.785,1.2,4.434,2.217,6.551,1.485a3.824,3.824,0,0,0,2.383-5.166c-1.363-2.926-7.094-3.924-9.976-3.569-.222,0-3.325.787-3.913.964.133-.1.266-.222.41-.31a48.774,48.774,0,0,1,7.6-4.312c1.463-.676,2.893-1.253,4.3-1.774.443.92,2.527,5.11,4.234,6.562s4.135,2.694,6.352,2.217a3.824,3.824,0,0,0,2.937-4.877c-1.031-3.059-6.651-4.678-9.5-4.633-.155,0-1.751.188-2.9.355.643-.233,1.3-.477,1.907-.676,2.317-.787,4.434-1.352,6.407-1.84,1.108-.277,2.1-.5,3.026-.7.909.687,4.6,3.325,6.751,3.858s4.911.488,6.651-.987a3.813,3.813,0,0,0,.355-5.664c-2.328-2.217-8.037-1.108-10.575.255-.222.111-3.436,2.35-3.392,2.383h.055c-.909.166-1.873.366-2.915.6-1.94.454-4.124.975-6.463,1.707a66.161,66.161,0,0,0-7.438,2.716,50.527,50.527,0,0,0-7.759,4.19l-.089.067c.6-.743,2.217-2.86,2.283-3.026,1.463-2.494,2.827-8.147.676-10.564a3.824,3.824,0,0,0-5.687.144c-1.53,1.674-1.629,4.434-1.242,6.6.443,2.394,3.447,6.706,3.691,7.05a66.521,66.521,0,0,0-7.05,5.631C96.5,310.808,95.224,312.028,93.96,313.269Z" transform="translate(-83.363 -66.319)"/>
        <path id="Path_1050" data-name="Path 1050" d="M83.47,311.92v5.132a9.112,9.112,0,0,0,.166,1.751C84.29,316.443,84.49,313.66,83.47,311.92Z" transform="translate(-83.437 -63.828)"/>
        <path id="Path_1051" data-name="Path 1051" d="M127.551,223.044c2.9-4.146,6.075-13.856,2.649-18.379a6.706,6.706,0,0,0-9.976-.543c-2.926,2.716-3.481,7.615-3.093,11.373.454,4.434,5.542,12.969,5.542,12.969S127.3,223.444,127.551,223.044Z" transform="translate(-79.797 -75.737)"/>
        <path id="Path_1052" data-name="Path 1052" d="M169.149,209.272c-4.733-3.1-14.211.732-18.146,3.9-.333.277-5.166,5.188-5.066,5.232h.1c-1.5.587-3.093,1.242-4.833,2-3.192,1.408-6.784,3.026-10.586,5.055a118.476,118.476,0,0,0-11.927,7.128,86.662,86.662,0,0,0-12.083,9.777l-.133.133c.787-1.463,2.827-5.631,2.949-5.964,1.707-4.767,2.217-14.976-2.295-18.423a6.651,6.651,0,0,0-9.755,2.1c-2.106,3.4-1.341,8.269,0,11.794,1.53,3.968,8.136,10.431,8.668,10.952a118.435,118.435,0,0,0-10.32,12c-1.862,2.45-3.658,4.988-5.432,7.538.632-1.286,1.2-2.439,1.253-2.616,1.707-4.755,2.217-14.965-2.295-18.412a6.252,6.252,0,0,0-5.8-1v20.751c1.807,2.139,3.68,4.035,4.434,4.8-.665.987-1.341,1.962-2.006,2.96L83.44,272.6v3.858c1.363-2.128,2.738-4.257,4.1-6.4.942-1.474,1.9-2.926,2.849-4.434.521.576,6.74,7.36,10.653,9.023,3.481,1.474,8.325,2.394,11.794.4a6.651,6.651,0,0,0,2.405-9.677c-3.325-4.6-13.513-4.434-18.334-2.893-.355.111-5.154,2.272-6.341,2.882,2.1-3.226,4.223-6.418,6.44-9.478a116.924,116.924,0,0,1,9.721-11.839c.244.266,6.651,7.371,10.708,9.079,3.47,1.474,8.314,2.394,11.783.4a6.651,6.651,0,0,0,2.417-9.677c-3.325-4.6-13.524-4.434-18.334-2.893-.377.111-5.542,2.45-6.44,2.937.211-.222.4-.466.6-.676a87.127,87.127,0,0,1,11.717-9.91c2.295-1.663,4.589-3.115,6.839-4.434,1.108,1.452,6.019,8.014,9.455,9.976s8,3.325,11.672,1.7a6.651,6.651,0,0,0,3.458-9.356c-2.771-4.944-12.947-5.908-17.9-4.9-.277.055-2.949.92-4.888,1.574,1.02-.6,2.073-1.242,3.071-1.8,3.736-2.106,7.283-3.8,10.431-5.276,1.807-.82,3.447-1.53,5-2.217,1.785.865,9.034,4.3,12.9,4.434s8.624-.765,11.085-3.88a6.706,6.706,0,0,0-1.153-9.855Z" transform="translate(-83.44 -75.089)"/>
        <path id="Path_1053" data-name="Path 1053" d="M83.47,278.468v12.371a10.06,10.06,0,0,0,.964.5c3.481,1.474,8.325,2.394,11.794.4a6.651,6.651,0,0,0,2.405-9.677C95.952,278.313,88.68,277.714,83.47,278.468Z" transform="translate(-83.437 -67.488)"/>
        <path id="Path_1054" data-name="Path 1054" d="M85.71,322.156a8.979,8.979,0,0,0,6.551,2.827h2.827C93.2,322.666,88.326,321.857,85.71,322.156Z" transform="translate(-83.194 -62.724)"/>
        <path id="Path_1055" data-name="Path 1055" d="M377.447,198.351c.122,0-5-6.651-5.376-7.05-4.29-4.434-15.186-10.409-21.372-7.338-4.434,2.217-5.454,7.759-2.915,11.783s8.314,5.9,12.9,6.285C366.063,202.5,377.447,198.351,377.447,198.351Z" transform="translate(-54.909 -77.802)"/>
        <path id="Path_1056" data-name="Path 1056" d="M455.309,325.651v-4.523c-2.051-1.009-4.179-2.017-6.363-3.037a87.575,87.575,0,0,0,2.272-10.176,21.438,21.438,0,0,0,4.09-.854v-14.41a30.261,30.261,0,0,0-9.356-2.8,9.835,9.835,0,0,0-1.5-1.009c-4.179-2.295-9.655-.942-11.584,3.636-2.683,6.352,3.968,16.86,8.635,20.884.266.233,3.547,2.472,5.631,3.858-1.352-.632-2.649-1.253-4.057-1.873-2.749-1.253-5.542-2.428-8.535-3.7l-4.434-1.707c-1.474-.6-3.1-1.042-4.678-1.585-3.647-1.164-7.416-2.217-11.218-3.1,1.108-2.417,4.844-11.085,4.877-15.674s-1.23-10.464-5.088-13.424-9.4-2.383-12,1.84c-3.625,5.875,1.363,17.27,5.365,21.959.244.288,3.492,3.325,5.31,4.955-2.295-.543-4.578-1.108-6.917-1.563-6.762-1.363-13.634-2.527-20.5-3.725-2.1-.366-4.19-.754-6.274-1.108.4-.854,5.088-11.03,5.11-16.2,0-4.6-1.219-10.475-5.088-13.424a8.147,8.147,0,0,0-12,1.84c-3.614,5.875,1.363,17.27,5.365,21.948.31.355,4.988,4.711,6.23,5.764-4.611-.842-9.189-1.729-13.679-2.782a144.63,144.63,0,0,1-17.858-5.332c.188-.4,5.132-11,5.166-16.295,0-4.6-1.23-10.464-5.1-13.424a8.148,8.148,0,0,0-11.994,1.84c-3.625,5.875,1.363,17.27,5.365,21.948.31.366,5.354,5.055,6.329,5.842-.344-.122-.709-.222-1.042-.355a105.434,105.434,0,0,1-16.627-8.491c-2.938-1.8-5.653-3.68-8.247-5.542,1.108-1.884,6.152-10.531,6.706-15.3.532-4.567-.055-10.531-3.58-13.9s-9.079-3.4-12.127.521c-4.246,5.432-.543,17.315,2.915,22.4.188.277,2.417,2.882,4.068,4.755-1.164-.876-2.372-1.751-3.47-2.6-4.113-3.2-7.682-6.4-10.819-9.245-1.774-1.629-3.325-3.148-4.8-4.578.144-2.416.587-12.193-1.108-16.627s-4.911-9.322-9.588-10.686-9.633,1.108-10.531,6.041c-1.253,6.784,7.493,15.619,12.914,18.534.477.255,8.247,3.325,8.258,3.237a.574.574,0,0,0,0-.144c1.375,1.408,2.86,2.893,4.512,4.489,3.082,2.926,6.651,6.208,10.653,9.511A146.149,146.149,0,0,0,328.53,282.3a105.5,105.5,0,0,0,16.627,8.968l.211.078c-2.006-.188-7.649-.521-8.092-.5-6.141.321-17.836,4.578-19.6,11.24a8.169,8.169,0,0,0,6.939,9.976c4.811.765,9.921-2.372,13.235-5.542,3.736-3.6,7.881-14.056,8.214-14.887a144.1,144.1,0,0,0,18.4,5.964c3.636.931,7.316,1.763,11.018,2.55-1.74-.111-3.325-.188-3.525-.177-6.152.333-17.836,4.578-19.6,11.24-1.275,4.811,2.217,9.223,6.939,9.976s9.921-2.372,13.235-5.542,7.072-12.083,8.025-14.41l4.268.865c6.839,1.352,13.668,2.671,20.33,4.157,2.35.532,4.645,1.108,6.939,1.729-1.552-.089-2.86-.155-3.059-.144-6.141.321-17.836,4.578-19.6,11.24-1.275,4.8,2.217,9.223,6.939,9.976s9.976-2.372,13.235-5.542,6.706-11.218,7.859-14.011c2.328.676,4.667,1.363,6.895,2.128,1.508.554,3,.987,4.489,1.629l4.434,1.8c2.76,1.253,5.62,2.527,8.28,3.813,1.862.876,3.614,1.751,5.387,2.627-2.328-.554-6.917-1.541-7.316-1.574-6.119-.61-18.323,1.818-21.061,8.147a7.615,7.615,0,0,0,.454,6.983h19.31c4.068-3.325,9.145-11.85,9.8-12.969C450.631,323.223,453.092,324.442,455.309,325.651Z" transform="translate(-62.282 -72.693)"/>
        <path id="Path_1057" data-name="Path 1057" d="M436.206,270.933c0,.377,1.108,4.7,1.7,7.061-1.618-1.718-3.215-3.436-4.911-5.121-4.877-4.866-9.976-9.633-15.031-14.41-1.552-1.463-3.082-2.937-4.611-4.434.8-.5,10.32-6.4,13.2-10.7,2.561-3.813,4.755-9.4,3.159-14s-6.518-7.183-11.085-5.088c-6.252,2.9-8.38,15.153-7.626,21.272.055.454,1.552,6.651,2.017,8.236-3.325-3.237-6.717-6.507-9.877-9.854a143.909,143.909,0,0,1-11.85-14.288c.377-.222,10.342-6.341,13.3-10.741,2.549-3.824,4.755-9.4,3.159-14s-6.529-7.183-11.03-5.088c-6.263,2.9-8.391,15.153-7.638,21.272.066.477,1.674,7.172,2.062,8.358-.211-.288-.466-.576-.676-.865a106.42,106.42,0,0,1-9.189-16.262c-1.463-3.126-2.683-6.185-3.813-9.2,1.973-.942,10.941-5.376,14.034-9.045s5.764-8.868,4.689-13.568-5.7-7.859-10.409-6.274c-6.54,2.217-9.976,14.144-9.976,20.308,0,.333.421,3.736.765,6.2-.488-1.363-1.009-2.76-1.452-4.079-1.663-4.944-2.882-9.566-3.924-13.679-.576-2.339-1.053-4.434-1.474-6.463,1.452-1.94,7.194-9.832,8.225-14.41s1.108-10.475-2.1-14.2-8.668-4.345-12.116-.765c-4.789,4.966-2.361,17.159.543,22.591.255.466,5.021,7.349,5.1,7.25l.089-.111c.377,1.929.787,3.991,1.286,6.23.964,4.146,2.084,8.868,3.647,13.812a144.115,144.115,0,0,0,5.809,15.863,106.245,106.245,0,0,0,8.945,16.627,1.851,1.851,0,0,1,.133.177c-1.574-1.264-6.086-4.656-6.462-4.877-5.31-3.115-17.4-6.03-22.558-1.441a8.17,8.17,0,0,0,.3,12.193c3.592,3.325,9.577,3.481,14.1,2.649,5.11-.931,14.333-7.371,15.064-7.881a145.805,145.805,0,0,0,12.016,15.076c2.516,2.782,5.132,5.542,7.759,8.2-1.386-1.053-2.649-1.984-2.838-2.1-5.31-3.115-17.4-6.019-22.547-1.43-3.713,3.325-3.226,8.868.288,12.193s9.588,3.481,14.111,2.649,12.559-6.163,14.654-7.6l3.082,3.082c4.966,4.9,9.976,9.766,14.665,14.676,1.663,1.74,3.248,3.5,4.833,5.265-1.242-.931-2.295-1.707-2.472-1.807-5.31-3.115-17.4-6.019-22.547-1.43-3.713,3.325-3.226,8.868.288,12.138s9.588,3.492,14.111,2.66,11.783-5.653,14.277-7.349c1.574,1.851,3.148,3.7,4.589,5.542.909,1.242,1.862,2.383,2.716,3.658V288.07a.845.845,0,0,1-.089-.122c-2.405-2.993-4.988-5.908-7.66-8.779a91.238,91.238,0,0,0,7.759-5.465V248.984a7.648,7.648,0,0,0-2.893.709C437.58,252.554,435.452,264.814,436.206,270.933Z" transform="translate(-53.688 -81.968)"/>
        <path id="Path_1058" data-name="Path 1058" d="M207.6,326.091c-1.641-1.009-3.159-2.062-4.611-3.115.632-1.108,3.447-5.886,3.758-8.558s0-5.9-2.006-7.759a4.578,4.578,0,0,0-6.8.288c-2.372,3.048-.3,9.688,1.641,12.537.1.155,1.352,1.618,2.217,2.66-.654-.488-1.33-.975-1.94-1.452-2.306-1.8-4.3-3.58-6.052-5.177-1-.909-1.873-1.763-2.683-2.561.078-1.352.321-6.806-.61-9.278s-2.749-5.21-5.365-5.975a4.567,4.567,0,0,0-5.9,3.325c-.7,3.791,4.2,8.735,7.227,10.375.266.144,4.611,1.873,4.622,1.807v-.078c.776.787,1.607,1.618,2.527,2.516,1.729,1.629,3.691,3.458,5.964,5.31a79.008,79.008,0,0,0,7.615,5.631l1.663,1.031h1.363C209.374,327.144,208.465,326.623,207.6,326.091Z" transform="translate(-73.052 -65.396)"/>
        <path id="Path_1059" data-name="Path 1059" d="M201.708,320.757c0-.055-4.434-1.574-4.689-1.629-3.325-.732-10.3-.166-12.193,3.17a4.246,4.246,0,0,0-.466,3.037h13.5a49.782,49.782,0,0,0,3.846-4.578Z" transform="translate(-72.502 -63.077)"/>
        <path id="Path_1060" data-name="Path 1060" d="M257.312,313.232c-.876-.82-1.729-1.652-2.583-2.472.443-.277,5.775-3.58,7.383-5.986,1.43-2.139,2.66-5.254,1.774-7.837a4.567,4.567,0,0,0-6.174-2.838c-3.5,1.618-4.689,8.48-4.268,11.894,0,.255.865,3.736,1.108,4.611-1.9-1.807-3.758-3.636-5.542-5.542a82.589,82.589,0,0,1-6.651-8.014c.211-.122,5.786-3.547,7.438-6.008,1.43-2.139,2.66-5.265,1.763-7.837a4.567,4.567,0,0,0-6.163-2.849c-3.5,1.629-4.7,8.491-4.279,11.905,0,.266.942,4.013,1.108,4.678l-.377-.488a59.229,59.229,0,0,1-5.143-9.1c-.82-1.74-1.5-3.458-2.128-5.143,1.108-.532,6.119-3,7.848-5.055s3.226-4.944,2.627-7.593a4.578,4.578,0,0,0-5.831-3.514c-3.658,1.23-5.542,7.915-5.542,11.362,0,.188.233,2.084.421,3.47-.266-.765-.565-1.541-.809-2.283-.931-2.76-1.618-5.354-2.217-7.649-.321-1.319-.587-2.505-.831-3.625.809-1.108,4.035-5.542,4.611-8.07s.588-5.864-1.175-7.948a4.567,4.567,0,0,0-6.784-.432c-2.683,2.782-1.319,9.611.31,12.648.133.255,2.8,4.113,2.849,4.057v-.066c.2,1.108.432,2.217.721,3.492.532,2.317,1.164,4.922,2.04,7.759a82.921,82.921,0,0,0,3.237,8.868,60.716,60.716,0,0,0,5.01,9.322l.078.1c-.876-.709-3.4-2.6-3.614-2.727-2.971-1.751-9.744-3.325-12.626-.809a4.578,4.578,0,0,0,.166,6.8c2.006,1.84,5.365,1.951,7.892,1.485,2.86-.521,8.014-4.124,8.425-4.434a80.688,80.688,0,0,0,6.729,8.436c1.408,1.563,2.871,3.082,4.356,4.589-.776-.587-1.485-1.108-1.585-1.164-2.982-1.751-9.744-3.325-12.626-.809a4.578,4.578,0,0,0,.166,6.8c2.006,1.84,5.365,1.951,7.892,1.485s7.028-3.447,8.2-4.257l1.729,1.729c2.771,2.738,5.542,5.454,8.2,8.214.931.964,1.818,1.951,2.7,2.949-.7-.532-1.286-.964-1.386-1.02-2.971-1.74-9.733-3.325-12.615-.8a4.567,4.567,0,0,0,.166,6.8c2.006,1.84,5.354,1.951,7.892,1.485s6.6-3.17,7.992-4.112c.876,1.031,1.751,2.073,2.561,3.115.488.676,1.009,1.3,1.474,1.984h2.35l-.665-.931c-.5-.732-1.108-1.441-1.7-2.217-1.341-1.674-2.782-3.325-4.279-4.922,1.264-.787,5.675-3.658,7.117-5.809s2.66-5.265,1.774-7.837a4.578,4.578,0,0,0-6.174-2.849c-3.5,1.629-4.7,8.491-4.268,11.905,0,.211.6,2.638.942,3.957-.9-.964-1.8-1.929-2.749-2.871C262.976,318.608,260.128,315.936,257.312,313.232Z" transform="translate(-68.248 -70.594)"/>
        <path id="Path_1061" data-name="Path 1061" d="M233.564,324.586c0-2.572-.687-5.853-2.849-7.516A4.578,4.578,0,0,0,224,318.1c-1.175,1.918-.721,4.877.31,7.538h9.156a7.465,7.465,0,0,0,.1-1.053Z" transform="translate(-68.266 -63.381)"/>
        <path id="Path_1062" data-name="Path 1062" d="M292.5,286.065c4.434,2.006,10.2.321,14.233-1.884,4.744-2.583,11.95-12.3,11.95-12.315s-7.892-2.8-8.447-2.915c-6.019-1.308-18.412-.3-21.882,5.664a8.181,8.181,0,0,0,4.146,11.451Z" transform="translate(-61.314 -68.545)"/>
        <path id="Path_1063" data-name="Path 1063" d="M282.834,319.252a4.567,4.567,0,0,0-6.529-1.884c-2.151,1.43-2.915,5.021-2.915,8.225h9.544a8.358,8.358,0,0,0-.1-6.341Z" transform="translate(-62.832 -63.312)"/>
        <path id="Path_1064" data-name="Path 1064" d="M225.247,281.687c3,.255,9.378-2.062,9.378-2.062s-2.8-3.736-3-3.946c-2.405-2.472-8.5-5.831-11.961-4.112a4.567,4.567,0,0,0-1.641,6.651C219.472,280.467,222.675,281.465,225.247,281.687Z" transform="translate(-68.928 -68.257)"/>
        <path id="Path_1065" data-name="Path 1065" d="M248.376,320.761a4.567,4.567,0,0,0-6.717,1.031,5.831,5.831,0,0,0-.665,3.447h9.921a7.593,7.593,0,0,0-2.538-4.478Z" transform="translate(-66.351 -62.981)"/>
        <path id="Path_1066" data-name="Path 1066" d="M217.475,320.406c0-2.572-.687-5.853-2.849-7.5a4.556,4.556,0,0,0-6.717,1.031c-2,3.237.687,9.478,2.915,12.193h5.2a19.432,19.432,0,0,0,1.452-5.72Z" transform="translate(-70.012 -63.835)"/>
        <path id="Path_1067" data-name="Path 1067" d="M84.759,111.4c.831-1.352,1.7-2.594,2.561-3.791.865.521,4.833,2.838,7.028,3.093s4.844,0,6.385-1.652a3.747,3.747,0,0,0-.233-5.542c-2.494-1.951-7.959-.244-10.3,1.341-.122.089-1.319,1.109-2.217,1.873.4-.532.8-1.109,1.2-1.6,1.474-1.9,2.938-3.536,4.246-4.977.754-.809,1.452-1.53,2.106-2.217,1.108.067,5.6.266,7.626-.5s4.279-2.217,4.911-4.434a3.747,3.747,0,0,0-2.782-4.833c-3.115-.576-7.183,3.447-8.524,5.93-.111.222-1.541,3.791-1.485,3.8h.067c-.643.632-1.33,1.319-2.062,2.073-1.352,1.419-2.849,3.037-4.367,4.9a64.692,64.692,0,0,0-4.622,6.263c-.288.443-.576.9-.854,1.363v1.108C83.894,112.863,84.327,112.12,84.759,111.4Z" transform="translate(-83.44 -88.11)"/>
        <path id="Path_1068" data-name="Path 1068" d="M87.228,106.567s1.3-3.6,1.341-3.846c.61-2.771.144-8.469-2.6-10.054a3.458,3.458,0,0,0-2.494-.388v11.085a41.744,41.744,0,0,0,3.758,3.2Z" transform="translate(-83.437 -87.666)"/>
        <path id="Path_1069" data-name="Path 1069" d="M99.575,152.223l2.029-2.117c.233.377,2.938,4.744,4.911,6.075,1.762,1.175,4.323,2.217,6.44,1.452a3.747,3.747,0,0,0,2.339-5.066c-1.33-2.882-6.961-3.858-9.777-3.514-.211,0-3.071.721-3.791.931,1.5-1.563,2.993-3.093,4.534-4.545a68.283,68.283,0,0,1,6.573-5.542c.111.177,2.915,4.755,4.944,6.119,1.762,1.175,4.323,2.217,6.44,1.452a3.769,3.769,0,0,0,2.339-5.077c-1.341-2.871-6.972-3.858-9.777-3.5-.222,0-3.325.765-3.846.942l.4-.31A47.843,47.843,0,0,1,120.8,135.3c1.441-.676,2.849-1.23,4.234-1.751.432.909,2.472,5.033,4.157,6.451s4.057,2.649,6.241,2.15a3.758,3.758,0,0,0,2.882-4.778c-1.02-3-6.507-4.6-9.333-4.567-.155,0-1.718.2-2.86.355.632-.222,1.275-.466,1.884-.665,2.217-.765,4.434-1.33,6.285-1.807,1.108-.266,2.051-.488,2.971-.676.887.665,4.523,3.325,6.651,3.78s4.822.488,6.529-.964a3.758,3.758,0,0,0,.355-5.542c-2.283-2.217-7.892-1.108-10.387.255-.211.122-3.381,2.317-3.325,2.35h0c-.887.177-1.829.366-2.86.6-1.907.443-4.057.953-6.352,1.674a66.042,66.042,0,0,0-7.3,2.671,47.788,47.788,0,0,0-7.66,4.113l-.089.055c.588-.721,2.15-2.793,2.217-2.971,1.43-2.439,2.771-8,.654-10.364a3.747,3.747,0,0,0-5.542.133c-1.519,1.652-1.607,4.434-1.219,6.485.432,2.35,3.325,6.584,3.625,6.928a65.4,65.4,0,0,0-6.928,5.542c-1.286,1.108-2.538,2.361-3.78,3.58.488-.643.92-1.219.964-1.308,1.441-2.439,2.771-8,.665-10.364a3.758,3.758,0,0,0-5.542.133c-1.508,1.652-1.6,4.434-1.219,6.485s2.838,5.775,3.492,6.74L98.8,151.436c-2.217,2.272-4.434,4.567-6.751,6.74-.8.765-1.607,1.485-2.417,2.217l.831-1.108c1.43-2.439,2.76-8,.654-10.364a3.747,3.747,0,0,0-5.542.133c-1.519,1.652-1.607,4.434-1.23,6.485s2.6,5.421,3.325,6.562c-.854.721-1.707,1.452-2.561,2.106-.554.41-1.108.831-1.629,1.208v1.94l.765-.554c.6-.41,1.186-.92,1.785-1.386,1.386-1.108,2.716-2.295,4.046-3.514.643,1.031,3,4.656,4.767,5.842s4.323,2.217,6.44,1.452a3.747,3.747,0,0,0,2.339-5.066c-1.33-2.882-6.972-3.858-9.777-3.514-.177,0-2.162.5-3.248.787l2.35-2.217C95.141,156.89,97.358,154.551,99.575,152.223Z" transform="translate(-83.436 -84.161)"/>
        <path id="Path_1070" data-name="Path 1070" d="M84.335,132.737c2.117,0,4.811-.554,6.174-2.339a3.747,3.747,0,0,0-.854-5.542c-1.574-.964-4-.587-6.185.255v7.527A6.242,6.242,0,0,0,84.335,132.737Z" transform="translate(-83.437 -84.185)"/>
        <path id="Path_1071" data-name="Path 1071" d="M88.68,173.219a3.747,3.747,0,0,0,1.541-5.365c-1.108-1.762-4.112-2.405-6.751-2.394v7.826A6.884,6.884,0,0,0,88.68,173.219Z" transform="translate(-83.437 -79.718)"/>
        <path id="Path_1072" data-name="Path 1072" d="M119.662,125.9c-.211,2.472,1.7,7.759,1.7,7.759s3.071-2.306,3.248-2.472c2.017-1.973,4.778-6.984,3.325-9.821a3.758,3.758,0,0,0-5.421-1.352C120.659,121.177,119.85,123.782,119.662,125.9Z" transform="translate(-79.512 -84.718)"/>
        <path id="Path_1073" data-name="Path 1073" d="M87.15,144.91a3.747,3.747,0,0,0-.842-5.542,4.689,4.689,0,0,0-2.838-.554v8.147A6.241,6.241,0,0,0,87.15,144.91Z" transform="translate(-83.437 -82.613)"/>
        <path id="Path_1074" data-name="Path 1074" d="M88.135,119.518c2.117,0,4.811-.554,6.174-2.339a3.747,3.747,0,0,0-.842-5.542c-2.671-1.641-7.759.565-9.976,2.383V118.3a15.774,15.774,0,0,0,4.645,1.219Z" transform="translate(-83.435 -85.62)"/>
      </g>
      <path id="Path_1075" data-name="Path 1075" d="M346.566,376.328a.543.543,0,0,1-.333-.111l-26.449-20.574H92.544A9.6,9.6,0,0,1,83,346.055V54.178a9.6,9.6,0,0,1,9.588-9.588H467.5a9.6,9.6,0,0,1,9.588,9.588V346.055a9.6,9.6,0,0,1-9.588,9.588H343.218l3.9,20.03a.587.587,0,0,1-.255.576.555.555,0,0,1-.3.078ZM92.555,45.7a8.491,8.491,0,0,0-8.447,8.48V346.055a8.491,8.491,0,0,0,8.48,8.48H319.973a.543.543,0,0,1,.344.122l25.4,19.776L341.977,355.2a.546.546,0,0,1,.543-.665H467.5a8.491,8.491,0,0,0,8.48-8.48V54.178a8.491,8.491,0,0,0-8.48-8.48Z" transform="translate(-76.349 -44.59)" fill="#263238"/>
      <path id="Path_1076" data-name="Path 1076" d="M380.556,104.462H298.849a37.922,37.922,0,0,0-59.526,0H157.616a10.043,10.043,0,0,0-9.976,9.976V286.254a10.043,10.043,0,0,0,9.976,10.032h222.94a10.043,10.043,0,0,0,9.976-10.032V114.438A10.043,10.043,0,0,0,380.556,104.462Z" transform="translate(-69.336 -39.659)" fill="#263238"/>
      <rect id="Rectangle_369" data-name="Rectangle 369" width="241.884" height="190.76" rx="8.55" transform="translate(82.738 60.147)" fill="#fff"/>
      <path id="Path_1077" data-name="Path 1077" d="M384.1,290.22H161.172a10.043,10.043,0,0,1-10.032-10.032V108.372A10.043,10.043,0,0,1,161.172,98.34H384.1a10.043,10.043,0,0,1,10.032,10.032V280.188A10.043,10.043,0,0,1,384.1,290.22ZM161.172,99.46a8.934,8.934,0,0,0-8.923,8.923V280.2a8.934,8.934,0,0,0,8.923,8.923H384.1a8.934,8.934,0,0,0,8.923-8.923V108.383A8.934,8.934,0,0,0,384.1,99.46Z" transform="translate(-68.956 -38.759)" fill="#263238"/>
      <path id="Path_1078" data-name="Path 1078" d="M301.85,123.285a37.29,37.29,0,1,1-10.92-26.522,37.445,37.445,0,0,1,10.92,26.522Z" transform="translate(-60.731 -40.115)" fill="#fff"/>
      <path id="Path_1079" data-name="Path 1079" d="M264.475,161.333a38.021,38.021,0,1,1,23.456-8.125A38.021,38.021,0,0,1,264.475,161.333Zm0-74.879a36.88,36.88,0,0,0-22.791,65.889,36.425,36.425,0,0,0,22.791,7.881,36.888,36.888,0,1,0,0-73.776Z" transform="translate(-60.79 -40.175)" fill="#263238"/>
      <path id="Path_1080" data-name="Path 1080" d="M277.912,115.862a15.641,15.641,0,1,0-15.633,15.63,15.641,15.641,0,0,0,15.633-15.63Z" transform="translate(-58.597 -38.556)" fill="#263238"/>
      <path id="Path_1081" data-name="Path 1081" d="M262.334,132.1a16.184,16.184,0,1,1,16.184-16.184A16.184,16.184,0,0,1,262.334,132.1Zm0-31.259a15.075,15.075,0,1,0,15.075,15.075A15.075,15.075,0,0,0,262.334,100.838Z" transform="translate(-58.649 -38.608)" fill="#263238"/>
      <path id="Path_1082" data-name="Path 1082" d="M286.136,147.989a37.4,37.4,0,0,1-46.246,0,23.677,23.677,0,0,1,46.246,0Z" transform="translate(-59.328 -35.388)" fill="#263238"/>
      <path id="Path_1083" data-name="Path 1083" d="M263.068,156.6a37.962,37.962,0,0,1-23.462-8.122.554.554,0,0,1-.2-.558,24.221,24.221,0,0,1,47.321,0,.554.554,0,0,1-.188.554,37.988,37.988,0,0,1-23.467,8.125Zm-22.513-8.746a36.381,36.381,0,0,0,22.513,7.671,36.853,36.853,0,0,0,22.5-7.667,23.123,23.123,0,0,0-45.012,0Z" transform="translate(-59.382 -35.445)" fill="#263238"/>
      <path id="Path_1084" data-name="Path 1084" d="M331.147,211.761H202.994a.554.554,0,0,1-.554-.554V191.054a.554.554,0,0,1,.554-.554H331.147a.554.554,0,0,1,.554.554V211.2a.554.554,0,0,1-.554.565Zm-127.6-1.108H330.593V191.62H203.548Z" transform="translate(-63.391 -28.76)" fill="#263238"/>
      <path id="Path_1085" data-name="Path 1085" d="M331.147,247.311H202.994a.554.554,0,0,1-.554-.554V226.6a.554.554,0,0,1,.554-.554H331.147a.554.554,0,0,1,.554.554v20.152A.554.554,0,0,1,331.147,247.311Zm-127.6-1.108H330.593V227.158H203.548Z" transform="translate(-63.391 -24.903)" fill="#263238"/>
      <path id="Path_1086" data-name="Path 1086" d="M242.34,205.557a2.738,2.738,0,0,1-1.6-.41,2.084,2.084,0,0,1-.754-1.164,6.951,6.951,0,0,1-.2-1.762V195.88h1.275v6.407a7.007,7.007,0,0,0,.078,1.108,1.452,1.452,0,0,0,.366.8,1.319,1.319,0,0,0,1.674,0,1.519,1.519,0,0,0,.355-.8,7.011,7.011,0,0,0,.078-1.108V195.88h1.264v6.341a6.951,6.951,0,0,1-.2,1.762,2.084,2.084,0,0,1-.754,1.164,2.649,2.649,0,0,1-1.585.41Z" transform="translate(-59.339 -28.176)" fill="#ccc"/>
      <path id="Path_1087" data-name="Path 1087" d="M247.938,205.573a2.506,2.506,0,0,1-1.375-.355,2.217,2.217,0,0,1-.842-.987,3.835,3.835,0,0,1-.321-1.452l1.175-.31a4.724,4.724,0,0,0,.166.975,1.729,1.729,0,0,0,.4.776,1.219,1.219,0,0,0,1.585,0,1.186,1.186,0,0,0,.266-.831,1.718,1.718,0,0,0-.3-1.108,6.823,6.823,0,0,0-.743-.8l-1.607-1.419a2.505,2.505,0,0,1-.7-.9,2.838,2.838,0,0,1-.222-1.208,2.139,2.139,0,0,1,.6-1.629,2.217,2.217,0,0,1,1.641-.587,3.037,3.037,0,0,1,1,.155,1.674,1.674,0,0,1,.721.454,1.984,1.984,0,0,1,.466.776,4.788,4.788,0,0,1,.233,1.108l-1.108.31a5.009,5.009,0,0,0-.133-.876,1.4,1.4,0,0,0-.377-.632,1.108,1.108,0,0,0-1.818.809,1.542,1.542,0,0,0,.155.721,2.151,2.151,0,0,0,.477.576l1.618,1.419a5.266,5.266,0,0,1,.953,1.108,2.827,2.827,0,0,1,.421,1.552,2.339,2.339,0,0,1-.3,1.219,1.974,1.974,0,0,1-.809.787,2.439,2.439,0,0,1-1.219.344Z" transform="translate(-58.73 -28.192)" fill="#ccc"/>
      <path id="Path_1088" data-name="Path 1088" d="M250.69,205.446V195.88h3.669v.987h-2.328v3.17h1.929v.942h-1.929v3.514h2.394v.953Z" transform="translate(-58.156 -28.176)" fill="#ccc"/>
      <path id="Path_1089" data-name="Path 1089" d="M255,205.447V195.88h1.929a4.134,4.134,0,0,1,1.585.255,1.785,1.785,0,0,1,.92.809,3,3,0,0,1,.31,1.474,4.056,4.056,0,0,1-.122,1.009,1.984,1.984,0,0,1-.377.765,1.419,1.419,0,0,1-.687.454l1.363,4.8h-1.264l-1.253-4.434h-1.031v4.434ZM256.341,200h.5a2.45,2.45,0,0,0,.931-.144.887.887,0,0,0,.554-.521,2.217,2.217,0,0,0,.166-.953,1.929,1.929,0,0,0-.3-1.208,1.53,1.53,0,0,0-1.219-.377h-.587Z" transform="translate(-57.689 -28.177)" fill="#ccc"/>
      <path id="Path_1090" data-name="Path 1090" d="M260.56,205.446V195.88h.92l2.716,6.352V195.88H265.3v9.566h-.854l-2.749-6.529v6.529Z" transform="translate(-57.085 -28.176)" fill="#ccc"/>
      <path id="Path_1091" data-name="Path 1091" d="M265.72,205.446l2.04-9.566h1.286l2.04,9.566h-1.264l-.432-2.405h-1.951l-.466,2.405Zm1.9-3.325h1.6l-.809-4.312Z" transform="translate(-56.526 -28.176)" fill="#ccc"/>
      <path id="Path_1092" data-name="Path 1092" d="M271.42,205.446l.177-9.566h1.308l1.685,7.759,1.707-7.759h1.308l.177,9.566h-1.108l-.111-6.95-1.618,6.95h-.754l-1.607-6.95-.1,6.95Z" transform="translate(-55.907 -28.176)" fill="#ccc"/>
      <path id="Path_1093" data-name="Path 1093" d="M278.47,205.446V195.88h3.713v.987h-2.372v3.17h1.918v.942h-1.918v3.514h2.394v.953Z" transform="translate(-55.142 -28.176)" fill="#ccc"/>
      <path id="Path_1094" data-name="Path 1094" d="M239,241.178V231.6h2.372a2.605,2.605,0,0,1,1.375.31,1.8,1.8,0,0,1,.754.909,3.857,3.857,0,0,1,.233,1.43,2.993,2.993,0,0,1-.266,1.308,1.9,1.9,0,0,1-.787.854,2.439,2.439,0,0,1-1.3.31h-1.108v4.434Zm1.33-5.421h.61a2.882,2.882,0,0,0,.92-.122.854.854,0,0,0,.466-.454,2.316,2.316,0,0,0,.144-.92,4.257,4.257,0,0,0-.1-1.053.754.754,0,0,0-.421-.51,2.682,2.682,0,0,0-.987-.144h-.632Z" transform="translate(-59.424 -24.301)" fill="#ccc"/>
      <path id="Path_1095" data-name="Path 1095" d="M243.27,241.177,245.3,231.6h1.286l2.051,9.577H247.4l-.443-2.417H245.01l-.454,2.417Zm1.884-3.325h1.6l-.8-4.312Z" transform="translate(-58.961 -24.301)" fill="#ccc"/>
      <path id="Path_1096" data-name="Path 1096" d="M251.248,241.286a2.5,2.5,0,0,1-1.375-.355,2.217,2.217,0,0,1-.831-.975,3.946,3.946,0,0,1-.333-1.463l1.175-.31a4.721,4.721,0,0,0,.166.975,1.673,1.673,0,0,0,.4.776,1.219,1.219,0,0,0,1.585,0,1.175,1.175,0,0,0,.266-.831,1.663,1.663,0,0,0-.3-1.042,5.431,5.431,0,0,0-.743-.8l-1.607-1.419a2.816,2.816,0,0,1-.7-.909,2.982,2.982,0,0,1-.222-1.208,2.038,2.038,0,0,1,2.239-2.206,3.048,3.048,0,0,1,1,.144,1.674,1.674,0,0,1,.721.454,2.074,2.074,0,0,1,.466.776,4.789,4.789,0,0,1,.233,1.108l-1.108.31a5.044,5.044,0,0,0-.133-.865,1.375,1.375,0,0,0-.377-.643,1.109,1.109,0,0,0-.765-.244.953.953,0,0,0-1.109,1.109,1.541,1.541,0,0,0,.155.721,2,2,0,0,0,.477.576l1.618,1.419a5.265,5.265,0,0,1,.953,1.109,2.849,2.849,0,0,1,.421,1.552,2.406,2.406,0,0,1-.3,1.23,2.051,2.051,0,0,1-.809.787,2.56,2.56,0,0,1-1.164.222Z" transform="translate(-58.371 -24.31)" fill="#ccc"/>
      <path id="Path_1097" data-name="Path 1097" d="M256.308,241.286a2.5,2.5,0,0,1-1.375-.355,2.217,2.217,0,0,1-.831-.975,4.179,4.179,0,0,1-.333-1.463l1.175-.31a5.6,5.6,0,0,0,.166.975,1.685,1.685,0,0,0,.41.776,1.2,1.2,0,0,0,1.574,0,1.175,1.175,0,0,0,.266-.831,1.663,1.663,0,0,0-.3-1.042,5.431,5.431,0,0,0-.743-.8l-1.607-1.419a2.816,2.816,0,0,1-.7-.909,2.982,2.982,0,0,1-.222-1.208,2.217,2.217,0,0,1,.6-1.629,2.3,2.3,0,0,1,1.652-.576,3.049,3.049,0,0,1,1,.144,1.74,1.74,0,0,1,.72.454,2.217,2.217,0,0,1,.455.776,4.257,4.257,0,0,1,.233,1.109l-1.108.31a5.021,5.021,0,0,0-.144-.865,1.374,1.374,0,0,0-.377-.643,1.275,1.275,0,0,0-1.53.022,1.031,1.031,0,0,0-.277.787,1.542,1.542,0,0,0,.144.72,2,2,0,0,0,.477.576l1.618,1.419a5.309,5.309,0,0,1,.964,1.109,2.949,2.949,0,0,1,.41,1.552,2.406,2.406,0,0,1-.3,1.23,2.051,2.051,0,0,1-.809.787,2.527,2.527,0,0,1-1.208.277Z" transform="translate(-57.822 -24.31)" fill="#ccc"/>
      <path id="Path_1098" data-name="Path 1098" d="M260.343,241.177,258.78,231.6h1.108l1.031,6.873,1.286-6.839h.942l1.308,6.884,1-6.917h1.108l-1.53,9.577h-.975l-1.33-7.094-1.352,7.094Z" transform="translate(-57.278 -24.301)" fill="#ccc"/>
      <path id="Path_1099" data-name="Path 1099" d="M269.257,241.287a2.793,2.793,0,0,1-1.552-.377,2.051,2.051,0,0,1-.82-1.108,4.855,4.855,0,0,1-.255-1.641v-3.636a4.722,4.722,0,0,1,.255-1.618,2.006,2.006,0,0,1,.831-1.042,2.837,2.837,0,0,1,1.541-.355,2.793,2.793,0,0,1,1.53.366,2.073,2.073,0,0,1,.831,1.031,4.732,4.732,0,0,1,.244,1.618v3.647a4.844,4.844,0,0,1-.244,1.629,2.139,2.139,0,0,1-.831,1.108,2.605,2.605,0,0,1-1.53.377Zm0-1.108a1.186,1.186,0,0,0,.8-.222.986.986,0,0,0,.366-.61,3.867,3.867,0,0,0,.1-.931v-4.146a3.705,3.705,0,0,0-.1-.92.931.931,0,0,0-.366-.587,1.319,1.319,0,0,0-.8-.211,1.386,1.386,0,0,0-.809.211,1,1,0,0,0-.377.587,4.431,4.431,0,0,0-.089.92v4.19a4.581,4.581,0,0,0,.089.931,1.109,1.109,0,0,0,.377.61,1.23,1.23,0,0,0,.809.233Z" transform="translate(-56.427 -24.311)" fill="#ccc"/>
      <path id="Path_1100" data-name="Path 1100" d="M272.5,241.178V231.6h1.929a4.245,4.245,0,0,1,1.574.255,1.74,1.74,0,0,1,.931.82,3.093,3.093,0,0,1,.3,1.463,4.014,4.014,0,0,1-.111,1.009,2.028,2.028,0,0,1-.377.776,1.563,1.563,0,0,1-.687.454l1.352,4.8h-1.286l-1.253-4.5H273.83v4.5Zm1.33-5.454h.51a2.394,2.394,0,0,0,.92-.144.92.92,0,0,0,.521-.477,2.283,2.283,0,0,0,.166-.964,1.862,1.862,0,0,0-.31-1.208,1.541,1.541,0,0,0-1.208-.377h-.6Z" transform="translate(-55.79 -24.301)" fill="#ccc"/>
      <path id="Path_1101" data-name="Path 1101" d="M278,241.178V231.6h2.084a3.769,3.769,0,0,1,1.685.321,1.951,1.951,0,0,1,.887.975,4.313,4.313,0,0,1,.255,1.618v3.525a4.879,4.879,0,0,1-.255,1.718,2.1,2.1,0,0,1-.865,1.053,3.059,3.059,0,0,1-1.607.366Zm1.33-.964h.765a1.541,1.541,0,0,0,1.042-.277,1.319,1.319,0,0,0,.366-.831,11.017,11.017,0,0,0,.067-1.308v-3.115a5.81,5.81,0,0,0-.1-1.2.987.987,0,0,0-.41-.676,1.807,1.807,0,0,0-1-.211h-.732Z" transform="translate(-55.193 -24.301)" fill="#ccc"/>
      <path id="Path_1102" data-name="Path 1102" d="M242.49,178.929V163.41h2.162v13.956H248.6v1.541Z" transform="translate(-59.046 -31.699)" fill="#263238"/>
      <path id="Path_1103" data-name="Path 1103" d="M253.235,179.121a4.434,4.434,0,0,1-2.505-.61,3.325,3.325,0,0,1-1.341-1.751,8.1,8.1,0,0,1-.388-2.7V168.18a7.482,7.482,0,0,1,.421-2.638,3.325,3.325,0,0,1,1.33-1.685,4.689,4.689,0,0,1,2.505-.576,4.5,4.5,0,0,1,2.483.588,3.259,3.259,0,0,1,1.33,1.685,7.427,7.427,0,0,1,.41,2.627v5.875a7.692,7.692,0,0,1-.41,2.649,3.425,3.425,0,0,1-1.33,1.751,4.434,4.434,0,0,1-2.505.665Zm0-1.707a1.973,1.973,0,0,0,1.3-.355,1.7,1.7,0,0,0,.6-1,6.538,6.538,0,0,0,.155-1.5v-6.8a6.43,6.43,0,0,0-.155-1.485,1.618,1.618,0,0,0-.6-.953,2.106,2.106,0,0,0-1.3-.333,2.217,2.217,0,0,0-1.308.333,1.585,1.585,0,0,0-.61.953,6.429,6.429,0,0,0-.155,1.485v6.8a6.54,6.54,0,0,0,.155,1.5,1.651,1.651,0,0,0,.61,1,2.017,2.017,0,0,0,1.308.321Z" transform="translate(-58.34 -31.714)" fill="#263238"/>
      <path id="Path_1104" data-name="Path 1104" d="M262.281,179.14a3.946,3.946,0,0,1-2.328-.621,3.436,3.436,0,0,1-1.264-1.818,8.966,8.966,0,0,1-.4-2.849v-5.188a10.508,10.508,0,0,1,.355-2.9,3.325,3.325,0,0,1,1.264-1.818,4.434,4.434,0,0,1,2.538-.632,4.811,4.811,0,0,1,2.35.488,2.838,2.838,0,0,1,1.286,1.485,6.973,6.973,0,0,1,.4,2.538v.576h-2.029v-.477a8.525,8.525,0,0,0-.133-1.663,1.541,1.541,0,0,0-.543-.953,2.117,2.117,0,0,0-1.286-.31,1.918,1.918,0,0,0-1.4.432,2.062,2.062,0,0,0-.532,1.2,13.154,13.154,0,0,0-.111,1.718v5.709a8.655,8.655,0,0,0,.166,1.851,1.873,1.873,0,0,0,.621,1.108,2.062,2.062,0,0,0,1.308.366,1.907,1.907,0,0,0,1.3-.4,2.084,2.084,0,0,0,.632-1.186,8.8,8.8,0,0,0,.177-1.951v-1.108H262.68V171.2H266.6v7.671H265.24l-.211-1.774a3.259,3.259,0,0,1-.953,1.419A2.694,2.694,0,0,1,262.281,179.14Z" transform="translate(-57.332 -31.711)" fill="#263238"/>
      <path id="Path_1105" data-name="Path 1105" d="M267.89,178.929V163.41h2.128v15.519Z" transform="translate(-56.29 -31.699)" fill="#263238"/>
      <path id="Path_1106" data-name="Path 1106" d="M272.07,178.929V163.41h1.474l4.434,10.3v-10.3h1.774v15.519h-1.386l-4.434-10.586v10.586Z" transform="translate(-55.837 -31.699)" fill="#263238"/>
    </g>
    <g id="freepik--Plant--inject-74" transform="translate(400.664 388.438)">
      <path id="Path_1107" data-name="Path 1107" d="M365.707,369.787a16.949,16.949,0,0,0,4.922.543s-.743-2.284-.809-2.428c-.776-1.607-3.192-4.257-5.166-3.991a2.361,2.361,0,0,0-1.9,2.96,4.922,4.922,0,0,0,2.949,2.915Z" transform="translate(-362.673 -353.796)" fill="#263238"/>
      <path id="Path_1108" data-name="Path 1108" d="M366.889,380.9a16.45,16.45,0,0,0,4.844-.754,43.108,43.108,0,0,0,1.9,5.232c.432,1,.9,1.984,1.375,2.971l-.588-.842c-1.164-1.341-4.2-3.259-6.041-2.483a2.372,2.372,0,0,0-1.042,3.325,4.911,4.911,0,0,0,3.614,2.029,15.772,15.772,0,0,0,4.709-.72l.567,1.108c.9,1.807,1.807,3.592,2.649,5.376.3.632.565,1.264.831,1.9-.255-.377-.466-.687-.51-.732-1.164-1.341-4.2-3.259-6.03-2.472a2.35,2.35,0,0,0-1.042,3.325,4.91,4.91,0,0,0,3.614,2.029,15.03,15.03,0,0,0,4.589-.687c.255.654.51,1.308.732,1.951.144.443.31.865.421,1.308s.244.9.366,1.33c.211.854.421,1.729.6,2.561.133.587.244,1.108.355,1.7-.277-.632-.876-1.851-.931-1.94-.942-1.508-3.658-3.869-5.542-3.325a2.35,2.35,0,0,0-1.541,3.148,4.933,4.933,0,0,0,3.259,2.561,16.715,16.715,0,0,0,4.888,0c.177.92.355,1.818.5,2.671.333,1.884.587,3.58.776,5.01h1.308c-.233-1.485-.532-3.248-.92-5.221-.188-.942-.4-1.94-.632-2.971A24.746,24.746,0,0,0,386.687,407a17.446,17.446,0,0,0,3.968,2.561c-.355.865-.709,1.718-1.108,2.505-.721,1.663-1.408,3.137-2.006,4.434h1.408c.521-1.164,1.108-2.483,1.685-3.935.366-.887.743-1.84,1.108-2.827a16.216,16.216,0,0,0,4.866.377,4.911,4.911,0,0,0,3.447-2.306,2.361,2.361,0,0,0-1.308-3.259c-1.884-.632-4.767,1.508-5.82,2.949-.067.078-.643,1.108-.987,1.707.144-.41.3-.8.443-1.208.3-.82.576-1.652.876-2.549.133-.432.266-.865.4-1.319s.233-.909.355-1.375c.255-1.108.466-2.217.654-3.325a15.119,15.119,0,0,0,4.622,1.109,4.877,4.877,0,0,0,3.747-1.763,2.35,2.35,0,0,0-.787-3.414c-1.774-.909-4.944.776-6.208,2.029-.078.078-.887,1.108-1.308,1.641.1-.676.211-1.352.3-2.029.244-1.973.432-3.979.621-5.986.066-.61.133-1.219.188-1.829a16.849,16.849,0,0,0,4.778,1.109,4.955,4.955,0,0,0,3.758-1.763,2.35,2.35,0,0,0-.787-3.414c-1.774-.92-4.944.765-6.208,2.018-.1.1-1.253,1.541-1.53,1.918.144-1.341.3-2.683.51-3.991a41.387,41.387,0,0,1,1.108-5.265,16.626,16.626,0,0,0,4.811,1.108,4.877,4.877,0,0,0,3.747-1.762,2.35,2.35,0,0,0-.787-3.414c-1.774-.909-4.944.776-6.208,2.029-.1.1-1.341,1.652-1.541,1.951a.467.467,0,0,1,.078-.31,29.667,29.667,0,0,1,2.084-4.977c.454-.887.931-1.707,1.419-2.494a16.073,16.073,0,0,0,4.556,1.6,4.911,4.911,0,0,0,3.924-1.33,2.361,2.361,0,0,0-.41-3.492c-1.663-1.108-5,.222-6.4,1.33l-1.275,1.275c.222-.355.454-.721.676-1.053.831-1.253,1.674-2.35,2.428-3.326.432-.554.831-1.031,1.208-1.485a15.862,15.862,0,0,0,4.755-.676,4.922,4.922,0,0,0,2.86-2.993,2.35,2.35,0,0,0-1.962-2.9c-1.984-.211-4.334,2.505-5.066,4.124-.055.144-.787,2.45-.743,2.45h0c-.366.432-.765.887-1.186,1.4-.776.953-1.652,2.04-2.505,3.325a41.639,41.639,0,0,0-2.6,4.135,30.71,30.71,0,0,0-2.217,5v-2.284c-.233-1.762-1.707-5.033-3.669-5.4a2.361,2.361,0,0,0-2.716,2.217,4.911,4.911,0,0,0,1.884,3.691,16.528,16.528,0,0,0,4.434,2.04,41.885,41.885,0,0,0-1.308,5.409c-.188,1.109-.344,2.15-.5,3.237v-1.02c-.233-1.774-1.707-5.044-3.669-5.409A2.361,2.361,0,0,0,388.86,384a4.922,4.922,0,0,0,1.9,3.691,16.041,16.041,0,0,0,4.334,2.006l-.166,1.242c-.233,2.006-.466,4-.754,5.953-.1.687-.222,1.352-.344,2.029v-.887c-.233-1.763-1.707-5.033-3.669-5.4a2.361,2.361,0,0,0-2.716,2.217,4.922,4.922,0,0,0,1.9,3.691,15.42,15.42,0,0,0,4.2,1.962c-.144.687-.288,1.375-.454,2.029-.133.454-.222.887-.377,1.33s-.277.876-.421,1.308c-.3.82-.6,1.674-.92,2.472-.211.554-.421,1.108-.632,1.607.1-.687.288-2.029.288-2.139a9.022,9.022,0,0,0-1.23-4.434,2.741,2.741,0,0,0,0-.521,2.361,2.361,0,0,0-2.893-2c-1.918.51-3.137,3.891-3.237,5.664,0,.111.066,1.253.122,1.973-.1-.421-.188-.831-.288-1.264-.2-.842-.432-1.7-.665-2.594l-.4-1.319c-.133-.443-.31-.9-.466-1.352-.388-1.042-.82-2.073-1.286-3.1a15.717,15.717,0,0,0,4.434-1.674,4.9,4.9,0,0,0,2.162-3.536,2.35,2.35,0,0,0-2.549-2.405c-1.984.211-3.7,3.325-4.057,5.11,0,.111-.144,1.386-.188,2.084-.288-.61-.565-1.23-.876-1.851-.876-1.785-1.829-3.558-2.771-5.332l-.854-1.641a16.183,16.183,0,0,0,4.6-1.7,4.944,4.944,0,0,0,2.162-3.547,2.35,2.35,0,0,0-2.549-2.405c-1.973.211-3.691,3.326-4.057,5.11,0,.133-.188,1.973-.211,2.439-.621-1.2-1.23-2.405-1.785-3.614a41.848,41.848,0,0,1-1.951-5.021,16.3,16.3,0,0,0,4.634-1.707,4.922,4.922,0,0,0,2.161-3.536,2.361,2.361,0,0,0-2.538-2.417c-1.984.222-3.7,3.325-4.057,5.11,0,.144-.211,2.117-.222,2.483a1.057,1.057,0,0,0-.1-.3,30.45,30.45,0,0,1-1.009-5.3c-.111-1-.155-1.94-.188-2.871a15.788,15.788,0,0,0,4.678-1.175,4.955,4.955,0,0,0,2.539-3.325,2.372,2.372,0,0,0-2.272-2.683c-1.984,0-4.046,2.949-4.589,4.645,0,.089-.233,1.053-.366,1.763v-1.253c0-1.508.1-2.882.2-4.1.055-.7.122-1.319.188-1.907a16.072,16.072,0,0,0,3.591-3.181,4.966,4.966,0,0,0,.743-4.079,2.361,2.361,0,0,0-3.259-1.33c-1.774.92-2.217,4.434-1.94,6.23,0,.155.687,2.483.721,2.461h0c-.078.565-.155,1.108-.222,1.829-.122,1.219-.244,2.594-.277,4.112a40.786,40.786,0,0,0,.111,4.877,30.025,30.025,0,0,0,.909,5.4v.055c-.31-.488-1.23-1.84-1.308-1.929-1.164-1.352-4.212-3.259-6.041-2.483a2.361,2.361,0,0,0-1.042,3.325,4.911,4.911,0,0,0,3.658,2Z" transform="translate(-362.647 -354.785)" fill="#263238"/>
      <path id="Path_1109" data-name="Path 1109" d="M397.778,370.767s.643-2.317.654-2.472c.255-1.762-.31-5.31-2.106-6.174a2.35,2.35,0,0,0-3.2,1.419,4.877,4.877,0,0,0,.854,4.057,16.771,16.771,0,0,0,3.8,3.17Z" transform="translate(-359.384 -354.011)" fill="#263238"/>
      <path id="Path_1110" data-name="Path 1110" d="M392.272,408.19H377.44l1.474,34.319h11.872Z" transform="translate(-361.071 -348.991)" fill="#263238"/>
    </g>
    <g id="freepik--Table--inject-74" transform="translate(252.555 482.389)">
      <rect id="Rectangle_370" data-name="Rectangle 370" width="192.013" height="37.201" transform="translate(6.208 0.587)" fill="#fff"/>
      <path id="Path_1111" data-name="Path 1111" d="M426.727,477.879H234.714a.554.554,0,0,1-.554-.554v-37.2a.554.554,0,0,1,.554-.554H426.727a.554.554,0,0,1,.554.554v37.2A.554.554,0,0,1,426.727,477.879Zm-191.459-1.108h190.9V440.679h-190.9Z" transform="translate(-228.507 -439.537)" fill="#263238"/>
      <rect id="Rectangle_371" data-name="Rectangle 371" width="192.013" height="12.415" transform="translate(6.208 0.587)" fill="#263238"/>
      <path id="Path_1112" data-name="Path 1112" d="M426.727,453.094H234.714a.554.554,0,0,1-.554-.554V440.124a.554.554,0,0,1,.554-.554H426.727a.554.554,0,0,1,.554.554v12.415A.554.554,0,0,1,426.727,453.094Zm-191.459-1.108h190.9V440.678h-190.9Z" transform="translate(-228.507 -439.537)" fill="#263238"/>
      <rect id="Rectangle_372" data-name="Rectangle 372" width="203.319" height="6.618" transform="translate(0.554 0.587)" fill="#fff"/>
      <path id="Path_1113" data-name="Path 1113" d="M432.956,447.3H229.614a.554.554,0,0,1-.554-.554v-6.651a.554.554,0,0,1,.554-.554H432.956a.554.554,0,0,1,.554.554v6.651A.554.554,0,0,1,432.956,447.3Zm-202.765-1.108H432.379v-5.542H230.169Z" transform="translate(-229.06 -439.54)" fill="#263238"/>
    </g>
    <g id="freepik--Device--inject-74" transform="translate(273.971 347.994)">
      <path id="Path_1114" data-name="Path 1114" d="M352.118,434.69l-23.977-59.681a1.663,1.663,0,1,0-3.026,1.242l23.966,59.681a6.2,6.2,0,0,1,.421,2.394,6.407,6.407,0,0,1-6.385,6.4H323.94v3.326h19.177a9.721,9.721,0,0,0,9.71-9.721,9.621,9.621,0,0,0-.709-3.636Z" transform="translate(-240.182 -312.289)" fill="#263238"/>
      <rect id="Rectangle_373" data-name="Rectangle 373" width="6.372" height="114.042" transform="translate(88.687 3.042) rotate(5.711)" fill="#fff"/>
      <path id="Path_1115" data-name="Path 1115" d="M323.913,432.951h-.055l-6.318-.621a.554.554,0,0,1-.377-.2.6.6,0,0,1-.122-.41L328.125,318.8a.565.565,0,0,1,.6-.5l6.318.621a.51.51,0,0,1,.377.2.576.576,0,0,1,.122.4L324.456,432.453a.543.543,0,0,1-.543.5Zm-5.72-1.674,5.221.51L334.4,319.963l-5.221-.51Z" transform="translate(-240.931 -318.299)" fill="#263238"/>
      <path id="Path_1116" data-name="Path 1116" d="M310.811,434.55l-61.931,2.727v3.115h61.931Z" transform="translate(-248.326 -305.687)" fill="#fff"/>
      <path id="Path_1117" data-name="Path 1117" d="M310.866,441H248.934a.554.554,0,0,1-.554-.554v-3.126a.554.554,0,0,1,.532-.554l61.931-2.727a.55.55,0,0,1,.576.554v5.842a.554.554,0,0,1-.554.565Zm-61.377-1.108h60.823v-4.711l-60.823,2.683Z" transform="translate(-248.38 -305.742)" fill="#263238"/>
    </g>
    <g id="freepik--Character--inject-74" transform="translate(131.879 291.007)">
      <path id="Path_1118" data-name="Path 1118" d="M147.968,438.286l-5.808,47.987h98.1L210.82,472.117s2.949-4.124,3.237-6.784-7.759-17.159-8.491-18.467l-.654-4.367s-1.408-20.651-.6-24.664,2.8-13.435-1.208-24.065-14.41-28.876-14.41-28.876l-31.038-9.023s-14.233,19.654-11.628,40.5a314.814,314.814,0,0,1,1.94,41.912Z" transform="translate(-117.812 -257.236)" fill="#b2b2b2"/>
      <path id="Path_1119" data-name="Path 1119" d="M240.315,486.871h-98.1a.543.543,0,0,1-.543-.621l5.8-47.964a317.279,317.279,0,0,0-2.006-41.79c-2.6-20.829,11.584-40.7,11.728-40.9a.587.587,0,0,1,.61-.211l31.038,9.023a.543.543,0,0,1,.321.266c.1.177,10.5,18.4,14.477,28.954s2.084,20.075,1.275,24.132v.233c-.787,3.891.587,24.309.61,24.509l.632,4.223c2.139,3.869,8.8,16.184,8.513,18.722-.244,2.217-2.15,5.265-2.971,6.507l28.821,13.867a.554.554,0,0,1-.244,1.053Zm-97.47-1.108h95.042l-27.258-13.1a.566.566,0,0,1-.3-.355.632.632,0,0,1,.089-.466s2.871-4.035,3.148-6.518c.177-1.652-4.246-10.564-8.436-18.146a.933.933,0,0,1,0-.188l-.665-4.367c-.055-.887-1.4-20.817-.588-24.852v-.222c.787-3.968,2.649-13.3-1.23-23.533-3.725-9.877-13.158-26.6-14.288-28.6l-30.484-8.868c-1.785,2.6-13.679,20.817-11.307,39.784a319.4,319.4,0,0,1,2.017,41.99h0Zm5.177-47.432Z" transform="translate(-117.866 -257.291)" fill="#263238"/>
      <path id="Path_1120" data-name="Path 1120" d="M235.933,474.9,206.491,460.74,182.06,474.9Z" transform="translate(-113.483 -245.858)" fill="#263238"/>
      <path id="Path_1121" data-name="Path 1121" d="M235.986,475.492H182.114a.554.554,0,0,1-.277-1.031l24.387-14.155a.576.576,0,0,1,.521,0l29.442,14.155a.554.554,0,0,1-.244,1.053Zm-51.811-1.108h49.383l-26.992-12.969Z" transform="translate(-113.537 -245.912)" fill="#263238"/>
      <line id="Line_243" data-name="Line 243" x1="39.518" y2="11.506" transform="translate(53.49 214.882)" fill="#fff"/>
      <path id="Path_1122" data-name="Path 1122" d="M168.512,472.854a.56.56,0,0,1-.155-1.109l39.562-11.484a.565.565,0,0,1,.687.377.554.554,0,0,1-.377.687l-39.562,11.506Z" transform="translate(-115.022 -245.912)" fill="#263238"/>
      <line id="Line_244" data-name="Line 244" x1="8.258" y2="6.784" transform="translate(51.428 221.378)" fill="#fff"/>
      <path id="Path_1123" data-name="Path 1123" d="M166.645,473.993a.565.565,0,0,1-.432-.211.543.543,0,0,1,.078-.776l8.258-6.784a.554.554,0,0,1,.776.078.543.543,0,0,1-.078.776l-8.258,6.784A.521.521,0,0,1,166.645,473.993Z" transform="translate(-115.217 -245.277)" fill="#263238"/>
      <path id="Path_1124" data-name="Path 1124" d="M208.679,299.952a45.8,45.8,0,0,1,2.439,11.539c.665,7.128-.743,11.018,1.042,13.213s3.547,2.782,2.505,5.1-5.443,3.869-5.443,3.869-4.2,9.444-6.729,12.415-12.094,0-12.094,0l-3.259,10.143-22.27-10.775,2.882-10.375-4.434-13.568S173.5,291.306,208.679,299.952Z" transform="translate(-115.516 -263.471)" fill="#fff"/>
      <path id="Path_1125" data-name="Path 1125" d="M187.2,356.759a.6.6,0,0,1-.244,0l-22.27-10.775a.554.554,0,0,1-.3-.643l2.849-10.22-4.434-13.4a.643.643,0,0,1,0-.355c.1-.31,10.752-30.583,46.025-21.871a.565.565,0,0,1,.377.333,45.591,45.591,0,0,1,2.472,11.695,52.644,52.644,0,0,1,.144,7.3c-.078,2.683-.133,4.434.787,5.609a18.429,18.429,0,0,0,1.3,1.4c1.186,1.186,2.217,2.217,1.275,4.279s-4.578,3.713-5.542,4.079c-.654,1.452-4.356,9.544-6.717,12.326s-9.976.931-12.193.288l-3.1,9.622a.532.532,0,0,1-.31.344A.478.478,0,0,1,187.2,356.759Zm-21.616-11.617,21.283,10.287,3.071-9.544a.543.543,0,0,1,.687-.355c2.572.809,9.633,2.417,11.506.211,2.439-2.871,6.6-12.193,6.651-12.271a.565.565,0,0,1,.321-.3c1.164-.41,4.345-1.862,5.121-3.58.621-1.363.1-1.884-1.108-3.026-.41-.421-.887-.9-1.363-1.485-1.186-1.463-1.108-3.514-1.042-6.352a53.872,53.872,0,0,0-.133-7.161,47.189,47.189,0,0,0-2.306-11.085c-33.055-7.992-43.409,18.4-44.34,21.061l4.434,13.391a.532.532,0,0,1,0,.321Z" transform="translate(-115.575 -263.523)" fill="#263238"/>
      <path id="Path_1126" data-name="Path 1126" d="M188.221,341.633l-4.811-2.583,2.516,8.17Z" transform="translate(-113.337 -259.06)" fill="#263238"/>
      <path id="Path_1127" data-name="Path 1127" d="M185.978,347.828h0a.554.554,0,0,1-.51-.4l-2.516-8.158a.576.576,0,0,1,.177-.6.554.554,0,0,1,.621-.055l4.811,2.583a.554.554,0,0,1,.255.7l-2.306,5.542a.565.565,0,0,1-.532.388Zm-1.585-7.6,1.663,5.409,1.519-3.691Z" transform="translate(-113.389 -259.115)" fill="#263238"/>
      <path id="Path_1128" data-name="Path 1128" d="M200.826,333.425c-3.414,0-5.953-3.325-6.052-3.425a.554.554,0,1,1,.876-.676s2.361,3.093,5.265,2.993h0a.554.554,0,0,1,.554.543.543.543,0,0,1-.543.565Z" transform="translate(-112.119 -260.142)" fill="#263238"/>
      <path id="Path_1129" data-name="Path 1129" d="M204.257,318.067c-.166,1.541-.876,2.738-1.585,2.66s-1.175-1.386-1.009-2.926.865-2.727,1.585-2.66S204.435,316.526,204.257,318.067Z" transform="translate(-111.36 -261.655)" fill="#263238"/>
      <path id="Path_1130" data-name="Path 1130" d="M200.753,313.661a.577.577,0,0,1-.321-.1.565.565,0,0,1-.122-.776,4.611,4.611,0,0,1,3.192-1.9h0a3.47,3.47,0,0,1,2.727,1.607.554.554,0,1,1-.876.665A2.439,2.439,0,0,0,203.491,312h0a3.569,3.569,0,0,0-2.306,1.441.565.565,0,0,1-.432.222Z" transform="translate(-111.515 -262.116)" fill="#263238"/>
      <path id="Path_1131" data-name="Path 1131" d="M178.691,282.007s-17.6-1.419-22.347,9.378-4.877,25.706-2.993,30.938,7.759,13.091,10.1,15.353,6.252,3.88,9.633,2.405,7.471-7.892,8.5-12.016.421-8.025,1.441-8.114a27.1,27.1,0,0,0,7.3-.454c4.933-.909,14.865-5.321,20.274-12.825s4.434-15.863,2.383-19.1S188.978,276.01,178.691,282.007Z" transform="translate(-116.721 -265.479)" fill="#263238"/>
      <path id="Path_1132" data-name="Path 1132" d="M170.4,341.252a11.085,11.085,0,0,1-7.272-3.115c-2.483-2.35-8.369-10.364-10.242-15.574-1.973-5.542-1.785-20.441,3.015-31.348,4.645-10.575,20.74-9.855,22.713-9.721,10.409-5.853,32.512,2.128,34.9,5.831,2.217,3.492,3.037,12.193-2.394,19.731-5.321,7.36-15.264,12.049-20.629,13.036a22.934,22.934,0,0,1-6.485.477h-.787a9.6,9.6,0,0,0-.321,2.383,29.752,29.752,0,0,1-.721,5.321c-1.108,4.356-5.265,10.852-8.812,12.393a7.527,7.527,0,0,1-2.96.588Zm6.44-58.695c-4.589,0-16.295.831-19.953,9.1-4.611,10.5-4.844,25.329-2.982,30.528s7.549,12.859,9.976,15.142c2.217,2.128,5.9,3.658,9.023,2.306s7.183-7.649,8.181-11.65a28.942,28.942,0,0,0,.687-5.132c.144-2.062.233-3.325,1.242-3.4a5.543,5.543,0,0,1,1.042,0,22.745,22.745,0,0,0,6.219-.466c5.188-.953,14.787-5.487,19.953-12.6s4.434-15.242,2.372-18.479-23.7-11.085-33.554-5.387a.664.664,0,0,1-.333.078S177.971,282.558,176.84,282.558Z" transform="translate(-116.776 -265.53)" fill="#263238"/>
      <path id="Path_1133" data-name="Path 1133" d="M179.537,280.106s.211,3.858-2.217,6.219-14.676,7.349-14.676,7.349-4.024,9.666-5.542,12.537-3.192,3.5-5.1,2.494-10.7-5.742-10.109-7.493,2.516-2.971,2.572-5.376-1.685-5.221-.3-6.884a42.122,42.122,0,0,1,4.434-4.179s-2.771-8.347-.41-9.721,7.926-.587,9.367-.842,3.569-7.294,10.176-6.806a11.151,11.151,0,0,1,9.1,5.542,2.949,2.949,0,0,1,3.425,1.962A7.6,7.6,0,0,1,179.537,280.106Z" transform="translate(-117.844 -266.836)" fill="#fff"/>
      <path id="Path_1134" data-name="Path 1134" d="M153.665,309.755a3.946,3.946,0,0,1-1.873-.51c-7.4-3.88-10.9-6.651-10.387-8.158a7.76,7.76,0,0,1,1.186-2.04,5.542,5.542,0,0,0,1.363-3.215,11.351,11.351,0,0,0-.421-2.638c-.388-1.641-.8-3.325.255-4.589a37.229,37.229,0,0,1,4.246-4.013c-.654-2.051-2.483-8.591,0-9.976,1.762-1.02,4.988-.942,7.338-.887a16.477,16.477,0,0,0,2.217,0,6.462,6.462,0,0,0,1.219-1.441c1.552-2.139,4.157-5.72,9.1-5.376a11.7,11.7,0,0,1,9.356,5.542,3.381,3.381,0,0,1,3.658,2.405,7.981,7.981,0,0,1-.709,5.454,9.223,9.223,0,0,1-2.439,6.485c-2.35,2.272-12.925,6.651-14.621,7.383-.621,1.463-4.068,9.71-5.465,12.36a6.23,6.23,0,0,1-2.66,2.949,2.993,2.993,0,0,1-1.363.266Zm-.155-34.984a11.329,11.329,0,0,0-4.966.776c-1.352.787-.432,5.775.654,9.056a.554.554,0,0,1-.177.61,42.208,42.208,0,0,0-4.434,4.09c-.7.842-.388,2.139,0,3.625a12.072,12.072,0,0,1,.443,2.926,6.518,6.518,0,0,1-1.574,3.791,6.652,6.652,0,0,0-1.031,1.751c-.122.743,3.536,3.514,9.843,6.828a2.372,2.372,0,0,0,2.217.188,5.21,5.21,0,0,0,2.139-2.45c1.485-2.816,5.476-12.393,5.542-12.493a.554.554,0,0,1,.31-.3c.111,0,12.127-4.966,14.488-7.238a8.269,8.269,0,0,0,2.084-5.786.576.576,0,0,1,.078-.3,7.138,7.138,0,0,0,.687-4.733,2.361,2.361,0,0,0-2.793-1.585.554.554,0,0,1-.6-.3,10.5,10.5,0,0,0-8.646-5.265c-4.323-.321-6.651,2.838-8.114,4.922-.765,1.108-1.275,1.762-1.929,1.873a15.52,15.52,0,0,1-2.416,0A13.939,13.939,0,0,1,153.51,274.771Z" transform="translate(-117.899 -266.889)" fill="#263238"/>
      <path id="Path_1135" data-name="Path 1135" d="M161.017,275.218H160.9l-4.922-1.108a.568.568,0,0,1,.244-1.108l4.922,1.108a.558.558,0,1,1-.122,1.108Z" transform="translate(-116.362 -266.228)" fill="#263238"/>
      <path id="Path_1136" data-name="Path 1136" d="M146.4,296.467a.576.576,0,0,1-.421-.188.565.565,0,0,1,0-.787c3.126-2.727,11.351-12.881,13.756-16.971s2.062-6.651,2.062-6.651a.552.552,0,0,1,1.1-.122c0,.122.3,3.082-2.217,7.383s-10.8,14.466-13.978,17.248a.576.576,0,0,1-.3.089Z" transform="translate(-117.416 -266.415)" fill="#263238"/>
      <path id="Path_1137" data-name="Path 1137" d="M148.055,283.981a.554.554,0,0,1-.41-.931,10.808,10.808,0,0,1,10.109-3,.57.57,0,0,1-.266,1.108,9.788,9.788,0,0,0-9.023,2.683.6.6,0,0,1-.41.144Z" transform="translate(-117.233 -265.49)" fill="#263238"/>
      <path id="Path_1138" data-name="Path 1138" d="M149.815,302.451h-.089a.554.554,0,0,1-.466-.632c.454-2.993,3.481-5.6,6.984-8.6a67.617,67.617,0,0,0,5.875-5.487c5.154-5.642,12.493-14.322,12.559-14.41a.558.558,0,0,1,.854.72c-.078.089-7.416,8.779-12.592,14.41a67.008,67.008,0,0,1-5.975,5.542c-3.325,2.871-6.219,5.354-6.651,7.937A.554.554,0,0,1,149.815,302.451Z" transform="translate(-117.043 -266.213)" fill="#263238"/>
      <path id="Path_1139" data-name="Path 1139" d="M167.424,280.851a.576.576,0,0,1-.432-.211.554.554,0,0,1,.089-.776c.255-.211,6.374-5.1,10.143-1.2a.554.554,0,0,1-.8.765c-3.059-3.17-8.591,1.242-8.646,1.3A.621.621,0,0,1,167.424,280.851Z" transform="translate(-115.131 -265.775)" fill="#263238"/>
      <path id="Path_1140" data-name="Path 1140" d="M186.428,321.111s-3.88-9.267-7.959-6.873-2.915,12.6-.987,15.419,5.6.377,5.6.377" transform="translate(-114.171 -261.795)" fill="#fff"/>
      <path id="Path_1141" data-name="Path 1141" d="M180.1,331.63a3.514,3.514,0,0,1-3.026-1.6c-1.441-2.128-2.417-7.759-1.5-11.894a6.34,6.34,0,0,1,2.671-4.323,3.181,3.181,0,0,1,2.738-.288c3.325,1.109,5.9,7.172,6.008,7.427a.554.554,0,1,1-1.02.421s-2.483-5.853-5.343-6.8a2.1,2.1,0,0,0-1.829.188,5.409,5.409,0,0,0-2.139,3.614c-.842,3.791,0,9.123,1.33,11.018,1.585,2.328,4.711.321,4.844.233a.554.554,0,0,1,.61.92,6.485,6.485,0,0,1-3.348,1.075Z" transform="translate(-114.226 -261.849)" fill="#263238"/>
      <path id="Path_1142" data-name="Path 1142" d="M162.1,338.81s29.453,7.815,31.282,10.187,1.408,4.434.4,5.82a38.5,38.5,0,0,0-2.6,6.208s1.408,4.434.61,6.219a6.1,6.1,0,0,1-6.219,2.816c-2.217-.6-28.477-9.622-29.475-10.22s-1.408-5.21.6-6.651,1,.2,2.006-1.408S156.49,339.409,162.1,338.81Z" transform="translate(-116.391 -259.086)" fill="#b2b2b2"/>
      <path id="Path_1143" data-name="Path 1143" d="M186.626,370.823a4.323,4.323,0,0,1-1.109-.144c-2.306-.632-28.555-9.655-29.619-10.287-.743-.443-1.053-1.873-1.108-3.048,0-.765,0-3.325,1.663-4.5a3.148,3.148,0,0,1,1.541-.732c.067-.111.166-.277.321-.51a11.085,11.085,0,0,0,0-3.192c-.255-3.835-.632-9.622,3.791-10.1a.61.61,0,0,1,.2,0c3.037.809,29.719,7.948,31.581,10.431,2.217,2.993,1.219,5.332.41,6.474a34.9,34.9,0,0,0-2.472,5.9c.277.942,1.319,4.645.521,6.44S188.865,370.823,186.626,370.823Zm-28.61-17.614a2.859,2.859,0,0,0-.953.543c-.942.654-1.23,2.217-1.2,3.525a3.525,3.525,0,0,0,.554,2.162c.92.51,26.692,9.444,29.342,10.165a5.609,5.609,0,0,0,5.542-2.494c.587-1.319-.255-4.656-.621-5.82a.466.466,0,0,1,0-.344,37.566,37.566,0,0,1,2.683-6.363c.776-1.108,1.33-2.86-.4-5.166-1.219-1.629-19.543-6.983-30.871-9.976-3,.41-3,4.434-2.7,8.923.133,2.106.188,3.226-.2,3.846-.565.909-.7,1.109-1.2,1.02Z" transform="translate(-116.442 -259.142)" fill="#263238"/>
      <path id="Path_1144" data-name="Path 1144" d="M243.371,416.93s14.588,1.884,15.519,1.729,5.964,3.6,10.043,6.119,5.642,4.545,7.848,6.751,5.177,3.325,3.913,4.234-1.873.942-3.758.31-4.079-1.408-4.079-1.408a6.984,6.984,0,0,1-4.556.942,65.314,65.314,0,0,1-7.682-2.671,21.282,21.282,0,0,1-7.216-.477c-2.982-.931-9.1-6.584-9.1-6.584l-3.614.31-1.108-8.314Z" transform="translate(-107.243 -250.611)" fill="#fff"/>
      <path id="Path_1145" data-name="Path 1145" d="M278.9,437.113a6.86,6.86,0,0,1-2.128-.466c-1.508-.5-3.226-1.108-3.846-1.319a7.405,7.405,0,0,1-4.722.876,62.761,62.761,0,0,1-7.66-2.649,21.2,21.2,0,0,1-7.3-.51c-2.8-.887-8.059-5.542-9.123-6.54l-3.325.288a.576.576,0,0,1-.6-.477L239.08,418a.554.554,0,0,1,.421-.61l3.769-.942a.41.41,0,0,1,.2,0c5.542.709,14.61,1.818,15.375,1.729s2.217.82,6.108,3.381c1.43.953,2.915,1.951,4.312,2.8a31.1,31.1,0,0,1,6.762,5.609c.388.41.776.809,1.186,1.219a18.581,18.581,0,0,0,2.405,1.951c1.186.865,1.973,1.43,1.973,2.217a1.108,1.108,0,0,1-.521.931,3.425,3.425,0,0,1-2.173.82Zm-6.03-2.949h.188s2.217.776,4.057,1.408,2.217.554,3.259-.233c.078,0,.089-.089.089-.089a8.534,8.534,0,0,0-1.53-1.253,19.589,19.589,0,0,1-2.538-2.062l-1.2-1.242a29.4,29.4,0,0,0-6.54-5.42c-1.419-.876-2.915-1.873-4.356-2.838-2.128-1.419-4.767-3.181-5.343-3.2-.931.155-12.881-1.375-15.519-1.718l-3.192.8.964,7.294,3.082-.266a.62.62,0,0,1,.432.144c.055.055,6.052,5.542,8.868,6.474a20.44,20.44,0,0,0,6.983.443.487.487,0,0,1,.277,0,63.468,63.468,0,0,0,7.582,2.638,6.507,6.507,0,0,0,4.146-.865.477.477,0,0,1,.321-.011Z" transform="translate(-107.298 -250.664)" fill="#263238"/>
      <path id="Path_1146" data-name="Path 1146" d="M270.781,434.322a.532.532,0,0,1-.266-.066.554.554,0,0,1-.222-.754.953.953,0,0,0,.1-.854c-.432-1.175-3.137-2.217-5.31-3.015a17.946,17.946,0,0,1-3.736-1.7,27.229,27.229,0,0,0-2.372-1.652.565.565,0,0,1-.366-.521.554.554,0,0,1,.554-.554c.188,0,.344,0,2.838,1.829a17.741,17.741,0,0,0,3.481,1.563c2.627.987,5.343,2.017,5.953,3.658a2.062,2.062,0,0,1-.177,1.774A.565.565,0,0,1,270.781,434.322Z" transform="translate(-105.178 -249.713)" fill="#263238"/>
      <path id="Path_1147" data-name="Path 1147" d="M281.863,427.115s.266,2.527-.133,3.192-1.851.665-2.649-.931a13.3,13.3,0,0,1-.931-4.257Z" transform="translate(-103.058 -249.723)" fill="#fff"/>
      <path id="Path_1148" data-name="Path 1148" d="M280.93,431.371h-.066a2.694,2.694,0,0,1-2.217-1.652,13.3,13.3,0,0,1-.987-4.434v-.976l4.833,2.594v.288c.066.632.255,2.771-.211,3.536a1.529,1.529,0,0,1-1.352.643Zm-2.084-5.188a10.575,10.575,0,0,0,.776,3.037,1.631,1.631,0,0,0,1.275,1.042.5.5,0,0,0,.421-.155,7.76,7.76,0,0,0,.078-2.549Z" transform="translate(-103.112 -249.81)" fill="#263238"/>
      <path id="Path_1149" data-name="Path 1149" d="M279.483,426.975a9.134,9.134,0,0,1-1.519,2.8c-.654.421-1.962-.222-1.984-2.006a13.214,13.214,0,0,1,1.042-4.223Z" transform="translate(-103.294 -249.893)" fill="#fff"/>
      <path id="Path_1150" data-name="Path 1150" d="M277.576,430.564a1.707,1.707,0,0,1-.82-.211,2.716,2.716,0,0,1-1.275-2.472,13.645,13.645,0,0,1,1.108-4.434l.388-.9,3.2,4.434-.1.277c-.222.6-1,2.594-1.74,3.082a1.341,1.341,0,0,1-.765.222Zm-.344-5.742a10.432,10.432,0,0,0-.643,3.059,1.607,1.607,0,0,0,.687,1.5.51.51,0,0,0,.443,0,7.759,7.759,0,0,0,1.2-2.217Z" transform="translate(-103.349 -250.001)" fill="#263238"/>
      <path id="Path_1151" data-name="Path 1151" d="M281.513,424.64s2.66,2.394,2.394,4.789-2.128,1.862-2.649.266-1.108-3.458-1.108-3.458Z" transform="translate(-102.841 -249.775)" fill="#fff"/>
      <path id="Path_1152" data-name="Path 1152" d="M282.794,431.686a2.339,2.339,0,0,1-2.006-1.74c-.532-1.6-1.108-3.458-1.108-3.481l-.089-.288,1.884-2.217.432.377c.111.111,2.86,2.616,2.572,5.254-.2,1.785-1.164,2.073-1.574,2.117Zm-1.929-5.243c.166.576.576,1.951.975,3.148.222.654.676,1,1,.987s.51-.466.587-1.108c.166-1.541-1.108-3.159-1.807-3.891Z" transform="translate(-102.902 -249.848)" fill="#263238"/>
      <path id="Path_1153" data-name="Path 1153" d="M239.94,408.689s15.242-2.8,19.454-2.405,16.04,5.409,17.437,6.208,9.633,6.651,9.832,8.225a24.169,24.169,0,0,1-.41,5.01s4.013.809,2.616,2.6-4.434,1.408-6.219.809-7.626-4.434-9.023-5.01-6.418.6-10.231-.61-9.821-6.817-9.821-6.817l-12.459,3.614Z" transform="translate(-107.204 -251.77)" fill="#fff"/>
      <path id="Path_1154" data-name="Path 1154" d="M285.647,430.264a9.887,9.887,0,0,1-3.115-.543,42.891,42.891,0,0,1-5.72-3.126c-1.441-.854-2.8-1.663-3.325-1.9a9.831,9.831,0,0,0-2.971-.078,21.172,21.172,0,0,1-7.205-.51c-3.492-1.109-8.635-5.664-9.8-6.729l-12.77,3.713-1.352-12.847.51-.089c.621-.122,15.364-2.816,19.6-2.417s16.217,5.454,17.669,6.285c.587.333,9.843,6.54,10.1,8.635a20.774,20.774,0,0,1-.321,4.656c.854.233,2.361.776,2.738,1.8a1.563,1.563,0,0,1-.321,1.574,4.523,4.523,0,0,1-3.713,1.574Zm-13.435-6.817a4.369,4.369,0,0,1,1.674.233c.61.255,1.94,1.053,3.47,1.962a44.822,44.822,0,0,0,5.542,3.026c1.873.632,4.434.842,5.6-.61.244-.31.188-.454.166-.51-.2-.532-1.574-1.042-2.439-1.219l-.532-.1.089-.532a23.577,23.577,0,0,0,.4-4.855c-.177-1.2-7.759-6.751-9.555-7.759-1.375-.787-13.069-5.753-17.215-6.141-3.658-.355-16.129,1.818-18.844,2.306l1.108,10.453,12.094-3.514.233.222c0,.055,5.964,5.542,9.611,6.651a20.4,20.4,0,0,0,6.817.455C271.1,423.48,271.725,423.447,272.212,423.447Z" transform="translate(-107.264 -251.829)" fill="#263238"/>
      <path id="Path_1155" data-name="Path 1155" d="M271.2,412.9a8.047,8.047,0,0,1,4.245,2.66c2.217,2.383,7.416,9.444,7.416,9.444-5.731-.909-10.863-6.4-10.863-6.4" transform="translate(-103.812 -251.048)" fill="#fff"/>
      <path id="Path_1156" data-name="Path 1156" d="M284.11,425.825l-1.319-.211c-5.864-.931-10.985-6.341-11.2-6.573l.809-.754s4.246,4.434,9.134,5.908c-1.563-2.117-4.833-6.462-6.485-8.2a7.837,7.837,0,0,0-3.924-2.494l.144-1.109a8.58,8.58,0,0,1,4.589,2.893c2.217,2.394,7.25,9.223,7.46,9.511Z" transform="translate(-103.82 -251.104)" fill="#263238"/>
      <path id="Path_1157" data-name="Path 1157" d="M161.419,373.523s-5.809,11.229-2.6,39.307,14.41,44.517,20.851,44.717,54.538-13.634,59.36-16.45,14.41-5.609,15.031-5.808,2.217-6.019.809-13.834a90.412,90.412,0,0,0-2.217-10.231L233.8,414.637l-28.666,4.811a2.638,2.638,0,0,0-1.408-2.8,32.58,32.58,0,0,0-5.82-2.006s-5.21-35.472-16.04-44.717" transform="translate(-116.11 -255.711)" fill="#b2b2b2"/>
      <path id="Path_1158" data-name="Path 1158" d="M179.864,458.153h-.155c-6.651-.211-18.1-16.428-21.394-45.2-3.181-27.923,2.428-39.163,2.671-39.617a.554.554,0,1,1,.987.5c-.067.111-5.7,11.462-2.55,38.986,3.325,29.131,14.821,44.051,20.319,44.229,6.241.155,54.316-13.59,59.049-16.372,2.006-1.164,6.185-3.1,14.721-5.731l.333-.1c.521-.776,1.8-6.163.521-13.246-1.042-5.853-1.763-8.668-2.051-9.688l-18.357,3.325-28.677,4.811a.554.554,0,0,1-.5-.166.543.543,0,0,1-.133-.5,2.1,2.1,0,0,0-1.109-2.217,32.765,32.765,0,0,0-5.687-1.951.554.554,0,0,1-.41-.454c-.055-.355-5.31-35.394-15.851-44.34a.554.554,0,0,1,.721-.842c10.387,8.868,15.519,40.693,16.173,44.694a29.121,29.121,0,0,1,5.542,1.962,3.259,3.259,0,0,1,1.707,2.605l27.989-4.7,18.844-3.4a.565.565,0,0,1,.621.366,89.457,89.457,0,0,1,2.217,10.309c1.352,7.538,0,14.067-1.175,14.41l-.454.144c-8.436,2.594-12.526,4.489-14.477,5.631C234.358,444.551,187.025,458.153,179.864,458.153Z" transform="translate(-116.165 -255.763)" fill="#263238"/>
      <path id="Path_1159" data-name="Path 1159" d="M173.6,422.893a.565.565,0,0,1-.543-.454.554.554,0,0,1,.443-.643c6.23-1.175,22.292-11.839,22.458-11.949a.554.554,0,0,1,.61.92c-.665.443-16.406,10.908-22.857,12.116Z" transform="translate(-114.461 -251.387)" fill="#263238"/>
      <path id="Path_1160" data-name="Path 1160" d="M171.614,433.018a.532.532,0,0,1-.488-.3.554.554,0,0,1,.233-.743,37.251,37.251,0,0,0,4.434-2.716.557.557,0,1,1,.643.909,39.451,39.451,0,0,1-4.523,2.793A.51.51,0,0,1,171.614,433.018Z" transform="translate(-114.676 -249.285)" fill="#263238"/>
      <path id="Path_1161" data-name="Path 1161" d="M177.875,430.094a.588.588,0,0,1-.443-.211.565.565,0,0,1,.1-.787,138.93,138.93,0,0,0,15.851-15,.557.557,0,1,1,.831.743,140.373,140.373,0,0,1-16.007,15.131.554.554,0,0,1-.333.122Z" transform="translate(-113.998 -250.939)" fill="#263238"/>
      <path id="Path_1162" data-name="Path 1162" d="M191.874,431.152a.554.554,0,0,1-.443-.211.565.565,0,0,1,.111-.776,13.071,13.071,0,0,0,2.139-2.1.559.559,0,0,1,.865.71A14.323,14.323,0,0,1,192.217,431a.554.554,0,0,1-.344.155Z" transform="translate(-112.478 -249.425)" fill="#263238"/>
      <path id="Path_1163" data-name="Path 1163" d="M195.385,427.992a.621.621,0,0,1-.3-.089.565.565,0,0,1-.177-.765,41.59,41.59,0,0,0,4.434-10.985.569.569,0,0,1,1.109.255,42.589,42.589,0,0,1-4.611,11.318A.554.554,0,0,1,195.385,427.992Z" transform="translate(-112.098 -250.743)" fill="#263238"/>
      <path id="Path_1164" data-name="Path 1164" d="M232.392,428.557h0a.554.554,0,0,1-.532-.587c.066-1.108.089-2.283.089-3.325a.543.543,0,0,1,.543-.554.521.521,0,0,1,.565.543c0,1.108,0,2.217-.089,3.447a.543.543,0,0,1-.576.477Z" transform="translate(-108.081 -249.835)" fill="#263238"/>
      <path id="Path_1165" data-name="Path 1165" d="M232.682,422.591a.543.543,0,0,1-.543-.5c-.876-8.258-4.046-10.963-4.068-10.985a.556.556,0,1,1,.7-.865c.144.111,3.547,2.96,4.434,11.739a.554.554,0,0,1-.488.61Z" transform="translate(-108.514 -251.35)" fill="#263238"/>
      <path id="Path_1166" data-name="Path 1166" d="M146.851,482.31H128.794s-11.706-46.668-6.995-82.66a6.95,6.95,0,0,1,6.906-6.03h0a6.928,6.928,0,0,1,6.939,6.983C135.556,413.429,136.731,443.059,146.851,482.31Z" transform="translate(-120.142 -253.14)" fill="#263238"/>
      <path id="Path_1167" data-name="Path 1167" d="M146.9,482.919H128.847a.554.554,0,0,1-.532-.421c-.122-.466-11.683-47.188-7.006-82.871a7.5,7.5,0,0,1,12.77-4.29,7.416,7.416,0,0,1,2.217,5.321c-.078,13.912,1.264,43.009,11.207,81.574a.532.532,0,0,1-.1.477A.543.543,0,0,1,146.9,482.919Zm-17.636-1.108h16.916c-9.81-38.343-11.085-67.274-11.085-81.153a6.4,6.4,0,0,0-12.737-.887c-4.39,33.676,5.764,77.3,6.906,82.039Z" transform="translate(-120.195 -253.195)" fill="#263238"/>
    </g>
    <g id="freepik--Line--inject-74" transform="translate(12.5 519.623)">
      <path id="Path_1168" data-name="Path 1168" d="M535.686,474.238H13.054a.554.554,0,1,1,0-1.108H535.686a.565.565,0,0,1,.554.554A.554.554,0,0,1,535.686,474.238Z" transform="translate(-12.5 -473.13)" fill="#263238"/>
    </g>
  </g>
</svg>
