<svg xmlns="http://www.w3.org/2000/svg" width="1187.6" height="461.278" viewBox="0 0 1187.6 461.278">
  <g id="Group_22" data-name="Group 22" transform="translate(-1151.5 -593.722)">
    <g id="freepik--room-3--inject-15" transform="translate(1154.415 687.221)">
      <g id="Group_18" data-name="Group 18" transform="translate(0 138.054)" opacity="0.3">
        <rect id="Rectangle_104" data-name="Rectangle 104" width="645.191" height="113.951" rx="4.85" transform="translate(128.214 66.205)" fill="#fff" stroke="#000" stroke-linecap="round" stroke-linejoin="round" stroke-width="1"/>
        <path id="Path_5" data-name="Path 5" d="M110.5,373.1H646.364a20.8,20.8,0,0,1,20.8,20.8V553.358H89.7V393.9a20.8,20.8,0,0,1,20.8-20.8Z" transform="translate(72.38 -373.1)" fill="#fff" stroke="#000" stroke-linecap="round" stroke-linejoin="round" stroke-width="1"/>
        <rect id="Rectangle_105" data-name="Rectangle 105" width="577.435" height="73.908" transform="translate(162.08 106.248)" fill="#fff" stroke="#000" stroke-linecap="round" stroke-linejoin="round" stroke-width="1"/>
        <line id="Line_36" data-name="Line 36" x2="1180.803" transform="translate(0 180.614)" fill="none" stroke="#000" stroke-linecap="round" stroke-linejoin="round" stroke-width="1"/>
      </g>
      <g id="Group_19" data-name="Group 19" transform="translate(867.323 0)" opacity="0.3">
        <rect id="Rectangle_106" data-name="Rectangle 106" width="280.023" height="180.156" transform="translate(0 138.054)" fill="#fff" stroke="#000" stroke-linecap="round" stroke-linejoin="round" stroke-width="1"/>
        <rect id="Rectangle_107" data-name="Rectangle 107" width="120.867" height="60.561" transform="translate(11.339 153.715)" fill="#fff" stroke="#000" stroke-linecap="round" stroke-linejoin="round" stroke-width="1"/>
        <rect id="Rectangle_108" data-name="Rectangle 108" width="120.867" height="60.561" transform="translate(145.147 153.715)" fill="#fff" stroke="#000" stroke-linecap="round" stroke-linejoin="round" stroke-width="1"/>
        <rect id="Rectangle_109" data-name="Rectangle 109" width="120.867" height="60.561" transform="translate(11.339 228.513)" fill="#fff" stroke="#000" stroke-linecap="round" stroke-linejoin="round" stroke-width="1"/>
        <rect id="Rectangle_110" data-name="Rectangle 110" width="120.867" height="60.561" transform="translate(145.147 228.513)" fill="#fff" stroke="#000" stroke-linecap="round" stroke-linejoin="round" stroke-width="1"/>
        <rect id="Rectangle_111" data-name="Rectangle 111" width="280.023" height="14.619" transform="translate(0 123.435)" fill="#fff" stroke="#000" stroke-linecap="round" stroke-linejoin="round" stroke-width="1"/>
        <path id="Path_6" data-name="Path 6" d="M491.16,345.292a12.509,12.509,0,0,0-15-7.627l-9.051-10.17a6.178,6.178,0,0,0-2.034-6.509,6.611,6.611,0,0,0-4.729-2.186,6.915,6.915,0,0,0-6.839,6.915,7.041,7.041,0,0,0,.458,2.542L398.54,379.31a6.636,6.636,0,0,0-5.466-.229,6.89,6.89,0,0,0,1.576,13.271l8.161,31.958H386.286a10.525,10.525,0,0,0-10.526,10.551v8.085h64.171v-8.085a10.551,10.551,0,0,0-10.551-10.551H408.125l-8.466-33.2a6.814,6.814,0,0,0,2.873-5.594,7.2,7.2,0,0,0-.458-2.542l55.323-50.95a7.093,7.093,0,0,0,3.051.712,6.965,6.965,0,0,0,3.534-.992l7.627,8.339a12.483,12.483,0,0,0-3.763,14.11l5.441,14.136,23.416-9Z" transform="translate(-353.717 -318.8)" stroke="#000" stroke-miterlimit="10" stroke-width="1"/>
      </g>
      <g id="Group_20" data-name="Group 20" transform="translate(8.594 123.352)" opacity="0.3">
        <path id="Path_7" data-name="Path 7" d="M76.35,397.148s1.424-6.051,1.475-6.458c.458-4.551-1.3-13.678-6.026-15.763a6.127,6.127,0,0,0-8.161,3.966,12.712,12.712,0,0,0,2.542,10.424C68.52,392.6,76.35,397.148,76.35,397.148Z" transform="translate(23.211 -356.259)"/>
        <path id="Path_8" data-name="Path 8" d="M37.466,393.083c3.763,1.474,12.712.966,12.712.966s-2.161-5.848-2.339-6.2c-2.136-4.068-8.644-10.7-13.7-9.839a6.127,6.127,0,0,0-4.551,7.729,12.712,12.712,0,0,0,7.882,7.348Z" transform="translate(-29.33 -350.948)"/>
        <path id="Path_9" data-name="Path 9" d="M40.552,435.512c3.839.407,11.822-2.212,12.458-2.415a113.424,113.424,0,0,0,5.365,13.348c1.195,2.542,2.542,5.085,3.814,7.627-.763-1.042-1.475-1.983-1.576-2.085-3.127-3.381-11.161-8.06-15.839-5.873a6.1,6.1,0,0,0-2.39,8.746,12.712,12.712,0,0,0,9.534,4.932,40.121,40.121,0,0,0,12.1-2.314c.534.966,1.017,1.932,1.551,2.873,2.542,4.576,5.085,9.1,7.348,13.653.814,1.576,1.551,3.178,2.314,4.78-.686-.915-1.271-1.7-1.373-1.805-3.127-3.381-11.161-8.034-15.814-5.873a6.1,6.1,0,0,0-2.39,8.746,12.712,12.712,0,0,0,9.509,4.932,38.977,38.977,0,0,0,11.8-2.212c.712,1.678,1.449,3.331,2.085,5.085.381,1.144.864,2.186,1.195,3.356s.737,2.263,1.093,3.381c.585,2.186,1.246,4.424,1.78,6.585.381,1.475.712,2.9,1.068,4.322-.814-1.576-2.542-4.678-2.542-4.932-2.542-3.814-9.814-9.636-14.746-8.187a6.127,6.127,0,0,0-3.763,8.085,12.712,12.712,0,0,0,8.67,6.305,42.687,42.687,0,0,0,12.712-.483c.559,2.364,1.093,4.678,1.551,6.865,1.627,7.627,2.67,13.958,3.356,18.433l3.483-.127v-.407c-.763-4.5-1.983-10.932-3.788-18.56-.559-2.415-1.195-5.085-1.907-7.627a60.668,60.668,0,0,0,6.915-3.559,43.988,43.988,0,0,0,10.5,6.254c-.839,2.288-1.678,4.5-2.542,6.585-2.848,7.22-5.492,13.119-7.373,17.212H98.52c1.754-4.068,4.017-9.509,6.407-15.992.864-2.314,1.729-4.83,2.542-7.4a41.5,41.5,0,0,0,12.712.534,12.712,12.712,0,0,0,8.7-6.28,6.1,6.1,0,0,0-3.839-8.39c-4.932-1.475-12.178,4.347-14.771,8.136-.153.229-1.551,2.822-2.39,4.5l1.042-3.178c.712-2.136,1.347-4.3,2.034-6.636l.915-3.432c.305-1.144.508-2.39.788-3.61.559-2.8.992-5.67,1.373-8.568a40.217,40.217,0,0,0,12.026,2.314,12.712,12.712,0,0,0,9.534-4.78,6.051,6.051,0,0,0-2.339-8.746c-4.678-2.212-12.712,2.542-15.839,5.8-.2.2-2.187,2.847-3.254,4.348.2-1.754.432-3.509.585-5.263.458-5.085.763-10.322,1.068-15.509,0-1.6.229-3.178.331-4.754.661.2,8.593,2.848,12.458,2.542a12.712,12.712,0,0,0,9.534-4.881,6.076,6.076,0,0,0-2.364-8.746c-4.653-2.212-12.712,2.542-15.839,5.8-.229.254-3.076,4.068-3.763,5.085.254-3.483.508-6.966.941-10.373a111.608,111.608,0,0,1,2.542-13.7c.331.127,8.593,2.9,12.534,2.543a12.712,12.712,0,0,0,9.534-4.882,6.076,6.076,0,0,0-2.314-9c-4.653-2.212-12.712,2.542-15.839,5.8-.2.2-2.39,3.127-3.381,4.551l-.28-.127a78.127,78.127,0,0,1,5.085-13.093c1.093-2.339,2.263-4.5,3.432-6.585a41.921,41.921,0,0,0,11.9,3.712,12.712,12.712,0,0,0,10.017-3.814,6.076,6.076,0,0,0-1.373-8.949c-4.373-2.7-12.89,1.017-16.373,4.017-.2.152-1.958,2.034-3.2,3.407.559-.941,1.093-1.907,1.653-2.8,2.034-3.305,4.119-6.229,5.949-8.8,1.068-1.449,2.059-2.72,3-3.915a41.086,41.086,0,0,0,12.229-2.186,12.712,12.712,0,0,0,7.119-8.009,6.077,6.077,0,0,0-5.339-7.3c-5.085-.381-10.983,6.839-12.712,11.11-.153.356-1.831,6.407-1.729,6.381h0c-.915,1.144-1.907,2.364-2.949,3.737-1.907,2.542-4.042,5.39-6.178,8.67a110.9,110.9,0,0,0-6.331,10.932,79.5,79.5,0,0,0-5.263,13.094,1.629,1.629,0,0,1,0,.178c0-1.5-.229-5.72-.305-6.051-.737-4.526-4.856-12.839-9.941-13.6a6.1,6.1,0,0,0-6.839,5.975,12.712,12.712,0,0,0,5.237,9.356c2.975,2.542,11.06,4.678,11.721,4.856a108.312,108.312,0,0,0-2.9,14.11c-.381,2.771-.712,5.568-.966,8.365a16.012,16.012,0,0,0-.178-2.542c-.737-4.526-4.856-12.865-9.966-13.627a6.127,6.127,0,0,0-6.814,5.975,12.865,12.865,0,0,0,5.237,9.382,40.476,40.476,0,0,0,11.187,4.653l-.331,3.254c-.432,5.085-.839,10.373-1.4,15.432-.2,1.78-.458,3.534-.712,5.288v-2.263c-.763-4.551-4.881-12.865-9.966-13.627a6.077,6.077,0,0,0-6.814,5.975,12.712,12.712,0,0,0,5.085,9.356,38.364,38.364,0,0,0,11.06,4.678c-.331,1.78-.636,3.585-1.017,5.288-.28,1.169-.483,2.314-.839,3.458s-.661,2.314-.966,3.432c-.712,2.161-1.424,4.373-2.136,6.458-.508,1.449-1.017,2.822-1.525,4.22.229-1.78.585-5.263.559-5.568a23.492,23.492,0,0,0-3.559-11.39,8.312,8.312,0,0,0-.127-1.347,6.076,6.076,0,0,0-7.627-4.882c-4.932,1.5-7.78,10.322-7.856,14.924,0,.28.28,3.229.483,5.085-.28-1.068-.559-2.136-.864-3.229-.585-2.187-1.271-4.348-1.958-6.661l-1.144-3.356c-.381-1.144-.89-2.288-1.322-3.432-1.093-2.669-2.314-5.314-3.61-7.932a40.681,40.681,0,0,0,11.339-4.7,12.712,12.712,0,0,0,5.237-9.331,6.051,6.051,0,0,0-6.788-6c-5.085.737-9.254,9.026-10.017,13.577,0,.28-.229,3.585-.305,5.415-.788-1.576-1.551-3.153-2.415-4.729Q70.96,466.1,67.146,459.36l-2.364-4.144c.686-.178,8.771-2.364,11.746-4.805a12.712,12.712,0,0,0,5.263-9.331A6.127,6.127,0,0,0,75,435.156c-5.085.737-9.254,9.051-10.017,13.577,0,.356-.331,5.085-.331,6.331-1.729-3.051-3.407-6.076-5.085-9.153A103.126,103.126,0,0,1,54.1,433.2c.305,0,8.746-2.314,11.8-4.831a12.712,12.712,0,0,0,5.263-9.331,6.076,6.076,0,0,0-6.788-6c-5.085.737-9.254,9.051-10.017,13.577,0,.305-.254,3.941-.305,5.67h-.305a77.205,77.205,0,0,1-3.1-13.653c-.381-2.542-.585-5.085-.763-7.373A41.011,41.011,0,0,0,61.858,407.8a12.712,12.712,0,0,0,6.356-8.9,6.076,6.076,0,0,0-6.076-6.712c-5.085.178-10.17,7.983-11.466,12.407,0,.229-.483,2.746-.763,4.6,0-1.093-.153-2.212-.178-3.229-.127-3.89,0-7.475,0-10.627,0-1.805.2-3.432.331-4.958a40.425,40.425,0,0,0,9.127-8.619,12.712,12.712,0,0,0,1.551-10.6,6.127,6.127,0,0,0-8.517-3.153c-4.475,2.543-5.364,11.772-4.449,16.272,0,.381,2.034,6.331,2.11,6.28h0c-.153,1.449-.28,3.026-.407,4.729-.2,3.153-.407,6.737-.356,10.653a106.271,106.271,0,0,0,.737,12.712,78.814,78.814,0,0,0,2.847,13.831.356.356,0,0,0,0,.153c-.864-1.246-3.356-4.627-3.585-4.881-3.127-3.356-11.161-8.034-15.814-5.848a6.1,6.1,0,0,0-2.39,8.746,12.712,12.712,0,0,0,9.636,4.856Z" transform="translate(-28.374 -367.317)"/>
        <path id="Path_10" data-name="Path 10" d="M37.466,393.083c3.763,1.474,12.712.966,12.712.966s-2.161-5.848-2.339-6.2c-2.136-4.068-8.644-10.7-13.7-9.839a6.127,6.127,0,0,0-4.551,7.729,12.712,12.712,0,0,0,7.882,7.348Z" transform="translate(-29.33 -350.948)" opacity="0.3"/>
        <path id="Path_11" data-name="Path 11" d="M76.35,397.148s1.424-6.051,1.475-6.458c.458-4.551-1.3-13.678-6.026-15.763a6.127,6.127,0,0,0-8.161,3.966,12.712,12.712,0,0,0,2.542,10.424C68.52,392.6,76.35,397.148,76.35,397.148Z" transform="translate(23.211 -356.259)" opacity="0.3"/>
        <path id="Path_12" data-name="Path 12" d="M40.552,435.512c3.839.407,11.822-2.212,12.458-2.415a113.424,113.424,0,0,0,5.365,13.348c1.195,2.542,2.542,5.085,3.814,7.627-.763-1.042-1.475-1.983-1.576-2.085-3.127-3.381-11.161-8.06-15.839-5.873a6.1,6.1,0,0,0-2.39,8.746,12.712,12.712,0,0,0,9.534,4.932,40.121,40.121,0,0,0,12.1-2.314c.534.966,1.017,1.932,1.551,2.873,2.542,4.576,5.085,9.1,7.348,13.653.814,1.576,1.551,3.178,2.314,4.78-.686-.915-1.271-1.7-1.373-1.805-3.127-3.381-11.161-8.034-15.814-5.873a6.1,6.1,0,0,0-2.39,8.746,12.712,12.712,0,0,0,9.509,4.932,38.977,38.977,0,0,0,11.8-2.212c.712,1.678,1.449,3.331,2.085,5.085.381,1.144.864,2.186,1.195,3.356s.737,2.263,1.093,3.381c.585,2.186,1.246,4.424,1.78,6.585.381,1.475.712,2.9,1.068,4.322-.814-1.576-2.542-4.678-2.542-4.932-2.542-3.814-9.814-9.636-14.746-8.187a6.127,6.127,0,0,0-3.763,8.085,12.712,12.712,0,0,0,8.67,6.305,42.687,42.687,0,0,0,12.712-.483c.559,2.364,1.093,4.678,1.551,6.865,1.627,7.627,2.67,13.958,3.356,18.433l3.483-.127v-.407c-.763-4.5-1.983-10.932-3.788-18.56-.559-2.415-1.195-5.085-1.907-7.627a60.668,60.668,0,0,0,6.915-3.559,43.988,43.988,0,0,0,10.5,6.254c-.839,2.288-1.678,4.5-2.542,6.585-2.848,7.22-5.492,13.119-7.373,17.212H98.52c1.754-4.068,4.017-9.509,6.407-15.992.864-2.314,1.729-4.83,2.542-7.4a41.5,41.5,0,0,0,12.712.534,12.712,12.712,0,0,0,8.7-6.28,6.1,6.1,0,0,0-3.839-8.39c-4.932-1.475-12.178,4.347-14.771,8.136-.153.229-1.551,2.822-2.39,4.5l1.042-3.178c.712-2.136,1.347-4.3,2.034-6.636l.915-3.432c.305-1.144.508-2.39.788-3.61.559-2.8.992-5.67,1.373-8.568a40.217,40.217,0,0,0,12.026,2.314,12.712,12.712,0,0,0,9.534-4.78,6.051,6.051,0,0,0-2.339-8.746c-4.678-2.212-12.712,2.542-15.839,5.8-.2.2-2.187,2.847-3.254,4.348.2-1.754.432-3.509.585-5.263.458-5.085.763-10.322,1.068-15.509,0-1.6.229-3.178.331-4.754.661.2,8.593,2.848,12.458,2.542a12.712,12.712,0,0,0,9.534-4.881,6.076,6.076,0,0,0-2.364-8.746c-4.653-2.212-12.712,2.542-15.839,5.8-.229.254-3.076,4.068-3.763,5.085.254-3.483.508-6.966.941-10.373a111.608,111.608,0,0,1,2.542-13.7c.331.127,8.593,2.9,12.534,2.543a12.712,12.712,0,0,0,9.534-4.882,6.076,6.076,0,0,0-2.314-9c-4.653-2.212-12.712,2.542-15.839,5.8-.2.2-2.39,3.127-3.381,4.551l-.28-.127a78.127,78.127,0,0,1,5.085-13.093c1.093-2.339,2.263-4.5,3.432-6.585a41.921,41.921,0,0,0,11.9,3.712,12.712,12.712,0,0,0,10.017-3.814,6.076,6.076,0,0,0-1.373-8.949c-4.373-2.7-12.89,1.017-16.373,4.017-.2.152-1.958,2.034-3.2,3.407.559-.941,1.093-1.907,1.653-2.8,2.034-3.305,4.119-6.229,5.949-8.8,1.068-1.449,2.059-2.72,3-3.915a41.086,41.086,0,0,0,12.229-2.186,12.712,12.712,0,0,0,7.119-8.009,6.077,6.077,0,0,0-5.339-7.3c-5.085-.381-10.983,6.839-12.712,11.11-.153.356-1.831,6.407-1.729,6.381h0c-.915,1.144-1.907,2.364-2.949,3.737-1.907,2.542-4.042,5.39-6.178,8.67a110.9,110.9,0,0,0-6.331,10.932,79.5,79.5,0,0,0-5.263,13.094,1.629,1.629,0,0,1,0,.178c0-1.5-.229-5.72-.305-6.051-.737-4.526-4.856-12.839-9.941-13.6a6.1,6.1,0,0,0-6.839,5.975,12.712,12.712,0,0,0,5.237,9.356c2.975,2.542,11.06,4.678,11.721,4.856a108.312,108.312,0,0,0-2.9,14.11c-.381,2.771-.712,5.568-.966,8.365a16.012,16.012,0,0,0-.178-2.542c-.737-4.526-4.856-12.865-9.966-13.627a6.127,6.127,0,0,0-6.814,5.975,12.865,12.865,0,0,0,5.237,9.382,40.476,40.476,0,0,0,11.187,4.653l-.331,3.254c-.432,5.085-.839,10.373-1.4,15.432-.2,1.78-.458,3.534-.712,5.288v-2.263c-.763-4.551-4.881-12.865-9.966-13.627a6.077,6.077,0,0,0-6.814,5.975,12.712,12.712,0,0,0,5.085,9.356,38.364,38.364,0,0,0,11.06,4.678c-.331,1.78-.636,3.585-1.017,5.288-.28,1.169-.483,2.314-.839,3.458s-.661,2.314-.966,3.432c-.712,2.161-1.424,4.373-2.136,6.458-.508,1.449-1.017,2.822-1.525,4.22.229-1.78.585-5.263.559-5.568a23.492,23.492,0,0,0-3.559-11.39,8.312,8.312,0,0,0-.127-1.347,6.076,6.076,0,0,0-7.627-4.882c-4.932,1.5-7.78,10.322-7.856,14.924,0,.28.28,3.229.483,5.085-.28-1.068-.559-2.136-.864-3.229-.585-2.187-1.271-4.348-1.958-6.661l-1.144-3.356c-.381-1.144-.89-2.288-1.322-3.432-1.093-2.669-2.314-5.314-3.61-7.932a40.681,40.681,0,0,0,11.339-4.7,12.712,12.712,0,0,0,5.237-9.331,6.051,6.051,0,0,0-6.788-6c-5.085.737-9.254,9.026-10.017,13.577,0,.28-.229,3.585-.305,5.415-.788-1.576-1.551-3.153-2.415-4.729Q70.96,466.1,67.146,459.36l-2.364-4.144c.686-.178,8.771-2.364,11.746-4.805a12.712,12.712,0,0,0,5.263-9.331A6.127,6.127,0,0,0,75,435.156c-5.085.737-9.254,9.051-10.017,13.577,0,.356-.331,5.085-.331,6.331-1.729-3.051-3.407-6.076-5.085-9.153A103.126,103.126,0,0,1,54.1,433.2c.305,0,8.746-2.314,11.8-4.831a12.712,12.712,0,0,0,5.263-9.331,6.076,6.076,0,0,0-6.788-6c-5.085.737-9.254,9.051-10.017,13.577,0,.305-.254,3.941-.305,5.67h-.305a77.205,77.205,0,0,1-3.1-13.653c-.381-2.542-.585-5.085-.763-7.373A41.011,41.011,0,0,0,61.858,407.8a12.712,12.712,0,0,0,6.356-8.9,6.076,6.076,0,0,0-6.076-6.712c-5.085.178-10.17,7.983-11.466,12.407,0,.229-.483,2.746-.763,4.6,0-1.093-.153-2.212-.178-3.229-.127-3.89,0-7.475,0-10.627,0-1.805.2-3.432.331-4.958a40.425,40.425,0,0,0,9.127-8.619,12.712,12.712,0,0,0,1.551-10.6,6.127,6.127,0,0,0-8.517-3.153c-4.475,2.543-5.364,11.772-4.449,16.272,0,.381,2.034,6.331,2.11,6.28h0c-.153,1.449-.28,3.026-.407,4.729-.2,3.153-.407,6.737-.356,10.653a106.271,106.271,0,0,0,.737,12.712,78.814,78.814,0,0,0,2.847,13.831.356.356,0,0,0,0,.153c-.864-1.246-3.356-4.627-3.585-4.881-3.127-3.356-11.161-8.034-15.814-5.848a6.1,6.1,0,0,0-2.39,8.746,12.712,12.712,0,0,0,9.636,4.856Z" transform="translate(-28.374 -367.317)" opacity="0.3"/>
        <rect id="Rectangle_112" data-name="Rectangle 112" width="23.695" height="35.518" transform="translate(54.077 159.34)"/>
      </g>
    </g>
    <g id="freepik--plant-2--inject-15" transform="translate(2093.51 858.809)">
      <path id="Path_14" data-name="Path 14" d="M408.026,515.826s-2.542-31.3,0-50.416,14.771-26.085,15.636-34.78-4.348-17.39.89-26.085a102.755,102.755,0,0,1,15.636-18.255s-6.941,13.043-1.729,23.467,13.3,21.738,7.805,30.509-11.288,17.39-9.56,24.356,11.314,5.212,9.56,20.848-6.076,21.738-6.076,21.738l.864,8.7-29.543-.864" transform="translate(-377.466 -386.29)" fill="#0129ff" stroke="#000" stroke-linecap="round" stroke-linejoin="round" stroke-width="1"/>
      <path id="Path_15" data-name="Path 15" d="M423.592,511.291s6.178-6.483-3.839-16.271c-6.483-6.331-12.839-15.738-13.144-25.424-.152-4.805,2.034-8.619.559-13.119-1.6-4.907-6.61-8.009-7.983-13.475-2.542-10.551,4.449-20.339,5.314-23.772s0-3.585-4.7-12.89A39.025,39.025,0,0,1,395.32,389a17.543,17.543,0,0,0,12.941,12.356c10.932,2.848,17.187,9.865,16.424,23.162s-1.653,16.627,7.627,19.043c14.543,3.814,13.094,13.805,11.466,26.009-1.042,7.627-1.449,9.636,3.076,15.255,3.687,4.5,9.407,3.737,4.932,11.517-4.932,8.593,2.161,15.839-6.509,18.077S423.592,511.291,423.592,511.291Z" transform="translate(-395.32 -382.11)" fill="#0129ff" stroke="#000" stroke-linecap="round" stroke-linejoin="round" stroke-width="1"/>
      <path id="Path_16" data-name="Path 16" d="M438.619,511.382s-6-6.661,4.3-16.17c6.636-6.153,13.246-15.382,13.831-25.119.28-4.805-1.78-8.7-.178-13.119,1.754-4.856,6.839-7.831,8.339-13.246,2.924-10.5-3.839-20.517-4.627-23.924s0-3.559,5.085-12.712A38.823,38.823,0,0,0,470.3,389.88a17.517,17.517,0,0,1-13.3,12c-11.009,2.542-17.441,9.381-17.06,22.678s1.195,16.678-8.136,18.839c-14.644,3.381-13.5,13.424-12.2,25.679.814,7.627,1.169,9.687-3.509,15.077-3.814,4.4-9.483,3.483-5.237,11.39,4.678,8.72-2.542,15.763,6,18.229S438.619,511.382,438.619,511.382Z" transform="translate(-373.685 -380.753)" fill="#0129ff" stroke="#000" stroke-linecap="round" stroke-linejoin="round" stroke-width="1"/>
      <path id="Path_17" data-name="Path 17" d="M471.381,434.5v44.492a20.886,20.886,0,0,1-.127,2.542,26.055,26.055,0,0,1-1.475,6.788,27.966,27.966,0,0,1-26.365,18.636H428.159a27.967,27.967,0,0,1-26.187-18.636,26.055,26.055,0,0,1-1.475-6.788,20.886,20.886,0,0,1-.127-2.542V434.5Z" transform="translate(-387.531 -311.93)" fill="#fff" stroke="#000" stroke-linecap="round" stroke-linejoin="round" stroke-width="1"/>
      <rect id="Rectangle_131" data-name="Rectangle 131" width="71.112" height="1.678" transform="translate(12.738 154.351)" fill="#263238" stroke="#000" stroke-linecap="round" stroke-linejoin="round" stroke-width="1"/>
      <path id="Path_18" data-name="Path 18" d="M471.176,451.39a26.061,26.061,0,0,1-1.474,6.788H401.895a26.061,26.061,0,0,1-1.475-6.788Z" transform="translate(-387.454 -285.878)" fill="#263238" stroke="#000" stroke-linecap="round" stroke-linejoin="round" stroke-width="1"/>
    </g>
    <g id="freepik--device-3--inject-15" transform="translate(1746.673 765.558)">
      <path id="Path_106" data-name="Path 106" d="M355.872,414.1l30.382,128.647a6.127,6.127,0,0,1-5.975,7.627H341.94v9.585H390.4a11.39,11.39,0,0,0,11.034-14.263L363.3,400.14Z" transform="translate(-130.817 -271.676)" fill="#fff" stroke="#263238" stroke-linecap="round" stroke-linejoin="round" stroke-width="1"/>
      <rect id="Rectangle_132" data-name="Rectangle 132" width="17.069" height="241.094" transform="translate(239.019 0) rotate(9.841)" fill="#263238" stroke="#263238" stroke-linecap="round" stroke-linejoin="round" stroke-width="0.995"/>
      <rect id="Rectangle_133" data-name="Rectangle 133" width="155.062" height="6.712" transform="translate(0 281.594)" fill="#fff" stroke="#263238" stroke-linecap="round" stroke-linejoin="round" stroke-width="1"/>
    </g>
    <g id="freepik--table-3--inject-15" transform="translate(1152 1053.864)">
      <line id="Line_124" data-name="Line 124" x2="1186.6" transform="translate(0)" fill="none" stroke="#263238" stroke-linecap="round" stroke-linejoin="round" stroke-width="1"/>
    </g>
    <g id="freepik--character-3--inject-15" transform="translate(1394.217 594.22)">
      <path id="Path_112" data-name="Path 112" d="M278.575,342.678s-4.551-43.73-27.407-57.433-11.085,23.492-11.085,25.424-33.941-35.9-62.671-15.026-1.958,64.628-1.958,64.628-34.577-11.746-33.941.661,32.645,22.882,32.645,22.882-58.094,5.873-37.2,31.984,77.671,7.17,77.671,7.17-15.687,16.983-4.576,18.941,53.391-31.323,57.433-39.814S293.6,368.1,278.575,342.678Z" transform="translate(-101.521 -282.22)" fill="#263238" stroke="#263238" stroke-linecap="round" stroke-linejoin="round" stroke-width="1"/>
      <path id="Path_113" data-name="Path 113" d="M336.8,394.9s21.229-1.119,32.416-18.992,6.687-30.179-10.17-36.865-40.221-3.356-40.221-3.356-35.67-44.7-85.959-33.611-57,50.289-53.645,70.4l13.424,80.468s41.34,6.712,52.526-4.475,32.391-51.408,54.738-56.976S336.8,394.9,336.8,394.9Z" transform="translate(-30.463 -254.326)" fill="#263238" stroke="#263238" stroke-linecap="round" stroke-linejoin="round" stroke-width="1"/>
      <path id="Path_114" data-name="Path 114" d="M259.383,357.154c-1.373,10.043-8.568,24.153-15.483,23.212s-11.441-9.814-10.17-19.856,8.619-11.441,15.534-10.5S260.73,347.136,259.383,357.154Z" transform="translate(54.403 -178.041)" fill="none" stroke="#263238" stroke-linecap="round" stroke-linejoin="round" stroke-width="1"/>
      <path id="Path_115" data-name="Path 115" d="M224.594,377.338s8.949,3.356,22.373-6.687S260.366,336,289.426,330.4s48.052,7.831,49.17,15.661-3.356,23.467-3.356,39.1,3.356,23.467,6.712,26.823,7.805,1.119,1.119,7.831a126.437,126.437,0,0,1-20.136,14.517s-18.992,35.772-26.8,42.458-26.823,3.356-33.535,0-21.229-11.161-21.229-11.161l-8.949,31.3L178.78,453.458l13.424-44.7S219.027,401.923,224.594,377.338Z" transform="translate(-30.023 -209.945)" fill="#fff" stroke="#263238" stroke-linecap="round" stroke-linejoin="round" stroke-width="1"/>
      <path id="Path_116" data-name="Path 116" d="M212.13,392.708,197.74,376.36l7.754,34.145Z" transform="translate(-0.778 -137.017)" fill="#263238" stroke="#263238" stroke-linecap="round" stroke-linejoin="round" stroke-width="1"/>
      <path id="Path_117" data-name="Path 117" d="M242.037,358.883c-.381,4.3-2.542,7.627-4.932,7.4s-3.89-3.864-3.509-8.187,2.542-7.627,4.932-7.4S242.342,354.561,242.037,358.883Z" transform="translate(54.435 -176.618)" fill="#263238"/>
      <line id="Line_127" data-name="Line 127" x1="76.527" y1="5.11" transform="translate(198.589 166.858)" fill="none" stroke="#263238" stroke-linecap="round" stroke-linejoin="round" stroke-width="1"/>
      <line id="Line_128" data-name="Line 128" x2="6.204" transform="translate(300.413 182.52)" fill="none" stroke="#263238" stroke-linecap="round" stroke-linejoin="round" stroke-width="1"/>
      <path id="Path_118" data-name="Path 118" d="M231.76,344.315a14.9,14.9,0,0,1,16.958,1.958" transform="translate(51.695 -189.203)" fill="none" stroke="#263238" stroke-linecap="round" stroke-linejoin="round" stroke-width="1"/>
      <path id="Path_119" data-name="Path 119" d="M240.475,381.518s-8.492,0-14.365-9.788" transform="translate(42.98 -144.159)" fill="none" stroke="#263238" stroke-linecap="round" stroke-linejoin="round" stroke-width="1"/>
      <path id="Path_120" data-name="Path 120" d="M330.6,432.191l10.17,144.283H120.27s34.45-109.833,45.23-132.791,24.407-33.052,24.407-33.052,27.967-25.119,66.1-20.111S330.6,432.191,330.6,432.191Z" transform="translate(-120.27 -116.194)" fill="#0129ff" stroke="#263238" stroke-linecap="round" stroke-linejoin="round" stroke-width="1"/>
      <path id="Path_121" data-name="Path 121" d="M217.022,363.31s-4.475-22.348-20.111-18.992-7.831,37.984,2.237,48.052,16.755-1.119,16.755-1.119" transform="translate(-15.738 -186.969)" fill="#fff" stroke="#263238" stroke-linecap="round" stroke-linejoin="round" stroke-width="1"/>
      <path id="Path_122" data-name="Path 122" d="M309.275,487.82s8.619-15.077,1.449-27.28-28.628-36.611-58.145-59.62-68.213-52.4-73.934-36.611-10.17,46.654-10.17,46.654-25.119,4.3-27.967,12.2-5.746,47.391-1.424,52.4,7.17-.712,16.5-.712,66.1-18.661,87.586-17.238,25.119,7.907,41.619,16.526S309.275,487.82,309.275,487.82Z" transform="translate(-94.643 -162.492)" fill="#0129ff" stroke="#263238" stroke-linecap="round" stroke-linejoin="round" stroke-width="1"/>
      <path id="Path_123" data-name="Path 123" d="M198.89,399.94a70.531,70.531,0,0,1,11.161,10.17" transform="translate(0.995 -100.647)" fill="none" stroke="#263238" stroke-linecap="round" stroke-linejoin="round" stroke-width="1"/>
      <path id="Path_124" data-name="Path 124" d="M156.09,387.558c16.424-3.407,36.357-5.212,50.34,1.246a346.966,346.966,0,0,1,50.848,29.34" transform="translate(-65.02 -124.494)" fill="none" stroke="#263238" stroke-linecap="round" stroke-linejoin="round" stroke-width="1"/>
      <path id="Path_125" data-name="Path 125" d="M144.55,393.55a199.225,199.225,0,0,1,25.068-7.5" transform="translate(-82.82 -122.071)" fill="none" stroke="#263238" stroke-linecap="round" stroke-linejoin="round" stroke-width="1"/>
      <path id="Path_126" data-name="Path 126" d="M153,381.811s17.95-7.17,42.357.712" transform="translate(-69.786 -133.214)" fill="none" stroke="#263238" stroke-linecap="round" stroke-linejoin="round" stroke-width="1"/>
      <path id="Path_127" data-name="Path 127" d="M167.668,426.482c5.746-12.2,24.407-39.484,53.137-25.119s35.874,48.815,48.815,91.171,25.119,72.485,25.119,72.485H187.778L161.21,458.058" transform="translate(-57.123 -104.739)" fill="#0129ff" stroke="#263238" stroke-linecap="round" stroke-linejoin="round" stroke-width="1"/>
      <path id="Path_128" data-name="Path 128" d="M275.348,499.658l11.873-10.17s14.085,3.381,37.018-3.687,30.509-13.882,30.509-13.882a170.7,170.7,0,0,1,20.721,11.594c10.526,6.992,18.153,9.687,28.323,6.915s-2.771-5.568-14.034-13.5-24.839-18.89-24.839-18.89,21.28,10.17,28.7,12.966,14.8,7.4,21.28,4.627,3.687-5.568-12.966-13.882c-15.255-7.627-32.39-22.221-40.679-22.221s-46.272,15.738-46.272,15.738L240.72,499.684Z" transform="translate(65.515 -39.582)" fill="#fff" stroke="#263238" stroke-linecap="round" stroke-linejoin="round" stroke-width="1"/>
      <path id="Path_129" data-name="Path 129" d="M264.55,467.258a37.068,37.068,0,0,0,17.39,1.271c8.314-1.856,19.424-3.712,19.424-3.712s22.2.941,29.619,0,5.542-5.542-6.483-10.17-57.357-7.4-58.3-4.627a152.39,152.39,0,0,0-1.653,17.238Z" transform="translate(102.271 -25.106)" fill="#263238" stroke="#263238" stroke-linecap="round" stroke-linejoin="round" stroke-width="1"/>
      <path id="Path_130" data-name="Path 130" d="M293.12,446.41s17.594,6.585,20.9,8.771,9.89,3.865,7.119,7.627-11.517.559-17.568-.559a63.207,63.207,0,0,1-13.729-4.932Z" transform="translate(141.279 -28.97)" fill="#fff" stroke="#263238" stroke-linecap="round" stroke-linejoin="round" stroke-width="1"/>
      <path id="Path_131" data-name="Path 131" d="M275.219,442.564s31.3,1.653,38.441,3.839,12.712,17.034,13.755,21.433,4.932,9.89,1.627,10.424S313.66,465.09,308.7,462.344s-24.738-12.1-31.882-14.848S271.354,442,275.219,442.564Z" transform="translate(113.594 -35.015)" fill="#fff" stroke="#263238" stroke-linecap="round" stroke-linejoin="round" stroke-width="1"/>
      <path id="Path_132" data-name="Path 132" d="M237.07,491.9s71.773-50.848,79.451-50.848,42.1,15.255,49.755,19.145,17.238,24.89,17.238,24.89-1.932,4.78-8.619.966-14.365-16.271-14.365-16.271L322.394,468.3s-9.636,9.076-15.382,10.983a132.779,132.779,0,0,1-19.221,3.305L275.435,493.7Z" transform="translate(59.885 -37.238)" fill="#fff" stroke="#263238" stroke-linecap="round" stroke-linejoin="round" stroke-width="1"/>
      <path id="Path_133" data-name="Path 133" d="M283.816,451.38l16.5,30.2H228.9Z" transform="translate(47.284 -21.305)" fill="#0129ff" stroke="#263238" stroke-linecap="round" stroke-linejoin="round" stroke-width="1"/>
      <path id="Path_134" data-name="Path 134" d="M255.23,352.037s-21.483-7.882-24.356-2.847-5.72,23.619,5.746,31.5,17.416-16.653,17.416-16.653" transform="translate(46.378 -181.517)" fill="none" stroke="#263238" stroke-linecap="round" stroke-linejoin="round" stroke-width="1"/>
    </g>
  </g>
</svg>
