<svg xmlns="http://www.w3.org/2000/svg" width="668" height="402.6" viewBox="0 0 668 402.6">
  <g id="Group_video-bro" data-name="Group video-bro" transform="translate(-53 -51.68)">
    <g id="freepik--Wall--inject-150">
      <rect id="Rectangle_374" data-name="Rectangle 374" width="50.34" height="20.38" transform="translate(188.41 222.68)" opacity="0.2"/>
      <rect id="Rectangle_375" data-name="Rectangle 375" width="50.34" height="20.38" transform="translate(362.39 166.68)" opacity="0.2"/>
      <rect id="Rectangle_376" data-name="Rectangle 376" width="50.34" height="20.38" transform="translate(518.39 166.68)" opacity="0.2"/>
      <rect id="Rectangle_377" data-name="Rectangle 377" width="50.34" height="20.38" transform="translate(608.39 204.68)" opacity="0.2"/>
      <rect id="Rectangle_378" data-name="Rectangle 378" width="50.34" height="20.38" transform="translate(334.82 194.84)" opacity="0.1"/>
      <rect id="Rectangle_379" data-name="Rectangle 379" width="50.34" height="20.38" transform="translate(247.46 166.68)" opacity="0.2"/>
      <rect id="Rectangle_380" data-name="Rectangle 380" width="50.34" height="20.38" transform="translate(219.89 194.84)" opacity="0.1"/>
      <rect id="Rectangle_381" data-name="Rectangle 381" width="50.34" height="20.38" transform="translate(277.43 194.84)" opacity="0.1"/>
      <rect id="Rectangle_382" data-name="Rectangle 382" width="50.34" height="20.38" transform="translate(129.8 241.49)" opacity="0.2"/>
      <rect id="Rectangle_383" data-name="Rectangle 383" width="50.34" height="20.38" transform="translate(104.97 194.84)" opacity="0.1"/>
      <rect id="Rectangle_384" data-name="Rectangle 384" width="50.34" height="20.38" transform="translate(162.51 194.84)" opacity="0.1"/>
      <rect id="Rectangle_385" data-name="Rectangle 385" width="50.34" height="20.38" transform="translate(362.39 51.68)" opacity="0.2"/>
      <rect id="Rectangle_386" data-name="Rectangle 386" width="50.34" height="20.38" transform="translate(334.82 79.84)" opacity="0.1"/>
      <rect id="Rectangle_387" data-name="Rectangle 387" width="50.34" height="20.38" transform="translate(615.39 51.68)" opacity="0.2"/>
      <rect id="Rectangle_388" data-name="Rectangle 388" width="50.34" height="20.38" transform="translate(587.82 79.84)" opacity="0.1"/>
      <rect id="Rectangle_389" data-name="Rectangle 389" width="50.34" height="20.38" transform="translate(261.46 51.68)" opacity="0.2"/>
      <rect id="Rectangle_390" data-name="Rectangle 390" width="50.34" height="20.38" transform="translate(277.43 136.49)" opacity="0.1"/>
      <rect id="Rectangle_391" data-name="Rectangle 391" width="50.34" height="20.38" transform="translate(420.8 270.68)" opacity="0.2"/>
      <rect id="Rectangle_392" data-name="Rectangle 392" width="50.34" height="20.38" transform="translate(420.8 325.68)" opacity="0.2"/>
      <rect id="Rectangle_393" data-name="Rectangle 393" width="50.34" height="20.38" transform="translate(188.41 326.68)" opacity="0.2"/>
      <rect id="Rectangle_394" data-name="Rectangle 394" width="50.34" height="20.38" transform="translate(507.27 298.84)" opacity="0.1"/>
      <rect id="Rectangle_395" data-name="Rectangle 395" width="50.34" height="20.38" transform="translate(479.8 325.49)" opacity="0.1"/>
      <rect id="Rectangle_396" data-name="Rectangle 396" width="50.34" height="20.38" transform="translate(652.83 298.84)" opacity="0.1"/>
      <rect id="Rectangle_397" data-name="Rectangle 397" width="50.34" height="20.38" transform="translate(625.35 325.49)" opacity="0.1"/>
      <rect id="Rectangle_398" data-name="Rectangle 398" width="50.34" height="20.38" transform="translate(362.39 270.68)" opacity="0.2"/>
      <rect id="Rectangle_399" data-name="Rectangle 399" width="50.34" height="20.38" transform="translate(392.35 298.84)" opacity="0.1"/>
      <rect id="Rectangle_400" data-name="Rectangle 400" width="50.34" height="20.38" transform="translate(368.35 356.84)" opacity="0.1"/>
      <rect id="Rectangle_401" data-name="Rectangle 401" width="50.34" height="20.38" transform="translate(440.35 383.84)" opacity="0.1"/>
      <rect id="Rectangle_402" data-name="Rectangle 402" width="50.34" height="20.38" transform="translate(250.35 383.84)" opacity="0.1"/>
      <rect id="Rectangle_403" data-name="Rectangle 403" width="50.34" height="20.38" transform="translate(106.8 383.84)" opacity="0.1"/>
      <rect id="Rectangle_404" data-name="Rectangle 404" width="50.34" height="20.38" transform="translate(289.82 229.84)" opacity="0.1"/>
      <rect id="Rectangle_405" data-name="Rectangle 405" width="50.34" height="20.38" transform="translate(347.35 229.84)" opacity="0.1"/>
      <rect id="Rectangle_406" data-name="Rectangle 406" width="50.34" height="20.38" transform="translate(507.35 229.84)" opacity="0.1"/>
      <rect id="Rectangle_407" data-name="Rectangle 407" width="50.34" height="20.38" transform="translate(247.46 270.68)" opacity="0.2"/>
      <rect id="Rectangle_408" data-name="Rectangle 408" width="50.34" height="20.38" transform="translate(302.89 328.84)" opacity="0.1"/>
      <rect id="Rectangle_409" data-name="Rectangle 409" width="50.34" height="20.38" transform="translate(132.54 270.68)" opacity="0.2"/>
      <rect id="Rectangle_410" data-name="Rectangle 410" width="50.34" height="20.38" transform="translate(129.8 345.49)" opacity="0.2"/>
      <rect id="Rectangle_411" data-name="Rectangle 411" width="50.34" height="20.38" transform="translate(104.97 298.84)" opacity="0.1"/>
      <rect id="Rectangle_412" data-name="Rectangle 412" width="50.34" height="20.38" transform="translate(162.51 298.84)" opacity="0.1"/>
    </g>
    <g id="freepik--Plant--inject-150">
      <path id="Path_1171" data-name="Path 1171" d="M69.77,285.54C73.49,287.17,82.6,287,82.61,287s-2-6-2.13-6.32c-2-4.18-8.32-11.08-13.46-10.38a6.14,6.14,0,0,0-4.93,7.7C63,281.51,66.6,284.16,69.77,285.54Z" fill="#263238"/>
      <path id="Path_1172" data-name="Path 1172" d="M72.91,311.92c3.87.56,12-1.8,12.64-2a108.6,108.6,0,0,0,4.93,13.64c1.11,2.59,2.32,5.16,3.56,7.72-.74-1.08-1.41-2.05-1.52-2.17-3-3.51-11-8.49-15.72-6.47a6.14,6.14,0,0,0-2.72,8.72c1.76,3.21,6,4.8,9.41,5.3s10.44-1.36,12.28-1.88c.49,1,1,2,1.45,2.93,2.36,4.69,4.72,9.35,6.91,14,.77,1.64,1.47,3.28,2.17,4.92-.66-1-1.22-1.77-1.32-1.89-3-3.5-11-8.49-15.72-6.46A6.14,6.14,0,0,0,86.54,357c1.76,3.21,6,4.8,9.41,5.3s9.76-1.19,12-1.79c.67,1.7,1.34,3.4,1.92,5.08.36,1.15.8,2.24,1.1,3.42s.64,2.31,1,3.45c.53,2.22,1.09,4.5,1.56,6.67.33,1.51.62,3,.92,4.42-.75-1.64-2.28-4.82-2.44-5.07-2.46-3.92-9.53-10.05-14.56-8.77a6.14,6.14,0,0,0-4,8.21c1.26,3.44,5.19,5.65,8.5,6.66,3.65,1.11,11.71.09,12.72,0,.48,2.41.93,4.76,1.32,7,.86,4.91,1.51,9.3,2,13h3.4c-.59-3.86-1.37-8.44-2.39-13.59-.48-2.45-1-5.06-1.65-7.73a64.564,64.564,0,0,0,7.09-3.34c2.66,2.88,9.46,6.24,10.34,6.67-.92,2.28-1.85,4.48-2.75,6.55-1.88,4.33-3.67,8.17-5.25,11.44h3.68c1.36-3,2.85-6.44,4.4-10.24.95-2.31,1.92-4.8,2.89-7.36,1,.21,9,1.83,12.68,1,3.38-.77,7.46-2.67,9-6a6.15,6.15,0,0,0-3.39-8.49c-4.92-1.65-12.43,3.94-15.18,7.67-.16.21-1.65,2.8-2.57,4.44.39-1.05.78-2.06,1.17-3.14.79-2.14,1.51-4.3,2.29-6.62.34-1.13.68-2.28,1-3.43s.61-2.39.92-3.6c.67-2.81,1.21-5.68,1.69-8.59,1.88.68,8.57,3,12,2.76s7.78-1.51,9.78-4.58a6.14,6.14,0,0,0-2.07-8.9c-4.61-2.37-12.87,2-16.15,5.28-.21.2-2.3,2.81-3.42,4.27.27-1.76.56-3.5.78-5.29.63-5.14,1.12-10.37,1.63-15.58.15-1.59.33-3.18.49-4.77.67.25,8.56,3.19,12.45,2.91,3.45-.24,7.78-1.51,9.78-4.58a6.14,6.14,0,0,0-2.07-8.9c-4.61-2.37-12.87,2-16.15,5.28-.25.24-3.26,4-4,5,.38-3.51.78-7,1.31-10.42a107.572,107.572,0,0,1,3-13.7c.31.12,8.54,3.22,12.51,2.94,3.46-.24,7.79-1.51,9.78-4.58a6.14,6.14,0,0,0-2.06-8.9c-4.61-2.37-12.87,2-16.16,5.28-.25.25-3.49,4.3-4,5.08.08-.26.13-.54.21-.8a79.582,79.582,0,0,1,5.42-13c1.18-2.3,2.44-4.44,3.71-6.5,1.47.74,8.24,4,11.85,4.17,3.46.13,7.9-.65,10.22-3.48a6.13,6.13,0,0,0-1.07-9.07c-4.32-2.87-13,.58-16.64,3.46-.2.16-2,2-3.34,3.32.59-.92,1.18-1.88,1.76-2.75,2.17-3.26,4.36-6.12,6.32-8.64,1.12-1.42,2.17-2.68,3.16-3.86,1.82,0,9.16-.25,12.37-1.76s6.71-4.21,7.47-7.79a6.14,6.14,0,0,0-5.13-7.56c-5.16-.56-11.29,6.51-13.17,10.74-.17.37-2.06,6.38-2,6.38H174c-1,1.11-2,2.31-3.11,3.64-2,2.48-4.28,5.3-6.53,8.53a110.427,110.427,0,0,0-6.76,10.78,79.513,79.513,0,0,0-5.78,13v.17c0-1.52,0-5.77-.08-6.1-.6-4.59-4.45-13.12-9.55-14.06a6.14,6.14,0,0,0-7.08,5.77c-.3,3.65,2.35,7.31,4.93,9.61,2.91,2.6,11,5.12,11.63,5.32a108.149,108.149,0,0,0-3.41,14.09c-.5,2.77-.91,5.58-1.29,8.41a24.608,24.608,0,0,0-.06-2.66c-.6-4.59-4.45-13.12-9.55-14.06a6.13,6.13,0,0,0-7.08,5.77c-.3,3.65,2.35,7.31,4.93,9.61s9.46,4.63,11.28,5.21c-.14,1.08-.28,2.16-.41,3.25-.62,5.2-1.22,10.4-2,15.48-.26,1.79-.58,3.54-.9,5.3a18.156,18.156,0,0,0-.06-2.3c-.59-4.59-4.44-13.12-9.54-14.06a6.15,6.15,0,0,0-7.09,5.77c-.3,3.65,2.35,7.3,4.93,9.61s8.8,4.4,11,5.1c-.38,1.78-.76,3.58-1.2,5.29-.34,1.17-.58,2.31-1,3.46l-1.1,3.41c-.78,2.14-1.57,4.36-2.39,6.43-.55,1.44-1.11,2.81-1.66,4.19.28-1.78.76-5.28.76-5.57a23.81,23.81,0,0,0-3.2-11.6,6.9,6.9,0,0,0-.08-1.36,6.13,6.13,0,0,0-7.51-5.2c-5,1.33-8.19,10.13-8.43,14.75,0,.28.17,3.26.31,5.13-.25-1.09-.48-2.15-.76-3.27-.52-2.22-1.11-4.41-1.74-6.78-.34-1.13-.69-2.27-1-3.43s-.81-2.33-1.22-3.51c-1-2.71-2.12-5.41-3.33-8.1,1.94-.46,8.81-2.21,11.56-4.33s5.66-5.55,5.64-9.21a6.15,6.15,0,0,0-6.64-6.29c-5.15.56-9.63,8.78-10.56,13.31-.06.29-.37,3.62-.5,5.45-.74-1.61-1.47-3.23-2.26-4.84-2.31-4.64-4.79-9.26-7.24-13.89-.75-1.42-1.48-2.84-2.22-4.26.69-.16,8.9-2.06,12-4.43,2.74-2.11,5.65-5.55,5.63-9.21a6.15,6.15,0,0,0-6.63-6.29c-5.2.55-9.65,8.77-10.65,13.29-.07.35-.5,5.14-.55,6.36-1.63-3.12-3.22-6.26-4.66-9.41a106.847,106.847,0,0,1-5.06-13.07c.32-.07,8.89-2,12.06-4.45,2.74-2.11,5.65-5.55,5.63-9.21a6.15,6.15,0,0,0-6.63-6.29c-5.16.56-9.64,8.78-10.57,13.31-.08.36-.54,5.52-.56,6.46-.08-.26-.19-.52-.26-.78a78.449,78.449,0,0,1-2.63-13.81c-.29-2.57-.42-5.05-.49-7.47,1.63-.2,9.09-1.19,12.18-3.06s6.23-4.9,6.6-8.54a6.13,6.13,0,0,0-5.9-7c-5.18,0-10.53,7.66-12,12.07-.08.24-.6,2.76-.95,4.6,0-1.09-.06-2.21-.05-3.26,0-3.92.25-7.51.5-10.69.15-1.81.33-3.44.51-5,1.5-1,7.5-5.27,9.34-8.3s3.28-7.21,1.93-10.62a6.14,6.14,0,0,0-8.45-3.47c-4.61,2.38-5.82,11.66-5.06,16.23.07.39,1.81,6.45,1.89,6.4H84c-.2,1.47-.4,3-.59,4.76-.31,3.18-.64,6.77-.73,10.71A106.477,106.477,0,0,0,83,295.2a79.36,79.36,0,0,0,2.36,14,1,1,0,0,0,0,.16c-.82-1.28-3.22-4.79-3.43-5-3-3.5-11-8.49-15.73-6.46a6.14,6.14,0,0,0-2.72,8.72C65.27,309.83,69.49,311.42,72.91,311.92Z" fill="#263238"/>
      <path id="Path_1173" data-name="Path 1173" d="M161.87,287.54c.08,0,1.66-6.05,1.71-6.44.64-4.59-.82-13.83-5.49-16.09a6.15,6.15,0,0,0-8.36,3.7c-1.25,3.44.34,7.66,2.22,10.57C154.16,282.69,161.86,287.54,161.87,287.54Z" fill="#263238"/>
      <path id="Path_1174" data-name="Path 1174" d="M150.08,453.78H100.31l-6.22-55.27H156.3Z" fill="#fff" stroke="#263238" stroke-linecap="round" stroke-linejoin="round" stroke-width="1"/>
      <path id="Path_1175" data-name="Path 1175" d="M95.23,408.63l.6,5.36h58.73l.6-5.36Z" fill="#263238"/>
      <path id="Path_1176" data-name="Path 1176" d="M153.23,425.77l.6-5.35H96.55l.61,5.35Z" fill="#263238"/>
    </g>
    <g id="freepik--Books--inject-150">
      <rect id="Rectangle_413" data-name="Rectangle 413" width="16.86" height="111.12" transform="translate(578.02 342.66)" fill="#ff8400" stroke="#263238" stroke-linecap="round" stroke-linejoin="round" stroke-width="1"/>
      <rect id="Rectangle_414" data-name="Rectangle 414" width="10.16" height="111.12" transform="translate(574.56 342.66)" fill="#ff8400" stroke="#263238" stroke-linecap="round" stroke-linejoin="round" stroke-width="1"/>
      <rect id="Rectangle_415" data-name="Rectangle 415" width="2.36" height="70.6" transform="translate(577.94 361.8)" fill="#fff"/>
      <rect id="Rectangle_416" data-name="Rectangle 416" width="38.22" height="174.1" transform="translate(606.88 279.68)" fill="#919191" stroke="#263238" stroke-linecap="round" stroke-linejoin="round" stroke-width="1"/>
      <rect id="Rectangle_417" data-name="Rectangle 417" width="38.22" height="174.1" transform="translate(593.85 279.68)" fill="#c4c4c4" stroke="#263238" stroke-linecap="round" stroke-linejoin="round" stroke-width="1"/>
      <rect id="Rectangle_418" data-name="Rectangle 418" width="38.22" height="10.43" transform="translate(593.85 294.92)" fill="#fff" stroke="#263238" stroke-linecap="round" stroke-linejoin="round" stroke-width="1"/>
      <rect id="Rectangle_419" data-name="Rectangle 419" width="38.22" height="10.43" transform="translate(593.85 427.71)" fill="#fff" stroke="#263238" stroke-linecap="round" stroke-linejoin="round" stroke-width="1"/>
      <rect id="Rectangle_420" data-name="Rectangle 420" width="43" height="141.72" transform="translate(649.81 312.06)" fill="#ff8400" stroke="#263238" stroke-linecap="round" stroke-linejoin="round" stroke-width="1"/>
      <rect id="Rectangle_421" data-name="Rectangle 421" width="25.92" height="141.72" transform="translate(640.97 312.06)" fill="#ff8400" stroke="#263238" stroke-linecap="round" stroke-linejoin="round" stroke-width="1"/>
      <rect id="Rectangle_422" data-name="Rectangle 422" width="25.92" height="8.49" transform="translate(640.97 324.47)" fill="#fff" stroke="#263238" stroke-linecap="round" stroke-linejoin="round" stroke-width="1"/>
      <rect id="Rectangle_423" data-name="Rectangle 423" width="25.92" height="8.49" transform="translate(640.97 432.55)" fill="#fff" stroke="#263238" stroke-linecap="round" stroke-linejoin="round" stroke-width="1"/>
    </g>
    <g id="freepik--Device--inject-150">
      <rect id="Rectangle_424" data-name="Rectangle 424" width="32.39" height="130.69" transform="translate(382.89 322.17)" fill="#263238" stroke="#263238" stroke-linecap="round" stroke-linejoin="round" stroke-width="1"/>
      <rect id="Rectangle_425" data-name="Rectangle 425" width="408.82" height="247.97" transform="translate(194.68 106.6)" fill="#263238" stroke="#263238" stroke-linecap="round" stroke-linejoin="round" stroke-width="1"/>
      <rect id="Rectangle_426" data-name="Rectangle 426" width="379.35" height="230.1" transform="translate(209.41 115.53)" fill="#fff" stroke="#263238" stroke-linecap="round" stroke-linejoin="round" stroke-width="1"/>
      <rect id="Rectangle_427" data-name="Rectangle 427" width="379.35" height="13.86" transform="translate(209.41 331.77)" fill="#fff" stroke="#263238" stroke-linecap="round" stroke-linejoin="round" stroke-width="1"/>
      <path id="Path_1177" data-name="Path 1177" d="M400.86,438.2l-120.1,7.76v7.82H517.42v-7.82Z" fill="#263238" stroke="#263238" stroke-linecap="round" stroke-linejoin="round" stroke-width="1"/>
      <rect id="Rectangle_428" data-name="Rectangle 428" width="87.39" height="185.54" transform="translate(495.76 119.76)" fill="none" stroke="#263238" stroke-miterlimit="10" stroke-width="1"/>
      <rect id="Rectangle_429" data-name="Rectangle 429" width="87.39" height="17.73" transform="translate(495.76 308.46)" fill="none" stroke="#263238" stroke-miterlimit="10" stroke-width="1"/>
      <path id="Path_1178" data-name="Path 1178" d="M509.69,131.16a4.43,4.43,0,1,0-4.43,4.43,4.43,4.43,0,0,0,4.43-4.43Z" fill="none" stroke="#263238" stroke-miterlimit="10" stroke-width="1"/>
      <line id="Line_245" data-name="Line 245" x2="38.63" transform="translate(513.49 131.16)" fill="none" stroke="#263238" stroke-miterlimit="10" stroke-width="1"/>
      <line id="Line_246" data-name="Line 246" x2="62.69" transform="translate(513.49 136.85)" fill="none" stroke="#263238" stroke-miterlimit="10" stroke-width="1"/>
      <line id="Line_247" data-name="Line 247" x2="34.2" transform="translate(513.49 143.19)" fill="none" stroke="#263238" stroke-miterlimit="10" stroke-width="1"/>
      <path id="Path_1179" data-name="Path 1179" d="M509.69,155.22a4.43,4.43,0,1,0-4.43,4.43,4.43,4.43,0,0,0,4.43-4.43Z" fill="none" stroke="#263238" stroke-miterlimit="10" stroke-width="1"/>
      <line id="Line_248" data-name="Line 248" x2="38.63" transform="translate(513.49 155.22)" fill="none" stroke="#263238" stroke-miterlimit="10" stroke-width="1"/>
      <line id="Line_249" data-name="Line 249" x2="62.69" transform="translate(513.49 160.92)" fill="none" stroke="#263238" stroke-miterlimit="10" stroke-width="1"/>
      <line id="Line_250" data-name="Line 250" x2="34.2" transform="translate(513.49 167.25)" fill="none" stroke="#263238" stroke-miterlimit="10" stroke-width="1"/>
      <path id="Path_1180" data-name="Path 1180" d="M509.69,179.28a4.43,4.43,0,1,0-4.43,4.43,4.43,4.43,0,0,0,4.43-4.43Z" fill="none" stroke="#263238" stroke-miterlimit="10" stroke-width="1"/>
      <line id="Line_251" data-name="Line 251" x2="38.63" transform="translate(513.49 179.28)" fill="none" stroke="#263238" stroke-miterlimit="10" stroke-width="1"/>
      <line id="Line_252" data-name="Line 252" x2="62.69" transform="translate(513.49 184.98)" fill="none" stroke="#263238" stroke-miterlimit="10" stroke-width="1"/>
      <line id="Line_253" data-name="Line 253" x2="34.2" transform="translate(513.49 191.31)" fill="none" stroke="#263238" stroke-miterlimit="10" stroke-width="1"/>
      <path id="Path_1181" data-name="Path 1181" d="M509.69,203.34a4.43,4.43,0,1,0-1.294,3.139,4.43,4.43,0,0,0,1.294-3.139Z" fill="none" stroke="#263238" stroke-miterlimit="10" stroke-width="1"/>
      <line id="Line_254" data-name="Line 254" x2="38.63" transform="translate(513.49 203.34)" fill="none" stroke="#263238" stroke-miterlimit="10" stroke-width="1"/>
      <line id="Line_255" data-name="Line 255" x2="62.69" transform="translate(513.49 209.04)" fill="none" stroke="#263238" stroke-miterlimit="10" stroke-width="1"/>
      <line id="Line_256" data-name="Line 256" x2="34.2" transform="translate(513.49 215.38)" fill="none" stroke="#263238" stroke-miterlimit="10" stroke-width="1"/>
      <path id="Path_1182" data-name="Path 1182" d="M509.69,227.41a4.43,4.43,0,1,0-4.43,4.43,4.43,4.43,0,0,0,4.43-4.43Z" fill="none" stroke="#263238" stroke-miterlimit="10" stroke-width="1"/>
      <line id="Line_257" data-name="Line 257" x2="38.63" transform="translate(513.49 227.41)" fill="none" stroke="#263238" stroke-miterlimit="10" stroke-width="1"/>
      <line id="Line_258" data-name="Line 258" x2="62.69" transform="translate(513.49 233.11)" fill="none" stroke="#263238" stroke-miterlimit="10" stroke-width="1"/>
      <line id="Line_259" data-name="Line 259" x2="34.2" transform="translate(513.49 239.44)" fill="none" stroke="#263238" stroke-miterlimit="10" stroke-width="1"/>
      <path id="Path_1183" data-name="Path 1183" d="M509.69,251.47a4.43,4.43,0,1,0-4.43,4.43,4.43,4.43,0,0,0,4.43-4.43Z" fill="none" stroke="#263238" stroke-miterlimit="10" stroke-width="1"/>
      <line id="Line_260" data-name="Line 260" x2="38.63" transform="translate(513.49 251.47)" fill="none" stroke="#263238" stroke-miterlimit="10" stroke-width="1"/>
      <line id="Line_261" data-name="Line 261" x2="62.69" transform="translate(513.49 257.17)" fill="none" stroke="#263238" stroke-miterlimit="10" stroke-width="1"/>
      <line id="Line_262" data-name="Line 262" x2="34.2" transform="translate(513.49 263.5)" fill="none" stroke="#263238" stroke-miterlimit="10" stroke-width="1"/>
      <path id="Path_1184" data-name="Path 1184" d="M509.69,275.53a4.43,4.43,0,1,0-1.294,3.139,4.43,4.43,0,0,0,1.294-3.139Z" fill="none" stroke="#263238" stroke-miterlimit="10" stroke-width="1"/>
      <line id="Line_263" data-name="Line 263" x2="38.63" transform="translate(513.49 275.53)" fill="none" stroke="#263238" stroke-miterlimit="10" stroke-width="1"/>
      <line id="Line_264" data-name="Line 264" x2="62.69" transform="translate(513.49 281.23)" fill="none" stroke="#263238" stroke-miterlimit="10" stroke-width="1"/>
      <line id="Line_265" data-name="Line 265" x2="34.2" transform="translate(513.49 287.56)" fill="none" stroke="#263238" stroke-miterlimit="10" stroke-width="1"/>
    </g>
    <g id="freepik--character-4--inject-150">
      <rect id="Rectangle_430" data-name="Rectangle 430" width="133.11" height="100.5" transform="translate(354.95 225.6)" fill="#fff" stroke="#263238" stroke-miterlimit="10" stroke-width="1"/>
      <line id="Line_266" data-name="Line 266" x2="133.1" transform="translate(354.81 270.03)" fill="none" stroke="#263238" stroke-miterlimit="10" stroke-width="1"/>
      <line id="Line_267" data-name="Line 267" x2="133.1" transform="translate(354.81 276.47)" fill="none" stroke="#263238" stroke-miterlimit="10" stroke-width="1"/>
      <line id="Line_268" data-name="Line 268" y2="49.14" transform="translate(456.24 276.96)" fill="none" stroke="#263238" stroke-miterlimit="10" stroke-width="1"/>
      <line id="Line_269" data-name="Line 269" y2="49.14" transform="translate(450.31 276.96)" fill="none" stroke="#263238" stroke-miterlimit="10" stroke-width="1"/>
      <line id="Line_270" data-name="Line 270" y2="44.68" transform="translate(395.38 225.01)" fill="none" stroke="#263238" stroke-miterlimit="10" stroke-width="1"/>
      <line id="Line_271" data-name="Line 271" y2="44.68" transform="translate(389.45 225.01)" fill="none" stroke="#263238" stroke-miterlimit="10" stroke-width="1"/>
      <path id="Path_1185" data-name="Path 1185" d="M456.23,306.08c-1.45-1.6-4.49-1.31-10-3.63s-11-4.06-12.91-8.41-2.47-12.92-2.47-12.92l-7.18,1.34-7.18-1.34S415.9,289.68,414,294s-7.4,6.09-12.91,8.41-8.56,2-10,3.63-7.11,20-7.11,20h79.36S457.68,307.68,456.23,306.08Z" fill="#ff8400" stroke="#263238" stroke-linecap="round" stroke-linejoin="round" stroke-width="1"/>
      <path id="Path_1186" data-name="Path 1186" d="M433.31,294c-1.89-4.36-2.47-12.92-2.47-12.92l-7.18,1.34-7.18-1.34s-.58,8.6-2.48,12.92a10.17,10.17,0,0,1-4.34,4.53c2.41,4.22,11.44,19.93,13.19,21.44s12.13-15.46,15.49-21A10.83,10.83,0,0,1,433.31,294Z" fill="#c4c4c4" stroke="#263238" stroke-linecap="round" stroke-linejoin="round" stroke-width="1"/>
      <path id="Path_1187" data-name="Path 1187" d="M431.26,285.87c-.23-2-.35-3.71-.4-4.4l-.3-.29-6.9,1.28-7.18-1.34s-.1,1.73-.34,4.07c2.07,1.95,5.72,5.14,7.49,5.14S428.89,287.72,431.26,285.87Z" fill="#263238" stroke="#263238" stroke-linecap="round" stroke-linejoin="round" stroke-width="1"/>
      <path id="Path_1188" data-name="Path 1188" d="M401.12,323.05c.15.48.29,1,.41,1.46" fill="none" stroke="#263238" stroke-linecap="round" stroke-linejoin="round" stroke-width="1"/>
      <path id="Path_1189" data-name="Path 1189" d="M397.33,313.33a76.172,76.172,0,0,1,3.35,8.32" fill="none" stroke="#263238" stroke-linecap="round" stroke-linejoin="round" stroke-width="1"/>
      <path id="Path_1190" data-name="Path 1190" d="M393.84,310.58a16.69,16.69,0,0,1,4.07,6.82" fill="none" stroke="#263238" stroke-linecap="round" stroke-linejoin="round" stroke-width="1"/>
      <path id="Path_1191" data-name="Path 1191" d="M449.77,313.29a98.368,98.368,0,0,0-6.3,11.8" fill="none" stroke="#263238" stroke-linecap="round" stroke-linejoin="round" stroke-width="1"/>
      <path id="Path_1192" data-name="Path 1192" d="M452.32,309.13s-.55.87-1.38,2.22" fill="none" stroke="#263238" stroke-linecap="round" stroke-linejoin="round" stroke-width="1"/>
      <path id="Path_1193" data-name="Path 1193" d="M444.63,316.24s-2.33,5.65-2.33,8" fill="none" stroke="#263238" stroke-linecap="round" stroke-linejoin="round" stroke-width="1"/>
      <line id="Line_272" data-name="Line 272" x1="7.78" y2="12.03" transform="translate(429.39 303.34)" fill="none" stroke="#263238" stroke-linecap="round" stroke-linejoin="round" stroke-width="1"/>
      <line id="Line_273" data-name="Line 273" x1="0.75" y2="1.15" transform="translate(437.93 301)" fill="none" stroke="#263238" stroke-linecap="round" stroke-linejoin="round" stroke-width="1"/>
      <path id="Path_1194" data-name="Path 1194" d="M420.27,319.52a4.15,4.15,0,0,0,1,1.07" fill="none" stroke="#263238" stroke-linecap="round" stroke-linejoin="round" stroke-width="1"/>
      <path id="Path_1195" data-name="Path 1195" d="M413.29,309.27s3.84,6,6.22,9.23" fill="none" stroke="#263238" stroke-linecap="round" stroke-linejoin="round" stroke-width="1"/>
      <ellipse id="Ellipse_41" data-name="Ellipse 41" cx="24.08" cy="22.92" rx="24.08" ry="22.92" transform="translate(399.51 238.18)" fill="#263238" stroke="#263238" stroke-linecap="round" stroke-linejoin="round" stroke-width="1"/>
      <path id="Path_1196" data-name="Path 1196" d="M410.56,267s-2.33-2.33-3.84.12,3.49,7.68,4,6.75S410.56,267,410.56,267Z" fill="#c4c4c4" stroke="#263238" stroke-linecap="round" stroke-linejoin="round" stroke-width="1"/>
      <path id="Path_1197" data-name="Path 1197" d="M436,267s2.32-2.33,3.84.12-3.5,7.68-4,6.75S436,267,436,267Z" fill="#c4c4c4" stroke="#263238" stroke-linecap="round" stroke-linejoin="round" stroke-width="1"/>
      <path id="Path_1198" data-name="Path 1198" d="M436.74,262.26a13.16,13.16,0,1,0-26.31,0v1h0s-1,9.29.39,12.57,8.83,11.18,10.58,11.95,4.19.82,5.67-.73c.72-.75,8.51-7.35,8.9-12,.32-3.89.51-8.86.56-10.37A13.562,13.562,0,0,0,436.74,262.26Z" fill="#c4c4c4" stroke="#263238" stroke-linecap="round" stroke-linejoin="round" stroke-width="1"/>
      <path id="Path_1199" data-name="Path 1199" d="M420.81,271.79a1.77,1.77,0,0,0,.23,1.63,3.36,3.36,0,0,0,2.68,1.05c1.17,0,2.57-.46,2.45-2.79" fill="none" stroke="#263238" stroke-linecap="round" stroke-linejoin="round" stroke-width="1"/>
      <path id="Path_1200" data-name="Path 1200" d="M424.07,276.34a22.26,22.26,0,0,0-2.79.46c-1.52.35-3.5.7-3.5.7a8.22,8.22,0,0,0,3.85,2.91c2.33.7,3.37.47,4.54,0s3.61-3.14,3.61-3.14a20,20,0,0,1-3.38-.58,8.09,8.09,0,0,0-2.33-.35Z" fill="#9e9e9e" stroke="#263238" stroke-linecap="round" stroke-linejoin="round" stroke-width="1"/>
      <path id="Path_1201" data-name="Path 1201" d="M424.07,276.34a22.26,22.26,0,0,0-2.79.46c-1.52.35-3.5.7-3.5.7s7,2.33,12-.23a20,20,0,0,1-3.38-.58,8.09,8.09,0,0,0-2.33-.35Z" fill="#9e9e9e" stroke="#263238" stroke-linecap="round" stroke-linejoin="round" stroke-width="1"/>
      <ellipse id="Ellipse_42" data-name="Ellipse 42" cx="0.99" cy="1.34" rx="0.99" ry="1.34" transform="translate(415.45 264.69)" fill="#263238"/>
      <ellipse id="Ellipse_43" data-name="Ellipse 43" cx="0.99" cy="1.34" rx="0.99" ry="1.34" transform="translate(428.79 264.69)" fill="#263238"/>
      <path id="Path_1202" data-name="Path 1202" d="M422.33,266.44a5.48,5.48,0,1,0-5.48,5.47,5.48,5.48,0,0,0,5.48-5.47Z" fill="none" stroke="#263238" stroke-linecap="round" stroke-linejoin="round" stroke-width="1"/>
      <path id="Path_1203" data-name="Path 1203" d="M435.37,266.44a5.48,5.48,0,1,0-5.47,5.47A5.48,5.48,0,0,0,435.37,266.44Z" fill="none" stroke="#263238" stroke-linecap="round" stroke-linejoin="round" stroke-width="1"/>
      <line id="Line_274" data-name="Line 274" x1="1.17" transform="translate(410.21 266.44)" fill="none" stroke="#263238" stroke-linecap="round" stroke-linejoin="round" stroke-width="1"/>
      <line id="Line_275" data-name="Line 275" x1="1.17" transform="translate(422.79 266.44)" fill="none" stroke="#263238" stroke-linecap="round" stroke-linejoin="round" stroke-width="1"/>
      <line id="Line_276" data-name="Line 276" x1="1.16" transform="translate(435.37 266.44)" fill="none" stroke="#263238" stroke-linecap="round" stroke-linejoin="round" stroke-width="1"/>
      <path id="Path_1204" data-name="Path 1204" d="M412.77,261.08s2.33-2.56,6.29-.58" fill="none" stroke="#263238" stroke-linecap="round" stroke-linejoin="round" stroke-width="1"/>
      <path id="Path_1205" data-name="Path 1205" d="M426.75,261.08a6.19,6.19,0,0,1,6.64.23" fill="none" stroke="#263238" stroke-linecap="round" stroke-linejoin="round" stroke-width="1"/>
    </g>
    <g id="freepik--character-3--inject-150">
      <rect id="Rectangle_431" data-name="Rectangle 431" width="133.11" height="100.5" transform="translate(215.09 225.6)" fill="#fff" stroke="#263238" stroke-miterlimit="10" stroke-width="1"/>
      <rect id="Rectangle_432" data-name="Rectangle 432" width="18.38" height="24" transform="translate(315.27 229.21)" fill="#fff" stroke="#263238" stroke-linecap="round" stroke-linejoin="round" stroke-width="1"/>
      <rect id="Rectangle_433" data-name="Rectangle 433" width="15.25" height="19.91" transform="translate(316.83 231.26)" fill="#fff" stroke="#263238" stroke-linecap="round" stroke-linejoin="round" stroke-width="1"/>
      <rect id="Rectangle_434" data-name="Rectangle 434" width="6.65" height="8.68" transform="translate(321.13 236.87)" fill="#fff" stroke="#263238" stroke-linecap="round" stroke-linejoin="round" stroke-width="1"/>
      <rect id="Rectangle_435" data-name="Rectangle 435" width="18.38" height="24" transform="translate(323.68 255.93)" fill="#fff" stroke="#263238" stroke-linecap="round" stroke-linejoin="round" stroke-width="1"/>
      <rect id="Rectangle_436" data-name="Rectangle 436" width="15.25" height="19.91" transform="translate(325.24 257.98)" fill="#fff" stroke="#263238" stroke-linecap="round" stroke-linejoin="round" stroke-width="1"/>
      <rect id="Rectangle_437" data-name="Rectangle 437" width="6.65" height="8.68" transform="translate(329.54 263.59)" fill="#fff" stroke="#263238" stroke-linecap="round" stroke-linejoin="round" stroke-width="1"/>
      <rect id="Rectangle_438" data-name="Rectangle 438" width="18.38" height="24" transform="translate(301.91 255.93)" fill="#fff" stroke="#263238" stroke-linecap="round" stroke-linejoin="round" stroke-width="1"/>
      <rect id="Rectangle_439" data-name="Rectangle 439" width="15.25" height="19.91" transform="translate(303.47 257.98)" fill="#fff" stroke="#263238" stroke-linecap="round" stroke-linejoin="round" stroke-width="1"/>
      <rect id="Rectangle_440" data-name="Rectangle 440" width="6.65" height="8.68" transform="translate(307.77 263.59)" fill="#fff" stroke="#263238" stroke-linecap="round" stroke-linejoin="round" stroke-width="1"/>
      <path id="Path_1206" data-name="Path 1206" d="M223.19,326l-1-2.48,4.46,1L221.71,320l9.89-2-.49-2-10.39-4,9.89-3.46-9.89-1.49,7.91-4.94,7.43-6.93a57.937,57.937,0,0,0-7.92,2c-2.47,1-9.4,4.95-9.4,4.95s4.45-7.92,6.43-11.88a18.659,18.659,0,0,0,1.49-8.91s-3,1-7.43,6.93-4,5.82-4,5.82" fill="#fff" stroke="#263238" stroke-linecap="round" stroke-linejoin="round" stroke-width="1"/>
      <path id="Path_1207" data-name="Path 1207" d="M319.66,304.31c-.2-1.95-2.85-3.12-10.2-6S291.3,287,291.3,287l-12.44,1.1L266.41,287s-10.81,8.36-18.16,11.28-10,4.09-10.2,6-5.51,21.79-5.51,21.79h92.63S319.87,306.25,319.66,304.31Z" fill="#c4c4c4" stroke="#263238" stroke-linecap="round" stroke-linejoin="round" stroke-width="1"/>
      <path id="Path_1208" data-name="Path 1208" d="M242.1,307.92c-.38-1-.78-2-1.19-3" fill="none" stroke="#263238" stroke-linecap="round" stroke-linejoin="round" stroke-width="1"/>
      <path id="Path_1209" data-name="Path 1209" d="M247.33,325.91s-1.52-7-4-14.55" fill="none" stroke="#263238" stroke-linecap="round" stroke-linejoin="round" stroke-width="1"/>
      <path id="Path_1210" data-name="Path 1210" d="M310.87,316c1.17-4.27,2.78-8.89,4.77-11.65" fill="none" stroke="#263238" stroke-linecap="round" stroke-linejoin="round" stroke-width="1"/>
      <path id="Path_1211" data-name="Path 1211" d="M308.63,326.1s.52-3.21,1.51-7.3" fill="none" stroke="#263238" stroke-linecap="round" stroke-linejoin="round" stroke-width="1"/>
      <path id="Path_1212" data-name="Path 1212" d="M303.18,311.12l-4.67-5.45,4.67-2.73-3.3-9.91c-4.7-3-8.58-6-8.58-6l-12.44,1.1L266.41,287s-4,3.09-8.77,6.17l-2.14,10.37,7,3.31-6,3.89,6.39,15.37H296Z" fill="#c4c4c4" stroke="#263238" stroke-linecap="round" stroke-linejoin="round" stroke-width="1"/>
      <path id="Path_1213" data-name="Path 1213" d="M294.24,289.17c-1.79-1.3-2.94-2.18-2.94-2.18l-12.44,1.1L266.41,287s-.91.7-2.37,1.76l7,37.35H288Z" fill="#fff" stroke="#263238" stroke-linecap="round" stroke-linejoin="round" stroke-width="1"/>
      <path id="Path_1214" data-name="Path 1214" d="M265.83,278.62l.58,8.37,12.46,15.95,12.43-15.95-1.37-8.76Z" fill="#fff" stroke="#263238" stroke-linecap="round" stroke-linejoin="round" stroke-width="1"/>
      <path id="Path_1215" data-name="Path 1215" d="M290.64,282.79l-.71-4.56-24.1.39.31,4.48c2.69,1.75,9,5.7,11.23,5.84a13.28,13.28,0,0,0,6.67-1.2C284.79,287.31,288.19,284.7,290.64,282.79Z" fill="#263238" stroke="#263238" stroke-linecap="round" stroke-linejoin="round" stroke-width="1"/>
      <path id="Path_1216" data-name="Path 1216" d="M260.33,260.73s-2.19-3.48-3.87-.39,2.45,10.06,3.36,10.06,1.67-2.19,1.93-3.35S260.33,260.73,260.33,260.73Z" fill="#fff" stroke="#263238" stroke-linecap="round" stroke-linejoin="round" stroke-width="1"/>
      <path id="Path_1217" data-name="Path 1217" d="M294.14,260.73s2.19-3.48,3.87-.39-2.45,10.06-3.36,10.06-1.67-2.19-1.93-3.35S294.14,260.73,294.14,260.73Z" fill="#fff" stroke="#263238" stroke-linecap="round" stroke-linejoin="round" stroke-width="1"/>
      <path id="Path_1218" data-name="Path 1218" d="M260.72,263.7s.52,9.54,1,11.34,4.84,6.69,11.73,10.71c2.29,1.34,7.48,1,9.93.39s9.28-7.74,10.31-10.84.52-11.86.52-11.86l-.65-12.9s-24.24-9.8-27.59-7.09-5,13.8-5,15.22S260.72,263.7,260.72,263.7Z" fill="#fff" stroke="#263238" stroke-linecap="round" stroke-linejoin="round" stroke-width="1"/>
      <path id="Path_1219" data-name="Path 1219" d="M275.94,254.8a6.25,6.25,0,0,0-5.55-1.81c-3.61.52-4.64,3.1-3,3.1s4.38-.78,6.06-.52S275.94,256,275.94,254.8Z" fill="#263238" stroke="#263238" stroke-linecap="round" stroke-linejoin="round" stroke-width="1"/>
      <path id="Path_1220" data-name="Path 1220" d="M280.06,254.8a6.22,6.22,0,0,1,5.54-1.8c3.61.52,4.64,3.1,3,3.1s-4.39-.78-6.06-.52S280.06,256,280.06,254.8Z" fill="#263238" stroke="#263238" stroke-linecap="round" stroke-linejoin="round" stroke-width="1"/>
      <path id="Path_1221" data-name="Path 1221" d="M280.06,258.54v5.93s1.68,6.19-1.16,5.8a5.86,5.86,0,0,1-4.12-2.71" fill="none" stroke="#263238" stroke-linecap="round" stroke-linejoin="round" stroke-width="1"/>
      <path id="Path_1222" data-name="Path 1222" d="M271,271.18a10.68,10.68,0,0,0,7.35,2.32,13,13,0,0,0,8-3.23" fill="none" stroke="#263238" stroke-linecap="round" stroke-linejoin="round" stroke-width="1"/>
      <path id="Path_1223" data-name="Path 1223" d="M273.62,259.83a5.8,5.8,0,0,0-5-.91" fill="none" stroke="#263238" stroke-linecap="round" stroke-linejoin="round" stroke-width="1"/>
      <path id="Path_1224" data-name="Path 1224" d="M281.87,260.34s1.68-2.06,5.8-.9" fill="none" stroke="#263238" stroke-linecap="round" stroke-linejoin="round" stroke-width="1"/>
      <path id="Path_1225" data-name="Path 1225" d="M271.42,260.6a.9.9,0,1,0-.9-.9.9.9,0,0,0,.9.9Z" fill="#263238"/>
      <path id="Path_1226" data-name="Path 1226" d="M284.84,260.6a.9.9,0,1,0-.643-.26A.9.9,0,0,0,284.84,260.6Z" fill="#263238"/>
      <path id="Path_1227" data-name="Path 1227" d="M290.14,251.73s.47,3,1.17,3.5a4.78,4.78,0,0,1,1.16,2.1V266l1.64.23.23-8.41a20.24,20.24,0,0,0,2.11-8.41C296.45,245,289.67,249.39,290.14,251.73Z" fill="#263238" stroke="#263238" stroke-linecap="round" stroke-linejoin="round" stroke-width="1"/>
      <path id="Path_1228" data-name="Path 1228" d="M267,246.82s1.41,3.74-.46,6.31-4.21,5.61-4.21,5.61l-.23,6.54-1.87.7-.7-8.41s-1.87-7.25-1.87-9.58,3.5-5.38,4.67-5.84a8,8,0,0,1,2.57-.47s4.67-5.61,11.45-5.61,18,4,22.67,12.15a17.66,17.66,0,0,1-9.58,4.44C283.59,253.36,267.47,248.45,267,246.82Z" fill="#263238" stroke="#263238" stroke-linecap="round" stroke-linejoin="round" stroke-width="1"/>
      <path id="Path_1229" data-name="Path 1229" d="M267.76,308.39l11.11-5.45,11.47,6.04" fill="none" stroke="#263238" stroke-linecap="round" stroke-linejoin="round" stroke-width="1"/>
      <line id="Line_277" data-name="Line 277" y2="20.24" transform="translate(278.27 303.53)" fill="none" stroke="#263238" stroke-linecap="round" stroke-linejoin="round" stroke-width="1"/>
    </g>
    <g id="freepik--character-2--inject-150">
      <rect id="Rectangle_441" data-name="Rectangle 441" width="133.11" height="100.5" transform="translate(354.95 120.02)" fill="#fff" stroke="#263238" stroke-miterlimit="10" stroke-width="1"/>
      <path id="Path_1230" data-name="Path 1230" d="M355.35,124.94l25.6,21.33-4.75,73.95" fill="none" stroke="#263238" stroke-miterlimit="10" stroke-width="1"/>
      <line id="Line_278" data-name="Line 278" x2="107.04" transform="translate(380.95 146.27)" fill="none" stroke="#263238" stroke-miterlimit="10" stroke-width="1"/>
      <path id="Path_1231" data-name="Path 1231" d="M453.23,158.83c-3.7-6.81-18.1-21.6-18.1-21.6-5.06-4.54-9.08-5.14-11.74-4.7-2.65-.44-6.67.16-11.74,4.7,0,0-14.39,14.79-18.09,21.6s-3.7,17.32,4.08,21.41c5.44,2.85,15.79,4.37,22.81,4.77a43.421,43.421,0,0,0,5.89,0c7-.4,17.37-1.92,22.8-4.77C456.93,176.15,456.93,165.64,453.23,158.83Z" fill="#263238" stroke="#263238" stroke-linecap="round" stroke-linejoin="round" stroke-width="1"/>
      <path id="Path_1232" data-name="Path 1232" d="M453.89,201.84c-.2-1.37-2.63-2-8.7-5.26s-13.55-8.17-15.77-11.28-1.82-8.18-1.82-8.18h-9.71s.41,5.06-1.82,8.18-9.71,8-15.77,11.28-8.5,3.89-8.7,5.26-4.85,18.48-4.85,18.48h72S454.09,203.2,453.89,201.84Z" fill="#ff8400" stroke="#263238" stroke-linecap="round" stroke-linejoin="round" stroke-width="1"/>
      <path id="Path_1233" data-name="Path 1233" d="M439.28,206.51c1-4,.38-9.91-.18-13.51-4.26-2.69-8.18-5.6-9.68-7.7-2.23-3.12-1.82-8.18-1.82-8.18h-9.71s.41,5.06-1.82,8.18c-1.52,2.13-5.52,5.09-9.84,7.8-.64,3.48-1.75,11.3.17,16.32a45.86,45.86,0,0,0,6.27,10.9h20.65C434.74,217.73,438.07,211.35,439.28,206.51Z" fill="#ff8400" stroke="#263238" stroke-linecap="round" stroke-linejoin="round" stroke-width="1"/>
      <path id="Path_1234" data-name="Path 1234" d="M434.83,190.14a25.909,25.909,0,0,1-5.41-4.84c-2.23-3.12-1.82-8.18-1.82-8.18h-9.71s.41,5.06-1.82,8.18a23.68,23.68,0,0,1-4.87,4.43l2.87,30.59h16.24Z" fill="#fff" stroke="#263238" stroke-linecap="round" stroke-linejoin="round" stroke-width="1"/>
      <path id="Path_1235" data-name="Path 1235" d="M433.72,189.31a21.749,21.749,0,0,1-4.3-4c-2.23-3.12-1.82-8.18-1.82-8.18h-9.71s.41,5.06-1.82,8.18a20.859,20.859,0,0,1-4,3.77c1.11,2.05,4.43,7.13,10.47,7.9C427.59,197.62,431.59,192.69,433.72,189.31Z" fill="#fff" stroke="#263238" stroke-linecap="round" stroke-linejoin="round" stroke-width="1"/>
      <path id="Path_1236" data-name="Path 1236" d="M417.59,181.52c1.39,1.12,3.57,2.54,5.44,2.29a17.22,17.22,0,0,0,5-1.67,17,17,0,0,1-.47-4l-2.69-.23-4.64-.76h-2.35A18.17,18.17,0,0,1,417.59,181.52Z" fill="#263238" stroke="#263238" stroke-linecap="round" stroke-linejoin="round" stroke-width="1"/>
      <path id="Path_1237" data-name="Path 1237" d="M397.31,210.22a89.778,89.778,0,0,1,4,9.71" fill="none" stroke="#263238" stroke-linecap="round" stroke-linejoin="round" stroke-width="1"/>
      <path id="Path_1238" data-name="Path 1238" d="M395.11,205.92s.41.73,1.05,2" fill="none" stroke="#263238" stroke-linecap="round" stroke-linejoin="round" stroke-width="1"/>
      <path id="Path_1239" data-name="Path 1239" d="M446.65,208.72a18.432,18.432,0,0,1,1.78-2.8" fill="none" stroke="#263238" stroke-linecap="round" stroke-linejoin="round" stroke-width="1"/>
      <path id="Path_1240" data-name="Path 1240" d="M442.4,220.52a63.593,63.593,0,0,1,3.05-9.27" fill="none" stroke="#263238" stroke-linecap="round" stroke-linejoin="round" stroke-width="1"/>
      <path id="Path_1241" data-name="Path 1241" d="M408.35,160.39l-3.12,4.09a6.6,6.6,0,0,0,2.73,3.11,2.14,2.14,0,0,0,2.72-.78l-.58-6.42Z" fill="#fff" stroke="#263238" stroke-linecap="round" stroke-linejoin="round" stroke-width="1"/>
      <path id="Path_1242" data-name="Path 1242" d="M413.36,171.85a5,5,0,1,1-5-5A5,5,0,0,1,413.36,171.85Z" fill="#fff" stroke="#263238" stroke-linecap="round" stroke-linejoin="round" stroke-width="1"/>
      <path id="Path_1243" data-name="Path 1243" d="M436,160.78l3.89,3.7a6.54,6.54,0,0,1-2.73,3.11,2.14,2.14,0,0,1-2.72-.78l.58-6.42Z" fill="#fff" stroke="#263238" stroke-linecap="round" stroke-linejoin="round" stroke-width="1"/>
      <path id="Path_1244" data-name="Path 1244" d="M441.23,171.85a5,5,0,1,1-5-5A5,5,0,0,1,441.23,171.85Z" fill="#fff" stroke="#263238" stroke-linecap="round" stroke-linejoin="round" stroke-width="1"/>
      <path id="Path_1245" data-name="Path 1245" d="M422.94,145.8a65.538,65.538,0,0,1-7.39,8.95c-4.82,4.81-7.2,5.64-7.2,5.64s1.57,10.37,3.89,13.62c2.92,4.09,7.59,9.54,13.42,7,8.61-3.73,9.64-11.9,10.32-20.24C436,160.78,423.72,154,422.94,145.8Z" fill="#fff" stroke="#263238" stroke-linecap="round" stroke-linejoin="round" stroke-width="1"/>
      <path id="Path_1246" data-name="Path 1246" d="M417.88,162a1.27,1.27,0,1,1-1.26-1.26,1.27,1.27,0,0,1,1.26,1.26Z" fill="#263238"/>
      <path id="Path_1247" data-name="Path 1247" d="M430.24,162a1.27,1.27,0,1,1-1.27-1.26,1.27,1.27,0,0,1,1.27,1.26Z" fill="#263238"/>
      <path id="Path_1248" data-name="Path 1248" d="M424.5,160s1.36,6.62-.2,7.78a2.63,2.63,0,0,1-4.28-2.33" fill="none" stroke="#263238" stroke-linecap="round" stroke-linejoin="round" stroke-width="1"/>
      <path id="Path_1249" data-name="Path 1249" d="M419.24,170.9s2.92,1.16,4.67.58a10.51,10.51,0,0,0,3.12-1.75s-1.76,5.06-4.09,5.06S419.24,170.9,419.24,170.9Z" fill="none" stroke="#263238" stroke-linecap="round" stroke-linejoin="round" stroke-width="1"/>
      <path id="Path_1250" data-name="Path 1250" d="M413.79,159.22s1.17-1.94,5.26-1.36" fill="none" stroke="#263238" stroke-linecap="round" stroke-linejoin="round" stroke-width="1"/>
      <path id="Path_1251" data-name="Path 1251" d="M425.66,157.86a7,7,0,0,1,5.84.2" fill="none" stroke="#263238" stroke-linecap="round" stroke-linejoin="round" stroke-width="1"/>
    </g>
    <g id="freepik--character-1--inject-150">
      <rect id="Rectangle_442" data-name="Rectangle 442" width="133.11" height="100.5" transform="translate(215.09 120.02)" fill="#fff" stroke="#263238" stroke-miterlimit="10" stroke-width="1"/>
      <rect id="Rectangle_443" data-name="Rectangle 443" width="34.13" height="44.56" transform="translate(219.77 127.78)" fill="#fff" stroke="#263238" stroke-linecap="round" stroke-linejoin="round" stroke-width="1"/>
      <rect id="Rectangle_444" data-name="Rectangle 444" width="28.32" height="36.98" transform="translate(222.67 131.57)" fill="#fff" stroke="#263238" stroke-linecap="round" stroke-linejoin="round" stroke-width="1"/>
      <rect id="Rectangle_445" data-name="Rectangle 445" width="12.35" height="16.12" transform="translate(230.66 142)" fill="#fff" stroke="#263238" stroke-linecap="round" stroke-linejoin="round" stroke-width="1"/>
      <path id="Path_1252" data-name="Path 1252" d="M314.71,192.22a10.339,10.339,0,0,0,3.05.34s-.47-1.42-.51-1.51c-.47-1-2-2.63-3.2-2.46a1.45,1.45,0,0,0-1.17,1.82,3,3,0,0,0,1.83,1.81Z" fill="#263238"/>
      <path id="Path_1253" data-name="Path 1253" d="M315.45,198.49a10.559,10.559,0,0,0,3-.47,24.253,24.253,0,0,0,1.17,3.24c.26.62.55,1.23.85,1.84-.18-.26-.34-.49-.37-.52-.72-.83-2.6-2-3.73-1.54a1.47,1.47,0,0,0-.65,2.08,3.06,3.06,0,0,0,2.24,1.26,9.84,9.84,0,0,0,2.92-.45c.11.23.23.46.34.7.56,1.11,1.12,2.22,1.64,3.32.19.39.35.78.52,1.17l-.31-.44c-.72-.84-2.61-2-3.74-1.54a1.46,1.46,0,0,0-.65,2.07,3,3,0,0,0,2.24,1.26,9.279,9.279,0,0,0,2.84-.42c.16.4.32.8.46,1.2a8,8,0,0,1,.26.82c.07.28.15.55.23.82.12.52.26,1.07.37,1.58s.15.71.22,1.05c-.18-.39-.54-1.14-.58-1.2-.59-.93-2.27-2.39-3.46-2.09a1.46,1.46,0,0,0-1,2,3.07,3.07,0,0,0,2,1.59,10.28,10.28,0,0,0,3,0c.11.57.22,1.13.31,1.66.2,1.17.36,2.21.48,3.1H327q-.21-1.38-.57-3.24c-.12-.58-.25-1.2-.39-1.83a16.054,16.054,0,0,0,1.68-.8,10.43,10.43,0,0,0,2.46,1.59c-.22.54-.44,1.07-.65,1.56-.45,1-.88,1.94-1.25,2.72h.87c.33-.72.68-1.54,1.05-2.44.23-.55.46-1.14.69-1.75a9.909,9.909,0,0,0,3,.24,3,3,0,0,0,2.13-1.43,1.45,1.45,0,0,0-.8-2c-1.17-.39-2.95.94-3.61,1.82,0,.05-.39.67-.61,1.06.09-.25.19-.49.28-.75.19-.51.36-1,.54-1.57.08-.27.17-.54.25-.82s.14-.57.22-.85c.16-.67.28-1.35.4-2a9.27,9.27,0,0,0,2.86.66,3.08,3.08,0,0,0,2.33-1.09,1.46,1.46,0,0,0-.5-2.11c-1.09-.57-3.06.47-3.84,1.25-.05.05-.54.67-.81,1,.07-.42.13-.84.19-1.26.15-1.22.26-2.47.38-3.7l.12-1.14a10,10,0,0,0,3,.69,3,3,0,0,0,2.32-1.09,1.45,1.45,0,0,0-.49-2.11c-1.09-.57-3.06.48-3.84,1.25-.06.06-.77.95-.94,1.19.09-.83.18-1.66.31-2.48a25.627,25.627,0,0,1,.71-3.25,10.42,10.42,0,0,0,3,.7,3,3,0,0,0,2.32-1.09,1.46,1.46,0,0,0-.49-2.12c-1.1-.56-3.06.48-3.84,1.26-.06.06-.83,1-1,1.2a.288.288,0,0,1,.05-.19,19.9,19.9,0,0,1,1.29-3.08c.28-.55.58-1.06.88-1.54a10.141,10.141,0,0,0,2.82,1,3.07,3.07,0,0,0,2.43-.83,1.46,1.46,0,0,0-.26-2.16c-1-.68-3.09.14-3.95.83a9.075,9.075,0,0,0-.79.79l.41-.66a16,16,0,0,1,1.51-2c.26-.34.51-.64.75-.92a9.771,9.771,0,0,0,2.94-.42,3.05,3.05,0,0,0,1.77-1.85,1.46,1.46,0,0,0-1.22-1.8c-1.22-.13-2.68,1.55-3.13,2.56,0,.08-.49,1.51-.46,1.51h0c-.23.26-.47.55-.74.87-.48.59-1,1.26-1.55,2a25.8,25.8,0,0,0-1.61,2.56,19.373,19.373,0,0,0-1.37,3.09h0v-1.45c-.14-1.09-1.06-3.12-2.27-3.34a1.45,1.45,0,0,0-1.68,1.37,3,3,0,0,0,1.17,2.28,10.25,10.25,0,0,0,2.76,1.27,26.872,26.872,0,0,0-.81,3.35c-.12.66-.21,1.33-.3,2v-.63c-.14-1.1-1.06-3.12-2.27-3.35a1.46,1.46,0,0,0-1.68,1.37,3,3,0,0,0,1.17,2.29,9.92,9.92,0,0,0,2.68,1.24,7.066,7.066,0,0,1-.1.77c-.15,1.24-.29,2.47-.46,3.68-.07.43-.14.84-.22,1.26v-.55c-.14-1.09-1.06-3.12-2.27-3.34a1.46,1.46,0,0,0-1.69,1.37,3.05,3.05,0,0,0,1.18,2.29,9.389,9.389,0,0,0,2.6,1.21c-.09.42-.18.85-.29,1.26a8.362,8.362,0,0,1-.23.82c-.08.27-.17.54-.26.81-.18.51-.37,1-.56,1.53l-.4,1c.07-.43.18-1.26.18-1.33a5.63,5.63,0,0,0-.76-2.76,1.771,1.771,0,0,0,0-.32,1.45,1.45,0,0,0-1.78-1.24c-1.2.32-2,2.41-2,3.51a8.574,8.574,0,0,0,.08,1.22c-.06-.26-.12-.51-.18-.78-.13-.52-.27-1-.42-1.61-.08-.27-.16-.54-.25-.81s-.19-.56-.28-.84c-.24-.64-.51-1.28-.8-1.92a9.511,9.511,0,0,0,2.75-1,3,3,0,0,0,1.34-2.19,1.45,1.45,0,0,0-1.57-1.5c-1.23.13-2.29,2.09-2.52,3.17,0,.06-.08.86-.11,1.29-.18-.38-.35-.77-.54-1.15-.55-1.1-1.14-2.2-1.72-3.3l-.53-1a10.181,10.181,0,0,0,2.85-1.06,3.08,3.08,0,0,0,1.34-2.19,1.46,1.46,0,0,0-1.58-1.49c-1.22.13-2.29,2.08-2.51,3.16,0,.08-.12,1.22-.13,1.51-.39-.74-.77-1.48-1.11-2.23a27.187,27.187,0,0,1-1.2-3.11,10.35,10.35,0,0,0,2.86-1.06,3,3,0,0,0,1.34-2.19,1.45,1.45,0,0,0-1.57-1.49c-1.23.13-2.29,2.08-2.52,3.16,0,.09-.12,1.31-.13,1.53l-.06-.18a19.1,19.1,0,0,1-.63-3.28c-.07-.62-.1-1.2-.11-1.78a9.74,9.74,0,0,0,2.89-.73,3,3,0,0,0,1.57-2,1.46,1.46,0,0,0-1.4-1.66c-1.23,0-2.51,1.83-2.85,2.87,0,.06-.14.66-.22,1.1v-.78c0-.93.06-1.78.12-2.54a8.4,8.4,0,0,1,.12-1.18,9.781,9.781,0,0,0,2.22-2,3.05,3.05,0,0,0,.46-2.53,1.46,1.46,0,0,0-2-.82c-1.1.57-1.39,2.77-1.2,3.86,0,.09.43,1.53.44,1.52h0c0,.35-.1.73-.14,1.13-.08.76-.16,1.62-.18,2.55a28.662,28.662,0,0,0,.07,3,19.315,19.315,0,0,0,.56,3.33h0c-.2-.3-.77-1.14-.82-1.2-.72-.83-2.6-2-3.74-1.53a1.45,1.45,0,0,0-.64,2.07,3.06,3.06,0,0,0,2.14,1.17Z" fill="#263238"/>
      <path id="Path_1254" data-name="Path 1254" d="M336.6,192.7s.4-1.44.41-1.54c.15-1.09-.2-3.29-1.31-3.82a1.45,1.45,0,0,0-2,.88,3.06,3.06,0,0,0,.52,2.51,11,11,0,0,0,2.38,1.97Z" fill="#263238"/>
      <path id="Path_1255" data-name="Path 1255" d="M311,196.77c.4-.6-.6-2.4-4.39-5S286,179.21,286,179.21l-5.59-.29v-.31l-3.09.16-3.09-.16v.31l-5.59.29s-16.76,10-20.55,12.57-4.79,4.39-4.39,5-5.39,23.75-5.39,23.75h78S310.58,197.37,311,196.77Z" fill="#ff8400" stroke="#263238" stroke-linecap="round" stroke-linejoin="round" stroke-width="1"/>
      <path id="Path_1256" data-name="Path 1256" d="M253.58,214.31a53.741,53.741,0,0,1,.92,5.61" fill="none" stroke="#263238" stroke-linecap="round" stroke-linejoin="round" stroke-width="1"/>
      <path id="Path_1257" data-name="Path 1257" d="M247.92,197.17a96.6,96.6,0,0,1,5.15,15" fill="none" stroke="#263238" stroke-linecap="round" stroke-linejoin="round" stroke-width="1"/>
      <path id="Path_1258" data-name="Path 1258" d="M304.55,203.41c-1.62,4.58-3.78,11.53-4.15,16.91" fill="none" stroke="#263238" stroke-linecap="round" stroke-linejoin="round" stroke-width="1"/>
      <path id="Path_1259" data-name="Path 1259" d="M306.39,198.56s-.44,1.06-1.08,2.77" fill="none" stroke="#263238" stroke-linecap="round" stroke-linejoin="round" stroke-width="1"/>
      <line id="Line_279" data-name="Line 279" y2="19.96" transform="translate(276.85 200.56)" fill="none" stroke="#263238" stroke-linecap="round" stroke-linejoin="round" stroke-width="1"/>
      <line id="Line_280" data-name="Line 280" y2="2.99" transform="translate(276.85 195.57)" fill="none" stroke="#263238" stroke-linecap="round" stroke-linejoin="round" stroke-width="1"/>
      <path id="Path_1260" data-name="Path 1260" d="M270.07,175s-4.19,1-4.79,3.59-1.2,19.16-1.2,19.16.2,1.59,2.6-.8,5.18-3.79,6.38-3.79a14.54,14.54,0,0,1,4,1.39s3.2-1.59,5-1.59,1.6,0,4.39,1.79,4,3.2,4.39,2-2.79-17.16-3.39-19.36-4.59-2.79-6.39-2.79S270.07,175,270.07,175Z" fill="#ff8400" stroke="#263238" stroke-linecap="round" stroke-linejoin="round" stroke-width="1"/>
      <path id="Path_1261" data-name="Path 1261" d="M268.47,171.23s.2,9.58.8,11,5.79,12.37,7.78,12.37,7.19-13.37,7.39-14,.59-9,.59-9Z" fill="#fff" stroke="#263238" stroke-linecap="round" stroke-linejoin="round" stroke-width="1"/>
      <path id="Path_1262" data-name="Path 1262" d="M284.79,176.25c.13-2.29.24-4.62.24-4.62l-16.56-.4s0,1.76.13,3.88c2.81,1.78,8.06,5,9.24,5C278.86,180.13,282.36,177.89,284.79,176.25Z" fill="#263238" stroke="#263238" stroke-linecap="round" stroke-linejoin="round" stroke-width="1"/>
      <path id="Path_1263" data-name="Path 1263" d="M262.67,156.09s-1.51-6-4.59-2.54,4.78,9.44,5.51,9.44,1.17-1.45,1.17-1.45Z" fill="#fff" stroke="#263238" stroke-linecap="round" stroke-linejoin="round" stroke-width="1"/>
      <path id="Path_1264" data-name="Path 1264" d="M289.92,156.18s1.76-6.09,4.7-2.82-5.18,9.75-5.91,9.79-1.1-1.38-1.1-1.38Z" fill="#fff" stroke="#263238" stroke-linecap="round" stroke-linejoin="round" stroke-width="1"/>
      <path id="Path_1265" data-name="Path 1265" d="M262.24,153.91s1.36,8.9,2.59,13.26,8.55,10.35,12.91,10.35,10.15-6.72,11.07-10.53,1.57-12.9,1.57-12.9,1.08-6.9.82-8.9-1-5.26-7-8.17-13.66-2.72-17.42-.18-5.19,5.63-4.71,6.9S262.24,153.91,262.24,153.91Z" fill="#fff" stroke="#263238" stroke-linecap="round" stroke-linejoin="round" stroke-width="1"/>
      <path id="Path_1266" data-name="Path 1266" d="M278.89,149.37l.36,7.26s2.83,1.46,1.3,2.91-5.6,2.91-6.34-.36" fill="none" stroke="#263238" stroke-linecap="round" stroke-linejoin="round" stroke-width="1"/>
      <path id="Path_1267" data-name="Path 1267" d="M271.31,162.63a3.2,3.2,0,0,0,2.43,2.18,55.785,55.785,0,0,0,6.92-.37,4.69,4.69,0,0,0,1.4-2.54" fill="none" stroke="#263238" stroke-linecap="round" stroke-linejoin="round" stroke-width="1"/>
      <path id="Path_1268" data-name="Path 1268" d="M272.28,152.91a1.53,1.53,0,0,1-1.35,1.55,1.35,1.35,0,0,1-1.19-1.55,1.52,1.52,0,0,1,1.35-1.54,1.34,1.34,0,0,1,1.19,1.54Z" fill="#263238"/>
      <path id="Path_1269" data-name="Path 1269" d="M284.34,152.91a1.53,1.53,0,0,1-1.35,1.55,1.35,1.35,0,0,1-1.19-1.55,1.52,1.52,0,0,1,1.35-1.54,1.34,1.34,0,0,1,1.19,1.54Z" fill="#263238"/>
      <path id="Path_1270" data-name="Path 1270" d="M266.33,148.46s2.5-2.54,7.34-1.45" fill="none" stroke="#263238" stroke-linecap="round" stroke-linejoin="round" stroke-width="1"/>
      <path id="Path_1271" data-name="Path 1271" d="M281.32,146.65s3.88-1.28,6.65,1.27" fill="none" stroke="#263238" stroke-linecap="round" stroke-linejoin="round" stroke-width="1"/>
      <path id="Path_1272" data-name="Path 1272" d="M268.4,157.14a.56.56,0,1,1-.56-.56A.56.56,0,0,1,268.4,157.14Z" fill="none" stroke="#263238" stroke-linecap="round" stroke-linejoin="round" stroke-width="0.5"/>
      <path id="Path_1273" data-name="Path 1273" d="M271.48,157.33a.56.56,0,1,1-.56-.56A.56.56,0,0,1,271.48,157.33Z" fill="none" stroke="#263238" stroke-linecap="round" stroke-linejoin="round" stroke-width="0.5"/>
      <path id="Path_1274" data-name="Path 1274" d="M269.63,159.18a.56.56,0,1,1-.56-.56A.56.56,0,0,1,269.63,159.18Z" fill="none" stroke="#263238" stroke-linecap="round" stroke-linejoin="round" stroke-width="0.5"/>
      <path id="Path_1275" data-name="Path 1275" d="M283,157.14a.56.56,0,1,1-.56-.56A.56.56,0,0,1,283,157.14Z" fill="none" stroke="#263238" stroke-linecap="round" stroke-linejoin="round" stroke-width="0.5"/>
      <path id="Path_1276" data-name="Path 1276" d="M286.08,157.33a.56.56,0,1,1-.56-.56A.56.56,0,0,1,286.08,157.33Z" fill="none" stroke="#263238" stroke-linecap="round" stroke-linejoin="round" stroke-width="0.5"/>
      <path id="Path_1277" data-name="Path 1277" d="M284.23,159.18a.56.56,0,1,1-.56-.56A.56.56,0,0,1,284.23,159.18Z" fill="none" stroke="#263238" stroke-linecap="round" stroke-linejoin="round" stroke-width="0.5"/>
      <path id="Path_1278" data-name="Path 1278" d="M264.11,142.29a13.9,13.9,0,0,1,.39,2.9,5.28,5.28,0,0,1-1.63,3.45l-.2,7.45-2-7.08s-1.46-10.54-1.35-12.72.44-5.08,2.81-5.26a4.46,4.46,0,0,1,3.73,1.63s4-6.9,8.33-6.54S277,128.3,277,128.3s9.22-2.72,16.06-1.45,5.49,9.81,4.14,11.44-5.2,2.91-5.2,2.91,2.44,2,2.69,4.17-2.33,3.09-2.33,3.09l-2,7.63-.29-8.54s.19-.18-1-2-3.2-4.73-3.2-4.73,1.36,1.82-3.38,2-11.89-5.45-11.89-5.45-1.22,2.55-2.5,2.73S264.11,142.29,264.11,142.29Z" fill="#ff8400" stroke="#263238" stroke-linecap="round" stroke-linejoin="round" stroke-width="1"/>
    </g>
    <g id="freepik--Table--inject-150">
      <line id="Line_281" data-name="Line 281" x2="635.03" transform="translate(85.97 453.78)" fill="none" stroke="#263238" stroke-miterlimit="10" stroke-width="1"/>
      <line id="Line_282" data-name="Line 282" x2="17.1" transform="translate(53 453.78)" fill="none" stroke="#263238" stroke-miterlimit="10" stroke-width="1"/>
    </g>
  </g>
</svg>
