<svg xmlns="http://www.w3.org/2000/svg" width="1921" height="548.037" viewBox="0 0 1921 548.037">
  <g id="Search_engines-bro" data-name="Search engines-bro" transform="translate(622.122 -12.708)">
    <g id="freepik--Shadow--inject-32" transform="translate(-261.849 537.717)" opacity="0.2">
      <rect id="Rectangle_484" data-name="Rectangle 484" width="1200.454" height="23.028" fill="#0129ff"/>
      <rect id="Rectangle_485" data-name="Rectangle 485" width="1200.454" height="23.028" fill="#fff" opacity="0.2"/>
    </g>
    <g id="freepik--Plants--inject-32" transform="translate(45.34 208.317)">
      <g id="Group_4290" data-name="Group 4290">
        <path id="Path_1415" data-name="Path 1415" d="M200.174,251.23a80.612,80.612,0,0,0-8.074,3.123c1.439-1.051,2.878-2.144,4.318-3.253a209.35,209.35,0,0,0,18.264-16.551,198.708,198.708,0,0,1-21.589,18.178,45.854,45.854,0,0,0,2.763-5.671c1.439-3.584,1.7-7.2-1.713-9.11-4.217-2.36-9.312,1.166-7.973,7.2a22.25,22.25,0,0,0,4.649,9.139,137.843,137.843,0,0,1-15.544,9.312l-.5.259a51.252,51.252,0,0,0,3.008-6.117c1.353-3.569,1.7-7.2-1.727-9.1-4.217-2.375-9.312,1.166-7.959,7.2a22.294,22.294,0,0,0,4.548,9.038c-6.462,3.181-13.14,5.887-19.79,8.823l-.964.432a44.355,44.355,0,0,0,3.613-4.418c2.159-3.166,3.325-6.592.446-9.254-3.541-3.281-9.341-1.036-9.427,5.181a22.236,22.236,0,0,0,2.332,9.888,101.742,101.742,0,0,0-17.645,10.535l-.173.144a39.493,39.493,0,0,0,2.044-3.656c1.626-3.469,2.231-7.038-1.051-9.211a5.354,5.354,0,0,0-8.031,2.49,5.052,5.052,0,0,0-1.713-1.641c-3.3-1.9-6.534.158-9.312,3.066-.72.763-1.439,1.583-2.058,2.389a101.524,101.524,0,0,1,8.045-17.127,24.625,24.625,0,0,0,9.686,2.058c6.563,0,9.326-5.469,6.1-8.866-2.619-2.749-6.3-1.7-9.787.317a36.786,36.786,0,0,0-3.325,2.188,99.509,99.509,0,0,1,11.312-14.076,24.654,24.654,0,0,0,9.355,4.706c6.376,1.569,10.377-3.051,8.074-7.124-1.871-3.31-5.757-3.181-9.571-2.073a44.243,44.243,0,0,0-5.354,1.986c1.741-1.7,3.541-3.325,5.368-4.937,2.389-2.044,4.865-4.015,7.383-5.944a24.6,24.6,0,0,0,9.2,4.591c6.376,1.569,10.377-3.051,8.074-7.124-1.871-3.31-5.757-3.181-9.585-2.073-.892.259-1.8.576-2.677.907,3.325-2.375,6.693-4.692,10.075-6.995l3.123-2.144a24.727,24.727,0,0,0,9.672,4.98c6.376,1.569,10.391-3.051,8.089-7.124-1.885-3.31-5.757-3.181-9.585-2.073q-2.26.691-4.447,1.6h0l1.929-1.439c1.18-.849,2.36-1.713,3.512-2.619,1.439-1.079,2.807-2.274,4.2-3.425.806-.633,1.569-1.31,2.332-2a24.654,24.654,0,0,0,9.729,5.023c6.376,1.569,10.377-3.051,8.074-7.124-1.871-3.31-5.757-3.181-9.571-2.073a54.04,54.04,0,0,0-6.275,2.375h0c2.605-2.418,5.124-4.937,7.513-7.556.158-.187.3-.374.475-.547,1.022-1.137,2.029-2.288,3.008-3.483s2.245-2.763,3.31-4.2a82.367,82.367,0,0,0,10.708-18.71,82.037,82.037,0,0,1-11.068,18.422,115.818,115.818,0,0,1-14.781,15.616l-.59.5a54.691,54.691,0,0,0,3.253-6.491c1.367-3.569,1.7-7.2-1.727-9.1-4.2-2.375-9.312,1.166-7.959,7.2a22.381,22.381,0,0,0,5.052,9.614L180,206.369l-1.439,1.238c-.835.676-1.7,1.324-2.562,1.972-.461.345-.907.705-1.439,1.051-1.223.907-2.461,1.785-3.713,2.648l-1.8,1.223L167,215.94a49.979,49.979,0,0,0,3.138-6.347c1.367-3.584,1.7-7.2-1.713-9.1-4.217-2.375-9.326,1.166-7.973,7.2a22.265,22.265,0,0,0,4.821,9.37l-1.439.979-5.6,3.67-1.108.72L154,224.518l-1.353.907c-1.439.993-2.878,2-4.318,3.037a50.8,50.8,0,0,0,3.022-6.433c1.439-3.569,1.7-7.2-1.713-9.1-4.217-2.375-9.312,1.166-7.959,7.2a22.179,22.179,0,0,0,4.922,9.47c-2.447,1.8-4.865,3.641-7.2,5.57-1.713,1.439-3.4,2.878-5.052,4.433a39.642,39.642,0,0,0,1.929-4.116c1.353-3.584,1.7-7.2-1.727-9.1-4.217-2.375-9.312,1.166-7.959,7.2a22.294,22.294,0,0,0,4.548,9.038,101.065,101.065,0,0,0-12.536,15.155,38.438,38.438,0,0,0,.95-4.778c.461-3.8-.086-7.369-3.872-8.405-4.663-1.281-8.751,3.382-5.973,8.938a22.293,22.293,0,0,0,6.678,7.729,104.748,104.748,0,0,0-9.038,18.71,38.629,38.629,0,0,0-.4-4.073c-.648-3.785-2.173-7.052-6.1-6.98-4.836.1-7.441,5.757-3.2,10.276a21.935,21.935,0,0,0,8.089,5.34,131.477,131.477,0,0,0-3.987,15.357c-.173.82-.3,1.641-.461,2.461-.173.158-.345.317-.5.489-.173-.705-.374-1.439-.6-2.116-1.209-3.627-3.224-6.635-7.1-5.944-4.75.835-6.462,6.793-1.569,10.636a21.776,21.776,0,0,0,8.405,3.929c0,.144.115.273.187.417-.533,3.9-.936,7.829-1.18,11.773-.187,2.879-.288,5.887-.345,8.837-4.116,0-7.024,4.519-4.188,9.413a20.754,20.754,0,0,0,4.534,5.354c.345,5.541.892,11.082,1.626,16.58a4.562,4.562,0,0,0-4.4-1.022c-2.591.705-3.756,2.792-4.174,5.354a5.124,5.124,0,0,0-1.439,3.555c-1.929-2.878-3.756-5.757-5.527-8.794a24.467,24.467,0,0,0,6.577-7.671c3.094-5.757-.4-10.809-4.908-9.585-3.684,1.007-4.49,4.749-4.318,8.765a40.184,40.184,0,0,0,.432,4.548l-1.9-3.339c-1.583-2.879-2.878-5.757-4.433-8.635-.374-.705-.705-1.439-1.007-2.159a24.466,24.466,0,0,0,7.873-6.29c4.131-5.095,1.641-10.694-3.022-10.334-3.8.3-5.311,3.828-5.944,7.8a48.93,48.93,0,0,0-.461,5.224l-1.353-3.123a160.46,160.46,0,0,1-7.1-21.79,24.467,24.467,0,0,0,9.125-5.757c4.62-4.678,2.706-10.478-1.972-10.593-3.8-.086-5.656,3.267-6.692,7.2a52.588,52.588,0,0,0-1.137,6.333q-1.511-6.39-2.591-12.953c-.489-2.677-.806-5.4-1.137-8.1a24.813,24.813,0,0,0,10.161-4.562c5.181-4.03,4.044-10.075-.59-10.751-3.756-.59-6.03,2.5-7.556,6.232a62.2,62.2,0,0,0-2.245,7.2c-.288-3.137-.619-6.289-.763-9.441a147.619,147.619,0,0,1,0-19.545,148.14,148.14,0,0,0-.676,19.574c0,3.008.259,6,.446,9.01a48.113,48.113,0,0,0-2.878-5.944c-1.957-3.3-4.577-5.757-8.2-4.318-4.476,1.842-4.865,8.031.748,10.737a22.279,22.279,0,0,0,10.521,2c.259,2.691.489,5.368.892,8.031.561,4.318,1.281,8.463,2.13,12.651a42.83,42.83,0,0,0-3.066-4.62c-2.375-3.008-5.282-5.138-8.635-3.2-4.188,2.4-3.785,8.635,2.13,10.55a22.309,22.309,0,0,0,10.348.691,166.565,166.565,0,0,0,6.462,22.092l.849,2.159a31.273,31.273,0,0,0-2.461-2.878c-2.663-2.763-5.757-4.591-8.966-2.3-3.929,2.878-2.878,8.923,3.166,10.276a22.266,22.266,0,0,0,10.075-.288c.3.734.6,1.439.964,2.188,1.439,2.965,2.72,6,4.231,8.909l1.252,2.519c-.748-.648-1.526-1.267-2.332-1.842-3.138-2.2-6.534-3.411-9.24-.576-3.339,3.5-1.18,9.312,5.037,9.5a22.036,22.036,0,0,0,9.413-1.871c1.785,3.224,3.613,6.4,5.6,9.528.734,1.195,1.439,2.375,2.274,3.555a36.988,36.988,0,0,0-3.569-2.879c-3.138-2.2-6.534-3.411-9.254-.576-3.325,3.5-1.166,9.312,5.052,9.5a22.381,22.381,0,0,0,10.247-2.346q1.554,2.159,3.2,4.318c-2.317,2.691-1.554,7.2,3.152,9.254a21,21,0,0,0,7.2,1.6c.288.23.576.461.892.676l.144.115q4.462,16.666,10.578,32.844c1.727,4.591,3.584,9.139,5.5,13.658H106v68.105h52.777V441.714H130.687c-2.4-5.253-4.721-10.564-6.88-15.932-3.526-8.808-6.721-17.76-9.5-26.842h0a12.263,12.263,0,0,0,1.439.331,6.275,6.275,0,0,0,1.943.086l-.748-4.735h-.5a8.892,8.892,0,0,1-.892-.173,13.725,13.725,0,0,1-1.943-.72l-.748-.345a24.367,24.367,0,0,0,7.614-4.318c4.994-4.318,3.584-10.219-1.079-10.722-3.771-.417-5.9,2.778-7.2,6.563-.389,1.079-.705,2.2-.979,3.3-.273-1.007-.547-2.015-.806-3.022-.763-2.979-1.439-5.987-2.13-9a24.223,24.223,0,0,0,8.247-4.476c4.994-4.318,3.569-10.2-1.079-10.708-3.785-.417-5.9,2.778-7.2,6.563-.389,1.094-.72,2.231-1.007,3.353-.432-2.188-.849-4.39-1.238-6.592-.273-1.626-.533-3.267-.777-4.908-.086-2.332-.13-4.663-.1-7.009,0-1.281,0-2.562.115-3.843a24.611,24.611,0,0,0,8.736,1.108c6.563-.432,8.981-6.045,5.555-9.226-2.792-2.605-6.4-1.31-9.758.907a45.894,45.894,0,0,0-4.318,3.325,105.206,105.206,0,0,1,2.49-16.263,83.031,83.031,0,0,1,2.749-9.3,24.654,24.654,0,0,0,9.369,1.31c6.563-.417,8.981-6.03,5.555-9.226-2.778-2.591-6.4-1.31-9.758.921a37.854,37.854,0,0,0-3.368,2.605,69.6,69.6,0,0,1,4.4-8.636,63.457,63.457,0,0,1,12.291-14.982,24.337,24.337,0,0,0,8.707,5.167c6.246,2.044,10.578-2.274,8.635-6.505-1.626-3.44-5.455-3.6-9.4-2.778a39.808,39.808,0,0,0-4.49,1.238l.1-.086a99.31,99.31,0,0,1,17.271-10.823,24.77,24.77,0,0,0,8.031,6.822c5.843,3.008,10.809-.561,9.513-5.052-1.051-3.656-4.807-4.418-8.823-4.318a42.786,42.786,0,0,0-4.706.518c6.491-3.066,13.112-5.959,19.5-9.341h.144a24.467,24.467,0,0,0,9.916,5.181c6.376,1.583,10.377-3.051,8.074-7.2-1.871-3.31-5.757-3.166-9.571-2.073-1.079.317-2.159.705-3.21,1.108a142.933,142.933,0,0,0,12.392-8.089l.331.36v-.187a24.986,24.986,0,0,0,10,5.253c6.361,1.569,10.377-3.051,8.074-7.2C207.874,249.993,204.045,250.122,200.174,251.23ZM99.542,381.64c-1.31-1.526-2.547-3.123-3.756-4.735.288-.259.6-.547.921-.864a22.626,22.626,0,0,0,5.541.993v.3l.878-.187c.461,2.274.936,4.534,1.439,6.793A5.886,5.886,0,0,0,99.542,381.64Zm4.692-54.188c-.446,1.7-.82,3.4-1.18,5.109l-.216-.3q0-5.268.158-10.506c.1-2.447.273-4.879.489-7.326a25.354,25.354,0,0,0,3.886,3.238,94.273,94.273,0,0,0-3.123,9.787Zm5.9-16.12c.086-.633.158-1.281.187-1.914v-.964c.518-.158,1.051-.345,1.569-.561-.576,1.137-1.18,2.288-1.741,3.44Zm7.5-12.162A4.591,4.591,0,0,0,115,296.7c-3.555-1.439-6.433,1.151-8.722,4.462l-.115.158h-.23a4.325,4.325,0,0,0-.734-.1,1.2,1.2,0,0,1,.1-.59,128.6,128.6,0,0,1,3.684-15.386,24.467,24.467,0,0,0,9.859-.763,8.391,8.391,0,0,0,4.836-3.44,22.222,22.222,0,0,0,3.555,8.074,66.05,66.05,0,0,0-9.585,10.075Z" transform="translate(-146.341 -169.51)" fill="#0129ff"/>
        <path id="Path_1416" data-name="Path 1416" d="M200.174,251.23a80.612,80.612,0,0,0-8.074,3.123c1.439-1.051,2.878-2.144,4.318-3.253a209.35,209.35,0,0,0,18.264-16.551,198.708,198.708,0,0,1-21.589,18.178,45.854,45.854,0,0,0,2.763-5.671c1.439-3.584,1.7-7.2-1.713-9.11-4.217-2.36-9.312,1.166-7.973,7.2a22.25,22.25,0,0,0,4.649,9.139,137.843,137.843,0,0,1-15.544,9.312l-.5.259a51.252,51.252,0,0,0,3.008-6.117c1.353-3.569,1.7-7.2-1.727-9.1-4.217-2.375-9.312,1.166-7.959,7.2a22.294,22.294,0,0,0,4.548,9.038c-6.462,3.181-13.14,5.887-19.79,8.823l-.964.432a44.355,44.355,0,0,0,3.613-4.418c2.159-3.166,3.325-6.592.446-9.254-3.541-3.281-9.341-1.036-9.427,5.181a22.236,22.236,0,0,0,2.332,9.888,101.742,101.742,0,0,0-17.645,10.535l-.173.144a39.493,39.493,0,0,0,2.044-3.656c1.626-3.469,2.231-7.038-1.051-9.211a5.354,5.354,0,0,0-8.031,2.49,5.052,5.052,0,0,0-1.713-1.641c-3.3-1.9-6.534.158-9.312,3.066-.72.763-1.439,1.583-2.058,2.389a101.524,101.524,0,0,1,8.045-17.127,24.625,24.625,0,0,0,9.686,2.058c6.563,0,9.326-5.469,6.1-8.866-2.619-2.749-6.3-1.7-9.787.317a36.786,36.786,0,0,0-3.325,2.188,99.509,99.509,0,0,1,11.312-14.076,24.654,24.654,0,0,0,9.355,4.706c6.376,1.569,10.377-3.051,8.074-7.124-1.871-3.31-5.757-3.181-9.571-2.073a44.243,44.243,0,0,0-5.354,1.986c1.741-1.7,3.541-3.325,5.368-4.937,2.389-2.044,4.865-4.015,7.383-5.944a24.6,24.6,0,0,0,9.2,4.591c6.376,1.569,10.377-3.051,8.074-7.124-1.871-3.31-5.757-3.181-9.585-2.073-.892.259-1.8.576-2.677.907,3.325-2.375,6.693-4.692,10.075-6.995l3.123-2.144a24.727,24.727,0,0,0,9.672,4.98c6.376,1.569,10.391-3.051,8.089-7.124-1.885-3.31-5.757-3.181-9.585-2.073q-2.26.691-4.447,1.6h0l1.929-1.439c1.18-.849,2.36-1.713,3.512-2.619,1.439-1.079,2.807-2.274,4.2-3.425.806-.633,1.569-1.31,2.332-2a24.654,24.654,0,0,0,9.729,5.023c6.376,1.569,10.377-3.051,8.074-7.124-1.871-3.31-5.757-3.181-9.571-2.073a54.04,54.04,0,0,0-6.275,2.375h0c2.605-2.418,5.124-4.937,7.513-7.556.158-.187.3-.374.475-.547,1.022-1.137,2.029-2.288,3.008-3.483s2.245-2.763,3.31-4.2a82.367,82.367,0,0,0,10.708-18.71,82.037,82.037,0,0,1-11.068,18.422,115.818,115.818,0,0,1-14.781,15.616l-.59.5a54.691,54.691,0,0,0,3.253-6.491c1.367-3.569,1.7-7.2-1.727-9.1-4.2-2.375-9.312,1.166-7.959,7.2a22.381,22.381,0,0,0,5.052,9.614L180,206.369l-1.439,1.238c-.835.676-1.7,1.324-2.562,1.972-.461.345-.907.705-1.439,1.051-1.223.907-2.461,1.785-3.713,2.648l-1.8,1.223L167,215.94a49.979,49.979,0,0,0,3.138-6.347c1.367-3.584,1.7-7.2-1.713-9.1-4.217-2.375-9.326,1.166-7.973,7.2a22.265,22.265,0,0,0,4.821,9.37l-1.439.979-5.6,3.67-1.108.72L154,224.518l-1.353.907c-1.439.993-2.878,2-4.318,3.037a50.8,50.8,0,0,0,3.022-6.433c1.439-3.569,1.7-7.2-1.713-9.1-4.217-2.375-9.312,1.166-7.959,7.2a22.179,22.179,0,0,0,4.922,9.47c-2.447,1.8-4.865,3.641-7.2,5.57-1.713,1.439-3.4,2.878-5.052,4.433a39.642,39.642,0,0,0,1.929-4.116c1.353-3.584,1.7-7.2-1.727-9.1-4.217-2.375-9.312,1.166-7.959,7.2a22.294,22.294,0,0,0,4.548,9.038,101.065,101.065,0,0,0-12.536,15.155,38.438,38.438,0,0,0,.95-4.778c.461-3.8-.086-7.369-3.872-8.405-4.663-1.281-8.751,3.382-5.973,8.938a22.293,22.293,0,0,0,6.678,7.729,104.748,104.748,0,0,0-9.038,18.71,38.629,38.629,0,0,0-.4-4.073c-.648-3.785-2.173-7.052-6.1-6.98-4.836.1-7.441,5.757-3.2,10.276a21.935,21.935,0,0,0,8.089,5.34,131.477,131.477,0,0,0-3.987,15.357c-.173.82-.3,1.641-.461,2.461-.173.158-.345.317-.5.489-.173-.705-.374-1.439-.6-2.116-1.209-3.627-3.224-6.635-7.1-5.944-4.75.835-6.462,6.793-1.569,10.636a21.776,21.776,0,0,0,8.405,3.929c0,.144.115.273.187.417-.533,3.9-.936,7.829-1.18,11.773-.187,2.879-.288,5.887-.345,8.837-4.116,0-7.024,4.519-4.188,9.413a20.754,20.754,0,0,0,4.534,5.354c.345,5.541.892,11.082,1.626,16.58a4.562,4.562,0,0,0-4.4-1.022c-2.591.705-3.756,2.792-4.174,5.354a5.124,5.124,0,0,0-1.439,3.555c-1.929-2.878-3.756-5.757-5.527-8.794a24.467,24.467,0,0,0,6.577-7.671c3.094-5.757-.4-10.809-4.908-9.585-3.684,1.007-4.49,4.749-4.318,8.765a40.184,40.184,0,0,0,.432,4.548l-1.9-3.339c-1.583-2.879-2.878-5.757-4.433-8.635-.374-.705-.705-1.439-1.007-2.159a24.466,24.466,0,0,0,7.873-6.29c4.131-5.095,1.641-10.694-3.022-10.334-3.8.3-5.311,3.828-5.944,7.8a48.93,48.93,0,0,0-.461,5.224l-1.353-3.123a160.46,160.46,0,0,1-7.1-21.79,24.467,24.467,0,0,0,9.125-5.757c4.62-4.678,2.706-10.478-1.972-10.593-3.8-.086-5.656,3.267-6.692,7.2a52.588,52.588,0,0,0-1.137,6.333q-1.511-6.39-2.591-12.953c-.489-2.677-.806-5.4-1.137-8.1a24.813,24.813,0,0,0,10.161-4.562c5.181-4.03,4.044-10.075-.59-10.751-3.756-.59-6.03,2.5-7.556,6.232a62.2,62.2,0,0,0-2.245,7.2c-.288-3.137-.619-6.289-.763-9.441a147.619,147.619,0,0,1,0-19.545,148.14,148.14,0,0,0-.676,19.574c0,3.008.259,6,.446,9.01a48.113,48.113,0,0,0-2.878-5.944c-1.957-3.3-4.577-5.757-8.2-4.318-4.476,1.842-4.865,8.031.748,10.737a22.279,22.279,0,0,0,10.521,2c.259,2.691.489,5.368.892,8.031.561,4.318,1.281,8.463,2.13,12.651a42.83,42.83,0,0,0-3.066-4.62c-2.375-3.008-5.282-5.138-8.635-3.2-4.188,2.4-3.785,8.635,2.13,10.55a22.309,22.309,0,0,0,10.348.691,166.565,166.565,0,0,0,6.462,22.092l.849,2.159a31.273,31.273,0,0,0-2.461-2.878c-2.663-2.763-5.757-4.591-8.966-2.3-3.929,2.878-2.878,8.923,3.166,10.276a22.266,22.266,0,0,0,10.075-.288c.3.734.6,1.439.964,2.188,1.439,2.965,2.72,6,4.231,8.909l1.252,2.519c-.748-.648-1.526-1.267-2.332-1.842-3.138-2.2-6.534-3.411-9.24-.576-3.339,3.5-1.18,9.312,5.037,9.5a22.036,22.036,0,0,0,9.413-1.871c1.785,3.224,3.613,6.4,5.6,9.528.734,1.195,1.439,2.375,2.274,3.555a36.988,36.988,0,0,0-3.569-2.879c-3.138-2.2-6.534-3.411-9.254-.576-3.325,3.5-1.166,9.312,5.052,9.5a22.381,22.381,0,0,0,10.247-2.346q1.554,2.159,3.2,4.318c-2.317,2.691-1.554,7.2,3.152,9.254a21,21,0,0,0,7.2,1.6c.288.23.576.461.892.676l.144.115q4.462,16.666,10.578,32.844c1.727,4.591,3.584,9.139,5.5,13.658H106v68.105h52.777V441.714H130.687c-2.4-5.253-4.721-10.564-6.88-15.932-3.526-8.808-6.721-17.76-9.5-26.842h0a12.263,12.263,0,0,0,1.439.331,6.275,6.275,0,0,0,1.943.086l-.748-4.735h-.5a8.892,8.892,0,0,1-.892-.173,13.725,13.725,0,0,1-1.943-.72l-.748-.345a24.367,24.367,0,0,0,7.614-4.318c4.994-4.318,3.584-10.219-1.079-10.722-3.771-.417-5.9,2.778-7.2,6.563-.389,1.079-.705,2.2-.979,3.3-.273-1.007-.547-2.015-.806-3.022-.763-2.979-1.439-5.987-2.13-9a24.223,24.223,0,0,0,8.247-4.476c4.994-4.318,3.569-10.2-1.079-10.708-3.785-.417-5.9,2.778-7.2,6.563-.389,1.094-.72,2.231-1.007,3.353-.432-2.188-.849-4.39-1.238-6.592-.273-1.626-.533-3.267-.777-4.908-.086-2.332-.13-4.663-.1-7.009,0-1.281,0-2.562.115-3.843a24.611,24.611,0,0,0,8.736,1.108c6.563-.432,8.981-6.045,5.555-9.226-2.792-2.605-6.4-1.31-9.758.907a45.894,45.894,0,0,0-4.318,3.325,105.206,105.206,0,0,1,2.49-16.263,83.031,83.031,0,0,1,2.749-9.3,24.654,24.654,0,0,0,9.369,1.31c6.563-.417,8.981-6.03,5.555-9.226-2.778-2.591-6.4-1.31-9.758.921a37.854,37.854,0,0,0-3.368,2.605,69.6,69.6,0,0,1,4.4-8.636,63.457,63.457,0,0,1,12.291-14.982,24.337,24.337,0,0,0,8.707,5.167c6.246,2.044,10.578-2.274,8.635-6.505-1.626-3.44-5.455-3.6-9.4-2.778a39.808,39.808,0,0,0-4.49,1.238l.1-.086a99.31,99.31,0,0,1,17.271-10.823,24.77,24.77,0,0,0,8.031,6.822c5.843,3.008,10.809-.561,9.513-5.052-1.051-3.656-4.807-4.418-8.823-4.318a42.786,42.786,0,0,0-4.706.518c6.491-3.066,13.112-5.959,19.5-9.341h.144a24.467,24.467,0,0,0,9.916,5.181c6.376,1.583,10.377-3.051,8.074-7.2-1.871-3.31-5.757-3.166-9.571-2.073-1.079.317-2.159.705-3.21,1.108a142.933,142.933,0,0,0,12.392-8.089l.331.36v-.187a24.986,24.986,0,0,0,10,5.253c6.361,1.569,10.377-3.051,8.074-7.2C207.874,249.993,204.045,250.122,200.174,251.23ZM99.542,381.64c-1.31-1.526-2.547-3.123-3.756-4.735.288-.259.6-.547.921-.864a22.626,22.626,0,0,0,5.541.993v.3l.878-.187c.461,2.274.936,4.534,1.439,6.793A5.886,5.886,0,0,0,99.542,381.64Zm4.692-54.188c-.446,1.7-.82,3.4-1.18,5.109l-.216-.3q0-5.268.158-10.506c.1-2.447.273-4.879.489-7.326a25.354,25.354,0,0,0,3.886,3.238,94.273,94.273,0,0,0-3.123,9.787Zm5.9-16.12c.086-.633.158-1.281.187-1.914v-.964c.518-.158,1.051-.345,1.569-.561-.576,1.137-1.18,2.288-1.741,3.44Zm7.5-12.162A4.591,4.591,0,0,0,115,296.7c-3.555-1.439-6.433,1.151-8.722,4.462l-.115.158h-.23a4.325,4.325,0,0,0-.734-.1,1.2,1.2,0,0,1,.1-.59,128.6,128.6,0,0,1,3.684-15.386,24.467,24.467,0,0,0,9.859-.763,8.391,8.391,0,0,0,4.836-3.44,22.222,22.222,0,0,0,3.555,8.074,66.05,66.05,0,0,0-9.585,10.075Z" transform="translate(-146.341 -169.51)" fill="#fff" opacity="0.3"/>
      </g>
      <path id="Path_1424" data-name="Path 1424" d="M413.51,289.76a7.542,7.542,0,0,1,2.979,3.138" transform="translate(116.376 -116.691)" fill="none" stroke="#fff" stroke-linecap="round" stroke-linejoin="round" stroke-width="0.5"/>
      <g id="Group_4289" data-name="Group 4289" transform="translate(67)">
        <path id="Path_1417" data-name="Path 1417" d="M409.22,395.8s-6.966-15.558-8.635-17.156-15.011-6.433-18.71-18.71-10.722-45.048,6.98-42.9,13.4,36.47,19.833,35.391-5.354-55.756,5.9-63.327,29.49-.533,27.346,28.425-6.433,45.566-2.677,43.969,14.479-7.513,14.479,4.822-10.19,20.912-16.091,21.445-8.635,1.079-8.635,1.079v8.031Z" transform="translate(100.488 -118.226)" fill="#2e353a" stroke="#2e353a" stroke-linecap="round" stroke-linejoin="round" stroke-width="1"/>
        <path id="Path_1418" data-name="Path 1418" d="M400.259,352.669c-4.044-3.828-7.758-7.542-9.47-10.953-3.4-6.808-5.958-25.906-5.958-25.906" transform="translate(103.778 -105.249)" fill="none" stroke="#fff" stroke-linecap="round" stroke-linejoin="round" stroke-width="0.5"/>
        <path id="Path_1419" data-name="Path 1419" d="M380.64,322.29c2.677,11.154,3.051,19.559,11.14,29.346,4.318,5.3,15.745,9.787,17.026,14.464a169.881,169.881,0,0,1,2.576,17.026l6.39.432s1.3-11.082-2.36-18.984" transform="translate(101.938 -102.402)" fill="none" stroke="#fff" stroke-linecap="round" stroke-linejoin="round" stroke-width="0.5"/>
        <path id="Path_1420" data-name="Path 1420" d="M382.931,309.86s-4.778,3.67-3.08,12.709" transform="translate(101.432 -107.862)" fill="none" stroke="#fff" stroke-linecap="round" stroke-linejoin="round" stroke-width="0.5"/>
        <line id="Line_319" data-name="Line 319" x1="2.533" y2="4.102" transform="translate(512.442 234.914)" fill="none" stroke="#fff" stroke-linecap="round" stroke-linejoin="round" stroke-width="0.5"/>
        <line id="Line_320" data-name="Line 320" x1="0.878" y2="1.425" transform="translate(514.976 233.489)" fill="none" stroke="#fff" stroke-linecap="round" stroke-linejoin="round" stroke-width="0.5"/>
        <path id="Path_1421" data-name="Path 1421" d="M412.657,289.161s-9.787-.417-9.787,8.938c0,7.9,2.418,34.873,1.9,47.207" transform="translate(111.702 -116.955)" fill="none" stroke="#fff" stroke-linecap="round" stroke-linejoin="round" stroke-width="0.5"/>
        <path id="Path_1422" data-name="Path 1422" d="M416.546,344.629c-.23,3.21-.374,5.484-.374,6.347,0,4.678,11.9-13.2,17.444-13.615,0,0,5.527-.432,3.4,9.787A21.272,21.272,0,0,1,422.13,363.31c-4.692,1.281-8.52-.849-9.369,1.281a39.406,39.406,0,0,0-1.281,7.657" transform="translate(115.484 -95.784)" fill="none" stroke="#fff" stroke-linecap="round" stroke-linejoin="round" stroke-width="0.5"/>
        <path id="Path_1423" data-name="Path 1423" d="M417.58,295.33a37.8,37.8,0,0,1,1.036,9.427c0,9.96-1.9,33.448-3.166,49.309" transform="translate(117.229 -114.244)" fill="none" stroke="#fff" stroke-linecap="round" stroke-linejoin="round" stroke-width="0.5"/>
        <line id="Line_321" data-name="Line 321" x1="0.302" y2="5.958" transform="translate(522.661 246.255)" fill="none" stroke="#fff" stroke-linecap="round" stroke-linejoin="round" stroke-width="0.5"/>
        <path id="Path_1425" data-name="Path 1425" d="M410.879,293.3s-2.547.849-1.7,9.787c.705,7.383,0,40.9-.331,52.345" transform="translate(114.329 -115.136)" fill="none" stroke="#fff" stroke-linecap="round" stroke-linejoin="round" stroke-width="0.5"/>
        <path id="Path_1426" data-name="Path 1426" d="M437.723,339.13a34.427,34.427,0,0,1-16.595,15.328c-11.514,4.678-11.917,2.547-11.917,7.2s-.432,13.2-.432,13.2" transform="translate(114.299 -95.005)" fill="none" stroke="#fff" stroke-linecap="round" stroke-linejoin="round" stroke-width="0.5"/>
        <path id="Path_1427" data-name="Path 1427" d="M431.579,422.411h-37.19L386.43,368.54h53.108Z" transform="translate(104.481 -82.087)" fill="#0129ff" stroke="#2e353a" stroke-linecap="round" stroke-linejoin="round" stroke-width="1"/>
        <rect id="Rectangle_486" data-name="Rectangle 486" width="62.233" height="14.421" transform="translate(486.349 277.961)" fill="#0129ff" stroke="#2e353a" stroke-linecap="round" stroke-linejoin="round" stroke-width="1"/>
      </g>
    </g>
    <g id="freepik--Device--inject-32" transform="translate(161.055 232.727)">
      <path id="Path_1428" data-name="Path 1428" d="M306.149,389.7V360.45H220.024V389.7a42.357,42.357,0,0,1-9.154,26.237l-3.771,4.75H319.073l-3.771-4.75A42.357,42.357,0,0,1,306.149,389.7Z" transform="translate(-90.003 -110.05)" fill="#fff" stroke="#2e353a" stroke-linecap="round" stroke-linejoin="round" stroke-width="1"/>
      <path id="Path_1429" data-name="Path 1429" d="M212.4,410.176h96.717a42.286,42.286,0,0,1-5.3-20.481V360.45H217.7V389.7a42.275,42.275,0,0,1-5.291,20.471Z" transform="translate(-87.675 -110.05)" fill="#0129ff"/>
      <rect id="Rectangle_487" data-name="Rectangle 487" width="346.153" height="259.625" rx="8.48" transform="translate(0)" fill="#2e353a" stroke="#2e353a" stroke-linecap="round" stroke-linejoin="round" stroke-width="1"/>
      <path id="Path_1430" data-name="Path 1430" d="M125.74,338.82H471.907v28.137a12.2,12.2,0,0,1-12.2,12.2H137.959a12.2,12.2,0,0,1-12.2-12.2h0V338.82Z" transform="translate(-125.74 -119.551)" fill="#fff" stroke="#2e353a" stroke-linecap="round" stroke-linejoin="round" stroke-width="1"/>
      <rect id="Rectangle_488" data-name="Rectangle 488" width="311.338" height="183.417" transform="translate(17.415 16.163)" fill="#fff" stroke="#2e353a" stroke-linecap="round" stroke-linejoin="round" stroke-width="1"/>
      <path id="Path_1431" data-name="Path 1431" d="M254.34,354.79a6.39,6.39,0,1,0-6.39,6.39,6.39,6.39,0,0,0,6.39-6.39Z" transform="translate(-74.867 -115.343)" fill="#2e353a" stroke="#2e353a" stroke-linecap="round" stroke-linejoin="round" stroke-width="1"/>
      <rect id="Rectangle_489" data-name="Rectangle 489" width="111.988" height="5.224" transform="translate(117.097 310.69)" fill="#fff" stroke="#2e353a" stroke-linecap="round" stroke-linejoin="round" stroke-width="1"/>
      <rect id="Rectangle_490" data-name="Rectangle 490" width="305.969" height="16.076" transform="translate(19.862 29.087)" fill="#fff" stroke="#2e353a" stroke-linecap="round" stroke-linejoin="round" stroke-width="1"/>
      <path id="Path_1432" data-name="Path 1432" d="M190.029,220.881l-3.67-9.931H139.54V367.482H445.509v-146.6Z" transform="translate(-119.678 -175.717)" fill="#0129ff" stroke="#2e353a" stroke-linecap="round" stroke-linejoin="round" stroke-width="1" opacity="0.3"/>
      <line id="Line_322" data-name="Line 322" x2="143.464" transform="translate(102.215 117.86)" fill="none" stroke="#2e353a" stroke-linecap="round" stroke-linejoin="round" stroke-width="2"/>
      <line id="Line_323" data-name="Line 323" x2="143.464" transform="translate(102.215 131.964)" fill="none" stroke="#2e353a" stroke-linecap="round" stroke-linejoin="round" stroke-width="2"/>
      <line id="Line_324" data-name="Line 324" x2="143.464" transform="translate(102.215 146.069)" fill="none" stroke="#2e353a" stroke-linecap="round" stroke-linejoin="round" stroke-width="2"/>
      <line id="Line_325" data-name="Line 325" x2="143.464" transform="translate(102.215 160.188)" fill="none" stroke="#2e353a" stroke-linecap="round" stroke-linejoin="round" stroke-width="2"/>
      <path id="Path_1433" data-name="Path 1433" d="M333.961,248.45H203.954a10.19,10.19,0,0,1-10.2-10.175h0a10.19,10.19,0,0,1,10.175-10.2H333.961a10.19,10.19,0,0,1,10.2,10.2h0a10.19,10.19,0,0,1-10.2,10.175Z" transform="translate(-95.867 -168.197)" fill="#fff" stroke="#2e353a" stroke-linecap="round" stroke-linejoin="round" stroke-width="1"/>
      <path id="Path_1434" data-name="Path 1434" d="M296.59,248.458H278.83V228.05h17.76a10.19,10.19,0,0,1,10.2,10.2h0a10.19,10.19,0,0,1-10.2,10.2Z" transform="translate(-58.496 -168.206)" fill="#2e353a" stroke="#2e353a" stroke-linecap="round" stroke-linejoin="round" stroke-width="1"/>
      <path id="Path_1435" data-name="Path 1435" d="M291.43,230.333a5.858,5.858,0,1,0,.273,8.276h0a5.829,5.829,0,0,0-.259-8.261Zm-.576,7.484a4.692,4.692,0,1,1-.216-6.649,4.692,4.692,0,0,1,.216,6.649Z" transform="translate(-57.294 -167.899)" fill="#fff"/>
      <path id="Path_1436" data-name="Path 1436" d="M292.781,237.8a.936.936,0,0,0-.993-.2l-2.116-1.986a.576.576,0,0,0-.806,0l-.187.2a.6.6,0,0,0,0,.82l2.087,1.957a.993.993,0,0,0,.245,1.036l3.6,3.526a1.266,1.266,0,0,0,1.785,0h0a1.267,1.267,0,0,0,0-1.785Z" transform="translate(-54.24 -164.958)" fill="#fff"/>
    </g>
    <g id="freepik--search-engines--inject-32" transform="translate(70.354 81.16)">
      <path id="Path_1437" data-name="Path 1437" d="M321.077,301.076a8.391,8.391,0,0,0,4.62,4.634c1.626.662,3.8.518,6.3,1.929,5.656,3.181,19.775.345,30.008,1.439s24.021-10.233,24.021-10.233l40.6,2.231v-40.3s-42.371,1.77-51.554-1.77-19.415-10.938-24.007-10.593S308.7,253,308.7,253l12.363,48.071Z" transform="translate(45.326 -7.7)" fill="#fff" stroke="#2e353a" stroke-linecap="round" stroke-linejoin="round" stroke-width="1"/>
      <path id="Path_1438" data-name="Path 1438" d="M321.584,172.18a42.645,42.645,0,1,0,47.078,37.694h0a42.616,42.616,0,0,0-47.078-37.694Zm8.463,76.4a34.211,34.211,0,1,1,30.224-37.78A34.211,34.211,0,0,1,330.047,248.575Z" transform="translate(34.313 -41.295)" fill="#fff" stroke="#2e353a" stroke-linecap="round" stroke-linejoin="round" stroke-width="1"/>
      <path id="Path_1439" data-name="Path 1439" d="M321.424,170.49A42.645,42.645,0,1,0,368.5,208.184h0a42.659,42.659,0,0,0-47.078-37.694Zm8.463,76.4a34.211,34.211,0,1,1,30.224-37.78,34.211,34.211,0,0,1-30.224,37.78Z" transform="translate(34.242 -42.037)" fill="#fff" stroke="#2e353a" stroke-linecap="round" stroke-linejoin="round" stroke-width="1"/>
      <rect id="Rectangle_491" data-name="Rectangle 491" width="10.319" height="38.025" rx="2.88" transform="translate(360.316 214.695) rotate(-6.32)" fill="#0129ff" stroke="#2e353a" stroke-linecap="round" stroke-linejoin="round" stroke-width="1"/>
      <path id="Path_1440" data-name="Path 1440" d="M318.782,247.153l4.318-.461a7.1,7.1,0,0,1,7.8,6.218l6.462,58.448a9.067,9.067,0,0,1-8.017,10h-.288a9.053,9.053,0,0,1-10-8.017l-6.462-58.433a7.081,7.081,0,0,1,6.261-7.829Z" transform="translate(47.016 -8.469)" fill="#2e353a" stroke="#2e353a" stroke-linecap="round" stroke-linejoin="round" stroke-width="1"/>
      <path id="Path_1441" data-name="Path 1441" d="M325.065,280.84s-10.233.374-11.672,2.144-1.18,7.93,1.6,8.635c7.081,1.857,22.136.777,22.726-.489s1.8-8.635-1.31-9.427A74.835,74.835,0,0,0,325.065,280.84Z" transform="translate(47.009 6.548)" fill="#fff" stroke="#2e353a" stroke-linecap="round" stroke-linejoin="round" stroke-width="1"/>
      <path id="Path_1442" data-name="Path 1442" d="M323.822,270.932s-11.9-.446-13.759,1.7-2.216,10.161.921,11.37c8,3.066,26.007,1.871,26.828.288s2.605-9.8-.921-11.125S323.822,270.932,323.822,270.932Z" transform="translate(45.301 2.179)" fill="#fff" stroke="#2e353a" stroke-linecap="round" stroke-linejoin="round" stroke-width="1"/>
      <path id="Path_1443" data-name="Path 1443" d="M322.953,259.733s-12.723-.489-14.709,1.813-2.375,10.852.979,12.147c8.635,3.281,27.346,3.281,28.224,1.583s3.238-11.744-.532-13.169S322.953,259.733,322.953,259.733Z" transform="translate(44.458 -2.742)" fill="#fff" stroke="#2e353a" stroke-linecap="round" stroke-linejoin="round" stroke-width="1"/>
      <path id="Path_1444" data-name="Path 1444" d="M317.862,249.252s-12.723-.475-14.709,1.813-2.461,11.111.979,12.147,27.346,3.281,28.224,1.6,3.238-11.759-.533-13.183S317.862,249.252,317.862,249.252Z" transform="translate(42.208 -7.344)" fill="#fff" stroke="#2e353a" stroke-linecap="round" stroke-linejoin="round" stroke-width="1"/>
      <path id="Path_1445" data-name="Path 1445" d="M354.787,292.943a21.461,21.461,0,0,1-6.4-2.965c-10.233-7.067-9.888-23.3-9.888-23.3l-2.461-.705a21.907,21.907,0,0,1-5.656-3.181,51.121,51.121,0,0,1,1.439,10.233,7.642,7.642,0,0,1-7.038,7.47c-3.181.36-4.591.705-5.656-3.526s-6.347-21.186-6.707-23.661c-.317-2.245,3.454-6.246,9.456-7.2,9.226.748,18.322,3.325,27.619,3.325a18.711,18.711,0,0,1,9,3.31" transform="translate(46.949 -8.707)" fill="#fff" stroke="#2e353a" stroke-linecap="round" stroke-linejoin="round" stroke-width="1"/>
      <path id="Path_1446" data-name="Path 1446" d="M349.638,279.27a32.831,32.831,0,0,1-3.368,0" transform="translate(61.828 5.859)" fill="#fff" stroke="#2e353a" stroke-linecap="round" stroke-linejoin="round" stroke-width="1"/>
      <path id="Path_1447" data-name="Path 1447" d="M356.137,278.3a32.672,32.672,0,0,1-7.527,1.439" transform="translate(62.856 5.433)" fill="#fff" stroke="#2e353a" stroke-linecap="round" stroke-linejoin="round" stroke-width="1"/>
      <line id="Line_326" data-name="Line 326" x2="12.709" transform="translate(431.702 279.156)" fill="none" stroke="#2e353a" stroke-linecap="round" stroke-linejoin="round" stroke-width="1"/>
      <line id="Line_327" data-name="Line 327" x2="5.296" transform="translate(432.767 282.682)" fill="none" stroke="#2e353a" stroke-linecap="round" stroke-linejoin="round" stroke-width="1"/>
      <path id="Path_1448" data-name="Path 1448" d="M330.53,261.678s7.024,0,11.629-4.188" transform="translate(54.914 -3.708)" fill="none" stroke="#2e353a" stroke-linecap="round" stroke-linejoin="round" stroke-width="1"/>
      <path id="Path_1449" data-name="Path 1449" d="M325.145,259.1a27.922,27.922,0,0,0-1.195-5.642" transform="translate(52.024 -5.478)" fill="none" stroke="#2e353a" stroke-linecap="round" stroke-linejoin="round" stroke-width="1"/>
      <path id="Path_1450" data-name="Path 1450" d="M317.158,268.51s-1.339-3.713.288-5.052,5.944-3.267,6.693-1.785,2.375,8.319,1.929,9.657l-.446,1.338" transform="translate(48.813 -2.105)" fill="none" stroke="#2e353a" stroke-linecap="round" stroke-linejoin="round" stroke-width="0.5"/>
      <path id="Path_1451" data-name="Path 1451" d="M1156.651,315.805H368V255.99h788.651" transform="translate(71.373 -4.367)" fill="#0129ff" stroke="#2e353a" stroke-linecap="round" stroke-linejoin="round" stroke-width="1"/>
      <circle id="Ellipse_62" data-name="Ellipse 62" cx="2.735" cy="2.735" r="2.735" transform="translate(445.562 301.968)" fill="#fff" stroke="#2e353a" stroke-linecap="round" stroke-linejoin="round" stroke-width="1"/>
      <path id="Path_1452" data-name="Path 1452" d="M255.919,248.62a8.391,8.391,0,0,0,4.634-4.62c.662-1.626.5-3.785,1.929-6.3,3.166-5.642.345-19.761,1.439-30.008s-10.247-24.007-10.247-24.007l2.2-40.6h-40.3s1.756,42.371-1.77,51.539-10.938,19.43-10.593,24.021,4.62,42.343,4.62,42.343l48.013-12.363Z" transform="translate(-1.014 -53.962)" fill="#fff" stroke="#2e353a" stroke-linecap="round" stroke-linejoin="round" stroke-width="1"/>
      <path id="Path_1453" data-name="Path 1453" d="M127.079,238.128A42.645,42.645,0,1,0,164.8,191.079h-.1A42.645,42.645,0,0,0,127.079,238.128Zm76.28-8.477a34.225,34.225,0,1,1-37.809-30.224h0a34.24,34.24,0,0,1,37.809,30.224Z" transform="translate(-34.565 -32.993)" fill="#fff" stroke="#2e353a" stroke-linecap="round" stroke-linejoin="round" stroke-width="1"/>
      <path id="Path_1454" data-name="Path 1454" d="M125.351,238.317a42.63,42.63,0,1,0,37.694-47.078,42.631,42.631,0,0,0-37.694,47.078Zm76.4-8.448a34.211,34.211,0,1,1-37.78-30.224A34.211,34.211,0,0,1,201.746,229.869Z" transform="translate(-35.326 -32.923)" fill="#fff" stroke="#2e353a" stroke-linecap="round" stroke-linejoin="round" stroke-width="1"/>
      <rect id="Rectangle_492" data-name="Rectangle 492" width="38.025" height="10.319" rx="2.88" transform="translate(175.141 190.508) rotate(-6.32)" fill="#0129ff" stroke="#2e353a" stroke-linecap="round" stroke-linejoin="round" stroke-width="1"/>
      <path id="Path_1455" data-name="Path 1455" d="M202.018,222.538l-.475-4.318a7.1,7.1,0,0,1,6.275-7.829l58.433-6.462a9.082,9.082,0,0,1,10.075,8.017h0v.288a9.082,9.082,0,0,1-8.017,10.075h0l-58.433,6.462a7.11,7.11,0,0,1-7.858-6.232Z" transform="translate(-1.762 -27.261)" fill="#2e353a" stroke="#2e353a" stroke-linecap="round" stroke-linejoin="round" stroke-width="1"/>
      <path id="Path_1456" data-name="Path 1456" d="M235.69,216.564s.389,10.219,2.145,11.658,7.945,1.18,8.635-1.6c1.871-7.067.777-22.136-.489-22.711s-8.635-1.813-9.413,1.31A74.847,74.847,0,0,0,235.69,216.564Z" transform="translate(13.256 -27.563)" fill="#fff" stroke="#2e353a" stroke-linecap="round" stroke-linejoin="round" stroke-width="1"/>
      <path id="Path_1457" data-name="Path 1457" d="M225.793,219.145s-.461,11.9,1.684,13.759,10.161,2.231,11.37-.921c3.08-8,1.871-26.007.288-26.813s-9.8-2.605-11.125.921S225.793,219.145,225.793,219.145Z" transform="translate(8.891 -27.207)" fill="#fff" stroke="#2e353a" stroke-linecap="round" stroke-linejoin="round" stroke-width="1"/>
      <path id="Path_1458" data-name="Path 1458" d="M214.593,220.621s-.489,12.723,1.8,14.709,10.866,2.375,12.162-.993c3.281-8.549,3.281-27.346,1.583-28.209s-11.759-3.238-13.169.533S214.593,220.621,214.593,220.621Z" transform="translate(3.97 -26.942)" fill="#fff" stroke="#2e353a" stroke-linecap="round" stroke-linejoin="round" stroke-width="1"/>
      <path id="Path_1459" data-name="Path 1459" d="M204.113,225.714s-.489,12.723,1.813,14.709,11.111,2.461,12.147-.993,3.281-27.346,1.583-28.224-11.744-3.224-13.169.547S204.113,225.714,204.113,225.714Z" transform="translate(-0.633 -24.709)" fill="#fff" stroke="#2e353a" stroke-linecap="round" stroke-linejoin="round" stroke-width="1"/>
      <path id="Path_1460" data-name="Path 1460" d="M248.7,185.08a25.1,25.1,0,0,1-3.857,16.163c-7.052,10.247-23.3,9.888-23.3,9.888l-.705,2.475a21.4,21.4,0,0,1-3.181,5.642,51.249,51.249,0,0,1,10.247-1.439,7.657,7.657,0,0,1,7.412,7.067c.36,3.181.705,4.591-3.526,5.642s-21.186,6.361-23.661,6.721c-2.245.317-6.246-3.454-7.2-9.456.763-9.226,3.339-18.336,3.339-27.619a18.71,18.71,0,0,1,3.31-9.01" transform="translate(-2.012 -35.514)" fill="#fff" stroke="#2e353a" stroke-linecap="round" stroke-linejoin="round" stroke-width="1"/>
      <path id="Path_1461" data-name="Path 1461" d="M233.16,179.88a29.006,29.006,0,0,1,.979,4.116" transform="translate(12.145 -37.798)" fill="#fff" stroke="#2e353a" stroke-linecap="round" stroke-linejoin="round" stroke-width="1"/>
      <line id="Line_328" data-name="Line 328" y1="12.709" transform="translate(240.714 116.651)" fill="none" stroke="#2e353a" stroke-linecap="round" stroke-linejoin="round" stroke-width="1"/>
      <line id="Line_329" data-name="Line 329" y1="5.296" transform="translate(244.24 123.012)" fill="none" stroke="#2e353a" stroke-linecap="round" stroke-linejoin="round" stroke-width="1"/>
      <path id="Path_1462" data-name="Path 1462" d="M216.528,206.729s0-7.024-4.188-11.629" transform="translate(3 -31.112)" fill="none" stroke="#2e353a" stroke-linecap="round" stroke-linejoin="round" stroke-width="1"/>
      <path id="Path_1463" data-name="Path 1463" d="M213.962,208.94a27.888,27.888,0,0,0-5.642,1.18" transform="translate(1.234 -25.033)" fill="none" stroke="#2e353a" stroke-linecap="round" stroke-linejoin="round" stroke-width="1"/>
      <path id="Path_1464" data-name="Path 1464" d="M223.37,219.422s-3.713,1.338-5.052-.3-3.267-5.944-1.785-6.678,8.319-2.375,9.657-1.929l1.338.432" transform="translate(4.607 -24.376)" fill="none" stroke="#2e353a" stroke-linecap="round" stroke-linejoin="round" stroke-width="0.5"/>
      <path id="Path_1465" data-name="Path 1465" d="M270.669,81.16V270.8H210.84V81.16" transform="translate(2.341 -149.112)" fill="#0129ff" stroke="#2e353a" stroke-linecap="round" stroke-linejoin="round" stroke-width="1"/>
      <circle id="Ellipse_63" data-name="Ellipse 63" cx="2.735" cy="2.735" r="2.735" transform="translate(263.526 110.03)" fill="#fff" stroke="#2e353a" stroke-linecap="round" stroke-linejoin="round" stroke-width="1"/>
      <path id="Path_1466" data-name="Path 1466" d="M230.223,383.071a8.348,8.348,0,0,1-4.62,4.634c-1.626.676-3.785.518-6.3,1.929-5.642,3.181-19.761.36-30.008,1.439s-24.007-10.233-24.007-10.233l-40.644,2.231v-40.3s42.371,1.77,51.554-1.756,19.415-10.953,24.007-10.593,42.371,4.591,42.371,4.591Z" transform="translate(-35.522 28.322)" fill="#fff" stroke="#2e353a" stroke-linecap="round" stroke-linejoin="round" stroke-width="1"/>
      <path id="Path_1467" data-name="Path 1467" d="M219.7,254.236A42.645,42.645,0,1,1,172.62,291.93h0a42.63,42.63,0,0,1,47.063-37.679Zm-8.463,76.4a34.225,34.225,0,1,0-30.224-37.809h0a34.24,34.24,0,0,0,30.224,37.809Z" transform="translate(-14.562 -5.246)" fill="#fff" stroke="#2e353a" stroke-linecap="round" stroke-linejoin="round" stroke-width="1"/>
      <path id="Path_1468" data-name="Path 1468" d="M219.878,252.551A42.63,42.63,0,1,1,172.8,290.23a42.63,42.63,0,0,1,47.078-37.679Zm-8.463,76.4a34.225,34.225,0,1,0-30.224-37.809h0a34.225,34.225,0,0,0,30.224,37.78Z" transform="translate(-14.483 -5.994)" fill="#fff" stroke="#2e353a" stroke-linecap="round" stroke-linejoin="round" stroke-width="1"/>
      <rect id="Rectangle_493" data-name="Rectangle 493" width="38.025" height="10.319" rx="2.88" transform="translate(186.289 369.459) rotate(-83.68)" fill="#0129ff" stroke="#2e353a" stroke-linecap="round" stroke-linejoin="round" stroke-width="1"/>
      <path id="Path_1469" data-name="Path 1469" d="M193.824,403.5h-.288a9.067,9.067,0,0,1-8.017-10.075l6.462-58.433a7.081,7.081,0,0,1,7.83-6.275l4.318.475a7.1,7.1,0,0,1,6.275,7.83l-6.462,58.505a9.1,9.1,0,0,1-10.075,8.017Z" transform="translate(-8.809 27.557)" fill="#2e353a" stroke="#2e353a" stroke-linecap="round" stroke-linejoin="round" stroke-width="1"/>
      <path id="Path_1470" data-name="Path 1470" d="M198.084,362.89s10.219.389,11.658,2.144,1.18,7.93-1.6,8.635c-7.067,1.871-22.136.777-22.711-.489s-1.813-8.635,1.31-9.427a74.84,74.84,0,0,1,11.341-.864Z" transform="translate(-9.14 42.589)" fill="#fff" stroke="#2e353a" stroke-linecap="round" stroke-linejoin="round" stroke-width="1"/>
      <path id="Path_1471" data-name="Path 1471" d="M200.705,353.013s11.9-.461,13.759,1.684,2.231,10.161-.921,11.37c-8,3.066-26.007,1.871-26.813.288s-2.605-9.8.921-11.125S200.705,353.013,200.705,353.013Z" transform="translate(-8.767 38.232)" fill="#fff" stroke="#2e353a" stroke-linecap="round" stroke-linejoin="round" stroke-width="1"/>
      <path id="Path_1472" data-name="Path 1472" d="M202.183,341.782s12.723-.475,14.709,1.813,2.375,10.866-.979,12.147c-8.635,3.3-27.346,3.281-28.224,1.6s-3.238-11.759.533-13.184S202.183,341.782,202.183,341.782Z" transform="translate(-8.504 33.299)" fill="#fff" stroke="#2e353a" stroke-linecap="round" stroke-linejoin="round" stroke-width="1"/>
      <path id="Path_1473" data-name="Path 1473" d="M207.274,331.313s12.723-.489,14.709,1.8,2.461,11.125-.993,12.162-27.346,3.267-28.224,1.583-3.224-11.759.547-13.169S207.274,331.313,207.274,331.313Z" transform="translate(-6.269 28.699)" fill="#fff" stroke="#2e353a" stroke-linecap="round" stroke-linejoin="round" stroke-width="1"/>
      <path id="Path_1474" data-name="Path 1474" d="M168,375.97a24.137,24.137,0,0,0,14.177-3.929c10.247-7.067,9.888-23.3,9.888-23.3l2.475-.705a21.4,21.4,0,0,0,5.642-3.181,51.124,51.124,0,0,0-1.439,10.233,7.671,7.671,0,0,0,7.067,7.427c3.181.345,4.591.705,5.656-3.541s6.347-21.186,6.707-23.647-3.454-6.261-9.456-7.2c-9.226.763-18.336,3.339-27.619,3.339a18.825,18.825,0,0,0-9.01,3.3" transform="translate(-16.476 27.32)" fill="#fff" stroke="#2e353a" stroke-linecap="round" stroke-linejoin="round" stroke-width="1"/>
      <path id="Path_1475" data-name="Path 1475" d="M161.44,360.36a32.182,32.182,0,0,0,6.174,1.252" transform="translate(-19.358 41.477)" fill="#fff" stroke="#2e353a" stroke-linecap="round" stroke-linejoin="round" stroke-width="1"/>
      <line id="Line_330" data-name="Line 330" x1="12.709" transform="translate(116.651 397.246)" fill="none" stroke="#2e353a" stroke-linecap="round" stroke-linejoin="round" stroke-width="1"/>
      <line id="Line_331" data-name="Line 331" x1="5.296" transform="translate(123.012 400.772)" fill="none" stroke="#2e353a" stroke-linecap="round" stroke-linejoin="round" stroke-width="1"/>
      <path id="Path_1476" data-name="Path 1476" d="M188.289,343.728s-7.024,0-11.629-4.188" transform="translate(-12.672 32.332)" fill="none" stroke="#2e353a" stroke-linecap="round" stroke-linejoin="round" stroke-width="1"/>
      <path id="Path_1477" data-name="Path 1477" d="M190.5,341.152a27.892,27.892,0,0,1,1.18-5.642" transform="translate(-6.593 30.562)" fill="none" stroke="#2e353a" stroke-linecap="round" stroke-linejoin="round" stroke-width="1"/>
      <path id="Path_1478" data-name="Path 1478" d="M200.982,350.56s1.339-3.713-.3-5.052-5.944-3.267-6.678-1.785-2.375,8.333-1.929,9.657l.446,1.338" transform="translate(-5.936 33.935)" fill="none" stroke="#2e353a" stroke-linecap="round" stroke-linejoin="round" stroke-width="0.5"/>
      <path id="Path_1479" data-name="Path 1479" d="M62.72,397.869H876.384V338.04H62.72" transform="translate(-754.696 31.673)" fill="#0129ff" stroke="#2e353a" stroke-linecap="round" stroke-linejoin="round" stroke-width="1"/>
      <path id="Path_1480" data-name="Path 1480" d="M139.17,375.755a2.735,2.735,0,1,0,2.735-2.735h0A2.735,2.735,0,0,0,139.17,375.755Z" transform="translate(-29.14 47.038)" fill="#fff" stroke="#2e353a" stroke-linecap="round" stroke-linejoin="round" stroke-width="1"/>
    </g>
    <g id="Group_4291" data-name="Group 4291" transform="translate(729.366 208.317)">
      <path id="Path_1415-2" data-name="Path 1415" d="M59.928,251.23a81.331,81.331,0,0,1,8.119,3.123c-1.447-1.051-2.894-2.144-4.342-3.253A210.1,210.1,0,0,1,45.34,234.549a199.542,199.542,0,0,0,21.708,18.178,45.749,45.749,0,0,1-2.779-5.671c-1.447-3.584-1.708-7.2,1.722-9.11,4.24-2.36,9.363,1.166,8.018,7.2a22.206,22.206,0,0,1-4.674,9.139,138.766,138.766,0,0,0,15.63,9.312l.507.259a51.135,51.135,0,0,1-3.025-6.117c-1.36-3.569-1.708-7.2,1.737-9.1,4.24-2.375,9.363,1.166,8,7.2a22.248,22.248,0,0,1-4.573,9.038c6.5,3.181,13.213,5.887,19.9,8.823l.97.432a44.405,44.405,0,0,1-3.633-4.418c-2.171-3.166-3.343-6.592-.449-9.254,3.56-3.281,9.392-1.036,9.479,5.181a22.136,22.136,0,0,1-2.344,9.888,102.426,102.426,0,0,1,17.743,10.535l.174.144a39.435,39.435,0,0,1-2.055-3.656c-1.635-3.469-2.243-7.038,1.056-9.211a5.4,5.4,0,0,1,8.075,2.49,5.068,5.068,0,0,1,1.722-1.641c3.314-1.9,6.57.158,9.363,3.066.724.763,1.447,1.583,2.07,2.389a101.27,101.27,0,0,0-8.09-17.127,24.878,24.878,0,0,1-9.74,2.058c-6.6,0-9.378-5.469-6.136-8.866,2.634-2.749,6.339-1.7,9.841.317a37.009,37.009,0,0,1,3.343,2.188,99.609,99.609,0,0,0-11.375-14.076,24.843,24.843,0,0,1-9.407,4.706c-6.411,1.569-10.434-3.051-8.119-7.124,1.881-3.31,5.789-3.181,9.624-2.073a44.644,44.644,0,0,1,5.384,1.986c-1.751-1.7-3.56-3.325-5.4-4.937-2.4-2.044-4.892-4.015-7.424-5.944a24.786,24.786,0,0,1-9.248,4.591c-6.411,1.569-10.434-3.051-8.119-7.124,1.881-3.31,5.789-3.181,9.638-2.073.9.259,1.809.576,2.692.907-3.343-2.375-6.73-4.692-10.131-6.995l-3.14-2.144a24.913,24.913,0,0,1-9.725,4.98c-6.411,1.569-10.449-3.051-8.133-7.124,1.9-3.31,5.789-3.181,9.638-2.073q2.272.691,4.472,1.6h0l-1.939-1.439c-1.187-.849-2.373-1.713-3.531-2.619-1.447-1.079-2.822-2.274-4.226-3.425-.81-.633-1.577-1.31-2.344-2a24.839,24.839,0,0,1-9.783,5.023c-6.411,1.569-10.434-3.051-8.119-7.124,1.881-3.31,5.789-3.181,9.624-2.073a54.527,54.527,0,0,1,6.31,2.375h0c-2.619-2.418-5.152-4.937-7.554-7.556-.159-.187-.3-.374-.478-.547-1.028-1.137-2.041-2.288-3.025-3.483s-2.258-2.763-3.329-4.2A82.253,82.253,0,0,1,50.97,169.51,81.947,81.947,0,0,0,62.1,187.932a116.088,116.088,0,0,0,14.863,15.616l.593.5a54.573,54.573,0,0,1-3.271-6.491c-1.375-3.569-1.708-7.2,1.737-9.1,4.226-2.375,9.363,1.166,8,7.2a22.34,22.34,0,0,1-5.08,9.614l1.274,1.094,1.447,1.238c.839.676,1.708,1.324,2.576,1.972.463.345.912.705,1.447,1.051,1.23.907,2.475,1.785,3.734,2.648l1.809,1.223,2.055,1.439a49.867,49.867,0,0,1-3.155-6.347c-1.375-3.584-1.708-7.2,1.722-9.1,4.24-2.375,9.378,1.166,8.018,7.2a22.222,22.222,0,0,1-4.848,9.37l1.447.979,5.63,3.67,1.114.72,3.14,2.087,1.36.907c1.447.993,2.894,2,4.342,3.037a50.676,50.676,0,0,1-3.039-6.433c-1.447-3.569-1.708-7.2,1.722-9.1,4.24-2.375,9.363,1.166,8,7.2a22.137,22.137,0,0,1-4.949,9.47c2.46,1.8,4.892,3.641,7.236,5.57,1.722,1.439,3.415,2.878,5.08,4.433a39.546,39.546,0,0,1-1.939-4.116c-1.36-3.584-1.708-7.2,1.737-9.1,4.24-2.375,9.363,1.166,8,7.2a22.248,22.248,0,0,1-4.573,9.038,101.19,101.19,0,0,1,12.605,15.155,38.246,38.246,0,0,1-.955-4.778c-.463-3.8.087-7.369,3.893-8.405,4.689-1.281,8.8,3.382,6.006,8.938a22.329,22.329,0,0,1-6.715,7.729,104.5,104.5,0,0,1,9.089,18.71,38.42,38.42,0,0,1,.405-4.073c.651-3.785,2.185-7.052,6.136-6.98,4.863.1,7.482,5.757,3.213,10.276a22.066,22.066,0,0,1-8.133,5.34,130.891,130.891,0,0,1,4.009,15.357c.174.82.3,1.641.463,2.461.174.158.347.317.507.489.174-.705.376-1.439.608-2.116,1.216-3.627,3.242-6.635,7.135-5.944,4.776.835,6.5,6.793,1.577,10.636a21.951,21.951,0,0,1-8.452,3.929c0,.144-.116.273-.188.417.535,3.9.941,7.829,1.187,11.773.188,2.879.289,5.887.347,8.837,4.139,0,7.062,4.519,4.211,9.413a20.784,20.784,0,0,1-4.559,5.354c-.347,5.541-.9,11.082-1.635,16.58a4.606,4.606,0,0,1,4.428-1.022c2.6.705,3.777,2.792,4.2,5.354a5.109,5.109,0,0,1,1.447,3.555c1.939-2.878,3.777-5.757,5.557-8.794a24.5,24.5,0,0,1-6.614-7.671c-3.112-5.757.405-10.809,4.935-9.585,3.7,1.007,4.515,4.749,4.342,8.765a39.967,39.967,0,0,1-.434,4.548l1.91-3.339c1.592-2.879,2.894-5.757,4.457-8.635.376-.705.709-1.439,1.013-2.159a24.579,24.579,0,0,1-7.916-6.29c-4.153-5.095-1.65-10.694,3.039-10.334,3.821.3,5.34,3.828,5.977,7.8a48.662,48.662,0,0,1,.463,5.224l1.36-3.123a159.835,159.835,0,0,0,7.135-21.79,24.622,24.622,0,0,1-9.175-5.757c-4.646-4.678-2.721-10.478,1.983-10.593,3.821-.086,5.688,3.267,6.73,7.2a52.326,52.326,0,0,1,1.143,6.333q1.52-6.39,2.6-12.953c.492-2.677.81-5.4,1.143-8.1a25.017,25.017,0,0,1-10.217-4.562c-5.21-4.03-4.067-10.075.593-10.751,3.777-.59,6.064,2.5,7.6,6.232a61.951,61.951,0,0,1,2.258,7.2c.289-3.137.622-6.289.767-9.441a146.8,146.8,0,0,0,0-19.545,147.328,147.328,0,0,1,.68,19.574c0,3.008-.26,6-.449,9.01a48,48,0,0,1,2.894-5.944c1.968-3.3,4.6-5.757,8.249-4.318,4.5,1.842,4.892,8.031-.753,10.737a22.511,22.511,0,0,1-10.579,2c-.26,2.691-.492,5.368-.9,8.031-.564,4.318-1.288,8.463-2.142,12.651a42.81,42.81,0,0,1,3.083-4.62c2.388-3.008,5.311-5.138,8.683-3.2,4.211,2.4,3.806,8.635-2.142,10.55a22.552,22.552,0,0,1-10.405.691,165.868,165.868,0,0,1-6.5,22.092l-.854,2.159a31.32,31.32,0,0,1,2.475-2.878c2.677-2.763,5.789-4.591,9.016-2.3,3.951,2.878,2.894,8.923-3.184,10.276a22.51,22.51,0,0,1-10.131-.288c-.3.734-.608,1.439-.97,2.188-1.447,2.965-2.735,6-4.255,8.909l-1.259,2.519c.753-.648,1.534-1.267,2.344-1.842,3.155-2.2,6.57-3.411,9.291-.576,3.358,3.5,1.187,9.312-5.065,9.5a22.264,22.264,0,0,1-9.465-1.871c-1.795,3.224-3.633,6.4-5.63,9.528-.738,1.195-1.447,2.375-2.287,3.555a37.154,37.154,0,0,1,3.589-2.879c3.155-2.2,6.57-3.411,9.306-.576,3.343,3.5,1.172,9.312-5.08,9.5a22.607,22.607,0,0,1-10.3-2.346q-1.563,2.159-3.213,4.318c2.33,2.691,1.563,7.2-3.169,9.254a21.213,21.213,0,0,1-7.236,1.6c-.289.23-.579.461-.9.676l-.145.115a343.867,343.867,0,0,1-10.637,32.844c-1.737,4.591-3.6,9.139-5.528,13.658H154.62v68.105H101.55V441.714H129.8c2.417-5.253,4.747-10.564,6.918-15.932,3.546-8.808,6.758-17.76,9.552-26.842h0a12.39,12.39,0,0,1-1.447.331,6.344,6.344,0,0,1-1.954.086l.753-4.735h.507a8.985,8.985,0,0,0,.9-.173,13.85,13.85,0,0,0,1.954-.72l.753-.345a24.538,24.538,0,0,1-7.656-4.318c-5.022-4.318-3.6-10.219,1.085-10.722,3.792-.417,5.934,2.778,7.236,6.563a34.3,34.3,0,0,1,.984,3.3c.275-1.007.55-2.015.81-3.022.767-2.979,1.447-5.987,2.142-9a24.4,24.4,0,0,1-8.293-4.476c-5.022-4.318-3.589-10.2,1.085-10.708,3.806-.417,5.934,2.778,7.236,6.563.391,1.094.724,2.231,1.013,3.353.434-2.188.854-4.39,1.245-6.592.275-1.626.535-3.267.781-4.908.087-2.332.13-4.663.1-7.009,0-1.281,0-2.562-.116-3.843a24.876,24.876,0,0,1-8.785,1.108c-6.6-.432-9.031-6.045-5.586-9.226,2.808-2.605,6.44-1.31,9.812.907a46.119,46.119,0,0,1,4.342,3.325,104.67,104.67,0,0,0-2.5-16.263,82.683,82.683,0,0,0-2.764-9.3,24.917,24.917,0,0,1-9.421,1.31c-6.6-.417-9.031-6.03-5.586-9.226,2.793-2.591,6.44-1.31,9.812.921a38.037,38.037,0,0,1,3.387,2.605,69.455,69.455,0,0,0-4.428-8.636,63.532,63.532,0,0,0-12.359-14.982,24.5,24.5,0,0,1-8.756,5.167c-6.281,2.044-10.637-2.274-8.683-6.505,1.635-3.44,5.485-3.6,9.45-2.778a40.2,40.2,0,0,1,4.515,1.238l-.1-.086a99.946,99.946,0,0,0-17.367-10.823,24.871,24.871,0,0,1-8.075,6.822c-5.876,3.008-10.869-.561-9.566-5.052,1.056-3.656,4.834-4.418,8.871-4.318a43.252,43.252,0,0,1,4.732.518c-6.527-3.066-13.184-5.959-19.61-9.341h-.145a24.649,24.649,0,0,1-9.971,5.181c-6.411,1.583-10.434-3.051-8.119-7.2,1.881-3.31,5.789-3.166,9.624-2.073,1.085.317,2.171.705,3.227,1.108a143.808,143.808,0,0,1-12.461-8.089l-.333.36v-.187a25.171,25.171,0,0,1-10.058,5.253c-6.4,1.569-10.434-3.051-8.119-7.2C52.186,249.993,56.035,250.122,59.928,251.23ZM161.118,381.64c1.317-1.526,2.562-3.123,3.777-4.735-.289-.259-.608-.547-.926-.864a22.865,22.865,0,0,1-5.572.993v.3l-.883-.187c-.463,2.274-.941,4.534-1.447,6.793A5.932,5.932,0,0,1,161.118,381.64ZM156.4,327.453c.449,1.7.825,3.4,1.187,5.109l.217-.3q0-5.268-.159-10.506c-.1-2.447-.275-4.879-.492-7.326a25.463,25.463,0,0,1-3.907,3.238,93.9,93.9,0,0,1,3.14,9.787Zm-5.934-16.12c-.087-.633-.159-1.281-.188-1.914v-.964c-.521-.158-1.056-.345-1.577-.561.579,1.137,1.187,2.288,1.751,3.44Zm-7.54-12.162a4.606,4.606,0,0,1,2.648-2.475c3.575-1.439,6.469,1.151,8.77,4.462l.116.158h.232a4.371,4.371,0,0,1,.738-.1,1.189,1.189,0,0,0-.1-.59,128,128,0,0,0-3.7-15.386,24.734,24.734,0,0,1-9.913-.763,8.436,8.436,0,0,1-4.863-3.44,22.161,22.161,0,0,1-3.575,8.074,66.208,66.208,0,0,1,9.638,10.075Z" transform="translate(-146.341 -169.51)" fill="#0129ff"/>
      <path id="Path_1416-2" data-name="Path 1416" d="M59.928,251.23a81.331,81.331,0,0,1,8.119,3.123c-1.447-1.051-2.894-2.144-4.342-3.253A210.1,210.1,0,0,1,45.34,234.549a199.542,199.542,0,0,0,21.708,18.178,45.749,45.749,0,0,1-2.779-5.671c-1.447-3.584-1.708-7.2,1.722-9.11,4.24-2.36,9.363,1.166,8.018,7.2a22.206,22.206,0,0,1-4.674,9.139,138.766,138.766,0,0,0,15.63,9.312l.507.259a51.135,51.135,0,0,1-3.025-6.117c-1.36-3.569-1.708-7.2,1.737-9.1,4.24-2.375,9.363,1.166,8,7.2a22.248,22.248,0,0,1-4.573,9.038c6.5,3.181,13.213,5.887,19.9,8.823l.97.432a44.405,44.405,0,0,1-3.633-4.418c-2.171-3.166-3.343-6.592-.449-9.254,3.56-3.281,9.392-1.036,9.479,5.181a22.136,22.136,0,0,1-2.344,9.888,102.426,102.426,0,0,1,17.743,10.535l.174.144a39.435,39.435,0,0,1-2.055-3.656c-1.635-3.469-2.243-7.038,1.056-9.211a5.4,5.4,0,0,1,8.075,2.49,5.068,5.068,0,0,1,1.722-1.641c3.314-1.9,6.57.158,9.363,3.066.724.763,1.447,1.583,2.07,2.389a101.27,101.27,0,0,0-8.09-17.127,24.878,24.878,0,0,1-9.74,2.058c-6.6,0-9.378-5.469-6.136-8.866,2.634-2.749,6.339-1.7,9.841.317a37.009,37.009,0,0,1,3.343,2.188,99.609,99.609,0,0,0-11.375-14.076,24.843,24.843,0,0,1-9.407,4.706c-6.411,1.569-10.434-3.051-8.119-7.124,1.881-3.31,5.789-3.181,9.624-2.073a44.644,44.644,0,0,1,5.384,1.986c-1.751-1.7-3.56-3.325-5.4-4.937-2.4-2.044-4.892-4.015-7.424-5.944a24.786,24.786,0,0,1-9.248,4.591c-6.411,1.569-10.434-3.051-8.119-7.124,1.881-3.31,5.789-3.181,9.638-2.073.9.259,1.809.576,2.692.907-3.343-2.375-6.73-4.692-10.131-6.995l-3.14-2.144a24.913,24.913,0,0,1-9.725,4.98c-6.411,1.569-10.449-3.051-8.133-7.124,1.9-3.31,5.789-3.181,9.638-2.073q2.272.691,4.472,1.6h0l-1.939-1.439c-1.187-.849-2.373-1.713-3.531-2.619-1.447-1.079-2.822-2.274-4.226-3.425-.81-.633-1.577-1.31-2.344-2a24.839,24.839,0,0,1-9.783,5.023c-6.411,1.569-10.434-3.051-8.119-7.124,1.881-3.31,5.789-3.181,9.624-2.073a54.527,54.527,0,0,1,6.31,2.375h0c-2.619-2.418-5.152-4.937-7.554-7.556-.159-.187-.3-.374-.478-.547-1.028-1.137-2.041-2.288-3.025-3.483s-2.258-2.763-3.329-4.2A82.253,82.253,0,0,1,50.97,169.51,81.947,81.947,0,0,0,62.1,187.932a116.088,116.088,0,0,0,14.863,15.616l.593.5a54.573,54.573,0,0,1-3.271-6.491c-1.375-3.569-1.708-7.2,1.737-9.1,4.226-2.375,9.363,1.166,8,7.2a22.34,22.34,0,0,1-5.08,9.614l1.274,1.094,1.447,1.238c.839.676,1.708,1.324,2.576,1.972.463.345.912.705,1.447,1.051,1.23.907,2.475,1.785,3.734,2.648l1.809,1.223,2.055,1.439a49.867,49.867,0,0,1-3.155-6.347c-1.375-3.584-1.708-7.2,1.722-9.1,4.24-2.375,9.378,1.166,8.018,7.2a22.222,22.222,0,0,1-4.848,9.37l1.447.979,5.63,3.67,1.114.72,3.14,2.087,1.36.907c1.447.993,2.894,2,4.342,3.037a50.676,50.676,0,0,1-3.039-6.433c-1.447-3.569-1.708-7.2,1.722-9.1,4.24-2.375,9.363,1.166,8,7.2a22.137,22.137,0,0,1-4.949,9.47c2.46,1.8,4.892,3.641,7.236,5.57,1.722,1.439,3.415,2.878,5.08,4.433a39.546,39.546,0,0,1-1.939-4.116c-1.36-3.584-1.708-7.2,1.737-9.1,4.24-2.375,9.363,1.166,8,7.2a22.248,22.248,0,0,1-4.573,9.038,101.19,101.19,0,0,1,12.605,15.155,38.246,38.246,0,0,1-.955-4.778c-.463-3.8.087-7.369,3.893-8.405,4.689-1.281,8.8,3.382,6.006,8.938a22.329,22.329,0,0,1-6.715,7.729,104.5,104.5,0,0,1,9.089,18.71,38.42,38.42,0,0,1,.405-4.073c.651-3.785,2.185-7.052,6.136-6.98,4.863.1,7.482,5.757,3.213,10.276a22.066,22.066,0,0,1-8.133,5.34,130.891,130.891,0,0,1,4.009,15.357c.174.82.3,1.641.463,2.461.174.158.347.317.507.489.174-.705.376-1.439.608-2.116,1.216-3.627,3.242-6.635,7.135-5.944,4.776.835,6.5,6.793,1.577,10.636a21.951,21.951,0,0,1-8.452,3.929c0,.144-.116.273-.188.417.535,3.9.941,7.829,1.187,11.773.188,2.879.289,5.887.347,8.837,4.139,0,7.062,4.519,4.211,9.413a20.784,20.784,0,0,1-4.559,5.354c-.347,5.541-.9,11.082-1.635,16.58a4.606,4.606,0,0,1,4.428-1.022c2.6.705,3.777,2.792,4.2,5.354a5.109,5.109,0,0,1,1.447,3.555c1.939-2.878,3.777-5.757,5.557-8.794a24.5,24.5,0,0,1-6.614-7.671c-3.112-5.757.405-10.809,4.935-9.585,3.7,1.007,4.515,4.749,4.342,8.765a39.967,39.967,0,0,1-.434,4.548l1.91-3.339c1.592-2.879,2.894-5.757,4.457-8.635.376-.705.709-1.439,1.013-2.159a24.579,24.579,0,0,1-7.916-6.29c-4.153-5.095-1.65-10.694,3.039-10.334,3.821.3,5.34,3.828,5.977,7.8a48.662,48.662,0,0,1,.463,5.224l1.36-3.123a159.835,159.835,0,0,0,7.135-21.79,24.622,24.622,0,0,1-9.175-5.757c-4.646-4.678-2.721-10.478,1.983-10.593,3.821-.086,5.688,3.267,6.73,7.2a52.326,52.326,0,0,1,1.143,6.333q1.52-6.39,2.6-12.953c.492-2.677.81-5.4,1.143-8.1a25.017,25.017,0,0,1-10.217-4.562c-5.21-4.03-4.067-10.075.593-10.751,3.777-.59,6.064,2.5,7.6,6.232a61.951,61.951,0,0,1,2.258,7.2c.289-3.137.622-6.289.767-9.441a146.8,146.8,0,0,0,0-19.545,147.328,147.328,0,0,1,.68,19.574c0,3.008-.26,6-.449,9.01a48,48,0,0,1,2.894-5.944c1.968-3.3,4.6-5.757,8.249-4.318,4.5,1.842,4.892,8.031-.753,10.737a22.511,22.511,0,0,1-10.579,2c-.26,2.691-.492,5.368-.9,8.031-.564,4.318-1.288,8.463-2.142,12.651a42.81,42.81,0,0,1,3.083-4.62c2.388-3.008,5.311-5.138,8.683-3.2,4.211,2.4,3.806,8.635-2.142,10.55a22.552,22.552,0,0,1-10.405.691,165.868,165.868,0,0,1-6.5,22.092l-.854,2.159a31.32,31.32,0,0,1,2.475-2.878c2.677-2.763,5.789-4.591,9.016-2.3,3.951,2.878,2.894,8.923-3.184,10.276a22.51,22.51,0,0,1-10.131-.288c-.3.734-.608,1.439-.97,2.188-1.447,2.965-2.735,6-4.255,8.909l-1.259,2.519c.753-.648,1.534-1.267,2.344-1.842,3.155-2.2,6.57-3.411,9.291-.576,3.358,3.5,1.187,9.312-5.065,9.5a22.264,22.264,0,0,1-9.465-1.871c-1.795,3.224-3.633,6.4-5.63,9.528-.738,1.195-1.447,2.375-2.287,3.555a37.154,37.154,0,0,1,3.589-2.879c3.155-2.2,6.57-3.411,9.306-.576,3.343,3.5,1.172,9.312-5.08,9.5a22.607,22.607,0,0,1-10.3-2.346q-1.563,2.159-3.213,4.318c2.33,2.691,1.563,7.2-3.169,9.254a21.213,21.213,0,0,1-7.236,1.6c-.289.23-.579.461-.9.676l-.145.115a343.867,343.867,0,0,1-10.637,32.844c-1.737,4.591-3.6,9.139-5.528,13.658H154.62v68.105H101.55V441.714H129.8c2.417-5.253,4.747-10.564,6.918-15.932,3.546-8.808,6.758-17.76,9.552-26.842h0a12.39,12.39,0,0,1-1.447.331,6.344,6.344,0,0,1-1.954.086l.753-4.735h.507a8.985,8.985,0,0,0,.9-.173,13.85,13.85,0,0,0,1.954-.72l.753-.345a24.538,24.538,0,0,1-7.656-4.318c-5.022-4.318-3.6-10.219,1.085-10.722,3.792-.417,5.934,2.778,7.236,6.563a34.3,34.3,0,0,1,.984,3.3c.275-1.007.55-2.015.81-3.022.767-2.979,1.447-5.987,2.142-9a24.4,24.4,0,0,1-8.293-4.476c-5.022-4.318-3.589-10.2,1.085-10.708,3.806-.417,5.934,2.778,7.236,6.563.391,1.094.724,2.231,1.013,3.353.434-2.188.854-4.39,1.245-6.592.275-1.626.535-3.267.781-4.908.087-2.332.13-4.663.1-7.009,0-1.281,0-2.562-.116-3.843a24.876,24.876,0,0,1-8.785,1.108c-6.6-.432-9.031-6.045-5.586-9.226,2.808-2.605,6.44-1.31,9.812.907a46.119,46.119,0,0,1,4.342,3.325,104.67,104.67,0,0,0-2.5-16.263,82.683,82.683,0,0,0-2.764-9.3,24.917,24.917,0,0,1-9.421,1.31c-6.6-.417-9.031-6.03-5.586-9.226,2.793-2.591,6.44-1.31,9.812.921a38.037,38.037,0,0,1,3.387,2.605,69.455,69.455,0,0,0-4.428-8.636,63.532,63.532,0,0,0-12.359-14.982,24.5,24.5,0,0,1-8.756,5.167c-6.281,2.044-10.637-2.274-8.683-6.505,1.635-3.44,5.485-3.6,9.45-2.778a40.2,40.2,0,0,1,4.515,1.238l-.1-.086a99.946,99.946,0,0,0-17.367-10.823,24.871,24.871,0,0,1-8.075,6.822c-5.876,3.008-10.869-.561-9.566-5.052,1.056-3.656,4.834-4.418,8.871-4.318a43.252,43.252,0,0,1,4.732.518c-6.527-3.066-13.184-5.959-19.61-9.341h-.145a24.649,24.649,0,0,1-9.971,5.181c-6.411,1.583-10.434-3.051-8.119-7.2,1.881-3.31,5.789-3.166,9.624-2.073,1.085.317,2.171.705,3.227,1.108a143.808,143.808,0,0,1-12.461-8.089l-.333.36v-.187a25.171,25.171,0,0,1-10.058,5.253c-6.4,1.569-10.434-3.051-8.119-7.2C52.186,249.993,56.035,250.122,59.928,251.23ZM161.118,381.64c1.317-1.526,2.562-3.123,3.777-4.735-.289-.259-.608-.547-.926-.864a22.865,22.865,0,0,1-5.572.993v.3l-.883-.187c-.463,2.274-.941,4.534-1.447,6.793A5.932,5.932,0,0,1,161.118,381.64ZM156.4,327.453c.449,1.7.825,3.4,1.187,5.109l.217-.3q0-5.268-.159-10.506c-.1-2.447-.275-4.879-.492-7.326a25.463,25.463,0,0,1-3.907,3.238,93.9,93.9,0,0,1,3.14,9.787Zm-5.934-16.12c-.087-.633-.159-1.281-.188-1.914v-.964c-.521-.158-1.056-.345-1.577-.561.579,1.137,1.187,2.288,1.751,3.44Zm-7.54-12.162a4.606,4.606,0,0,1,2.648-2.475c3.575-1.439,6.469,1.151,8.77,4.462l.116.158h.232a4.371,4.371,0,0,1,.738-.1,1.189,1.189,0,0,0-.1-.59,128,128,0,0,0-3.7-15.386,24.734,24.734,0,0,1-9.913-.763,8.436,8.436,0,0,1-4.863-3.44,22.161,22.161,0,0,1-3.575,8.074,66.208,66.208,0,0,1,9.638,10.075Z" transform="translate(-146.341 -169.51)" fill="#fff" opacity="0.3"/>
    </g>
  </g>
</svg>
