<svg xmlns="http://www.w3.org/2000/svg" width="646.017" height="627.052" viewBox="0 0 646.017 627.052">
  <g id="Working_remotely-bro" data-name="Working remotely-bro" transform="translate(-11.53 -15.95)">
    <g id="freepik--Files--inject-60" transform="translate(83.008 44.115)">
      <line id="Line_129" data-name="Line 129" x2="496.334" y2="463.788" transform="translate(55.099 116.828)" fill="none" stroke="#263238" stroke-linecap="round" stroke-miterlimit="10" stroke-width="1"/>
      <line id="Line_130" data-name="Line 130" y1="2.034" transform="translate(222.93 189.136)" fill="none" stroke="#263238" stroke-linecap="round" stroke-linejoin="round" stroke-width="1"/>
      <line id="Line_131" data-name="Line 131" y1="142.838" transform="translate(222.93 42.283)" fill="none" stroke="#263238" stroke-linecap="round" stroke-linejoin="round" stroke-width="1" stroke-dasharray="2.967 2.967"/>
      <path id="Path_139" data-name="Path 139" d="M229.294,67.084V65.05H227.26" transform="translate(-6.364 -26.808)" fill="none" stroke="#263238" stroke-linecap="round" stroke-linejoin="round" stroke-width="1"/>
      <line id="Line_132" data-name="Line 132" x1="79.997" transform="translate(136.804 38.242)" fill="none" stroke="#263238" stroke-linecap="round" stroke-linejoin="round" stroke-width="1" stroke-dasharray="3.025 3.025"/>
      <line id="Line_133" data-name="Line 133" x1="2.034" transform="translate(132.722 38.242)" fill="none" stroke="#263238" stroke-linecap="round" stroke-linejoin="round" stroke-width="1"/>
      <path id="Path_140" data-name="Path 140" d="M237.3,176.37l-6.767,11.7-6.753-11.7Z" transform="translate(-7.603 12.834)" fill="#263238"/>
      <path id="Path_141" data-name="Path 141" d="M259.973,156.789H209.58V86.8H245.3l14.673,14.551Z" transform="translate(-12.66 -19.063)" fill="#fff" stroke="#263238" stroke-linecap="round" stroke-linejoin="round" stroke-width="1"/>
      <path id="Path_142" data-name="Path 142" d="M235.92,86.8v14.293h14.673Z" transform="translate(-3.28 -19.063)" fill="#fff" stroke="#263238" stroke-linecap="round" stroke-linejoin="round" stroke-width="1"/>
      <line id="Line_134" data-name="Line 134" x2="34.811" transform="translate(204.704 91.293)" fill="none" stroke="#263238" stroke-linecap="round" stroke-linejoin="round" stroke-width="1"/>
      <line id="Line_135" data-name="Line 135" x2="34.811" transform="translate(204.704 100.786)" fill="none" stroke="#263238" stroke-linecap="round" stroke-linejoin="round" stroke-width="1"/>
      <line id="Line_136" data-name="Line 136" x2="34.811" transform="translate(204.704 110.278)" fill="none" stroke="#263238" stroke-linecap="round" stroke-linejoin="round" stroke-width="1"/>
      <line id="Line_137" data-name="Line 137" x2="34.811" transform="translate(204.704 119.771)" fill="none" stroke="#263238" stroke-linecap="round" stroke-linejoin="round" stroke-width="1"/>
      <path id="Path_143" data-name="Path 143" d="M188.213,106.839H137.82V36.85h35.72L188.213,51.4Z" transform="translate(-38.214 -36.85)" fill="#fff" stroke="#263238" stroke-linecap="round" stroke-linejoin="round" stroke-width="1"/>
      <path id="Path_144" data-name="Path 144" d="M164.16,36.85V51.143h14.673Z" transform="translate(-28.834 -36.85)" fill="#fff" stroke="#263238" stroke-linecap="round" stroke-linejoin="round" stroke-width="1"/>
      <line id="Line_138" data-name="Line 138" x2="34.811" transform="translate(107.39 23.556)" fill="none" stroke="#263238" stroke-linecap="round" stroke-linejoin="round" stroke-width="1"/>
      <line id="Line_139" data-name="Line 139" x2="34.811" transform="translate(107.39 33.048)" fill="none" stroke="#263238" stroke-linecap="round" stroke-linejoin="round" stroke-width="1"/>
      <line id="Line_140" data-name="Line 140" x2="34.811" transform="translate(107.39 42.541)" fill="none" stroke="#263238" stroke-linecap="round" stroke-linejoin="round" stroke-width="1"/>
      <line id="Line_141" data-name="Line 141" x2="34.811" transform="translate(107.39 52.034)" fill="none" stroke="#263238" stroke-linecap="round" stroke-linejoin="round" stroke-width="1"/>
      <line id="Line_142" data-name="Line 142" y1="313.796" transform="translate(24.45 200.37)" fill="none" stroke="#263238" stroke-linecap="round" stroke-linejoin="round" stroke-width="1" stroke-dasharray="3 3"/>
      <path id="Path_146" data-name="Path 146" d="M114.749,386.959H64.37V316.97h35.706l14.673,14.551Z" transform="translate(-64.37 62.902)" fill="#fff" stroke="#263238" stroke-linecap="round" stroke-linejoin="round" stroke-width="1"/>
      <path id="Path_147" data-name="Path 147" d="M90.7,316.97v14.293h14.673Z" transform="translate(-54.994 62.902)" fill="#fff" stroke="#263238" stroke-linecap="round" stroke-linejoin="round" stroke-width="1"/>
      <line id="Line_143" data-name="Line 143" x2="34.811" transform="translate(7.784 403.427)" fill="none" stroke="#263238" stroke-linecap="round" stroke-linejoin="round" stroke-width="1"/>
      <line id="Line_144" data-name="Line 144" x2="34.811" transform="translate(7.784 412.92)" fill="none" stroke="#263238" stroke-linecap="round" stroke-linejoin="round" stroke-width="1"/>
      <line id="Line_145" data-name="Line 145" x2="34.811" transform="translate(7.784 422.413)" fill="none" stroke="#263238" stroke-linecap="round" stroke-linejoin="round" stroke-width="1"/>
      <line id="Line_146" data-name="Line 146" x2="34.811" transform="translate(7.784 431.906)" fill="none" stroke="#263238" stroke-linecap="round" stroke-linejoin="round" stroke-width="1"/>
      <path id="Path_148" data-name="Path 148" d="M114.749,249.959H64.37V179.97h35.706l14.673,14.551Z" transform="translate(-64.37 14.116)" fill="#fff" stroke="#263238" stroke-linecap="round" stroke-linejoin="round" stroke-width="1"/>
      <path id="Path_149" data-name="Path 149" d="M90.7,179.97v14.293h14.673Z" transform="translate(-54.994 14.116)" fill="#fff" stroke="#263238" stroke-linecap="round" stroke-linejoin="round" stroke-width="1"/>
      <line id="Line_147" data-name="Line 147" x2="34.811" transform="translate(7.784 217.641)" fill="none" stroke="#263238" stroke-linecap="round" stroke-linejoin="round" stroke-width="1"/>
      <line id="Line_148" data-name="Line 148" x2="34.811" transform="translate(7.784 227.134)" fill="none" stroke="#263238" stroke-linecap="round" stroke-linejoin="round" stroke-width="1"/>
      <line id="Line_149" data-name="Line 149" x2="34.811" transform="translate(7.784 236.627)" fill="none" stroke="#263238" stroke-linecap="round" stroke-linejoin="round" stroke-width="1"/>
      <line id="Line_150" data-name="Line 150" x2="34.811" transform="translate(7.784 246.119)" fill="none" stroke="#263238" stroke-linecap="round" stroke-linejoin="round" stroke-width="1"/>
    </g>
    <g id="freepik--Window--inject-60" transform="translate(423.635 16.45)">
      <path id="Path_150" data-name="Path 150" d="M419.337,24.36H318.619L317.29,38.206H419.337Z" transform="translate(-314.93 -13.633)" fill="none" stroke="#b2b2b2" stroke-miterlimit="10" stroke-width="1"/>
      <path id="Path_151" data-name="Path 151" d="M419.337,34.57H318.619L317.29,48.416H419.337Z" transform="translate(-314.93 -9.997)" fill="none" stroke="#b2b2b2" stroke-miterlimit="10" stroke-width="1"/>
      <path id="Path_152" data-name="Path 152" d="M419.337,44.78H318.619L317.29,58.626H419.337Z" transform="translate(-314.93 -6.362)" fill="none" stroke="#b2b2b2" stroke-miterlimit="10" stroke-width="1"/>
      <path id="Path_153" data-name="Path 153" d="M419.337,54.99H318.619L317.29,68.836H419.337Z" transform="translate(-314.93 -2.726)" fill="none" stroke="#b2b2b2" stroke-miterlimit="10" stroke-width="1"/>
      <path id="Path_154" data-name="Path 154" d="M419.337,65.2H318.619L317.29,79.046H419.337Z" transform="translate(-314.93 0.91)" fill="none" stroke="#b2b2b2" stroke-miterlimit="10" stroke-width="1"/>
      <path id="Path_155" data-name="Path 155" d="M419.337,75.41H318.619L317.29,89.256H419.337Z" transform="translate(-314.93 4.546)" fill="none" stroke="#b2b2b2" stroke-miterlimit="10" stroke-width="1"/>
      <path id="Path_156" data-name="Path 156" d="M419.337,85.62H318.619L317.29,99.466H419.337Z" transform="translate(-314.93 8.182)" fill="none" stroke="#b2b2b2" stroke-miterlimit="10" stroke-width="1"/>
      <path id="Path_157" data-name="Path 157" d="M419.337,95.83H318.619l-1.329,13.846H419.337Z" transform="translate(-314.93 11.818)" fill="none" stroke="#b2b2b2" stroke-miterlimit="10" stroke-width="1"/>
      <path id="Path_158" data-name="Path 158" d="M419.337,106.04H318.619l-1.329,13.846H419.337Z" transform="translate(-314.93 15.453)" fill="none" stroke="#b2b2b2" stroke-miterlimit="10" stroke-width="1"/>
      <path id="Path_159" data-name="Path 159" d="M419.337,116.25H318.619L317.29,130.1H419.337Z" transform="translate(-314.93 19.089)" fill="none" stroke="#b2b2b2" stroke-miterlimit="10" stroke-width="1"/>
      <path id="Path_160" data-name="Path 160" d="M419.337,126.46H318.619l-1.329,13.846H419.337Z" transform="translate(-314.93 22.725)" fill="none" stroke="#b2b2b2" stroke-miterlimit="10" stroke-width="1"/>
      <path id="Path_161" data-name="Path 161" d="M419.337,136.67H318.619l-1.329,13.846H419.337Z" transform="translate(-314.93 26.361)" fill="none" stroke="#b2b2b2" stroke-miterlimit="10" stroke-width="1"/>
      <path id="Path_162" data-name="Path 162" d="M419.337,146.88H318.619l-1.329,13.859H419.337Z" transform="translate(-314.93 29.997)" fill="none" stroke="#b2b2b2" stroke-miterlimit="10" stroke-width="1"/>
      <path id="Path_163" data-name="Path 163" d="M419.337,157.1H318.619l-1.329,13.846H419.337Z" transform="translate(-314.93 33.636)" fill="none" stroke="#b2b2b2" stroke-miterlimit="10" stroke-width="1"/>
      <path id="Path_164" data-name="Path 164" d="M419.337,167.31H318.619l-1.329,13.846H419.337Z" transform="translate(-314.93 37.272)" fill="none" stroke="#b2b2b2" stroke-miterlimit="10" stroke-width="1"/>
      <path id="Path_165" data-name="Path 165" d="M495.69,24.36H394.973L393.63,38.206H495.69Z" transform="translate(-287.745 -13.633)" fill="none" stroke="#b2b2b2" stroke-miterlimit="10" stroke-width="1"/>
      <path id="Path_166" data-name="Path 166" d="M495.69,34.57H394.973L393.63,48.416H495.69Z" transform="translate(-287.745 -9.997)" fill="none" stroke="#b2b2b2" stroke-miterlimit="10" stroke-width="1"/>
      <path id="Path_167" data-name="Path 167" d="M495.69,44.78H394.973L393.63,58.626H495.69Z" transform="translate(-287.745 -6.362)" fill="none" stroke="#b2b2b2" stroke-miterlimit="10" stroke-width="1"/>
      <path id="Path_168" data-name="Path 168" d="M495.69,54.99H394.973L393.63,68.836H495.69Z" transform="translate(-287.745 -2.726)" fill="none" stroke="#b2b2b2" stroke-miterlimit="10" stroke-width="1"/>
      <path id="Path_169" data-name="Path 169" d="M495.69,65.2H394.973L393.63,79.046H495.69Z" transform="translate(-287.745 0.91)" fill="none" stroke="#b2b2b2" stroke-miterlimit="10" stroke-width="1"/>
      <path id="Path_170" data-name="Path 170" d="M495.69,75.41H394.973L393.63,89.256H495.69Z" transform="translate(-287.745 4.546)" fill="none" stroke="#b2b2b2" stroke-miterlimit="10" stroke-width="1"/>
      <path id="Path_171" data-name="Path 171" d="M495.69,85.62H394.973L393.63,99.466H495.69Z" transform="translate(-287.745 8.182)" fill="none" stroke="#b2b2b2" stroke-miterlimit="10" stroke-width="1"/>
      <path id="Path_172" data-name="Path 172" d="M495.69,95.83H394.973l-1.343,13.846H495.69Z" transform="translate(-287.745 11.818)" fill="none" stroke="#b2b2b2" stroke-miterlimit="10" stroke-width="1"/>
      <path id="Path_173" data-name="Path 173" d="M495.69,106.04H394.973l-1.343,13.846H495.69Z" transform="translate(-287.745 15.453)" fill="none" stroke="#b2b2b2" stroke-miterlimit="10" stroke-width="1"/>
      <path id="Path_174" data-name="Path 174" d="M495.69,116.25H394.973L393.63,130.1H495.69Z" transform="translate(-287.745 19.089)" fill="none" stroke="#b2b2b2" stroke-miterlimit="10" stroke-width="1"/>
      <path id="Path_175" data-name="Path 175" d="M495.69,126.46H394.973l-1.343,13.846H495.69Z" transform="translate(-287.745 22.725)" fill="none" stroke="#b2b2b2" stroke-miterlimit="10" stroke-width="1"/>
      <path id="Path_176" data-name="Path 176" d="M495.69,136.67H394.973l-1.343,13.846H495.69Z" transform="translate(-287.745 26.361)" fill="none" stroke="#b2b2b2" stroke-miterlimit="10" stroke-width="1"/>
      <path id="Path_177" data-name="Path 177" d="M495.69,146.88H394.973l-1.343,13.859H495.69Z" transform="translate(-287.745 29.997)" fill="none" stroke="#b2b2b2" stroke-miterlimit="10" stroke-width="1"/>
      <path id="Path_178" data-name="Path 178" d="M495.69,157.1H394.973l-1.343,13.846H495.69Z" transform="translate(-287.745 33.636)" fill="none" stroke="#b2b2b2" stroke-miterlimit="10" stroke-width="1"/>
      <path id="Path_179" data-name="Path 179" d="M495.69,167.31H394.973l-1.343,13.846H495.69Z" transform="translate(-287.745 37.272)" fill="none" stroke="#b2b2b2" stroke-miterlimit="10" stroke-width="1"/>
      <rect id="Rectangle_138" data-name="Rectangle 138" width="212.976" height="10.442" fill="none" stroke="#b2b2b2" stroke-miterlimit="10" stroke-width="1"/>
      <line id="Line_151" data-name="Line 151" y2="183.969" transform="translate(212.99 10.442)" fill="none" stroke="#b2b2b2" stroke-miterlimit="10" stroke-width="1"/>
      <line id="Line_152" data-name="Line 152" y2="126.213" transform="translate(210.657 10.74)" fill="none" stroke="#b2b2b2" stroke-miterlimit="10" stroke-width="1"/>
      <rect id="Rectangle_139" data-name="Rectangle 139" width="2.861" height="4.692" transform="translate(211.634 194.004)" fill="#263238" stroke="#b2b2b2" stroke-miterlimit="10" stroke-width="1"/>
      <rect id="Rectangle_140" data-name="Rectangle 140" width="2.861" height="4.692" transform="translate(209.044 135.949)" fill="#263238" stroke="#b2b2b2" stroke-miterlimit="10" stroke-width="1"/>
    </g>
    <g id="freepik--character-2--inject-60" transform="translate(229.291 84.506)">
      <path id="Path_180" data-name="Path 180" d="M313.738,157.09s-36.289,13.778-41.849,18.863S234.23,284.374,234.23,284.374H457.987s-16.585-69.405-20.653-92.839-22.05-28.478-31.19-30.322S313.738,157.09,313.738,157.09Z" transform="translate(-150.165 -34.423)" fill="#263238" stroke="#263238" stroke-linecap="round" stroke-linejoin="round" stroke-width="1"/>
      <path id="Path_181" data-name="Path 181" d="M339.181,174.015l-4.8,107.648h38.8l-15.6-117.072Z" transform="translate(-114.501 -31.753)" fill="#0129ff" stroke="#263238" stroke-linecap="round" stroke-linejoin="round" stroke-width="1"/>
      <path id="Path_182" data-name="Path 182" d="M296.442,154.236s-5.994,8.8-4.8,11.608,14.809,24,28.41,26.4,30.8-5.207,40.005-10.849,21.2-9.994,23.189-11.2-5.194-10.849-8.394-12.395-7.2-4.068-7.2-4.068-4.394-5.6-5.194-6.781-1.207-3.2-2.4-4.8a5.343,5.343,0,0,0-4-2.4c-2.007-.393-4.8,9.6-16.8,11.608s-41.212,3.2-41.212,3.2Z" transform="translate(-129.777 -40.601)" fill="#0129ff" stroke="#263238" stroke-linecap="round" stroke-linejoin="round" stroke-width="1"/>
      <path id="Path_183" data-name="Path 183" d="M322.58,190.333s23.2-11.608,26-20.8,2.807-24.41,2.807-24.41" transform="translate(-118.703 -38.686)" fill="none" stroke="#263238" stroke-linecap="round" stroke-linejoin="round" stroke-width="1"/>
      <path id="Path_184" data-name="Path 184" d="M335.56,178.537s9.994-4.394,13.195-10.4,3.2-18,3.2-18" transform="translate(-114.081 -36.898)" fill="none" stroke="#263238" stroke-linecap="round" stroke-linejoin="round" stroke-width="1"/>
      <path id="Path_185" data-name="Path 185" d="M285.654,120.886c-.434,1.627,8.937,48.087,15.649,59.831s20.681,18.443,29.075,14.537c9.71-4.543,20.409-13.453,25.047-23.339.854-1.831,5.587-21.616,4.584-21.955,0,0,6.713,2.238,9.493-10.062s5.031-19.569,1.682-26.281S348.835,91.255,331.49,94.089,288.447,110.267,285.654,120.886Z" transform="translate(-131.858 -56.979)" fill="#fff" stroke="#263238" stroke-linecap="round" stroke-linejoin="round" stroke-width="1"/>
      <path id="Path_186" data-name="Path 186" d="M340.317,115.95s-24.6,18.985-41.375,20.694-16.761-6.1-16.761-6.1-21.806,6.157-19.569-10.618,35.842-30.2,35.842-30.2-11.744-3.35-6.157-9.493,26.837-12.869,40.819-11.188,20.125,5.031,20.125,5.031-3.919-10.062,4.475-6.781S373.3,86.929,373.3,86.929s14.537,1.126,15.663,5.031-8.394,5-8.394,5,8.95,16.775,4.475,26.281-13.981,12.3-14.537,13.981,1.682,7.825-2.794,5.587-6.157-11.744-6.157-11.744-6.7-6.7-7.269-9.493-1.112-6.143-1.112-6.143-3.919,11.744-12.856,13.412S340.317,115.95,340.317,115.95Z" transform="translate(-140.115 -66.635)" fill="#263238" stroke="#263238" stroke-linecap="round" stroke-linejoin="round" stroke-width="1"/>
      <path id="Path_187" data-name="Path 187" d="M306.805,132.73s-11.174,24.6-5.031,25.156,11.744-6.157,11.744-6.157" transform="translate(-126.769 -43.098)" fill="#fff" stroke="#263238" stroke-linecap="round" stroke-linejoin="round" stroke-width="1"/>
      <path id="Path_188" data-name="Path 188" d="M305.44,154.907s7.269,7.825,20.681-2.807" transform="translate(-124.807 -36.2)" fill="none" stroke="#263238" stroke-linecap="round" stroke-linejoin="round" stroke-width="1"/>
      <path id="Path_189" data-name="Path 189" d="M316.24,136.35s1.356,5.058,11.486,4.136" transform="translate(-120.961 -41.809)" fill="none" stroke="#263238" stroke-linecap="round" stroke-linejoin="round" stroke-width="1"/>
      <path id="Path_190" data-name="Path 190" d="M302.459,135.67s-3.214,4.136-6.889,4.136" transform="translate(-128.322 -42.051)" fill="none" stroke="#263238" stroke-linecap="round" stroke-linejoin="round" stroke-width="1"/>
      <path id="Path_191" data-name="Path 191" d="M340.607,127.036s-25.915-.556-28.709.57-3.35,7.825-1.682,12.3,5.6,10.618,15.663,10.618,15.093-5.031,18.443-14.537S340.607,127.036,340.607,127.036Z" transform="translate(-123.44 -45.175)" fill="none" stroke="#263238" stroke-linecap="round" stroke-linejoin="round" stroke-width="1"/>
      <path id="Path_192" data-name="Path 192" d="M286.137,127.036s19.948-.556,22.1.57,2.577,7.825,1.356,12.3-4.312,10.618-12.056,10.618-11.622-5.031-14.2-14.537S286.137,127.036,286.137,127.036Z" transform="translate(-132.925 -45.175)" fill="none" stroke="#263238" stroke-linecap="round" stroke-linejoin="round" stroke-width="1"/>
      <line id="Line_153" data-name="Line 153" y1="11.256" x2="8.516" transform="translate(222.103 73.766)" fill="none" stroke="#263238" stroke-linecap="round" stroke-linejoin="round" stroke-width="1"/>
      <line id="Line_154" data-name="Line 154" x1="13.276" transform="translate(175.182 82.363)" fill="none" stroke="#263238" stroke-linecap="round" stroke-linejoin="round" stroke-width="1"/>
      <line id="Line_155" data-name="Line 155" x1="8.232" transform="translate(176.822 87.761)" fill="none" stroke="#263238" stroke-linecap="round" stroke-linejoin="round" stroke-width="1"/>
      <line id="Line_156" data-name="Line 156" y1="4.109" x2="6.319" transform="translate(150.202 80.356)" fill="none" stroke="#263238" stroke-linecap="round" stroke-linejoin="round" stroke-width="1"/>
      <path id="Path_193" data-name="Path 193" d="M321.967,135.357c0,2.088-.99,3.8-2.21,3.8s-2.2-1.709-2.2-3.8.99-3.8,2.2-3.8S321.967,133.255,321.967,135.357Z" transform="translate(-120.491 -43.515)" fill="#263238"/>
      <path id="Path_194" data-name="Path 194" d="M300.424,134.177c0,2.1-.976,3.8-2.2,3.8s-2.2-1.7-2.2-3.8.99-3.8,2.2-3.8S300.424,132.075,300.424,134.177Z" transform="translate(-128.158 -43.935)" fill="#263238"/>
      <path id="Path_195" data-name="Path 195" d="M291.6,124.035s8-3.2,12-.8" transform="translate(-129.735 -46.797)" fill="none" stroke="#263238" stroke-linecap="round" stroke-linejoin="round" stroke-width="2"/>
      <path id="Path_196" data-name="Path 196" d="M314,123.532a22.227,22.227,0,0,1,16.409,1.6" transform="translate(-121.759 -46.688)" fill="none" stroke="#263238" stroke-linecap="round" stroke-linejoin="round" stroke-width="2"/>
      <path id="Path_197" data-name="Path 197" d="M229.4,242.033a24.9,24.9,0,0,0-20.22-2.712c-11.025,3.214-16.531,12.869-16.531,16.083h46.392a20.138,20.138,0,0,0-9.642-13.371Z" transform="translate(-164.972 -5.508)" fill="gray" stroke="#263238" stroke-linecap="round" stroke-linejoin="round" stroke-width="1"/>
      <path id="Path_198" data-name="Path 198" d="M200.6,232.92s-5.967,8.733-5.967,11.947-3.214,6.428,1.356,7.811,7.35-14.7,7.35-16.531S200.6,232.92,200.6,232.92Z" transform="translate(-164.658 -7.42)" fill="#fff" stroke="#263238" stroke-linecap="round" stroke-linejoin="round" stroke-width="1"/>
      <path id="Path_199" data-name="Path 199" d="M208.228,232.708s-6.428-1.356-8.272.461-5.045,17.928-4.584,19.758,5.045,2.292,6.428.461S208.228,232.708,208.228,232.708Z" transform="translate(-164.019 -7.669)" fill="#fff" stroke="#263238" stroke-linecap="round" stroke-linejoin="round" stroke-width="1"/>
      <path id="Path_200" data-name="Path 200" d="M234.582,240.733s-19.3-6.9-23.434-9.655-6.428,2.712-7.811,5.98-4.6,14.7-4.6,17.914,5.058,4.584,5.98.909,8.272-15.609,8.272-15.609l9.642,3.675s.922,1.356-3.214,4.136-10.1,8.72-8.272,9.642,7.35.461,9.194-1.356,11.473-4.136,11.473-4.136,8.733,5.519,10.578,5.98,13.317-1.844,13.317-1.844-12.869-11.025-14.7-12.395A39.49,39.49,0,0,0,234.582,240.733Z" transform="translate(-162.803 -8.344)" fill="#fff" stroke="#263238" stroke-linecap="round" stroke-linejoin="round" stroke-width="1"/>
      <path id="Path_201" data-name="Path 201" d="M359.416,232.951h-9.642c-4.136,0-12.408-2.712-12.869,1.831s9.194,7.35,13.778,7.35,7.35-1.831,12.869.922,8.733,4.6,8.733,4.6l-6.441-10.117Z" transform="translate(-113.608 -7.695)" fill="#fff" stroke="#263238" stroke-linecap="round" stroke-linejoin="round" stroke-width="1"/>
      <path id="Path_202" data-name="Path 202" d="M395.505,259.637s-8.733-18.836-12.869-24.8-28.478-10.564-31.19-10.564-9.655,15.161-8.733,18.836,2.712-.461,4.068-2.712,6.428-8.72,6.428-8.72,7.811,12.856,11.025,19.745,9.655,7.811,13.33,8.733S395.505,259.637,395.505,259.637Z" transform="translate(-111.564 -10.5)" fill="#fff" stroke="#263238" stroke-linecap="round" stroke-linejoin="round" stroke-width="1"/>
      <path id="Path_203" data-name="Path 203" d="M371.9,232.587s-8.733-11.486-13.331-9.655-11.934,23.895-12.856,26.647,4.6.922,5.506-1.356,9.194-14.239,9.194-14.239l7.35,4.6" transform="translate(-110.501 -11.047)" fill="#fff" stroke="#263238" stroke-linecap="round" stroke-linejoin="round" stroke-width="1"/>
      <path id="Path_204" data-name="Path 204" d="M376.447,231.832s-9.181-7.811-12.408-6.9-14.7,23.434-12.856,24.41,5.506-.922,7.35-3.675,5.506-9.194,5.506-9.194l6.9,5.058" transform="translate(-108.589 -10.292)" fill="#fff" stroke="#263238" stroke-linecap="round" stroke-linejoin="round" stroke-width="1"/>
      <path id="Path_205" data-name="Path 205" d="M378.14,236.71s-4.489-9.045-7.7-7.662-14.239,18.375-11.025,18.375,12.869-10.1,12.869-10.1-.922,7.811,0,11.934" transform="translate(-105.794 -8.85)" fill="#fff" stroke="#263238" stroke-linecap="round" stroke-linejoin="round" stroke-width="1"/>
      <rect id="Rectangle_141" data-name="Rectangle 141" width="120.544" height="3.729" transform="translate(259.463 249.91) rotate(180)" fill="gray" stroke="#263238" stroke-linecap="round" stroke-linejoin="round" stroke-width="1"/>
      <path id="Path_206" data-name="Path 206" d="M209.79,190.35H330.863l24.532,82.139H234.322Z" transform="translate(-158.868 -22.579)" fill="gray" stroke="#263238" stroke-linecap="round" stroke-linejoin="round" stroke-width="1"/>
      <line id="Line_157" data-name="Line 157" x2="427.756" transform="translate(0 249.91)" fill="none" stroke="#263238" stroke-linecap="round" stroke-linejoin="round" stroke-width="1"/>
    </g>
    <g id="freepik--Cat--inject-60" transform="translate(514.909 189.163)">
      <path id="Path_207" data-name="Path 207" d="M413.176,218.41s1.993,21.2.8,28-4.407,7.594-5.207,10.849,5.207,2.807,8.8,2.4,7.594-17.629,12-38.8" transform="translate(-373.654 -117.245)" fill="#fff" stroke="#263238" stroke-linecap="round" stroke-linejoin="round" stroke-width="1"/>
      <path id="Path_208" data-name="Path 208" d="M438,246.87s-9.113,1.071-9.384,3.485,1.6,4.285,8.571,4.556,24.925-.529,27.881-2.143-6.7-4.068-12.6-4.828S438,246.87,438,246.87Z" transform="translate(-366.57 -107.11)" fill="#fff" stroke="#263238" stroke-linecap="round" stroke-linejoin="round" stroke-width="1"/>
      <path id="Path_209" data-name="Path 209" d="M409.98,186.335s-9.6,7.2-10.4,23.61,12.788,28.79,19.569,31.6,15.2,5.6,17.629,7.594,3.011,13.561,6.4,18.809c5.167,7.96,19.2,11.2,36.8,9.194s17.941-21.345,19.6-34.4c1.953-15.419-7.2-41.185-18.4-47.965s-29.2-4.8-34.8-6.008a23.054,23.054,0,0,1-10.008-5.6A23.122,23.122,0,0,0,409.98,186.335Z" transform="translate(-376.913 -130.776)" fill="#fff" stroke="#263238" stroke-linecap="round" stroke-linejoin="round" stroke-width="1"/>
      <path id="Path_210" data-name="Path 210" d="M437.824,183.3c1.478,4.746-4.516,10.849-13.371,13.561s-17.236,1.139-18.714-3.607,4.5-10.849,13.371-13.561S436.346,178.523,437.824,183.3Z" transform="translate(-374.788 -131.507)" fill="#0129ff" stroke="#263238" stroke-linecap="round" stroke-linejoin="round" stroke-width="1"/>
      <path id="Path_211" data-name="Path 211" d="M419.341,196.6a4.774,4.774,0,1,1-5.967-3.146A4.774,4.774,0,0,1,419.341,196.6Z" transform="translate(-373.188 -126.206)" fill="#263238" stroke="#263238" stroke-linecap="round" stroke-linejoin="round" stroke-width="1"/>
      <path id="Path_212" data-name="Path 212" d="M422.178,216.64s0,20-.8,28.4-2.4,10.4-4.8,12-2.807,4.407.8,5.6,8.394-.393,9.588-1.993,9.208-22.81,14.809-40.805" transform="translate(-371.509 -117.875)" fill="#fff" stroke="#263238" stroke-linecap="round" stroke-linejoin="round" stroke-width="1"/>
      <path id="Path_213" data-name="Path 213" d="M500.5,239.16s10.727,6.658,7.526,15.866-38.4,11.2-64.808,11.2-54-2.007-51.532-10.849,21.6-2.794,40.4-1.6,59.113,1.532,62.815-3.594a49.727,49.727,0,0,0,5.6-11.025Z" transform="translate(-379.765 -109.855)" fill="#fff" stroke="#263238" stroke-linecap="round" stroke-linejoin="round" stroke-width="1"/>
      <path id="Path_214" data-name="Path 214" d="M382.86,159.421a64.592,64.592,0,0,0,5.872,9.059,21.8,21.8,0,0,0,4.434,4.326s5.221-8.5,3.4-12.1S382.86,159.421,382.86,159.421Z" transform="translate(-382.855 -138.51)" fill="#fff" stroke="#263238" stroke-linecap="round" stroke-linejoin="round" stroke-width="1"/>
      <path id="Path_215" data-name="Path 215" d="M428.068,143.81a25.182,25.182,0,0,1,1.736,9.249c0,5.424-1.153,7.594-1.153,7.594l-10.211-4.584S424.922,145.207,428.068,143.81Z" transform="translate(-370.185 -143.81)" fill="#fff" stroke="#263238" stroke-linecap="round" stroke-linejoin="round" stroke-width="1"/>
      <path id="Path_216" data-name="Path 216" d="M394.781,168.993s-6.943,13.792-1.993,22.606,16.273,11.879,21.2,12.476,13.154,2.631,20.531-4.163,8.381-7.242,8.381-7.242,10.686-11.093,8.8-23.054-17.711-14.7-17.711-14.7l6.781-11.107s-9.642,3.309-12.72,5.424a63.336,63.336,0,0,1-5.953,3.512,34.839,34.839,0,0,0-12.313,2.088,72.956,72.956,0,0,0-12.313,7.228s-15.405,1.058-14.578,2.712S394.781,168.993,394.781,168.993Z" transform="translate(-382.856 -143.81)" fill="#fff" stroke="#263238" stroke-linecap="round" stroke-linejoin="round" stroke-width="1"/>
      <path id="Path_217" data-name="Path 217" d="M406.979,179a11.106,11.106,0,0,0,5.818-1.044c2.861-1.451,1.7-3.078-.081-3.214a10.509,10.509,0,0,0-5.424,1.722C405.962,177.289,405.609,177.968,406.979,179Z" transform="translate(-374.576 -132.796)" fill="#fff" stroke="#263238" stroke-linecap="round" stroke-linejoin="round" stroke-width="1"/>
      <path id="Path_218" data-name="Path 218" d="M408.622,173.038s-5.424,1.519-5.872,4.665,3.105,5.262,5.289,3.485a7.77,7.77,0,0,0,2.644-3.987s5.547,3.105,7.947,1.044,3.133-4.977,1-6.469S408.622,173.038,408.622,173.038Z" transform="translate(-375.786 -134.009)" fill="#fff" stroke="#263238" stroke-linecap="round" stroke-linejoin="round" stroke-width="1"/>
      <path id="Path_219" data-name="Path 219" d="M411.43,171.82s-4.516.909-4.99,1.654,1.356,3.77,3.092,3.078a4.719,4.719,0,0,0,2.455-3.3A1.356,1.356,0,0,0,411.43,171.82Z" transform="translate(-374.485 -133.836)" fill="#263238" stroke="#263238" stroke-linecap="round" stroke-linejoin="round" stroke-width="1"/>
      <path id="Path_220" data-name="Path 220" d="M402.624,169.685c1.031,2.048,1,4.15-.081,4.679s-2.712-.678-3.8-2.712-1-4.15,0-4.679S401.594,167.637,402.624,169.685Z" transform="translate(-377.477 -135.606)" fill="#263238"/>
      <path id="Path_221" data-name="Path 221" d="M414.7,166.195c.922,2.1.773,4.19-.325,4.679s-2.712-.841-3.661-2.943-.773-4.19.325-4.665S413.777,164.093,414.7,166.195Z" transform="translate(-373.156 -136.917)" fill="#263238"/>
    </g>
    <g id="freepik--Mug--inject-60" transform="translate(392.512 532.515)">
      <path id="Path_222" data-name="Path 222" d="M327.931,480.738a27.8,27.8,0,0,1-9.818-2.333,3.4,3.4,0,0,1,2.712-6.238c3.133,1.356,7.147,2.143,8.232,1.682,1.966-2.21,5.018-15.636,1.085-22.037a3.133,3.133,0,0,0-2.251-1.763c-2.238-.3-5.546,1.993-6.713,3.092a3.392,3.392,0,1,1-4.624-4.963c.624-.583,6.252-5.669,12.2-4.855a9.818,9.818,0,0,1,7.12,4.936c5.791,9.411,1.817,27.353-2.617,30.906a8.449,8.449,0,0,1-5.33,1.573Z" transform="translate(-284.455 -380.535)" fill="#263238" stroke="#263238" stroke-linecap="round" stroke-linejoin="round" stroke-width="1"/>
      <rect id="Rectangle_142" data-name="Rectangle 142" width="37.469" height="49.728" transform="translate(0 60.008)" fill="#263238" stroke="#263238" stroke-linecap="round" stroke-linejoin="round" stroke-width="1"/>
      <path id="Path_223" data-name="Path 223" d="M295.11,454.282s0-4.136,7.581-8.272,11.744-10.361,7.594-22.091S306.84,403.9,315.126,397" transform="translate(-291.706 -397)" fill="none" stroke="#263238" stroke-linecap="round" stroke-linejoin="round" stroke-width="1"/>
      <path id="Path_224" data-name="Path 224" d="M296.38,410.141c.38-5.045,2.644-9.3,7.242-13.141" transform="translate(-291.254 -397)" fill="none" stroke="#263238" stroke-linecap="round" stroke-linejoin="round" stroke-width="1"/>
      <path id="Path_225" data-name="Path 225" d="M298.641,418.531a50.172,50.172,0,0,1-1.831-6.4" transform="translate(-291.101 -391.612)" fill="none" stroke="#263238" stroke-linecap="round" stroke-linejoin="round" stroke-width="1"/>
      <path id="Path_226" data-name="Path 226" d="M318.307,421.39a32.554,32.554,0,0,0-1.153-4.068c-.217-.637-.434-1.261-.624-1.871" transform="translate(-284.078 -390.43)" fill="none" stroke="#263238" stroke-linecap="round" stroke-linejoin="round" stroke-width="1"/>
      <path id="Path_227" data-name="Path 227" d="M305.79,444.51s0-4.136,7.594-8.272c4.99-2.712,8.476-6.333,9.127-11.8" transform="translate(-287.903 -387.228)" fill="none" stroke="#263238" stroke-linecap="round" stroke-linejoin="round" stroke-width="1"/>
    </g>
    <g id="freepik--Plants--inject-60" transform="translate(471.166 536.95)">
      <path id="Path_228" data-name="Path 228" d="M373.478,446.011s-4.2-5.343-8.774-7.621-14.1-4.2-14.1-4.2,8.381-1.9,14.917-.38,11.066,8.015,11.066,8.015-1.912-2.712-4.584-10.686-2.712-25.156-2.712-25.156a54.243,54.243,0,0,1,9.493,16.016,79.644,79.644,0,0,1,3.811,16.4s-.759-13.344,1.532-20.965,8.76-17.155,8.76-17.155.38,16.761-2.278,25.915-3.824,13.344-3.824,13.344a32.9,32.9,0,0,1,8.015-12.585c5.709-5.329,19.433-9.913,19.433-9.913s-6.482,11.825-10.673,15.636-8.381,8-8.381,8a22.145,22.145,0,0,1,12.571-3.431c8.015,0,17.534,5.343,17.534,5.343s-27.814-.38-33.157,4.19Z" transform="translate(-350.6 -400.27)" fill="#0129ff" stroke="#263238" stroke-miterlimit="10" stroke-width="1"/>
      <line id="Line_158" data-name="Line 158" x1="4.692" y1="3.241" transform="translate(23.352 40.439)" fill="none" stroke="#263238" stroke-linecap="round" stroke-linejoin="round" stroke-width="1"/>
      <line id="Line_159" data-name="Line 159" x1="6.496" y1="17.345" transform="translate(26.607 28.871)" fill="none" stroke="#263238" stroke-linecap="round" stroke-linejoin="round" stroke-width="1"/>
      <line id="Line_160" data-name="Line 160" y1="25.291" x2="4.34" transform="translate(32.384 23.094)" fill="none" stroke="#263238" stroke-linecap="round" stroke-linejoin="round" stroke-width="1"/>
      <line id="Line_161" data-name="Line 161" y1="15.175" x2="12.286" transform="translate(33.103 31.041)" fill="none" stroke="#263238" stroke-linecap="round" stroke-linejoin="round" stroke-width="1"/>
      <line id="Line_162" data-name="Line 162" y1="4.584" x2="17.941" transform="translate(30.702 40.073)" fill="none" stroke="#263238" stroke-linecap="round" stroke-linejoin="round" stroke-width="1"/>
      <path id="Path_229" data-name="Path 229" d="M401.75,493.963H363.711l-1.722-13.819a129.437,129.437,0,0,1-.176-30.39l1.9-16.884h38.107l1.871,16.517a128.482,128.482,0,0,1-.136,30.363Z" transform="translate(-346.895 -388.661)" fill="#263238"/>
      <path id="Path_230" data-name="Path 230" d="M403.579,468.007l-5.709-34.689-7.635,59.845L376.9,433.318l-8.015,60.618-5.94-61.065" transform="translate(-346.202 -388.661)" fill="#263238" stroke="#fff" stroke-linecap="round" stroke-linejoin="round" stroke-width="1"/>
      <path id="Path_231" data-name="Path 231" d="M401.75,493.963H363.711l-1.722-13.819a129.437,129.437,0,0,1-.176-30.39l1.9-16.884h38.107l1.871,16.517a128.482,128.482,0,0,1-.136,30.363Z" transform="translate(-346.895 -388.661)" fill="none" stroke="#263238" stroke-miterlimit="10" stroke-width="1"/>
    </g>
    <g id="freepik--Clock--inject-60" transform="translate(125.848 308.08)">
      <circle id="Ellipse_23" data-name="Ellipse 23" cx="49.498" cy="49.498" r="49.498" fill="none" stroke="#b2b2b2" stroke-miterlimit="10" stroke-width="1"/>
      <circle id="Ellipse_24" data-name="Ellipse 24" cx="39.598" cy="39.598" r="39.598" transform="translate(9.9 9.9)" fill="none" stroke="#b2b2b2" stroke-miterlimit="10" stroke-width="1"/>
      <path id="Path_232" data-name="Path 232" d="M127.91,269.617a6.17,6.17,0,1,0,6.17-6.157A6.17,6.17,0,0,0,127.91,269.617Z" transform="translate(-84.582 -220.119)" fill="none" stroke="#b2b2b2" stroke-miterlimit="10" stroke-width="1"/>
      <line id="Line_163" data-name="Line 163" y2="23.339" transform="translate(49.498 55.655)" fill="none" stroke="#b2b2b2" stroke-miterlimit="10" stroke-width="1"/>
      <line id="Line_164" data-name="Line 164" x2="14.497" transform="translate(55.655 49.498)" fill="none" stroke="#b2b2b2" stroke-miterlimit="10" stroke-width="1"/>
    </g>
    <g id="freepik--character-1--inject-60" transform="translate(12.03 344.518)">
      <line id="Line_165" data-name="Line 165" x1="576.304" transform="translate(0 297.733)" fill="none" stroke="#263238" stroke-linecap="round" stroke-linejoin="round" stroke-width="1"/>
      <path id="Path_233" data-name="Path 233" d="M237.524,349s-3.621,24.817,0,29.482,11.893,8.272,23.786,11.893,19.65-4.15,31.014,8.788,20.694,46.013,26.891,56.36,13.453,26.376,15.066,38.323-3.621,18.606-13.968,20.165-28.478-23.786-30.5-27.407-11.961-15.555-11.961-15.555-5.7,41.89-5.7,43.951.515,8.788.515,8.788H123.76s11.378-62.042,14.47-83.767,1.56-36.194,13.968-43.951,23.786-5.682,32.058-8.272,13.439-4.651,13.968-9.3.515-26.376.515-26.376Z" transform="translate(27.758 -226.096)" fill="#0129ff" stroke="#263238" stroke-linecap="round" stroke-linejoin="round" stroke-width="1"/>
      <path id="Path_234" data-name="Path 234" d="M145.6,459.88,77.5,477.808l5.384,6.564h77.664" transform="translate(11.284 -186.611)" fill="#0129ff" stroke="#263238" stroke-linecap="round" stroke-linejoin="round" stroke-width="1"/>
      <path id="Path_235" data-name="Path 235" d="M80.75,469.033a24.871,24.871,0,0,0-20.206-2.712C49.519,469.535,44,479.19,44,482.4H90.406a20.124,20.124,0,0,0-9.655-13.371Z" transform="translate(-0.645 -184.684)" fill="gray" stroke="#263238" stroke-linecap="round" stroke-linejoin="round" stroke-width="1"/>
      <path id="Path_236" data-name="Path 236" d="M51.959,459.92s-5.98,8.733-5.98,11.947-3.214,6.428,1.356,7.811,7.35-14.7,7.35-16.531S51.959,459.92,51.959,459.92Z" transform="translate(-0.332 -186.597)" fill="#fff" stroke="#263238" stroke-linecap="round" stroke-linejoin="round" stroke-width="1"/>
      <path id="Path_237" data-name="Path 237" d="M59.591,459.718s-6.441-1.356-8.272.448-5.058,17.928-4.6,19.758,5.058,2.292,6.428.461S59.591,459.718,59.591,459.718Z" transform="translate(0.308 -186.843)" fill="#fff" stroke="#263238" stroke-linecap="round" stroke-linejoin="round" stroke-width="1"/>
      <path id="Path_238" data-name="Path 238" d="M105.239,474.242,94.39,473.008a17.953,17.953,0,0,0-2.007-2.048,38.943,38.943,0,0,0-6.455-3.227s-19.3-6.9-23.434-9.655-6.428,2.712-7.8,5.98-4.6,14.7-4.6,17.914,5.045,4.584,5.967.909,8.272-15.609,8.272-15.609l9.642,3.675s.922,1.356-3.214,4.136-10.1,8.72-8.272,9.642,7.35.461,9.194-1.356S83.175,479.3,83.175,479.3s8.733,5.519,10.564,5.98a21.186,21.186,0,0,0,3.58.217h11.2a11.812,11.812,0,0,0-3.282-11.256Z" transform="translate(1.527 -187.52)" fill="#fff" stroke="#263238" stroke-linecap="round" stroke-linejoin="round" stroke-width="1"/>
      <path id="Path_239" data-name="Path 239" d="M66.21,471.164s4.068-4.638,7.364-5.194" transform="translate(7.264 -184.442)" fill="none" stroke="#263238" stroke-linecap="round" stroke-linejoin="round" stroke-width="1"/>
      <path id="Path_240" data-name="Path 240" d="M265.9,442.11a132.795,132.795,0,0,1,14.415,5.628c6.686,3.16,9.154,10.849,8.137,20.409s-7.743,16.9-17.629,14.076-15.134-10.849-15.487-17.25S252.123,444.212,265.9,442.11Z" transform="translate(74.441 -192.939)" fill="#fff" stroke="#263238" stroke-linecap="round" stroke-linejoin="round" stroke-width="1"/>
      <path id="Path_241" data-name="Path 241" d="M198.352,420.4c-23.271-.827-38.364-15.161-47.382-28.288,9.072-3.038,17.25-2.305,23.6-4.285,8.272-2.59,13.439-4.651,13.968-9.3s.515-26.376.515-26.376l38.785-3.105s-3.621,24.817,0,29.482,11.893,8.272,23.786,11.893c5.207,1.573,9.615.976,13.9.9C258.536,398.931,234.56,421.687,198.352,420.4Z" transform="translate(37.447 -226.081)" fill="#fff" stroke="#263238" stroke-linecap="round" stroke-linejoin="round" stroke-width="1"/>
      <path id="Path_242" data-name="Path 242" d="M179,367.686a53.457,53.457,0,0,0,9.628,7.391c6.211,3.5,16.843.393,19.948-3.485,1.519-1.9,4.651-5.641,8-10.144.475-6.55,1.356-12.408,1.356-12.408l-38.785,3.105S179.068,360.3,179,367.686Z" transform="translate(47.429 -226.081)" fill="#263238" stroke="#263238" stroke-linecap="round" stroke-linejoin="round" stroke-width="1"/>
      <path id="Path_243" data-name="Path 243" d="M292.863,409.923s-21.115,27.8-23.23,39.422-8.8,39.734-8.8,39.734-20.409,8.8-33.428,9.154-35.543-1.763-35.543-1.763,14.429-37.225,20.057-55.926,7.038-29.21,7.038-29.21,32.031,4.217,50.325,0L296.728,405Z" transform="translate(52.008 -206.154)" fill="#fff" stroke="#263238" stroke-linecap="round" stroke-linejoin="round" stroke-width="1"/>
      <path id="Path_244" data-name="Path 244" d="M276.77,461.177s-2.577-32.547-5.682-33.6-21.7-3.621-26.892-2.59-6.781,3.106-2.577,4.136,11.364,2.075,14.47,2.59a92.953,92.953,0,0,1,10.347,3.105s-11.378,1.546-16.029,1.546-15.514,4.651-16.029,6.781a4.869,4.869,0,0,0,.515,3.621,5.953,5.953,0,0,0,.081,3.241c.515,2.075,12.842,1.044,15.948,1.56s9.3,2.007,9.3,2.007-18.09-1.031-18.09,2.59,7.743,3.092,10.849,3.092a20.857,20.857,0,0,1,10.347,4.136c1.546,1.56,1.031,9.669,5.682,11.229a24.65,24.65,0,0,0,6.211,1.546" transform="translate(67.098 -199.123)" fill="#fff" stroke="#263238" stroke-linecap="round" stroke-linejoin="round" stroke-width="1"/>
      <path id="Path_245" data-name="Path 245" d="M234.72,441.447s20.681-4.665,31.028.515" transform="translate(67.271 -193.862)" fill="none" stroke="#263238" stroke-linecap="round" stroke-linejoin="round" stroke-width="1"/>
      <path id="Path_246" data-name="Path 246" d="M153.814,420.35s-8.272,28.953-6.713,39.327,6.2,22.227,6.713,23.786S152,497.282,152,497.282" transform="translate(36 -200.688)" fill="none" stroke="#263238" stroke-linecap="round" stroke-linejoin="round" stroke-width="1"/>
      <path id="Path_247" data-name="Path 247" d="M141.213,317.727c4.651-4.651,0-7.242.515-12.408s5.682-7.757,8.272-8.788,1.546-3.621,2.075-9.316,6.713-7.757,10.849-9.3,1.56-4.068,3.621-8.272S180,266.534,180,266.534s2.577-4.651,5.682-4.651,5.167,4.136,9.3.515,7.757-5.167,13.453-3.105a41.116,41.116,0,0,0,5.655,1.79,40.684,40.684,0,0,0,5.669-1.79c5.682-2.061,9.3-.515,13.439,3.105s6.211-.515,9.316-.515,5.682,4.651,5.682,4.651,11.378-1.031,13.453,3.105-.529,6.713,3.607,8.272,10.347,3.621,10.849,9.3-.515,8.272,2.075,9.316,7.757,3.607,8.272,8.788-4.068,7.757.515,12.408,9.3,8.272,5.167,11.378-8.272,4.136-7.757,8.788,5.7,10.347,1.56,12.924-8.272,2.59-8.272,7.242,1.546,11.378-3.105,12.408-11.378,0-11.378,3.105-.515,8.788-7.757,7.757-9.818-3.105-11.378,1.031-5.167,6.781-9.3,6.211-9.832-1.031-13.453,2.061a12.544,12.544,0,0,1-6.157,2.55v.176h-2.116v-.176a12.652,12.652,0,0,1-6.157-2.549c-3.621-3.092-9.3-2.577-13.439-2.061s-7.757-2.075-9.3-6.211-4.136-2.061-11.378-1.031-7.757-4.651-7.757-7.757-6.781-2.061-11.378-3.105-3.105-7.757-3.105-12.408-4.068-4.651-8.272-7.242,1.031-8.272,1.546-12.924-3.621-5.682-7.757-8.788S136.562,322.378,141.213,317.727Z" transform="translate(31.555 -258.37)" fill="#263238" stroke="#263238" stroke-linecap="round" stroke-linejoin="round" stroke-width="1"/>
      <path id="Path_248" data-name="Path 248" d="M173.014,324.734s-5.885-8.828-9.425-4.706-2.346,14.714,2.36,20.016,9.994,3.526,9.994,3.526" transform="translate(41.209 -236.803)" fill="#fff" stroke="#263238" stroke-linecap="round" stroke-linejoin="round" stroke-width="1"/>
      <path id="Path_249" data-name="Path 249" d="M217.756,324.184s6.875-8.137,9.9-3.58.61,14.917-4.679,19.6-10.347,2.346-10.347,2.346" transform="translate(59.405 -236.701)" fill="#fff" stroke="#263238" stroke-linecap="round" stroke-linejoin="round" stroke-width="1"/>
      <path id="Path_250" data-name="Path 250" d="M231.34,307.683A9.371,9.371,0,0,1,223.583,310a24.1,24.1,0,0,1-7.364-2.319s-4.651,3.106-8.137,1.939-7.377-2.333-7.377-2.333a12,12,0,0,1-8.53,1.56c-5.424-.787-6.984-1.939-6.984-1.939s-3.105,2.712-6.2,2.712a45.588,45.588,0,0,1-5.818-.393,7.743,7.743,0,0,1-2.712.773h-2.712s-1.153,23.271,2.712,39.951,18.985,29.088,25.21,32.547,16.856.393,19.962-3.485,13.005-15.514,17.629-25.6,6.211-39.558,6.211-41.5S233.239,312.334,231.34,307.683Z" transform="translate(43.366 -241.084)" fill="#fff" stroke="#263238" stroke-linecap="round" stroke-linejoin="round" stroke-width="1"/>
      <path id="Path_251" data-name="Path 251" d="M198.913,318.365a2.834,2.834,0,0,0-1.722,2.712c.136,4.394.787,14.836,3.838,16.667,3.878,2.319,21.982,4.068,26.376,1.153,2.319-1.546,7.364-15.121,5.424-18.985S214.427,311.991,198.913,318.365Z" transform="translate(53.906 -238.191)" fill="none" stroke="#263238" stroke-linecap="round" stroke-linejoin="round" stroke-width="1"/>
      <path id="Path_252" data-name="Path 252" d="M198.65,318.365a2.834,2.834,0,0,1,1.722,2.712c-.136,4.394-.786,14.836-3.838,16.667-3.878,2.319-21.982,4.068-26.376,1.153-2.319-1.546-7.364-15.121-5.424-18.985S183.136,311.991,198.65,318.365Z" transform="translate(42.194 -238.191)" fill="none" stroke="#263238" stroke-linecap="round" stroke-linejoin="round" stroke-width="1"/>
      <path id="Path_253" data-name="Path 253" d="M201.572,317.624s-7.187-1.56-11.852.773" transform="translate(51.246 -237.451)" fill="none" stroke="#263238" stroke-linecap="round" stroke-linejoin="round" stroke-width="1"/>
      <line id="Line_166" data-name="Line 166" x1="7.377" transform="translate(242.905 84.825)" fill="none" stroke="#263238" stroke-linecap="round" stroke-linejoin="round" stroke-width="1"/>
      <ellipse id="Ellipse_25" data-name="Ellipse 25" cx="2.332" cy="4.272" rx="2.332" ry="4.272" transform="translate(259.585 86.371)" fill="#263238"/>
      <ellipse id="Ellipse_26" data-name="Ellipse 26" cx="2.332" cy="4.272" rx="2.332" ry="4.272" transform="translate(233.209 86.371)" fill="#263238"/>
      <path id="Path_254" data-name="Path 254" d="M197.528,327.21s-.393,5.424,1.546,7.364,4.258,3.5,1.546,5.424-5.031,3.485-8.91,0" transform="translate(51.955 -233.855)" fill="none" stroke="#263238" stroke-linecap="round" stroke-linejoin="round" stroke-width="1"/>
      <path id="Path_255" data-name="Path 255" d="M205.946,343.056s-9.7,4.665-18.226-1.546" transform="translate(50.534 -228.763)" fill="none" stroke="#263238" stroke-linecap="round" stroke-linejoin="round" stroke-width="1"/>
      <path id="Path_256" data-name="Path 256" d="M213.449,319.519a11.445,11.445,0,0,0-10.849-1.56" transform="translate(55.833 -237.406)" fill="none" stroke="#263238" stroke-linecap="round" stroke-linejoin="round" stroke-width="1"/>
      <path id="Path_257" data-name="Path 257" d="M190.818,319.011s-8.923-4.651-13.968,2.712" transform="translate(46.663 -237.291)" fill="none" stroke="#263238" stroke-linecap="round" stroke-linejoin="round" stroke-width="1"/>
      <path id="Path_258" data-name="Path 258" d="M223.521,373.25l-30.255,74.464L175.42,376.355" transform="translate(46.154 -217.46)" fill="none" stroke="#263238" stroke-linecap="round" stroke-linejoin="round" stroke-width="1"/>
      <path id="Path_259" data-name="Path 259" d="M185.72,431.862a4.272,4.272,0,1,0,4.272-4.272,4.272,4.272,0,0,0-4.272,4.272Z" transform="translate(49.822 -198.109)" fill="#263238" stroke="#263238" stroke-linecap="round" stroke-linejoin="round" stroke-width="1"/>
      <rect id="Rectangle_143" data-name="Rectangle 143" width="116.869" height="3.621" transform="translate(260.291 297.747) rotate(180)" fill="gray" stroke="#263238" stroke-linecap="round" stroke-linejoin="round" stroke-width="1"/>
      <path id="Path_260" data-name="Path 260" d="M54.88,419.2H172.251l23.786,79.63H78.666Z" transform="translate(3.229 -201.097)" fill="gray" stroke="#263238" stroke-linecap="round" stroke-linejoin="round" stroke-width="1"/>
    </g>
  </g>
</svg>
