<svg xmlns="http://www.w3.org/2000/svg" width="1332.888" height="383.168" viewBox="0 0 1332.888 383.168">
  <g id="Group_4302" data-name="Group 4302" transform="translate(-327.685 -228.234)">
    <g id="Group_4299" data-name="Group 4299" transform="translate(328.193 241.761)">
      <path id="Path_1483" data-name="Path 1483" d="M98.11,59.57a9.98,9.98,0,0,1,6.093,9.187v26.8a9.964,9.964,0,0,1-9.964,9.949h0a9.949,9.949,0,0,1-9.949-9.949v-26.8a10,10,0,0,1,6.077-9.187" transform="translate(-41.995 -33.032)" fill="none" stroke="gray" stroke-linecap="round" stroke-linejoin="round" stroke-width="1"/>
      <path id="Path_1484" data-name="Path 1484" d="M94.219,97.156h0a9.949,9.949,0,0,1-9.949-9.949V73.8h19.913V87.207a9.964,9.964,0,0,1-9.964,9.949Z" transform="translate(-42.007 -24.683)" fill="none" stroke="gray" stroke-linecap="round" stroke-linejoin="round" stroke-width="1"/>
      <path id="Path_1485" data-name="Path 1485" d="M88.441,65.575,73.8,77.316A9.949,9.949,0,0,1,59.8,75.729h0a9.98,9.98,0,0,1,1.587-14.01L82.253,45.011A9.964,9.964,0,0,1,96.248,46.6h0a9.964,9.964,0,0,1-1.539,13.947l-1.682,1.349" transform="translate(-57.634 -42.844)" fill="none" stroke="gray" stroke-linecap="round" stroke-linejoin="round" stroke-width="1"/>
      <path id="Path_1486" data-name="Path 1486" d="M59.8,71.888h0a9.98,9.98,0,0,1,1.587-14.01L71.845,49.5,84.3,65.034,73.844,73.411A9.949,9.949,0,0,1,59.8,71.888Z" transform="translate(-57.634 -38.94)" fill="none" stroke="gray" stroke-linecap="round" stroke-linejoin="round" stroke-width="1"/>
    </g>
    <g id="Group_4297" data-name="Group 4297" transform="translate(1162.394 464.77)">
      <path id="Path_1487" data-name="Path 1487" d="M426.676,335.54a17.565,17.565,0,0,0-12.789,15.867H392.134a8.124,8.124,0,1,0-.841,4.76h22.943a17.549,17.549,0,0,0,29.877,8.409l11.25,8.743" transform="translate(-375.951 -302.552)" fill="none" stroke="gray" stroke-linecap="round" stroke-linejoin="round" stroke-width="1"/>
      <path id="Path_1488" data-name="Path 1488" d="M441,390.261l13.725,10.678a7.935,7.935,0,0,0-.555,2.888,8.156,8.156,0,1,0,3.427-6.6L426.4,372.966a17.453,17.453,0,0,0-1.031-18.152l19.04-24.419a8.092,8.092,0,1,0-5.188-7.537,7.934,7.934,0,0,0,1.491,4.649l-18.58,23.8A17.453,17.453,0,0,0,410.85,347.2" transform="translate(-355.476 -314.749)" fill="none" stroke="gray" stroke-linecap="round" stroke-linejoin="round" stroke-width="1"/>
    </g>
    <g id="Group_4298" data-name="Group 4298" transform="translate(1175.58 314.827)">
      <path id="Path_1489" data-name="Path 1489" d="M266.535,70.376v74.574a11.853,11.853,0,0,1-23.705,0V49.21h23.705V65.981" transform="translate(-203.512 -40.578)" fill="none" stroke="gray" stroke-linecap="round" stroke-linejoin="round" stroke-width="1"/>
      <path id="Path_1490" data-name="Path 1490" d="M254.683,143.8h0a11.853,11.853,0,0,1-11.853-11.853V71.32h23.705v60.627A11.837,11.837,0,0,1,254.683,143.8Z" transform="translate(-203.512 -27.607)" fill="none" stroke="gray" stroke-linecap="round" stroke-linejoin="round" stroke-width="1"/>
      <path id="Path_1491" data-name="Path 1491" d="M267.785,52.4h3.4V43.77H240.7V52.4h3.38" transform="translate(-204.762 -43.77)" fill="none" stroke="gray" stroke-linecap="round" stroke-linejoin="round" stroke-width="1"/>
      <path id="Path_1492" data-name="Path 1492" d="M220.19,117.407V49.18H243.9v95.709a11.853,11.853,0,1,1-23.705,0v-21.2" transform="translate(-216.794 -40.596)" fill="none" stroke="gray" stroke-linecap="round" stroke-linejoin="round" stroke-width="1"/>
      <path id="Path_1493" data-name="Path 1493" d="M220.19,104.418V71.32H243.9v60.627A11.853,11.853,0,0,1,232.043,143.8h0a11.837,11.837,0,0,1-11.853-11.853V112.574" transform="translate(-216.794 -27.607)" fill="none" stroke="gray" stroke-linecap="round" stroke-linejoin="round" stroke-width="1"/>
      <path id="Path_1494" data-name="Path 1494" d="M245.151,52.4h3.38V43.77H218.05V52.4h3.4" transform="translate(-218.05 -43.77)" fill="none" stroke="gray" stroke-linecap="round" stroke-linejoin="round" stroke-width="1"/>
    </g>
    <g id="Group_4300" data-name="Group 4300" transform="translate(672.077 431.784)">
      <path id="Path_1495" data-name="Path 1495" d="M124.425,336.121a29.068,29.068,0,0,0-18.564,20.627A28.973,28.973,0,0,0,48.74,363.4c0,7.124,3.094,13.455,7.521,19.247H87.439l9.314-22.277a1.952,1.952,0,0,1,1.872-1.174,1.888,1.888,0,0,1,1.73,1.349l11.281,37.208,8.6-27.466a1.888,1.888,0,0,1,1.793-1.333,2,2,0,0,1,1.841,1.285l4.76,13.741h25.752c4.935-5.807,8.632-12.313,8.632-20.627a28.989,28.989,0,0,0-28.989-28.989" transform="translate(-48.74 -334.36)" fill="none" stroke="gray" stroke-linecap="round" stroke-linejoin="round" stroke-width="1"/>
      <path id="Path_1496" data-name="Path 1496" d="M87.174,405.348c4.966,4.966,9.949,9.933,15.042,14.74,11.63-11.488,23.34-22.912,34.907-34.495,3.173-3.173,6.664-6.347,9.885-9.711H123.366a1.9,1.9,0,0,1-1.809-1.285l-3.332-9.52-8.727,27.8a1.9,1.9,0,0,1-1.825,1.349h0a1.92,1.92,0,0,1-1.825-1.365L94.33,354.78l-7.759,18.6a1.936,1.936,0,0,1-1.761,1.19H55.44c6.347,7.061,14.185,13.3,20.072,19.12,2.586,2.555,5.173,5.141,7.743,7.727" transform="translate(-44.809 -322.38)" fill="none" stroke="gray" stroke-linecap="round" stroke-linejoin="round" stroke-width="1"/>
    </g>
    <g id="Group_4296" data-name="Group 4296" transform="translate(1580.801 293.405)">
      <path id="Path_1497" data-name="Path 1497" d="M461.066,96.8l-1.936-3.38,9.584-5.458,1.92,3.38" transform="translate(-412.498 -1.248)" fill="none" stroke="gray" stroke-linecap="round" stroke-linejoin="round" stroke-width="1"/>
      <path id="Path_1498" data-name="Path 1498" d="M468.692,110.159l-5.9-10.329V99.8l9.552-5.458h.016l11.265,19.738-9.584,5.458-2.7-4.712" transform="translate(-410.35 2.495)" fill="none" stroke="gray" stroke-linecap="round" stroke-linejoin="round" stroke-width="1"/>
      <rect id="Rectangle_499" data-name="Rectangle 499" width="17.009" height="6.49" transform="translate(79.089 120.762) rotate(150.28)" fill="none" stroke="gray" stroke-linecap="round" stroke-linejoin="round" stroke-width="1"/>
      <line id="Line_334" data-name="Line 334" x1="17.025" y1="29.877" transform="translate(39.143 40.412)" fill="none" stroke="gray" stroke-linecap="round" stroke-linejoin="round" stroke-width="1"/>
      <line id="Line_335" data-name="Line 335" x1="6.109" y1="10.694" transform="translate(59.072 75.383)" fill="none" stroke="gray" stroke-linecap="round" stroke-linejoin="round" stroke-width="1"/>
      <line id="Line_336" data-name="Line 336" x1="7.822" y1="13.693" transform="translate(15.453 53.931)" fill="none" stroke="gray" stroke-linecap="round" stroke-linejoin="round" stroke-width="1"/>
      <line id="Line_337" data-name="Line 337" x1="15.454" y1="27.085" transform="translate(26.053 72.496)" fill="none" stroke="gray" stroke-linecap="round" stroke-linejoin="round" stroke-width="1"/>
      <path id="Path_1499" data-name="Path 1499" d="M458.34,105.329l7.061-4.014v-.032l9.552-5.458h.016L482,91.81" transform="translate(-412.961 1.011)" fill="none" stroke="gray" stroke-linecap="round" stroke-linejoin="round" stroke-width="1"/>
      <path id="Path_1500" data-name="Path 1500" d="M441.44,69.864l16.089,28.18,3.951-2.253,9.584-5.474,3.919-2.253L458.909,59.9" transform="translate(-422.876 -17.71)" fill="none" stroke="gray" stroke-linecap="round" stroke-linejoin="round" stroke-width="1"/>
      <path id="Path_1501" data-name="Path 1501" d="M470.059,96.555l-1.92-3.38L460.11,79.07" transform="translate(-411.923 -6.463)" fill="none" stroke="gray" stroke-linecap="round" stroke-linejoin="round" stroke-width="1"/>
      <path id="Path_1502" data-name="Path 1502" d="M454.07,82.52,462.1,96.61l1.936,3.38" transform="translate(-415.466 -4.439)" fill="none" stroke="gray" stroke-linecap="round" stroke-linejoin="round" stroke-width="1"/>
      <path id="Path_1503" data-name="Path 1503" d="M467.448,104.14l-7.061,4.046-1.7.952-3.84-6.759,1.666-.952,7.061-4.03,9.568-5.458,7.045-4.014,1.7-.984,3.856,6.759-1.7.968-7.029,4.014H477" transform="translate(-415.009 -1.846)" fill="none" stroke="gray" stroke-linecap="round" stroke-linejoin="round" stroke-width="1"/>
      <path id="Path_1504" data-name="Path 1504" d="M447.487,53.51l-9.837,5.617,3.856,6.775" transform="translate(-425.1 -21.459)" fill="none" stroke="gray" stroke-linecap="round" stroke-linejoin="round" stroke-width="1"/>
      <line id="Line_338" data-name="Line 338" x1="3.872" y1="6.775" transform="translate(26.625 29.623)" fill="none" stroke="gray" stroke-linecap="round" stroke-linejoin="round" stroke-width="1"/>
      <path id="Path_1505" data-name="Path 1505" d="M444.637,73.373l17.469-9.964,3.11-1.777,1.7-.952-3.872-6.759-6.474,3.7-14.09,8.044-6.49,3.7,3.856,6.759,1.682-.952Z" transform="translate(-426.074 -21.219)" fill="none" stroke="gray" stroke-linecap="round" stroke-linejoin="round" stroke-width="1"/>
      <line id="Line_339" data-name="Line 339" x1="18.659" y1="32.686" transform="translate(0 0)" fill="none" stroke="gray" stroke-linecap="round" stroke-linejoin="round" stroke-width="1"/>
    </g>
    <g id="freepik--character-3--inject-38" transform="translate(1285.9 228.734)">
      <ellipse id="Ellipse_83" data-name="Ellipse 83" cx="143.024" cy="143.024" rx="143.024" ry="143.024" transform="translate(0 61.944)" fill="#0129ff"/>
      <path id="Path_1506" data-name="Path 1506" d="M343.961,368.564l.492-114.368s-20.2,2.793-23.578,3.284-4.935-3.427-14.613-13.09-8.2-36.24,4.363-44.935,40.1-40.6,42.031-42.539,15.47,0,20.786.968,14.978,6.347,17.454,6.775,20.31,3.38,20.31,3.38l65.721,12.075c5.315.968,28.989,14.978,34.8,15.867s12.567,10.155,13.534,14.5,10.139,81.667,14.01,86.982,16.914,72.464,16.914,72.464" transform="translate(-279.065 -9.973)" fill="#fff" stroke="#263238" stroke-linecap="round" stroke-linejoin="round" stroke-width="1"/>
      <path id="Path_1507" data-name="Path 1507" d="M397.4,191.285h5.982l17.39,7.061L401.208,180.94Z" transform="translate(-221.897 4.607)" fill="#263238" stroke="#263238" stroke-linecap="round" stroke-linejoin="round" stroke-width="1"/>
      <path id="Path_1508" data-name="Path 1508" d="M373.75,194.122l23.388-3.269-8.156-11.964Z" transform="translate(-235.772 3.404)" fill="#263238" stroke="#263238" stroke-linecap="round" stroke-linejoin="round" stroke-width="1"/>
      <path id="Path_1509" data-name="Path 1509" d="M339.82,170.81s2.618,35.367-1.317,50.441-7.2,19.04-7.2,19.04" transform="translate(-260.677 -1.336)" fill="none" stroke="#263238" stroke-linecap="round" stroke-linejoin="round" stroke-width="1"/>
      <path id="Path_1510" data-name="Path 1510" d="M335.692,222.69c-.587,2.031-1.206,4.062-1.872,6.109" transform="translate(-259.198 29.101)" fill="#fff" stroke="#263238" stroke-linecap="round" stroke-linejoin="round" stroke-width="1"/>
      <path id="Path_1511" data-name="Path 1511" d="M342.966,186.09A237.293,237.293,0,0,1,336,238.2" transform="translate(-257.919 7.628)" fill="#fff" stroke="#263238" stroke-linecap="round" stroke-linejoin="round" stroke-width="1"/>
      <path id="Path_1512" data-name="Path 1512" d="M440.348,333.545s-9.425-41.873-8.473-46.22,3.872-82.635,3.872-82.635" transform="translate(-201.71 18.541)" fill="none" stroke="#263238" stroke-linecap="round" stroke-linejoin="round" stroke-width="1"/>
      <path id="Path_1513" data-name="Path 1513" d="M361,177.29q1.3,3.6,2.793,7.711" transform="translate(-243.252 2.466)" fill="none" stroke="#263238" stroke-linecap="round" stroke-linejoin="round" stroke-width="1"/>
      <path id="Path_1514" data-name="Path 1514" d="M355.41,162.65s2.618,6.347,7.2,18.818" transform="translate(-246.532 -6.124)" fill="none" stroke="#263238" stroke-linecap="round" stroke-linejoin="round" stroke-width="1"/>
      <path id="Path_1515" data-name="Path 1515" d="M367.81,206.28a78.064,78.064,0,0,1,1.095,8.108" transform="translate(-239.257 19.474)" fill="none" stroke="#263238" stroke-linecap="round" stroke-linejoin="round" stroke-width="1"/>
      <path id="Path_1516" data-name="Path 1516" d="M357.23,177a207.286,207.286,0,0,1,15.5,40.381" transform="translate(-245.464 2.295)" fill="none" stroke="#263238" stroke-linecap="round" stroke-linejoin="round" stroke-width="1"/>
      <path id="Path_1517" data-name="Path 1517" d="M393.29,194.28s5.617,52.265,5.617,59.517,4.173,88.251,4.173,88.251" transform="translate(-224.308 12.433)" fill="none" stroke="#263238" stroke-linecap="round" stroke-linejoin="round" stroke-width="1"/>
      <path id="Path_1518" data-name="Path 1518" d="M442.18,260.911l-32.86-3.158V206.44l32.86,3.142Z" transform="translate(-214.903 19.567)" fill="#fff" stroke="#263238" stroke-linecap="round" stroke-linejoin="round" stroke-width="1"/>
      <path id="Path_1519" data-name="Path 1519" d="M424.833,215.488l-8.2-.492V199.05l8.2.492Z" transform="translate(-210.615 15.232)" fill="#0129ff" stroke="#263238" stroke-linecap="round" stroke-linejoin="round" stroke-width="1"/>
      <path id="Path_1520" data-name="Path 1520" d="M382.234,155.9s-3.681-.413-4.49.825-10.234,11.853-10.234,11.853a86.919,86.919,0,0,1,1.222,16.359c0,10.631,4.919,26.974,4.919,26.974l20.024-13.058,13.09-3.681a22.642,22.642,0,0,1,7.759,0S443.163,219.3,444.8,218.48s-4.9-27.815-9.409-39.667S418.2,160.407,418.2,160.407,389.184,155.092,382.234,155.9Z" transform="translate(-239.433 -10.132)" fill="#fff" stroke="#263238" stroke-linecap="round" stroke-linejoin="round" stroke-width="1"/>
      <path id="Path_1521" data-name="Path 1521" d="M382.457,124.426A51.742,51.742,0,0,0,362,132.613c-9,6.537-1.222,29.449,9.822,35.177s18.8,4.078,23.308-6.14,2.459-31.083-.413-34.352S382.457,124.426,382.457,124.426Z" transform="translate(-244.971 -28.558)" fill="#263238"/>
      <path id="Path_1522" data-name="Path 1522" d="M381.144,130.35l-4.094,44.586a237.367,237.367,0,0,0,11.456,30.258,181.623,181.623,0,0,0,14.28,26.593s9.806-17.993,12.265-24.133a143.224,143.224,0,0,0,4.935-17.565l6.172-26.609s-11.107-2.856-24.546-13.09a103.137,103.137,0,0,1-20.468-20.04Z" transform="translate(-233.836 -25.073)" fill="#fff" stroke="#263238" stroke-linecap="round" stroke-linejoin="round" stroke-width="1"/>
      <path id="Path_1523" data-name="Path 1523" d="M420.784,159.221s-11.107-2.856-24.546-13.09a117.605,117.605,0,0,1-10.028-8.52v18.263s10.3,18.041,20.627,23.2a26.005,26.005,0,0,0,8.806,2.475Z" transform="translate(-228.462 -20.814)" fill="#263238"/>
      <path id="Path_1524" data-name="Path 1524" d="M428.492,126.284s3.269-3.269,3.681,3.681-4.094,12.693-6.966,15.137-4.078,3.269-4.078,3.269Z" transform="translate(-207.975 -27.909)" fill="#fff" stroke="#263238" stroke-linecap="round" stroke-linejoin="round" stroke-width="1"/>
      <path id="Path_1525" data-name="Path 1525" d="M429.034,85.634A41.46,41.46,0,0,0,398.7,93.218c-14.534,10.742-15.867,36.668-15.867,36.668s-5.046-4.427-8.219,1.253-3.173,20.23-.619,21.5,5.68,2.523,5.68,2.523,3.792,18.961,7.584,24.657,17.707,20.23,25.926,20.23,22.118-4.427,28.433-12.693A98.007,98.007,0,0,0,454.9,162.064c2.523-6.95,6.95-40.445,6.95-40.445s1.888-15.169-10.107-25.911S429.034,85.634,429.034,85.634Z" transform="translate(-236.712 -51.552)" fill="#fff" stroke="#263238" stroke-linecap="round" stroke-linejoin="round" stroke-width="1"/>
      <path id="Path_1526" data-name="Path 1526" d="M384.389,163.321c3.792,5.68,17.707,20.23,25.926,20.23s22.118-4.427,28.433-12.693a98.01,98.01,0,0,0,13.281-25.292,70.633,70.633,0,0,0,2.063-8.79c-1.587-1.587-12.836-12.281-27.164-15.312-15.549-3.269-43.777-5.712-43.777-5.712l-3.173-2.412-2.888,26.529C377.994,144.249,381.184,158.513,384.389,163.321Z" transform="translate(-233.812 -35.053)" fill="#0129ff" stroke="#263238" stroke-linecap="round" stroke-linejoin="round" stroke-width="1"/>
      <path id="Path_1527" data-name="Path 1527" d="M412.1,126.7s2.459-12.265,3.681-15.534,9.409-6.14,15.549,2.856" transform="translate(-213.272 -38.191)" fill="none" stroke="#263238" stroke-linecap="round" stroke-linejoin="round" stroke-width="1"/>
      <path id="Path_1528" data-name="Path 1528" d="M411.2,106.652s-8.171-10.218-21.262-1.222" transform="translate(-226.273 -41.867)" fill="none" stroke="#263238" stroke-linecap="round" stroke-linejoin="round" stroke-width="1"/>
      <path id="Path_1529" data-name="Path 1529" d="M397.071,111.775c-.444,1.587-1.7,2.713-2.777,2.412s-1.587-1.856-1.158-3.491,1.7-2.729,2.777-2.428S397.515,110.141,397.071,111.775Z" transform="translate(-224.487 -38.058)" fill="#263238"/>
      <path id="Path_1530" data-name="Path 1530" d="M419.751,117.249c-.444,1.587-1.7,2.713-2.777,2.412s-1.587-1.856-1.158-3.491,1.7-2.713,2.777-2.412S420.211,115.615,419.751,117.249Z" transform="translate(-211.181 -34.837)" fill="#263238"/>
      <path id="Path_1531" data-name="Path 1531" d="M382.8,131.981a3.173,3.173,0,0,0,3.6-1.269c1.238-2.047-1.222-9.409,7.775-18.406s19.231-10.234,24.133-14.28,5.728-6.125,2.459-10.218S412.577,76.7,394.584,87s-24.546,16.755-21.674,25.752a50.33,50.33,0,0,0,6.95,14.28Z" transform="translate(-236.646 -53.646)" fill="#263238"/>
      <path id="Path_1532" data-name="Path 1532" d="M400.25,88.17s3.681,8.584,10.218,11.853,15.137,4.506,25.387,10.647,8.187,24.53,8.187,24.53,13.9,6.95,19.627-3.269,11.107-27.4-11.456-40.08S412.928,64.037,400.25,88.17Z" transform="translate(-220.225 -57.325)" fill="#263238"/>
      <path id="Path_1533" data-name="Path 1533" d="M364.465,68.54v58.247a6.045,6.045,0,0,1-6.045,6.029h0a6.045,6.045,0,0,1-6.029-6.029V68.54Z" transform="translate(-248.303 -61.336)" fill="#fff" stroke="#263238" stroke-linecap="round" stroke-linejoin="round" stroke-width="1"/>
      <path id="Path_1534" data-name="Path 1534" d="M364.465,88v27.323a6.045,6.045,0,0,1-6.045,6.029h0a6.045,6.045,0,0,1-6.029-6.029V88Z" transform="translate(-248.303 -49.92)" fill="#0129ff" stroke="#263238" stroke-linecap="round" stroke-linejoin="round" stroke-width="1"/>
      <rect id="Rectangle_500" data-name="Rectangle 500" width="15.946" height="4.839" transform="translate(102.103 4.3)" fill="#fff" stroke="#263238" stroke-linecap="round" stroke-linejoin="round" stroke-width="1"/>
      <path id="Path_1535" data-name="Path 1535" d="M353.3,145.36s0-1.444-6.759-6.347-32.384-5.315-37.7.968,13.534,23.673,18.85,26.1,14.978-1.936,17.882-5.315S353.3,145.36,353.3,145.36Z" transform="translate(-274.399 -22.17)" fill="#fff" stroke="#263238" stroke-linecap="round" stroke-linejoin="round" stroke-width="1"/>
      <path id="Path_1536" data-name="Path 1536" d="M316.35,118.49l-4.76,36.24s9.187,12.567,17.454,13.058,15.47-7.251,15.47-7.251l1.936-36.24S327.473,123.805,316.35,118.49Z" transform="translate(-272.24 -32.032)" fill="#fff" stroke="#263238" stroke-linecap="round" stroke-linejoin="round" stroke-width="1"/>
      <path id="Path_1537" data-name="Path 1537" d="M320.1,126.293s.968-23.673,1.936-33.32,3.872-16.438,5.315-16.438S346.692,64,346.692,64s28.989,1.936,31.892,1.936,8.7,1.936,8.219,4.76l-.492,2.888a15.186,15.186,0,0,1,0,4.76,5.394,5.394,0,0,1-1.936,2.412,3.078,3.078,0,0,1-1.936,3.872c-2.888,1.444-14.978,7.727-14.978,7.727a167.35,167.35,0,0,0-7.727,18.85c-1.936,6.775-9.663,14.01-9.663,14.01s.476,6.775.476,11.107a43.2,43.2,0,0,1-2.412,11.107,41.252,41.252,0,0,1,0,7.743c-.476,1.444-1.936,3.38-3.38,3.38s-12.091,1.936-17.454.968-13.043-7.251-13.043-7.251l2.412-9.663v-7.743C316.719,132.1,320.1,126.293,320.1,126.293Z" transform="translate(-270.674 -64)" fill="#0129ff" stroke="#263238" stroke-linecap="round" stroke-linejoin="round" stroke-width="1"/>
      <path id="Path_1538" data-name="Path 1538" d="M328.3,114.794s10.155-3.856,11.107-10.139S345.2,82.442,345.2,82.442l14.01-.492" transform="translate(-262.437 -53.469)" fill="none" stroke="#263238" stroke-linecap="round" stroke-linejoin="round" stroke-width="1"/>
      <path id="Path_1539" data-name="Path 1539" d="M331.65,79.965s12.567-4.348,15.946-4.348,26.577-.968,26.577-.968" transform="translate(-260.471 -57.752)" fill="none" stroke="#263238" stroke-linecap="round" stroke-linejoin="round" stroke-width="1"/>
      <path id="Path_1540" data-name="Path 1540" d="M331.35,71.892a81.443,81.443,0,0,1,17.866-2.412c8.711,0,27.069.952,27.069.952" transform="translate(-260.647 -60.785)" fill="none" stroke="#263238" stroke-linecap="round" stroke-linejoin="round" stroke-width="1"/>
      <path id="Path_1541" data-name="Path 1541" d="M317.64,115.14s6.347,6.759,19.818,5.315" transform="translate(-268.691 -33.997)" fill="none" stroke="#263238" stroke-linecap="round" stroke-linejoin="round" stroke-width="1"/>
      <path id="Path_1542" data-name="Path 1542" d="M340,113.92s-2.412,1.46-13.534,1.46" transform="translate(-263.51 -34.713)" fill="none" stroke="#263238" stroke-linecap="round" stroke-linejoin="round" stroke-width="1"/>
      <path id="Path_1543" data-name="Path 1543" d="M323.348,143.09l-4.839-4.76S291.931,238.846,291.455,246.1s10.631,19.326,16.914,22.214,27.053.476,33.828-2.9,11.107-16.914,14.978-29.481-.492-34.8.476-41.555,5.315-50.774,5.315-50.774l-6.759,5.315S337.358,148.405,323.348,143.09Z" transform="translate(-284.062 -20.392)" fill="#fff" stroke="#263238" stroke-linecap="round" stroke-linejoin="round" stroke-width="1"/>
      <line id="Line_340" data-name="Line 340" x2="252.6" transform="translate(42.301 359.273)" fill="none" stroke="#263238" stroke-linecap="round" stroke-linejoin="round" stroke-width="1"/>
    </g>
    <g id="freepik--character-1--inject-38" transform="translate(328.193 246.51)">
      <ellipse id="Ellipse_84" data-name="Ellipse 84" cx="143.024" cy="143.024" rx="143.024" ry="143.024" transform="translate(29.354 47.595)" fill="#0129ff"/>
      <path id="Path_1544" data-name="Path 1544" d="M103.259,372.782l3.173-72.5S94.246,337.859,87.9,347.379s-11.107,13.233-20.1,11.646S41.87,329.91,41.87,316.185s14.28-48.679,17.454-56.613,20.119-75.145,22.214-78.858,70.909-24.451,70.909-24.451l4.76-10.06s70.385-7.933,75.145-7.394,4.236,8.457,4.236,8.457,8.584,7.426,9.647,9.012,40.1,20.738,52.265,24.974,13.233,8.457,13.757,10.583,32.289,73.559,43.935,85.681S338.2,312.964,328.14,317.185s-23.8,2.11-28.56-5.284-16.327-16.914-16.327-16.914l1.952,78.969" transform="translate(-29.7 -31.777)" fill="#fff" stroke="#263238" stroke-linecap="round" stroke-linejoin="round" stroke-width="1"/>
      <line id="Line_341" data-name="Line 341" x1="0.809" y1="52.9" transform="translate(75.939 215.609)" fill="none" stroke="#263238" stroke-linecap="round" stroke-linejoin="round" stroke-width="1"/>
      <line id="Line_342" data-name="Line 342" x2="1.222" y2="8.743" transform="translate(72.226 242.25)" fill="none" stroke="#263238" stroke-linecap="round" stroke-linejoin="round" stroke-width="1"/>
      <line id="Line_343" data-name="Line 343" x2="3.824" y2="27.085" transform="translate(67.244 206.914)" fill="none" stroke="#263238" stroke-linecap="round" stroke-linejoin="round" stroke-width="1"/>
      <path id="Path_1545" data-name="Path 1545" d="M190.595,216.31a45.035,45.035,0,0,0-.635,7.267" transform="translate(57.182 13.707)" fill="none" stroke="#263238" stroke-linecap="round" stroke-linejoin="round" stroke-width="1"/>
      <path id="Path_1546" data-name="Path 1546" d="M203.993,192.21A159.972,159.972,0,0,0,191.3,223.563" transform="translate(57.968 -0.433)" fill="none" stroke="#263238" stroke-linecap="round" stroke-linejoin="round" stroke-width="1"/>
      <path id="Path_1547" data-name="Path 1547" d="M190.675,202.88s-4.236,14.28-3.7,25.926" transform="translate(55.405 5.827)" fill="none" stroke="#263238" stroke-linecap="round" stroke-linejoin="round" stroke-width="1"/>
      <path id="Path_1548" data-name="Path 1548" d="M153.348,161.12c-1.3,1.269-2.666,2.523-4.078,3.713" transform="translate(33.31 -18.673)" fill="none" stroke="#263238" stroke-linecap="round" stroke-linejoin="round" stroke-width="1"/>
      <path id="Path_1549" data-name="Path 1549" d="M169.426,145.78a128.811,128.811,0,0,1-14.836,19.865" transform="translate(36.431 -27.672)" fill="none" stroke="#263238" stroke-linecap="round" stroke-linejoin="round" stroke-width="1"/>
      <line id="Line_344" data-name="Line 344" x1="0.111" y2="12.424" transform="translate(159.287 329.105)" fill="none" stroke="#263238" stroke-linecap="round" stroke-linejoin="round" stroke-width="1"/>
      <line id="Line_345" data-name="Line 345" x1="1.174" y2="136.28" transform="translate(159.462 185.209)" fill="none" stroke="#263238" stroke-linecap="round" stroke-linejoin="round" stroke-width="1"/>
      <path id="Path_1550" data-name="Path 1550" d="M134.26,159.45l2.11,10.06-.175,27.735" transform="translate(24.504 -19.652)" fill="none" stroke="#263238" stroke-linecap="round" stroke-linejoin="round" stroke-width="1"/>
      <path id="Path_1551" data-name="Path 1551" d="M71.2,255.28,60.089,236.24l-.539,21.706S67.5,260.04,71.2,255.28Z" transform="translate(-19.328 25.399)" fill="#fff" stroke="#263238" stroke-linecap="round" stroke-linejoin="round" stroke-width="1"/>
      <path id="Path_1552" data-name="Path 1552" d="M104.1,214.034l-7.965,7.759L39.54,161.5l7.965-7.759Z" transform="translate(-31.067 -23.002)" fill="#263238" stroke="#263238" stroke-linecap="round" stroke-linejoin="round" stroke-width="1"/>
      <rect id="Rectangle_501" data-name="Rectangle 501" width="15.359" height="4.522" transform="translate(4.594 137.529) rotate(-44.26)" fill="#fff" stroke="#263238" stroke-linecap="round" stroke-linejoin="round" stroke-width="1"/>
      <rect id="Rectangle_502" data-name="Rectangle 502" width="8.298" height="6.886" transform="translate(66.101 197.785) rotate(-44.26)" fill="#fff" stroke="#263238" stroke-linecap="round" stroke-linejoin="round" stroke-width="1"/>
      <path id="Path_1553" data-name="Path 1553" d="M95.719,209.775h0a2.808,2.808,0,0,1-3.983,0l-43.11-46.426a2.808,2.808,0,0,1,0-3.983h0a2.808,2.808,0,0,1,3.983,0l43.11,46.411a2.824,2.824,0,0,1,0,4Z" transform="translate(-26.222 -20.187)" fill="#fff" stroke="#263238" stroke-linecap="round" stroke-linejoin="round" stroke-width="1"/>
      <path id="Path_1554" data-name="Path 1554" d="M0,0H3.031V43.745a1.38,1.38,0,0,1-1.38,1.38H1.4a1.4,1.4,0,0,1-1.4-1.4Z" transform="matrix(0.716, -0.698, 0.698, 0.716, 72.773, 200.869)" fill="#fff" stroke="#263238" stroke-linecap="round" stroke-linejoin="round" stroke-width="1"/>
      <path id="Path_1555" data-name="Path 1555" d="M49.813,227.85,42.4,205.1l4.236-24.879S58.286,167,59.873,166.462s15.867-.524,15.867-.524,2.65-1.063,2.65,1.587a4.4,4.4,0,0,1-1.587,3.7s5.823.539,7.41.539,3.173,1.063,3.173,3.7-4.236,3.713-5.823,4.236-7.41,2.65-7.41,2.65l-9,10.06h10.06a29.148,29.148,0,0,1,5.823,1.047c1.047,1.587,1.587,7.41,1.587,7.41a17.644,17.644,0,0,1,2.634,9.52c0,5.807,1.587,9,0,9.52s-5.284,3.173-5.284.524a31.037,31.037,0,0,0-.524-5.284l-5.823,1.047L71.5,220.425s4.76,10.583,4.76,14.82-2.11,18.517-2.11,18.517l-2.11,40.222a35.955,35.955,0,0,1-13.757-3.7c-7.933-3.713-16.406-17.453-16.406-17.453L51.4,240.02Z" transform="translate(-29.694 -15.97)" fill="#0129ff" stroke="#263238" stroke-linecap="round" stroke-linejoin="round" stroke-width="1"/>
      <path id="Path_1556" data-name="Path 1556" d="M57.747,231.688c-4.459-.73-8.568-4.157-11.678-7.568L41.88,238.575s8.457,13.757,16.39,17.454a36.066,36.066,0,0,0,13.772,3.7l1.587-30.464C69.377,230.9,63.221,232.609,57.747,231.688Z" transform="translate(-29.694 18.289)" fill="#d1d1d1" stroke="#263238" stroke-linecap="round" stroke-linejoin="round" stroke-width="1"/>
      <path id="Path_1557" data-name="Path 1557" d="M56.22,196.614s1.047-2.65,2.634-3.173,15.867-4.221,15.867-4.221" transform="translate(-21.281 -2.187)" fill="none" stroke="#263238" stroke-linecap="round" stroke-linejoin="round" stroke-width="1"/>
      <path id="Path_1558" data-name="Path 1558" d="M52.22,191l1.587-5.284,5.284-3.189" transform="translate(-23.628 -6.112)" fill="none" stroke="#263238" stroke-linecap="round" stroke-linejoin="round" stroke-width="1"/>
      <path id="Path_1559" data-name="Path 1559" d="M48.21,189.3s6.886-12.17,9-14.28,14.28-4.76,15.867-5.823" transform="translate(-25.981 -13.932)" fill="none" stroke="#263238" stroke-linecap="round" stroke-linejoin="round" stroke-width="1"/>
      <path id="Path_1560" data-name="Path 1560" d="M76.549,256.338l9.52,2.65s2.65,37.573,2.65,42.333S77.612,311.9,65.426,312.967,34.2,304.494,34.2,296.037,46.814,229.92,46.814,229.92,55.906,253.689,76.549,256.338Z" transform="translate(-34.2 21.691)" fill="#fff" stroke="#263238" stroke-linecap="round" stroke-linejoin="round" stroke-width="1"/>
      <path id="Path_1561" data-name="Path 1561" d="M169.2,237.424a39.143,39.143,0,0,1-13.233-2.634,68.225,68.225,0,0,0-15.343-4.236c-3.173-.539-9,2.11-13.233-.539s-7.933-4.76-1.063-7.41,17.993.539,22.214,1.063,12.17-1.063,12.17-1.063Z" transform="translate(17.614 16.789)" fill="#0129ff" stroke="#263238" stroke-linecap="round" stroke-linejoin="round" stroke-width="1"/>
      <ellipse id="Ellipse_85" data-name="Ellipse 85" cx="39.683" cy="14.55" rx="39.683" ry="14.55" transform="translate(77.272 230.413)" fill="#263238" stroke="#263238" stroke-linecap="round" stroke-linejoin="round" stroke-width="1"/>
      <ellipse id="Ellipse_86" data-name="Ellipse 86" cx="37.049" cy="12.44" rx="37.049" ry="12.44" transform="translate(79.905 232.524)" fill="#fff" stroke="#263238" stroke-linecap="round" stroke-linejoin="round" stroke-width="1"/>
      <path id="Path_1562" data-name="Path 1562" d="M182.795,266.258S181.43,242.3,181.43,238.57s17.374,2.491,17.374,2.491S189.744,264.132,182.795,266.258Z" transform="translate(52.178 26.068)" fill="#fff" stroke="#263238" stroke-linecap="round" stroke-linejoin="round" stroke-width="1"/>
      <path id="Path_1563" data-name="Path 1563" d="M234.364,237.756s-19.04-5.3-24.34-7.41S178.8,216.589,174.038,213.4s-18.532-4.221-18.532-4.221-12.17-5.3-13.757-5.3-24.34,9-29.1,11.107-4.236,6.886-2.126,8.473,22.769-7.933,22.769-7.933l-5.823,15.867s-7.41,5.823-4.76,9.52,10.6-2.65,13.233-4.236,17.993-9,17.993-9-13.757,15.343-16.406,19.58,3.713,4.236,5.823,3.173,16.93-12.17,16.93-12.17,21.706,14.82,27.529,14.82,15.343-3.713,15.343-3.713l32.8,18.548s5.284-9,5.823-15.359.524-14.28.524-14.28Z" transform="translate(9.669 6.414)" fill="#0129ff" stroke="#263238" stroke-linecap="round" stroke-linejoin="round" stroke-width="1"/>
      <path id="Path_1564" data-name="Path 1564" d="M120.59,226.893l12.17-10.583,10.044-4.76" transform="translate(16.484 10.914)" fill="none" stroke="#263238" stroke-linecap="round" stroke-linejoin="round" stroke-width="1"/>
      <line id="Line_346" data-name="Line 346" y1="5.823" x2="2.634" transform="translate(142.897 216.117)" fill="none" stroke="#263238" stroke-linecap="round" stroke-linejoin="round" stroke-width="1"/>
      <line id="Line_347" data-name="Line 347" y1="6.347" x2="2.11" transform="translate(154.004 219.291)" fill="none" stroke="#263238" stroke-linecap="round" stroke-linejoin="round" stroke-width="1"/>
      <line id="Line_348" data-name="Line 348" y1="3.713" x2="14.296" transform="translate(169.871 240.981)" fill="none" stroke="#263238" stroke-linecap="round" stroke-linejoin="round" stroke-width="1"/>
      <line id="Line_349" data-name="Line 349" y1="4.236" x2="7.41" transform="translate(163.524 229.874)" fill="none" stroke="#263238" stroke-linecap="round" stroke-linejoin="round" stroke-width="1"/>
      <path id="Path_1565" data-name="Path 1565" d="M185.445,224.23a30.48,30.48,0,0,1,.9,16.93,35.668,35.668,0,0,1-3.649,9.171l10,5.649s5.284-9,5.823-15.359.524-14.28.524-14.28l-7.933-.524Z" transform="translate(52.923 18.353)" fill="#d1d1d1" stroke="#263238" stroke-linecap="round" stroke-linejoin="round" stroke-width="1"/>
      <path id="Path_1566" data-name="Path 1566" d="M251.632,213.22s-14.28,3.7-20.119,6.886-29.1,6.347-31.21,7.394-14.6,3.173-14.6,3.173,6.125,12.693,2.951,22.753S182.31,280.4,182.31,280.4s26.974,7.41,50.266,1.587,38.636-22.753,42.841-24.879,6.347-11.107,6.347-15.343-13.757-19.58-16.93-20.627" transform="translate(52.694 11.894)" fill="#fff" stroke="#263238" stroke-linecap="round" stroke-linejoin="round" stroke-width="1"/>
      <path id="Path_1567" data-name="Path 1567" d="M142.918,73.559s-15.343,4.76-24.34,13.233-9,41.254-9,45.506-1.587,29.639-.539,37.049,22.214,38.62,36.494,39.159S182.03,192.1,185.743,186.8a129.934,129.934,0,0,0,11.646-20.1c2.11-5.3,4.76-24.34,5.3-30.147a127.788,127.788,0,0,0,0-14.82s3.173-15.343-2.65-25.387S177.825,74.131,164.576,72,142.918,73.559,142.918,73.559Z" transform="translate(9.499 -71.343)" fill="#fff" stroke="#263238" stroke-linecap="round" stroke-linejoin="round" stroke-width="1"/>
      <path id="Path_1568" data-name="Path 1568" d="M109.491,108.483s11.107-9.52,35.986-10.06a65.324,65.324,0,0,1,41.254,13.757s3.713-2.65,2.65,11.646-2.65,17.454-14.28,21.69-37.573,7.41-48.68,4.236-16.978-15.327-17.454-19.04S109.491,108.483,109.491,108.483Z" transform="translate(9.59 -55.461)" fill="#d1d1d1" stroke="#263238" stroke-linecap="round" stroke-linejoin="round" stroke-width="1"/>
      <path id="Path_1569" data-name="Path 1569" d="M109.34,102.421a106.2,106.2,0,0,0,44.427,7.394c25.926-1.047,46.617-8.616,49.267-9.139s.539,4.141.539,4.141l-14.883,7.648s0,14.28-3.173,19.04-10.044,7.933-17.454,7.933-14.28-4.221-18.533-7.933c-1.761-1.587-5.807-1.063-7.41,1.063s-3.7,5.284-10.583,4.76-14.8-2.126-17.993-6.347-4.221-15.867-4.221-15.867S108.8,104.531,109.34,102.421Z" transform="translate(9.741 -54.159)" fill="#fff" stroke="#263238" stroke-linecap="round" stroke-linejoin="round" stroke-width="1"/>
      <path id="Path_1570" data-name="Path 1570" d="M124.481,162.243a25.387,25.387,0,0,0,8.108,11.234c6.236,4.982,9.98,6.854,16.835,4.982s28.687-13.09,21.2-11.853a96.29,96.29,0,0,0-13.09,3.173s13.725-7.489,22.452-15.6a16.359,16.359,0,0,0,4.363-18.072s-60.484,18.659-64.911,16.152S124.481,162.243,124.481,162.243Z" transform="translate(15.115 -33.346)" fill="#263238"/>
      <path id="Path_1571" data-name="Path 1571" d="M202.765,114.648c.159-1.809.222-3.935.222-6-1.4,1.7-7.537,9.139-10.805,12.868-3.713,4.236-12.186,11.107-45.522,9.52s-37.573-6.347-37.573-6.347h0c-.333,8.616-.571,18.564,0,22.753,1.063,7.41,22.214,38.62,36.494,39.159S182.075,170.2,185.788,164.9a129.935,129.935,0,0,0,11.646-20.1l-4.236,6.347,1.587-25.926Z" transform="translate(9.533 -49.456)" fill="#0129ff" stroke="#263238" stroke-linecap="round" stroke-linejoin="round" stroke-width="1"/>
      <path id="Path_1572" data-name="Path 1572" d="M136.5,115.371s-6.347-7.933-19.58-5.807" transform="translate(14.331 -49.132)" fill="none" stroke="#263238" stroke-linecap="round" stroke-linejoin="round" stroke-width="1"/>
      <path id="Path_1573" data-name="Path 1573" d="M139.6,114.266s8.457-4.76,22.753-2.634" transform="translate(27.637 -48.027)" fill="none" stroke="#263238" stroke-linecap="round" stroke-linejoin="round" stroke-width="1"/>
      <path id="Path_1574" data-name="Path 1574" d="M117.92,115.76s4.76,7.933,14.28,3.173" transform="translate(14.917 -45.285)" fill="none" stroke="#263238" stroke-linecap="round" stroke-linejoin="round" stroke-width="1"/>
      <path id="Path_1575" data-name="Path 1575" d="M140.93,118.1s5.3,8.457,17.993,0" transform="translate(28.417 -43.912)" fill="none" stroke="#263238" stroke-linecap="round" stroke-linejoin="round" stroke-width="1"/>
      <line id="Line_350" data-name="Line 350" x2="302.882" transform="translate(15.851 341.941)" fill="none" stroke="#263238" stroke-linecap="round" stroke-linejoin="round" stroke-width="1"/>
    </g>
    <g id="freepik--character-2--inject-38" transform="translate(762.786 273.926)">
      <ellipse id="Ellipse_87" data-name="Ellipse 87" cx="143.024" cy="143.024" rx="143.024" ry="143.024" transform="translate(94.693 21.355)" fill="#0129ff"/>
      <path id="Path_1576" data-name="Path 1576" d="M274.249,279.57s-19.04-12.693-40.508-12.154-29.528,22.579-30.671,28.941.587,9.837-12.138,9.837-39.366-2.317-49.774,11.583-11.583,29.512-2.317,39.35,12.693,13.883,12.693,13.883-9.837,9.266-5.2,21.991,21.42,18.517,32.416,18.517,27.767-15.629,32.4-24.879,17.945-6.347,28.354-20.833,5.22-32.416,3.475-42.253.587-30.147,14.471-35.288,16.2-5.22,16.2-5.22Z" transform="translate(-112.788 -255.233)" fill="#263238" stroke="#263238" stroke-linecap="round" stroke-linejoin="round" stroke-width="1"/>
      <path id="Path_1577" data-name="Path 1577" d="M120.1,528.453,161.766,453.8a183.866,183.866,0,0,1,8.092-37.62c6.95-21.992,15.058-57.3,24.9-69.449s42.841-23.15,42.841-23.15,31.829,13.9,40.508,20.262,23.15,17.358,27.767,27.2,8.7,33.558,16.216,42.238,24.308,26.053,23.721,42.253-3.475,22.563-3.475,26.625-8.092-.857-23.134.873-25.752,6.68-26.974,8.409-30.337,48.6-30.337,48.6" transform="translate(-120.1 -222.272)" fill="#fff" stroke="#263238" stroke-linecap="round" stroke-linejoin="round" stroke-width="1"/>
      <path id="Path_1578" data-name="Path 1578" d="M242.371,369.9s5.791,32.416,6.95,40.508-15.042,41.1-19.04,44.57" transform="translate(-55.459 -195.097)" fill="none" stroke="#263238" stroke-linecap="round" stroke-linejoin="round" stroke-width="1"/>
      <path id="Path_1579" data-name="Path 1579" d="M229.66,369.9s-1.158,27.2.571,40.508,5.2,30.147,2.317,35.3" transform="translate(-56.045 -195.097)" fill="none" stroke="#263238" stroke-linecap="round" stroke-linejoin="round" stroke-width="1"/>
      <path id="Path_1580" data-name="Path 1580" d="M241.19,402.928s9.837-8.092,22.563-4.617" transform="translate(-49.058 -178.938)" fill="none" stroke="#263238" stroke-linecap="round" stroke-linejoin="round" stroke-width="1"/>
      <path id="Path_1581" data-name="Path 1581" d="M244.47,398.243s7.521-4.633,14.471-4.633" transform="translate(-47.134 -181.187)" fill="none" stroke="#263238" stroke-linecap="round" stroke-linejoin="round" stroke-width="1"/>
      <path id="Path_1582" data-name="Path 1582" d="M233.238,341.837l5.22,10.425,6.347,29.512-9.266-16.2-4.617,19.675-5.791-35.875S227.462,337.22,233.238,341.837Z" transform="translate(-58.48 -212.175)" fill="#fff" stroke="#263238" stroke-linecap="round" stroke-linejoin="round" stroke-width="1"/>
      <path id="Path_1583" data-name="Path 1583" d="M224.437,311.4s-6.95,6.347-12.154,8.679-11.583,4.633-11.583,4.633l31.829,63.658,12.693,19.675s-.587-16.787-.587-22.579a79.507,79.507,0,0,0-1.158-12.154L258.519,354.8s4.633-42.841.587-49.758S231.958,303.88,224.437,311.4Z" transform="translate(-72.813 -234.972)" fill="#fff" stroke="#263238" stroke-linecap="round" stroke-linejoin="round" stroke-width="1"/>
      <path id="Path_1584" data-name="Path 1584" d="M243.807,328.763,232.7,318.83s-2.507,2.38-4.284,17.8a35.255,35.255,0,0,0,4.3,20.072l9.52-11.821S243.157,337.712,243.807,328.763Z" transform="translate(-56.626 -225.059)" fill="#263238" stroke="#263238" stroke-linecap="round" stroke-linejoin="round" stroke-width="1"/>
      <path id="Path_1585" data-name="Path 1585" d="M313.046,300.851s-4.109,19.929-7.616,26.371-8.457,9.98-8.87,12.836c-1.19,9.885-1.158,14.058-4.094,18.168s-19.342,14.074-29.306,16.406-15.867,4.109-18.77,1.174-13.471-18.168-13.471-24.609-1.761-8.2,0-12.313,1.761-14.661,1.761-14.661,0-5.268,7.029-14.058,20.516-11.107,30.48-11.107,11.107-7.045,21.69-9.964S310.111,294.98,313.046,300.851Z" transform="translate(-55.543 -242.844)" fill="#fff" stroke="#263238" stroke-linecap="round" stroke-linejoin="round" stroke-width="1"/>
      <path id="Path_1586" data-name="Path 1586" d="M269.558,320.272c-1.222,2.047-3.015,3.253-3.983,2.681s-.762-2.729.476-4.76,3.015-3.253,3.983-2.682S270.8,318.209,269.558,320.272Z" transform="translate(-35.109 -227.088)" fill="#263238"/>
      <path id="Path_1587" data-name="Path 1587" d="M266.11,311.6s7.41-3.062,11.25,3.84" transform="translate(-34.438 -229.698)" fill="none" stroke="#263238" stroke-linecap="round" stroke-linejoin="round" stroke-width="1"/>
      <path id="Path_1588" data-name="Path 1588" d="M292.489,351.346a23.627,23.627,0,0,0,2.9-8.282c-4.554-2.491-14.582-8.362-19.913-14.582-7.029-8.2-21.087-28.132-21.087-28.132l-2.3,2.935,11.726,19.342s-13.487,11.107-22.864,11.107c-7.3,0-8.917-2.824-9.266-4.094a14.735,14.735,0,0,1-.7,2.332c-1.761,4.109,0,5.855,0,12.313s10.551,21.69,13.471,24.609,8.806,1.174,18.77-1.174S289.554,355.456,292.489,351.346Z" transform="translate(-55.502 -235.901)" fill="#0129ff" stroke="#263238" stroke-linecap="round" stroke-linejoin="round" stroke-width="1"/>
      <path id="Path_1589" data-name="Path 1589" d="M260.838,331.8a29.942,29.942,0,0,1,16.993-4.094c9.964.587,21.69,4.681,24.625-.587s3.522-15.248,12.313-12.9,9.964,7.616,9.964,7.616,18.168-.587,19.929-10.551S336.459,285.5,330,284.307s-12.313-2.348-12.313-2.348-22.214-22.864-48.648-22.214-38.08,11.107-44.538,33.416-3.522,30.48-8.806,38.08-8.2,15.248,4.76,14.074,21.69-9.377,28.132-12.313A19.04,19.04,0,0,1,260.838,331.8Z" transform="translate(-66.643 -259.731)" fill="#263238" stroke="#263238" stroke-linecap="round" stroke-linejoin="round" stroke-width="1"/>
      <path id="Path_1590" data-name="Path 1590" d="M251.716,315.422s7.029-8.79.587-18.168-25.212,8.79-22.214,18.755,10.551,8.79,10.551,8.79" transform="translate(-55.76 -239.248)" fill="#fff" stroke="#263238" stroke-linecap="round" stroke-linejoin="round" stroke-width="1"/>
      <path id="Path_1591" data-name="Path 1591" d="M210.895,311.55l35.3,71.75-12.154,19.675L191.22,328.908Z" transform="translate(-78.375 -229.33)" fill="#fff" stroke="#263238" stroke-linecap="round" stroke-linejoin="round" stroke-width="1"/>
      <path id="Path_1592" data-name="Path 1592" d="M230.622,430.992s-.809-13.852,16.851-15.232,31.353,6.22,32.1,17.93-35.32,4.157-39.334,4.157S230.622,430.992,230.622,430.992Z" transform="translate(-55.262 -168.287)" fill="#fff" stroke="#263238" stroke-linecap="round" stroke-linejoin="round" stroke-width="1"/>
      <path id="Path_1593" data-name="Path 1593" d="M441.856,448.75H206.9v13.2H441.285" transform="translate(-69.176 -148.837)" fill="#fff" stroke="#263238" stroke-linecap="round" stroke-linejoin="round" stroke-width="1"/>
      <path id="Path_1594" data-name="Path 1594" d="M325.141,360.06,263.8,385.51v94.916h23.15V391.3l42.825-23.721Z" transform="translate(-35.793 -200.87)" fill="#fff" stroke="#263238" stroke-linecap="round" stroke-linejoin="round" stroke-width="1"/>
      <path id="Path_1595" data-name="Path 1595" d="M331.915,419.488a2.4,2.4,0,0,1,0-4.348,2.38,2.38,0,0,0-2.38-2.38h-20.4a10.171,10.171,0,0,1-2.38,6.727,2.4,2.4,0,0,0,1.4,2.174,2.348,2.348,0,0,0-1.4,2.158,2.4,2.4,0,0,1,0,4.347,2.4,2.4,0,0,0,1.4,2.174,2.348,2.348,0,0,0-1.4,2.158,2.38,2.38,0,0,0,2.38,2.4h20.4a2.38,2.38,0,0,0,2.38-2.4,2.348,2.348,0,0,0-1.4-2.158,6.172,6.172,0,0,1,1.4-6.521,2.348,2.348,0,0,0-1.4-2.158,2.4,2.4,0,0,0,1.4-2.174Z" transform="translate(-10.595 -169.952)" fill="#263238" stroke="#263238" stroke-linecap="round" stroke-linejoin="round" stroke-width="1"/>
      <rect id="Rectangle_503" data-name="Rectangle 503" width="112.417" height="23.007" transform="translate(227.578 264.514)" fill="#fff" stroke="#263238" stroke-linecap="round" stroke-linejoin="round" stroke-width="1"/>
      <rect id="Rectangle_504" data-name="Rectangle 504" width="112.417" height="12.154" transform="translate(227.578 275.351)" fill="#263238" stroke="#263238" stroke-linecap="round" stroke-linejoin="round" stroke-width="1"/>
      <rect id="Rectangle_505" data-name="Rectangle 505" width="13.455" height="12.582" transform="translate(234.956 287.077)" fill="#263238" stroke="#263238" stroke-linecap="round" stroke-linejoin="round" stroke-width="1"/>
      <rect id="Rectangle_506" data-name="Rectangle 506" width="13.455" height="12.582" transform="translate(275.75 287.077)" fill="#263238" stroke="#263238" stroke-linecap="round" stroke-linejoin="round" stroke-width="1"/>
      <rect id="Rectangle_507" data-name="Rectangle 507" width="13.455" height="12.582" transform="translate(316.544 287.077)" fill="#263238" stroke="#263238" stroke-linecap="round" stroke-linejoin="round" stroke-width="1"/>
      <rect id="Rectangle_508" data-name="Rectangle 508" width="99.834" height="5.204" transform="translate(242.335 220.23)" fill="#fff" stroke="#263238" stroke-linecap="round" stroke-linejoin="round" stroke-width="1"/>
      <rect id="Rectangle_509" data-name="Rectangle 509" width="85.507" height="7.806" transform="translate(251.014 225.006)" fill="#263238" stroke="#263238" stroke-linecap="round" stroke-linejoin="round" stroke-width="1"/>
      <rect id="Rectangle_510" data-name="Rectangle 510" width="13.884" height="79.858" transform="translate(237.848 102.044) rotate(-47.5)" fill="#263238" stroke="#263238" stroke-linecap="round" stroke-linejoin="round" stroke-width="1"/>
      <rect id="Rectangle_511" data-name="Rectangle 511" width="10.996" height="28.354" transform="translate(294.616 174.406)" fill="#263238" stroke="#263238" stroke-linecap="round" stroke-linejoin="round" stroke-width="1"/>
      <rect id="Rectangle_512" data-name="Rectangle 512" width="8.536" height="4.744" transform="translate(295.885 203.157)" fill="#263238" stroke="#263238" stroke-linecap="round" stroke-linejoin="round" stroke-width="1"/>
      <rect id="Rectangle_513" data-name="Rectangle 513" width="10.996" height="28.354" transform="translate(305.676 170.182) rotate(-23.74)" fill="#263238" stroke="#263238" stroke-linecap="round" stroke-linejoin="round" stroke-width="1"/>
      <rect id="Rectangle_514" data-name="Rectangle 514" width="8.536" height="4.744" transform="translate(318.392 195.99) rotate(-23.74)" fill="#263238" stroke="#263238" stroke-linecap="round" stroke-linejoin="round" stroke-width="1"/>
      <path id="Path_1596" data-name="Path 1596" d="M311.853,345.83,300.27,357.413V390.4l37.049-9.266V359.142Z" transform="translate(-14.397 -209.219)" fill="#fff" stroke="#263238" stroke-linecap="round" stroke-linejoin="round" stroke-width="1"/>
      <path id="Path_1597" data-name="Path 1597" d="M337.319,362.66l-37.049,9.568v8.3l37.049-9.266Z" transform="translate(-14.397 -199.345)" fill="#263238" stroke="#263238" stroke-linecap="round" stroke-linejoin="round" stroke-width="1"/>
      <path id="Path_1598" data-name="Path 1598" d="M262.165,435.023S279.523,423.44,283,419.394s16.2-20.246,19.675-20.833,15.629-.571,17.945-.571,9.837,6.934,11.567,8.092,2.317,6.347.587,6.95-11-4.046-11-4.046l-15.629,2.888s23.721,5.791,25.387,6.95,1.158,6.934,1.158,6.934l-6.87,3.475s6.95-.571,6.95,3.475,0,8.108-2.9,8.108h-2.888s6.347,6.347,4.633,8.092a11,11,0,0,1-7.521,2.9c-2.9,0-9.837,3.459-17.945,6.347s-20.246,8.092-26.625,9.25-15.613,2.317-15.613,2.317-.587-15.042-1.745-19.675-3.475-13.312-3.475-13.312Z" transform="translate(-38.791 -178.617)" fill="#fff" stroke="#263238" stroke-linecap="round" stroke-linejoin="round" stroke-width="1"/>
      <line id="Line_351" data-name="Line 351" x1="12.281" y2="2.221" transform="translate(274.751 250.615)" fill="none" stroke="#263238" stroke-linecap="round" stroke-linejoin="round" stroke-width="1"/>
      <line id="Line_352" data-name="Line 352" x1="12.122" y2="2.475" transform="translate(276.067 262.197)" fill="none" stroke="#263238" stroke-linecap="round" stroke-linejoin="round" stroke-width="1"/>
      <path id="Path_1599" data-name="Path 1599" d="M182.157,346.2c-7.521,11.567-16.2,38.192-16.2,51.5s-11,64.229-12.154,82.746-.571,30.147,11,32.416,48.029,5.2,64.245,3.459,34.8-1.729,60.183-1.729,37.62-1.729,37.62-1.729a219.209,219.209,0,0,0,3.459-24.9c.587-10.409-3.459-26.038-5.2-26.038s-29.512,4.633-53.233,7.521-35.3-1.158-39.35-2.888a17.354,17.354,0,0,0-5.791-1.745V457.3l-6.95-.571,6.347-40.508s5.22-3.475,6.95-7.521,4.046-24.9,2.888-37.62-13.312-20.262-13.312-20.262" transform="translate(-100.57 -209.002)" fill="#fff" stroke="#263238" stroke-linecap="round" stroke-linejoin="round" stroke-width="1"/>
      <path id="Path_1600" data-name="Path 1600" d="M202.631,418.78S198,426.872,180.64,433.822" transform="translate(-84.582 -166.42)" fill="none" stroke="#263238" stroke-linecap="round" stroke-linejoin="round" stroke-width="1"/>
      <path id="Path_1601" data-name="Path 1601" d="M207.369,422.79s-26.053,19.675-31.829,27.2" transform="translate(-87.574 -164.067)" fill="none" stroke="#263238" stroke-linecap="round" stroke-linejoin="round" stroke-width="1"/>
      <path id="Path_1602" data-name="Path 1602" d="M162,431.385s21.991-.587,37.62-10.425" transform="translate(-95.518 -165.141)" fill="none" stroke="#263238" stroke-linecap="round" stroke-linejoin="round" stroke-width="1"/>
      <path id="Path_1603" data-name="Path 1603" d="M204.267,394.649s-5.2-8.108-18.517-15.629" transform="translate(-81.584 -189.747)" fill="none" stroke="#263238" stroke-linecap="round" stroke-linejoin="round" stroke-width="1"/>
    </g>
    <g id="freepik--Shadow--inject-32" transform="translate(339.199 588.375)" opacity="0.2">
      <rect id="Rectangle_484" data-name="Rectangle 484" width="1241.603" height="23.028" fill="#0129ff"/>
      <rect id="Rectangle_485" data-name="Rectangle 485" width="1241.603" height="23.028" fill="#fff" opacity="0.2"/>
    </g>
  </g>
</svg>
