<svg xmlns="http://www.w3.org/2000/svg" width="661.646" height="670.356" viewBox="0 0 661.646 670.356">
  <g id="Collab-bro" transform="translate(-27.69 -18.15)">
    <g id="freepik--Plants--inject-2" transform="translate(41.893 418.203)">
      <path id="Path_1606" data-name="Path 1606" d="M52.888,335.706c-.378-4.2-.465-8.059-.508-11.486v-5.344c1.452-1.234,7.507-6.244,9.177-9.628s2.8-7.987,1.031-11.53a6.651,6.651,0,0,0-9.366-3.035c-4.69,2.9-5.082,12.938-3.819,17.774.1.421,2.556,6.752,2.628,6.694l.1-.073c-.073,1.583-.145,3.282-.174,5.126,0,3.427,0,7.261.261,11.53,0,.7.1,1.452.16,2.164.523.784.813,1.292.813,1.292C53.135,338.015,52.989,336.824,52.888,335.706Z" transform="translate(-32.582 -293.805)" fill="#a8b6ff"/>
      <path id="Path_1607" data-name="Path 1607" d="M42.845,315.346c-6.3,1.031-7.115,6.941-1.234,10.716,4.981,3.195,13.49,3.412,15.973,3.412a5.486,5.486,0,0,0-.1-1.292C55.1,324.538,48.014,314.489,42.845,315.346Z" transform="translate(-37.627 -284.089)" fill="#a8b6ff"/>
      <path id="Path_1608" data-name="Path 1608" d="M145.562,296.231c-5.562-.174-11.428,7.87-13.069,12.546-.145.407-1.568,7-1.452,6.985h.116c-.944,1.263-1.931,2.628-2.9,4.153-1.917,2.817-4.051,6.012-6.128,9.642l-.726,1.263c-.1,1.016-.189,1.626-.189,1.626l-.494-.407a105.537,105.537,0,0,0-4.777,9.6,84.844,84.844,0,0,0-4.908,14.376v.174c-.116-1.626-.61-6.171-.682-6.505-1.089-4.879-6.026-13.693-11.617-14.289a6.476,6.476,0,0,0-7.014,6.738c0,3.935,3.224,7.638,6.2,9.889,3.369,2.556,12.241,4.6,12.938,4.763a117.619,117.619,0,0,0-2.265,15.349c-.261,3.006-.421,6.041-.552,9.1-.16-1.452-.29-2.672-.334-2.9-1.089-4.865-6.026-13.679-11.617-14.274a6.462,6.462,0,0,0-7,6.738c0,3.935,3.224,7.624,6.2,9.889s10.557,4.2,12.561,4.661c0,1.176-.087,2.338-.116,3.514-.16,5.62-.3,11.225-.6,16.728-.1,1.931-.276,3.834-.45,5.736-.131-1.249-.247-2.294-.29-2.454-1.075-4.865-6.026-13.679-11.617-14.274a6.447,6.447,0,0,0-7,6.738c0,3.935,3.209,7.624,6.186,9.889s9.831,3.993,12.2,4.574c-.16,1.336-.319,2.672-.508,3.979.842.247,1.7.45,2.585.624.319-2.527.566-5.1.77-7.7,2.062.581,9.439,2.541,13.069,2s8.161-2.236,10.005-5.692a6.665,6.665,0,0,0-3.064-9.352c-5.169-2.178-13.563,3.18-16.757,6.941-.189.232-2.178,3.195-3.238,4.836.131-1.9.261-3.79.319-5.707.189-5.562.2-11.2.232-16.8v-5.155c.741.218,9.453,2.73,13.577,2.12,3.674-.537,8.161-2.236,10.005-5.678a6.651,6.651,0,0,0-3.078-9.352c-5.155-2.178-13.548,3.166-16.743,6.927-.232.29-3.078,4.545-3.746,5.663,0-3.775.145-7.536.378-11.239a116.637,116.637,0,0,1,1.859-14.9c.349.1,9.439,2.759,13.65,2.149,3.674-.537,8.175-2.251,10.005-5.692a6.665,6.665,0,0,0-3.064-9.352c-5.155-2.178-13.563,3.18-16.757,6.941-.247.29-3.3,4.879-3.8,5.808A4.369,4.369,0,0,1,112,356.3a83.686,83.686,0,0,1,4.545-14.3c1.031-2.57,2.164-4.952,3.325-7.26,1.641.668,9.192,3.645,13.069,3.514s8.379-1.321,10.586-4.545A6.622,6.622,0,0,0,141.5,324.1c-4.894-2.73-13.853,1.655-17.425,5.039-.189.174-1.96,2.28-3.238,3.819.537-1.031,1.075-2.106,1.612-3.078,2-3.674,4.066-6.912,5.91-9.758,1.06-1.612,2.062-3.049,3.006-4.356,1.931-.174,9.758-1,13.069-2.9s6.752-5.039,7.261-8.93a6.709,6.709,0,0,0-6.128-7.7Z" transform="translate(-14.954 -292.709)" fill="#a8b6ff"/>
      <path id="Path_1609" data-name="Path 1609" d="M91.8,408.961c.378.741.741,1.452,1.1,2.236l2.483-.813c-.944-1.873-1.917-3.746-2.9-5.591,2.018-.654,9.192-3.078,11.922-5.562s5.5-6.4,5.126-10.31a6.723,6.723,0,0,0-7.7-6.2c-5.46,1.016-9.439,10.165-9.99,15.087v5.808c-.958-1.655-1.888-3.325-2.9-4.981-2.9-4.792-6.012-9.54-9.09-14.289l-2.788-4.356c.726-.218,9.308-2.9,12.372-5.707,2.73-2.469,5.5-6.389,5.126-10.3a6.709,6.709,0,0,0-7.7-6.2c-5.46,1.017-9.439,10.165-9.99,15.087v6.854c-2.047-3.224-4.051-6.447-5.9-9.7a119.705,119.705,0,0,1-6.68-13.577c.334-.1,9.308-2.9,12.445-5.736,2.73-2.469,5.5-6.389,5.126-10.31a6.709,6.709,0,0,0-7.7-6.186c-5.46,1.017-9.439,10.165-9.99,15.087v6.956c-.1-.276-.247-.552-.349-.813a86.631,86.631,0,0,1-4.153-14.521c-.566-2.73-.944-5.373-1.263-7.958,1.728-.334,9.6-2,12.72-4.24s6.171-5.808,6.23-9.671a6.723,6.723,0,0,0-6.985-7c-5.547.406-10.513,9.047-11.617,13.882,0,.261-.378,3.006-.581,5.01h-.712c.276,3.224.668,6.622,1.307,10.165a85.894,85.894,0,0,0,3.877,14.841.537.537,0,0,0,.073.16c-1-1.307-3.906-4.865-4.153-5.111-3.587-3.5-12.517-8.2-17.425-5.649a6.535,6.535,0,0,0-2.062,9.54c2.207,3.3,6.868,4.661,10.571,4.908,4.182.3,12.633-2.9,13.3-3.122a117.47,117.47,0,0,0,6.593,14.187q2.178,4.03,4.56,7.987c-.9-1.1-1.713-2.091-1.844-2.207-3.572-3.514-12.517-8.219-17.425-5.663a6.535,6.535,0,0,0-2.062,9.555c2.193,3.3,6.868,4.647,10.571,4.908s11.021-2.323,12.953-3.049c.624,1,1.22,2.018,1.844,3.02,2.9,4.821,5.954,9.628,8.713,14.419.973,1.7,1.888,3.4,2.788,5.1-.8-.987-1.452-1.8-1.583-1.917-3.587-3.5-12.532-8.2-17.425-5.649a6.534,6.534,0,0,0-2.077,9.54c2.193,3.3,6.868,4.661,10.571,4.923S89.494,409.774,91.8,408.961Z" transform="translate(-37.532 -285.553)" fill="#a8b6ff"/>
      <path id="Path_1610" data-name="Path 1610" d="M111.243,307.233c-5.533-3.18-9.9.9-7.725,7.536,1.859,5.678,8.437,11.3,10.3,12.779l.682-1.22C114.96,321.913,115.759,309.817,111.243,307.233Z" transform="translate(-8.095 -288.231)" fill="#a8b6ff"/>
      <path id="Path_1611" data-name="Path 1611" d="M343.795,465.56c-6.128.16-12.067,9.439-13.534,14.724-.073.276-.552,3.166-.871,5.358q4.356.392,8.713.61a21.778,21.778,0,0,0,5.663-2.236c3.412-2.222,7.115-6.012,7.377-10.354a7.391,7.391,0,0,0-7.348-8.1Z" transform="translate(94.281 -216.153)" fill="#a8b6ff"/>
      <path id="Path_1612" data-name="Path 1612" d="M304.946,409c-7.057,0-8.974,6.331-3.209,11.472,4.865,4.356,14.115,6.084,16.815,6.52l.131-1.452C316.722,421.111,310.74,408.913,304.946,409Z" transform="translate(80.245 -241.724)" fill="#a8b6ff"/>
      <path id="Path_1613" data-name="Path 1613" d="M395.691,492.745A7.362,7.362,0,0,0,393.978,482c-5.242-3.267-15.349,1.1-19.473,4.647-.319.261-4.153,4.429-5.082,5.533.711-4.124,1.452-8.2,2.381-12.212a126.6,126.6,0,0,1,4.618-15.973c.363.174,9.8,4.661,14.521,4.734,4.095,0,9.294-1.031,11.893-4.458a7.362,7.362,0,0,0-1.713-10.746c-5.242-3.267-15.349,1.1-19.473,4.647-.334.276-4.458,4.748-5.155,5.62.116-.3.189-.624.3-.929a92.93,92.93,0,0,1,7.449-14.812,86.547,86.547,0,0,1,4.894-7.26c1.67,1.016,9.4,5.576,13.635,6.1s9.366,0,12.328-3.108a7.333,7.333,0,0,0-.537-10.847c-4.865-3.834-15.392-.6-19.894,2.454-.247.174-2.541,2.149-4.2,3.6.755-1.031,1.539-2.106,2.28-3.078,2.832-3.659,5.634-6.825,8.146-9.613,1.452-1.568,2.774-2.9,4.037-4.255,2.149.145,10.833.61,14.739-.857s8.248-4.356,9.424-8.495a7.406,7.406,0,0,0-5.445-9.453c-6.026-1.176-13.824,6.593-16.394,11.413-.218.421-2.9,7.348-2.817,7.362h.131c-1.234,1.205-2.556,2.527-3.964,3.993-2.57,2.745-5.46,5.808-8.379,9.468l-1,1.249c-.29,1.089-.479,1.728-.479,1.728s-.189-.189-.479-.523a111.908,111.908,0,0,0-6.883,9.628,93.612,93.612,0,0,0-7.856,14.84s0,.131,0,.189c.16-1.8.421-6.839.392-7.26-.319-5.5-4.182-15.973-10.165-17.6a7.159,7.159,0,0,0-8.814,6.142c-.639,4.356,2.178,8.872,5.039,11.864,3.224,3.369,12.546,7.144,13.287,7.449a127.08,127.08,0,0,0-5.155,16.351c-.8,3.224-1.452,6.52-2.193,9.816.087-1.554.145-2.9.131-3.137-.334-5.5-4.182-15.973-10.165-17.6a7.13,7.13,0,0,0-8.814,6.128c-.639,4.356,2.178,8.887,5.039,11.878s10.789,6.4,12.88,7.261l-.741,3.8c-.987,5.213-1.96,10.412-3.035,15.538l2.614-.363c.9-4.894,1.728-9.831,2.541-14.768.3-1.873.639-3.732.973-5.605.755.363,9.831,4.618,14.434,4.69C387.893,497.246,393.092,496.172,395.691,492.745Z" transform="translate(103.141 -244.384)" fill="#a8b6ff"/>
      <path id="Path_1614" data-name="Path 1614" d="M381.016,412.1c-5.489-4.429-10.949-.741-9.744,6.868,1.046,6.534,7.261,13.8,9,15.741l.958-1.205C382.57,428.789,385.474,415.72,381.016,412.1Z" transform="translate(113.14 -241.183)" fill="#a8b6ff"/>
      <path id="Path_1615" data-name="Path 1615" d="M313.267,432.808c.319-4.632.9-8.872,1.452-12.6.319-2.12.653-4.037.987-5.808,1.859-1.075,9.279-5.5,11.689-8.9s4.443-8.219,3.137-12.386a7.362,7.362,0,0,0-9.686-4.952c-5.634,2.367-7.8,13.229-7.261,18.718,0,.479,1.612,7.812,1.714,7.769l.116-.073c-.363,1.714-.726,3.558-1.075,5.576-.639,3.732-1.307,7.958-1.728,12.619-.073.77-.145,1.583-.2,2.381.421.958.668,1.554.668,1.554A26.492,26.492,0,0,1,313.267,432.808Z" transform="translate(86.604 -251.36)" fill="#a8b6ff"/>
      <path id="Path_1616" data-name="Path 1616" d="M315.624,472.937a6.781,6.781,0,0,0-4.574,5.649c7.507,1.452,15.015,2.657,22.508,3.456C330.218,477.54,321.374,471.02,315.624,472.937Z" transform="translate(85.989 -212.973)" fill="#a8b6ff"/>
      <path id="Path_1617" data-name="Path 1617" d="M353.283,471.066a7.13,7.13,0,0,0-8.814,6.128,11.5,11.5,0,0,0,1.452,6.868q8.233-.174,16.351-1.089C360.66,477.862,357.508,472.242,353.283,471.066Z" transform="translate(101.071 -213.76)" fill="#a8b6ff"/>
      <path id="Path_1618" data-name="Path 1618" d="M342.465,506.434c-2.338-5.721-4.894-11.457-7.406-17.178-.77-1.742-1.525-3.5-2.28-5.257.828-.116,10.658-1.554,14.521-4.066,3.412-2.222,7.115-6.012,7.377-10.354a7.391,7.391,0,0,0-7.261-8.088c-6.128.145-12.067,9.439-13.534,14.71-.116.407-1.017,6.041-1.162,7.478-1.67-3.863-3.3-7.725-4.734-11.617a129.236,129.236,0,0,1-4.923-15.973c.378,0,10.644-1.452,14.521-4.066,3.4-2.222,7.115-6.026,7.377-10.354a7.406,7.406,0,0,0-7.261-8.1c-6.128.16-12.067,9.439-13.534,14.724-.116.407-1.075,6.476-1.162,7.58-.073-.3-.189-.624-.261-.944a95.4,95.4,0,0,1-1.975-16.612c-.145-3.078-.1-6.026,0-8.887,1.931-.073,10.8-.523,14.608-2.425s7.74-5.184,8.466-9.453a7.406,7.406,0,0,0-6.389-8.843c-6.113-.537-13.069,8.03-15.087,13.069-.1.276-.915,3.224-1.452,5.373l-.8-.116c-.261,3.558-.421,7.261-.334,11.268a95.841,95.841,0,0,0,1.641,16.859v.189c-.857-1.6-3.412-5.983-3.645-6.3-3.3-4.443-12.227-11.138-18.021-9.206a7.26,7.26,0,0,0-3.906,10.063c1.815,3.964,6.68,6.273,10.673,7.26,4.5,1.046,14.274-.944,15.058-1.1a131.657,131.657,0,0,0,4.7,16.627c1.118,3.18,2.338,6.346,3.587,9.5-.784-1.35-1.452-2.57-1.612-2.715-3.3-4.458-12.227-11.138-18.021-9.206a7.261,7.261,0,0,0-3.906,10.049c1.815,3.979,6.665,6.273,10.673,7.261s12.415-.581,14.623-1.017c.494,1.205.973,2.411,1.452,3.616,2.4,5.808,4.821,11.544,7.014,17.266.465,1.22.9,2.44,1.336,3.645l2.9.29C343.743,509.687,343.133,508.06,342.465,506.434Z" transform="translate(78.766 -241.867)" fill="#a8b6ff"/>
    </g>
    <g id="freepik--Gears--inject-2" transform="translate(102.218 146.624)">
      <path id="Path_1619" data-name="Path 1619" d="M332.541,178.859l.958,5.736,6.389.566,1.917-5.431a25.3,25.3,0,0,0,6.142-1.336l4.037,4.095,5.547-3.209-1.525-5.518a25.37,25.37,0,0,0,4.255-4.647l5.634,1.046,2.715-5.808-4.429-3.645a25.277,25.277,0,0,0,.8-6.244l5.257-2.381-1.118-6.317-5.808-.45a25.107,25.107,0,0,0-2.9-5.489l2.991-5.053-4.531-4.531-5.082,3.02a25.6,25.6,0,0,0-9.715-3.964l-1.452-5.808H336.2l-1.452,5.808a24.946,24.946,0,0,0-5.808,1.83l-4.574-3.964-5.257,3.674,2.164,5.663a25.052,25.052,0,0,0-3.674,4.777l-6.041-.624-2.193,6.026,5,3.383a25.626,25.626,0,0,0-.348,4.255c0,.61,0,1.205,0,1.8l-5.242,2.9,1.655,6.186,5.939-.073a26.225,26.225,0,0,0,3.267,5.184l-2.57,5.344,4.908,4.109,4.85-3.267m26.632-29.942a15.973,15.973,0,1,1-13.94-8.146,14.841,14.841,0,0,1,2.294.174m5.416,1.8a15.841,15.841,0,0,1,3.369,2.5" transform="translate(24.633 -99.225)" fill="rgba(240,2,2,0)" stroke="#fff" stroke-miterlimit="10" stroke-width="1"/>
      <path id="Path_1620" data-name="Path 1620" d="M342.929,404.1l.958,5.736,6.389.566,1.917-5.431a25.291,25.291,0,0,0,6.142-1.336l4.037,4.095,5.547-3.209L366.468,399a25.368,25.368,0,0,0,4.255-4.647l5.634,1.046,2.715-5.808-4.356-3.645a25.282,25.282,0,0,0,.8-6.244l5.257-2.381-1.118-6.317-5.808-.45a24.5,24.5,0,0,0-2.9-5.489l2.991-5.053-4.531-4.531-5.082,3.02a25.6,25.6,0,0,0-9.715-3.964l-1.452-5.808h-6.418l-1.452,5.808a24.949,24.949,0,0,0-5.808,1.83l-4.618-3.921-5.257,3.674,2.164,5.663a25.054,25.054,0,0,0-3.674,4.777l-6.041-.624-2.193,6.026,5,3.383a25.615,25.615,0,0,0-.349,4.255c0,.61,0,1.205,0,1.8l-5.242,2.9,1.655,6.186,5.939-.073a26.224,26.224,0,0,0,3.267,5.184l-2.527,5.373,4.908,4.109,4.763-3.4M363.9,371.746a15.973,15.973,0,1,1-13.94-8.146,14.845,14.845,0,0,1,2.294.174m5.416,1.8a15.842,15.842,0,0,1,3.369,2.5" transform="translate(29.376 2.607)" fill="none" stroke="#fff" stroke-miterlimit="10" stroke-width="1"/>
      <path id="Path_1621" data-name="Path 1621" d="M360.639,117.613l.842,2.207c-.421.421-.828.871-1.22,1.321m-2.135,2.9c-.116.174-.218.349-.319.523l-6.041-.61-2.193,6.012,5,3.383a25.746,25.746,0,0,0-.363,4.255v1.8l-5.257,2.9,1.67,6.186h5.939a25.281,25.281,0,0,0,3.267,5.2l-2.57,5.329,4.908,4.124,4.763-3.412a25.571,25.571,0,0,0,5.721,2.425l.958,5.736,6.375.552,1.931-5.431a25.28,25.28,0,0,0,6.142-1.321l4.022,4.08,5.547-3.195-1.452-5.518a25.85,25.85,0,0,0,4.255-4.647l5.634,1.031,2.715-5.808-4.429-3.659a25.877,25.877,0,0,0,.8-6.23l5.257-2.4-1.118-6.3-5.808-.45a25.545,25.545,0,0,0-2.9-5.5l2.991-5.039-4.531-4.531-5.082,3.02a25.135,25.135,0,0,0-9.715-3.964l-1.452-5.808h-6.4l-1.452,5.808a25.674,25.674,0,0,0-5.808,1.83l-4.589-3.964-5.242,3.674.668,1.743M395.316,140.9a15.376,15.376,0,0,1-.973,3.064m-1.205,2.251a15.973,15.973,0,1,1,2.5-8.625q0,.581,0,1.176" transform="translate(42.799 -106.78)" fill="none" stroke="#fff" stroke-miterlimit="10" stroke-width="1"/>
      <path id="Path_1622" data-name="Path 1622" d="M99.587,277.588l-4.806,9.976,9.177,7.7,8.887-6.375a46.963,46.963,0,0,0,10.717,4.531l1.772,10.717,11.936,1.046,3.587-10.165a47.078,47.078,0,0,0,11.486-2.5l7.522,7.653,10.368-5.983-2.9-10.31a48.122,48.122,0,0,0,7.972-8.713l10.528,1.931,5.068-10.847-8.262-6.825a47.31,47.31,0,0,0,1.452-11.617l9.816-4.473-2.076-11.791-10.833-.842a48.122,48.122,0,0,0-5.416-10.266l5.576-9.439-8.466-8.466-9.511,5.649a47.019,47.019,0,0,0-18.151-7.406l-2.744-10.862H130.3l-2.759,10.92a47.454,47.454,0,0,0-10.76,3.427l-8.567-7.406-9.8,6.868,4.037,10.586a47.673,47.673,0,0,0-6.868,8.916L84.3,222.06,80.2,233.313l9.337,6.331a47.918,47.918,0,0,0-.668,7.958q0,1.7.131,3.354l-9.831,5.489,3.108,11.617,11.109-.131a48.864,48.864,0,0,0,4.356,7.478m28.665-55.935a30.581,30.581,0,0,1,3.993-1.1m7.377-.581a29.87,29.87,0,1,1-13.5,2.541" transform="translate(-79.17 -69.197)" fill="none" stroke="#fff" stroke-miterlimit="10" stroke-width="1"/>
    </g>
    <g id="freepik--light-bulb--inject-2" transform="translate(237.424 250.551)">
      <line id="Line_353" data-name="Line 353" x1="11.878" y1="7.667" transform="translate(26.748 64.561)" fill="none" stroke="#fff" stroke-linecap="round" stroke-linejoin="round" stroke-width="3"/>
      <line id="Line_354" data-name="Line 354" x1="3.078" y1="2.57" transform="translate(56.182 46.598)" fill="none" stroke="#fff" stroke-linecap="round" stroke-linejoin="round" stroke-width="3"/>
      <line id="Line_355" data-name="Line 355" x1="24.584" y1="6.157" transform="translate(0 110.621)" fill="none" stroke="#fff" stroke-linecap="round" stroke-linejoin="round" stroke-width="3"/>
      <path id="Path_1623" data-name="Path 1623" d="M319.995,436.215a2.176,2.176,0,0,1-.537-.073,2.222,2.222,0,0,1-1.35-1.016c-.755-1.321-1.162-2.033,4.966-9.061-13.214,8.088-14.623,7.754-15.392,7.565a2.57,2.57,0,0,1-1.452-1.1c-1.22-2.106-1.452-2.527,23-22.537-3.921,2.541-8,5.271-11.617,7.682-21.52,14.361-28.214,18.442-31.177,17.759a2.7,2.7,0,0,1-1.728-1.263C283.4,431.9,283.4,431.9,312.3,411.021l5.721-4.124c-3.34,2.222-6.665,4.487-9.715,6.563-22.74,15.465-33.093,22.145-36.971,21.273a2.9,2.9,0,0,1-1.917-1.452c-1.452-2.454-1.743-3.006,40.281-31.554l-55.267,31.946a2.149,2.149,0,0,1-2.9-.8c-.973-1.684-.218-3.746,3.776-7.261-6.36,3.659-10.049,5.126-11.864,4.7A2.9,2.9,0,0,1,241.61,429c-1.205-2.091-.741-4.022,14.637-14.361-15.857,9.918-21.709,12.837-23.989,12.3a2.556,2.556,0,0,1-1.626-1.205c-1.06-1.815-.073-2.469,3.572-4.879l8.03-5.242,12.285-7.943c-13.534,7.028-15.567,6.549-16.7,6.273a2.9,2.9,0,0,1-1.844-1.336,2.178,2.178,0,0,1,.784-2.9c42.619-25.267,108.414-65.795,124.271-79.2-15.813,7.188-63.094,36.549-90.03,53.321-34.691,21.564-34.851,21.52-36.3,21.143a2.28,2.28,0,0,1-1.452-1.046c-1.176-2.033-1.118-3.34,12.764-11.936-6.389,3.006-10.6,4.356-12.459,3.921a3.035,3.035,0,0,1-1.946-1.452,2.164,2.164,0,0,1,.712-2.9c43.011-27.4,103.521-66.2,128.206-82.6-6.868,3.5-16.089,8.713-26.341,14.855-8.292,5.329-18.122,11.53-29.754,18.761-15.363,9.569-30.9,19.052-43.839,26.893-31.249,19.72-31.627,19.632-33.152,19.255a2.338,2.338,0,0,1-1.452-1.06,2.178,2.178,0,0,1,.784-2.9c9.41-5.591,19.792-11.82,30.567-18.355L263,362.826c-22.566,12.909-35.039,18.558-38.713,17.658a3.049,3.049,0,0,1-2.047-1.452c-1.35-2.323.566-5.286,16.481-15.683-10.266,6.259-14.332,8.117-16.06,7.7a2.454,2.454,0,0,1-1.583-1.162c-.915-1.583-1.655-2.9,8.974-10.615-5.721,2.9-9.337,4.08-11.065,3.659a2.9,2.9,0,0,1-1.888-1.365,2.164,2.164,0,0,1-.218-1.67,2.207,2.207,0,0,1,1.017-1.321c47.121-26.791,118.477-69.222,140.2-86.342-23.829,13.156-89.522,51.724-135.365,78.907a2.178,2.178,0,0,1-2.991-.784,3.369,3.369,0,0,1-.276-2.643,13.069,13.069,0,0,1,3.572-4.763c-3.383,1.38-5.649,1.888-6.941,1.568a3.02,3.02,0,0,1-1.917-1.452c-1.307-2.251,1.191-3.993,4.966-6.622,2.9-1.96,7.014-4.676,12.764-8.277,10.731-6.709,25.455-15.6,41.051-24.991,17.527-10.571,38.35-23.132,54.89-33.529-35.388,20.329-91.12,52.886-117.882,68.539a2.237,2.237,0,0,1-1.67.218,2.15,2.15,0,0,1-1.321-1.017c-1.118-1.946-1.452-2.512,17.788-14.623-7.536,4.138-12.3,5.925-14.724,5.358a3.355,3.355,0,0,1-2.207-1.583c-1.452-2.5-1.452-2.5,33.486-22.784,16.162-9.381,35.446-20.591,53.191-31.365,14.9-9.9,26.559-17.425,35.4-22.653a112.2,112.2,0,0,0,13.171-10.252c-18.137,8.146-89.755,51.448-135.046,79.619a2.18,2.18,0,1,1-2.323-3.688l14.056-8.945c-11.617,5.968-15.973,6.97-17.759,6.52a2.991,2.991,0,0,1-1.931-1.452,2.149,2.149,0,0,1,.712-2.9L231.736,288.8c-25.3,14.289-27.343,13.78-28.592,13.461a2.512,2.512,0,0,1-1.6-1.176,2.178,2.178,0,0,1,.741-2.9c32.614-20.17,78.951-49.372,106-67.683-21.854,12.59-53.728,31.293-76.148,44.478l-24.991,14.521c-5.547,3.238-8.233,4.821-9.671,5.547l-.378.232h0c-1,.479-1.249.407-1.67.29a2.178,2.178,0,0,1-.6-3.95c34.589-21.39,85.674-53.626,108.559-69.483-12.183,7.057-30.378,18.66-45.015,28.026-41.036,26.138-53.51,33.66-57.126,32.76a2.628,2.628,0,0,1-1.655-1.22c-.9-1.583-1.554-2.7,12.082-12.532-3.717,1.641-6.23,2.265-7.7,1.917a3.151,3.151,0,0,1-2-1.452,2.193,2.193,0,0,1,.726-2.9c26.791-16.859,67.508-43.287,81.507-54.222-12.256,6-39,23.234-54.744,33.311-25.717,16.394-26.675,16.8-28.316,16.394a2.294,2.294,0,0,1-1.452-1.06c-1.162-1.989-2.178-3.761,23-21.07-3.108,1.975-6.288,4.022-9.54,6.113a2.28,2.28,0,0,1-1.946.45,2.135,2.135,0,0,1-1.365-1.031c-1.554-2.686.682-5,18.355-18.543a2.353,2.353,0,0,1-1.554-1.133,2.193,2.193,0,0,1,.828-2.933,2.324,2.324,0,0,1,1.336-.276,75.344,75.344,0,0,0,6.665-4.356c7.086-4.981,9.09-6.171,10.818-5.808a2.512,2.512,0,0,1,1.626,1.176c1.249,2.178.276,3.485-11.617,12.691,3.311-2.047,6.723-4.168,10.165-6.259,33.573-20.533,36.172-19.923,37.755-19.545a2.541,2.541,0,0,1,1.67,1.22,2.178,2.178,0,0,1-.726,2.9c-16.38,10.165-33.4,21.172-47.673,30.683,33.137-21.157,49.067-30.494,53.554-29.362a2.9,2.9,0,0,1,1.873,1.365c1.379,2.4,2.381,4.139-43.462,34.313l-6.593,4.356c9.235-5.808,18.587-11.907,26.138-16.844,29.405-19.081,34.168-21.883,36.39-21.36a2.352,2.352,0,0,1,1.452,1.118,2.164,2.164,0,0,1-.712,2.9c-28.432,18.122-69.962,45.175-90.5,59.711,11.036-6.505,26.675-16.481,40.3-25.165,43.171-27.59,57.256-35.94,61.235-34.981a2.73,2.73,0,0,1,1.713,1.263c1.06,1.844,1.83,3.151-23.422,20.01,35.388-20.533,36.07-20.329,37.188-20.068a2.222,2.222,0,0,1,1.365,1.031c1.452,2.512,2.483,4.356-64.285,47.019-4.85,3.107-9.715,6.2-14.521,9.221,26.428-15.625,57.924-34.851,81.783-49.749a2.2,2.2,0,0,1,3.049.755c1.031,1.8-.494,2.9-2.106,4.008-.987.682-2.44,1.67-4.356,2.9-3.514,2.338-8.713,5.808-15.421,10.165-11.3,7.362-27.082,17.57-46.917,30.349-19.11,12.3-38.365,24.686-51.564,33.122,17.44-9.221,51.361-29.144,116.706-70.892,9.41-6,9.41-6,10.368-5.808a2.207,2.207,0,0,1,1.379,1.031c.537.929.842,1.452-.9,3.006h0c-2.323,2.033-8.1,5.808-21.288,14.376,18.674-10.237,20.417-9.816,21.549-9.526a2.454,2.454,0,0,1,1.583,1.162c.784,1.365.973,3.006-1.931,6.259a7.827,7.827,0,0,1,3.543-.261,3.456,3.456,0,0,1,2.28,1.641c1.452,2.5,2.178,3.775-40.964,30.988,45.683-26.457,46.133-26.341,47.222-26.051a2.149,2.149,0,0,1,1.336,1.016c1.452,2.41-1.162,4.836-7.406,9.4-4.022,2.9-9.7,6.738-17.309,11.617,25.368-15.842,31.729-19.124,33.994-18.572a2.454,2.454,0,0,1,1.539,1.147,2.134,2.134,0,0,1,.218,1.655,2.164,2.164,0,0,1-1.031,1.336c-14.811,8.393-29.87,17.077-44.42,25.644l-15.073,9.526c-29.637,18.761-51.259,32.251-66.434,41.08-4.806,3.3-8.916,6.23-12.212,8.713,13.5-7.987,36.506-21.564,59.536-35,72.605-42.489,73.709-42.184,75.088-41.821a2.222,2.222,0,0,1,1.365,1.031,3.165,3.165,0,0,1,.276,2.469,7.711,7.711,0,0,1-2.367,3.616c4.981-2.483,8.1-3.5,9.642-3.137a2.817,2.817,0,0,1,1.8,1.321c1.162,2-.465,3.093-4.051,5.474-2.164,1.452-5.358,3.471-9.787,6.229l-.857.537c6.767-3.238,11.515-4.763,13.9-4.182a3.586,3.586,0,0,1,2.352,1.67c2,3.471,0,5.678-70.848,47.586-29.754,17.73-69.062,40.964-79.779,49.676,5.91-2.076,20.634-9.192,57.227-31.336,29.826-18.05,62.673-39.12,78.414-49.241,10.934-7.014,10.92-7,11.893-6.767a2.251,2.251,0,0,1,1.38,1.031c.886,1.539,1.786,3.093-10.165,11.994a10.891,10.891,0,0,1,5.387-.929,3.049,3.049,0,0,1,1.946,1.452c1.278,2.222,1.278,2.222-22.217,17.614-11.617,7.58-27.735,18.05-48.065,31.119-19.6,12.6-39.367,25.252-52.9,33.892,27.416-14.7,78.791-47.281,101.647-61.773,20.329-12.851,20.329-12.851,21.433-12.575a2.222,2.222,0,0,1,1.365,1.031c1.554,2.7-.915,6.534-10.47,13.635a2.99,2.99,0,0,1,.842,0,2.73,2.73,0,0,1,1.713,1.263c1.525,2.643,3.253,5.634-61.192,45.988,18.529-11.414,37.755-23.553,53.278-33.616A2.178,2.178,0,0,1,363.3,339c1.06,1.859-.407,2.9-2.9,4.647-1.452,1.031-3.645,2.541-6.52,4.458s-6.447,4.356-10.76,7.144c6.012-3.049,9.729-4.284,11.617-3.819a3.02,3.02,0,0,1,1.96,1.452c1.22,2.106.944,2.9-13.751,12.4,3.093-1.321,5.286-1.8,6.694-1.452a3.223,3.223,0,0,1,2.106,1.525c1.713,2.9.421,4.269-38.931,28.1-11.268,6.825-25.455,15.407-36.942,22.813l77.266-44.594a2.12,2.12,0,0,1,1.655-.218,2.193,2.193,0,0,1,1.321,1c1.074,1.873-.45,2.991-2.977,4.85-1.525,1.118-3.761,2.7-6.839,4.821-5.736,3.979-13.708,9.366-22.145,15.087-9.831,6.651-22.2,15.029-32.338,22.072,4.661-3.078,9.511-6.375,13.824-9.308C328.1,394.7,337.58,388.586,341.283,389.4a2.9,2.9,0,0,1,1.873,1.35c1.263,2.207,1.321,2.309-24.439,20.968,18.689-12.43,24.8-15.973,27.59-15.349a2.7,2.7,0,0,1,1.728,1.263c1.017,1.772,1.017,1.772-11.98,12.386-3.921,3.195-9.366,7.638-14.274,11.747,3.979-2.454,8.364-5.242,12.532-7.943a2.178,2.178,0,0,1,3.078.741c.813,1.452.508,1.742-2.469,4.937-2.425,2.6-4.5,4.879-6.259,6.825,13.185-7.856,13.664-7.725,14.594-7.493a2.193,2.193,0,0,1,1.35,1.031,2.164,2.164,0,0,1-.8,2.977,2.077,2.077,0,0,1-.683.261c-1.931.871-12.662,7.188-22.116,12.909A2.265,2.265,0,0,1,319.995,436.215Zm20.954-14.274a2.207,2.207,0,0,0,.987.886A2.309,2.309,0,0,1,340.949,421.941Zm-53.612-22.174c-12.546,7.827-24.889,15.668-32.934,21.259,8.756-5.213,21.477-13.606,32.934-21.259Zm54-38.67c-14.245,7.9-37.29,22.74-54.8,34.052,6.447-4.022,13.795-8.567,22.145-13.708,11.5-7.072,23.887-14.681,32.658-20.344Zm-.929,10.165c-7.74,4.124-19.487,11.617-30.944,19.1l1.205-.726c10.7-6.505,22.319-13.548,29.739-18.4Zm-71.4-32.614c-9.584,6-18.3,11.646-25.557,16.5C250.976,350.337,259.892,344.573,269.011,338.648Zm103.375-57.111c-4.211,1.452-13.142,5.518-32.033,16.859S298.634,324.65,278.3,337.864c-8.872,5.808-16.336,10.6-22.638,14.637,12.227-7.522,28.65-17.353,50.591-30.334C332.962,306.324,362.817,288.667,372.387,281.537Zm-13.635,42.6-3.078,1.96q-15.247,9.686-28.882,18.224C338.916,337.036,350.373,329.906,358.751,324.141Zm-96.3-9.656c-13.316,8.045-26.254,15.973-34.85,21.39,4.356-2.222,9.6-5.2,15.523-8.713C248.943,323.2,255.463,318.914,262.448,314.485Zm34.1-38.365c-5.576,3.717-11.065,7.406-16.206,10.847q-15.247,10.281-27.024,17.977l8-4.937c29.405-18.122,71.865-44.318,84.353-53.815a114.874,114.874,0,0,0-13.4,7.086c-4.966,3.47-11.283,7.638-19.284,12.691-5.213,3.267-10.746,6.665-16.438,10.121ZM230.458,223.845Z" transform="translate(-162.543 -168.331)" fill="#0129ff"/>
      <g id="Group_4301" data-name="Group 4301" transform="translate(31.274 32.181)" opacity="0.2">
        <path id="Path_1624" data-name="Path 1624" d="M319.995,436.215a2.176,2.176,0,0,1-.537-.073,2.222,2.222,0,0,1-1.35-1.016c-.755-1.321-1.162-2.033,4.966-9.061-13.214,8.088-14.623,7.754-15.392,7.565a2.57,2.57,0,0,1-1.452-1.1c-1.22-2.106-1.452-2.527,23-22.537-3.921,2.541-8,5.271-11.617,7.682-21.52,14.361-28.214,18.442-31.177,17.759a2.7,2.7,0,0,1-1.728-1.263C283.4,431.9,283.4,431.9,312.3,411.021l5.721-4.124c-3.34,2.222-6.665,4.487-9.715,6.563-22.74,15.465-33.093,22.145-36.971,21.273a2.9,2.9,0,0,1-1.917-1.452c-1.452-2.454-1.743-3.006,40.281-31.554l-55.267,31.946a2.149,2.149,0,0,1-2.9-.8c-.973-1.684-.218-3.746,3.776-7.261-6.36,3.659-10.049,5.126-11.864,4.7A2.9,2.9,0,0,1,241.61,429c-1.205-2.091-.741-4.022,14.637-14.361-15.857,9.918-21.709,12.837-23.989,12.3a2.556,2.556,0,0,1-1.626-1.205c-1.06-1.815-.073-2.469,3.572-4.879l8.03-5.242,12.285-7.943c-13.534,7.028-15.567,6.549-16.7,6.273a2.9,2.9,0,0,1-1.844-1.336,2.178,2.178,0,0,1,.784-2.9c42.619-25.267,108.414-65.795,124.271-79.2-15.813,7.188-63.094,36.549-90.03,53.321-34.691,21.564-34.851,21.52-36.3,21.143a2.28,2.28,0,0,1-1.452-1.046c-1.176-2.033-1.118-3.34,12.764-11.936-6.389,3.006-10.6,4.356-12.459,3.921a3.035,3.035,0,0,1-1.946-1.452,2.164,2.164,0,0,1,.712-2.9c43.011-27.4,103.521-66.2,128.206-82.6-6.868,3.5-16.089,8.713-26.341,14.855-8.292,5.329-18.122,11.53-29.754,18.761-15.363,9.569-30.9,19.052-43.839,26.893-31.249,19.72-31.627,19.632-33.152,19.255a2.338,2.338,0,0,1-1.452-1.06,2.178,2.178,0,0,1,.784-2.9c9.41-5.591,19.792-11.82,30.567-18.355L263,362.826c-22.566,12.909-35.039,18.558-38.713,17.658a3.049,3.049,0,0,1-2.047-1.452c-1.35-2.323.566-5.286,16.481-15.683-10.266,6.259-14.332,8.117-16.06,7.7a2.454,2.454,0,0,1-1.583-1.162c-.915-1.583-1.655-2.9,8.974-10.615-5.721,2.9-9.337,4.08-11.065,3.659a2.9,2.9,0,0,1-1.888-1.365,2.164,2.164,0,0,1-.218-1.67,2.207,2.207,0,0,1,1.017-1.321c47.121-26.791,118.477-69.222,140.2-86.342-23.829,13.156-89.522,51.724-135.365,78.907a2.178,2.178,0,0,1-2.991-.784,3.369,3.369,0,0,1-.276-2.643,13.069,13.069,0,0,1,3.572-4.763c-3.383,1.38-5.649,1.888-6.941,1.568a3.02,3.02,0,0,1-1.917-1.452c-1.307-2.251,1.191-3.993,4.966-6.622,2.9-1.96,7.014-4.676,12.764-8.277,10.731-6.709,25.455-15.6,41.051-24.991,17.527-10.571,38.35-23.132,54.89-33.529-35.388,20.329-91.12,52.886-117.882,68.539a2.237,2.237,0,0,1-1.67.218,2.15,2.15,0,0,1-1.321-1.017c-1.118-1.946-1.452-2.512,17.788-14.623-7.536,4.138-12.3,5.925-14.724,5.358a3.355,3.355,0,0,1-2.207-1.583c-1.452-2.5-1.452-2.5,33.486-22.784,16.162-9.381,35.446-20.591,53.191-31.365,14.9-9.9,26.559-17.425,35.4-22.653a112.2,112.2,0,0,0,13.171-10.252c-18.137,8.146-89.755,51.448-135.046,79.619a2.18,2.18,0,1,1-2.323-3.688l14.056-8.945c-11.617,5.968-15.973,6.97-17.759,6.52a2.991,2.991,0,0,1-1.931-1.452,2.149,2.149,0,0,1,.712-2.9L231.736,288.8c-25.3,14.289-27.343,13.78-28.592,13.461a2.512,2.512,0,0,1-1.6-1.176,2.178,2.178,0,0,1,.741-2.9c32.614-20.17,78.951-49.372,106-67.683-21.854,12.59-53.728,31.293-76.148,44.478l-24.991,14.521c-5.547,3.238-8.233,4.821-9.671,5.547l-.378.232h0c-1,.479-1.249.407-1.67.29a2.178,2.178,0,0,1-.6-3.95c34.589-21.39,85.674-53.626,108.559-69.483-12.183,7.057-30.378,18.66-45.015,28.026-41.036,26.138-53.51,33.66-57.126,32.76a2.628,2.628,0,0,1-1.655-1.22c-.9-1.583-1.554-2.7,12.082-12.532-3.717,1.641-6.23,2.265-7.7,1.917a3.151,3.151,0,0,1-2-1.452,2.193,2.193,0,0,1,.726-2.9c26.791-16.859,67.508-43.287,81.507-54.222-12.256,6-39,23.234-54.744,33.311-25.717,16.394-26.675,16.8-28.316,16.394a2.294,2.294,0,0,1-1.452-1.06c-1.162-1.989-2.178-3.761,23-21.07-3.108,1.975-6.288,4.022-9.54,6.113a2.28,2.28,0,0,1-1.946.45,2.135,2.135,0,0,1-1.365-1.031c-1.554-2.686.682-5,18.355-18.543a2.353,2.353,0,0,1-1.554-1.133,2.193,2.193,0,0,1,.828-2.933,2.324,2.324,0,0,1,1.336-.276,75.344,75.344,0,0,0,6.665-4.356c7.086-4.981,9.09-6.171,10.818-5.808a2.512,2.512,0,0,1,1.626,1.176c1.249,2.178.276,3.485-11.617,12.691,3.311-2.047,6.723-4.168,10.165-6.259,33.573-20.533,36.172-19.923,37.755-19.545a2.541,2.541,0,0,1,1.67,1.22,2.178,2.178,0,0,1-.726,2.9c-16.38,10.165-33.4,21.172-47.673,30.683,33.137-21.157,49.067-30.494,53.554-29.362a2.9,2.9,0,0,1,1.873,1.365c1.379,2.4,2.381,4.139-43.462,34.313l-6.593,4.356c9.235-5.808,18.587-11.907,26.138-16.844,29.405-19.081,34.168-21.883,36.39-21.36a2.352,2.352,0,0,1,1.452,1.118,2.164,2.164,0,0,1-.712,2.9c-28.432,18.122-69.962,45.175-90.5,59.711,11.036-6.505,26.675-16.481,40.3-25.165,43.171-27.59,57.256-35.94,61.235-34.981a2.73,2.73,0,0,1,1.713,1.263c1.06,1.844,1.83,3.151-23.422,20.01,35.388-20.533,36.07-20.329,37.188-20.068a2.222,2.222,0,0,1,1.365,1.031c1.452,2.512,2.483,4.356-64.285,47.019-4.85,3.107-9.715,6.2-14.521,9.221,26.428-15.625,57.924-34.851,81.783-49.749a2.2,2.2,0,0,1,3.049.755c1.031,1.8-.494,2.9-2.106,4.008-.987.682-2.44,1.67-4.356,2.9-3.514,2.338-8.713,5.808-15.421,10.165-11.3,7.362-27.082,17.57-46.917,30.349-19.11,12.3-38.365,24.686-51.564,33.122,17.44-9.221,51.361-29.144,116.706-70.892,9.41-6,9.41-6,10.368-5.808a2.207,2.207,0,0,1,1.379,1.031c.537.929.842,1.452-.9,3.006h0c-2.323,2.033-8.1,5.808-21.288,14.376,18.674-10.237,20.417-9.816,21.549-9.526a2.454,2.454,0,0,1,1.583,1.162c.784,1.365.973,3.006-1.931,6.259a7.827,7.827,0,0,1,3.543-.261,3.456,3.456,0,0,1,2.28,1.641c1.452,2.5,2.178,3.775-40.964,30.988,45.683-26.457,46.133-26.341,47.222-26.051a2.149,2.149,0,0,1,1.336,1.016c1.452,2.41-1.162,4.836-7.406,9.4-4.022,2.9-9.7,6.738-17.309,11.617,25.368-15.842,31.729-19.124,33.994-18.572a2.454,2.454,0,0,1,1.539,1.147,2.134,2.134,0,0,1,.218,1.655,2.164,2.164,0,0,1-1.031,1.336c-14.811,8.393-29.87,17.077-44.42,25.644l-15.073,9.526c-29.637,18.761-51.259,32.251-66.434,41.08-4.806,3.3-8.916,6.23-12.212,8.713,13.5-7.987,36.506-21.564,59.536-35,72.605-42.489,73.709-42.184,75.088-41.821a2.222,2.222,0,0,1,1.365,1.031,3.165,3.165,0,0,1,.276,2.469,7.711,7.711,0,0,1-2.367,3.616c4.981-2.483,8.1-3.5,9.642-3.137a2.817,2.817,0,0,1,1.8,1.321c1.162,2-.465,3.093-4.051,5.474-2.164,1.452-5.358,3.471-9.787,6.229l-.857.537c6.767-3.238,11.515-4.763,13.9-4.182a3.586,3.586,0,0,1,2.352,1.67c2,3.471,0,5.678-70.848,47.586-29.754,17.73-69.062,40.964-79.779,49.676,5.91-2.076,20.634-9.192,57.227-31.336,29.826-18.05,62.673-39.12,78.414-49.241,10.934-7.014,10.92-7,11.893-6.767a2.251,2.251,0,0,1,1.38,1.031c.886,1.539,1.786,3.093-10.165,11.994a10.891,10.891,0,0,1,5.387-.929,3.049,3.049,0,0,1,1.946,1.452c1.278,2.222,1.278,2.222-22.217,17.614-11.617,7.58-27.735,18.05-48.065,31.119-19.6,12.6-39.367,25.252-52.9,33.892,27.416-14.7,78.791-47.281,101.647-61.773,20.329-12.851,20.329-12.851,21.433-12.575a2.222,2.222,0,0,1,1.365,1.031c1.554,2.7-.915,6.534-10.47,13.635a2.99,2.99,0,0,1,.842,0,2.73,2.73,0,0,1,1.713,1.263c1.525,2.643,3.253,5.634-61.192,45.988,18.529-11.414,37.755-23.553,53.278-33.616A2.178,2.178,0,0,1,363.3,339c1.06,1.859-.407,2.9-2.9,4.647-1.452,1.031-3.645,2.541-6.52,4.458s-6.447,4.356-10.76,7.144c6.012-3.049,9.729-4.284,11.617-3.819a3.02,3.02,0,0,1,1.96,1.452c1.22,2.106.944,2.9-13.751,12.4,3.093-1.321,5.286-1.8,6.694-1.452a3.223,3.223,0,0,1,2.106,1.525c1.713,2.9.421,4.269-38.931,28.1-11.268,6.825-25.455,15.407-36.942,22.813l77.266-44.594a2.12,2.12,0,0,1,1.655-.218,2.193,2.193,0,0,1,1.321,1c1.074,1.873-.45,2.991-2.977,4.85-1.525,1.118-3.761,2.7-6.839,4.821-5.736,3.979-13.708,9.366-22.145,15.087-9.831,6.651-22.2,15.029-32.338,22.072,4.661-3.078,9.511-6.375,13.824-9.308C328.1,394.7,337.58,388.586,341.283,389.4a2.9,2.9,0,0,1,1.873,1.35c1.263,2.207,1.321,2.309-24.439,20.968,18.689-12.43,24.8-15.973,27.59-15.349a2.7,2.7,0,0,1,1.728,1.263c1.017,1.772,1.017,1.772-11.98,12.386-3.921,3.195-9.366,7.638-14.274,11.747,3.979-2.454,8.364-5.242,12.532-7.943a2.178,2.178,0,0,1,3.078.741c.813,1.452.508,1.742-2.469,4.937-2.425,2.6-4.5,4.879-6.259,6.825,13.185-7.856,13.664-7.725,14.594-7.493a2.193,2.193,0,0,1,1.35,1.031,2.164,2.164,0,0,1-.8,2.977,2.077,2.077,0,0,1-.683.261c-1.931.871-12.662,7.188-22.116,12.909A2.265,2.265,0,0,1,319.995,436.215Zm20.954-14.274a2.207,2.207,0,0,0,.987.886A2.309,2.309,0,0,1,340.949,421.941Zm-53.612-22.174c-12.546,7.827-24.889,15.668-32.934,21.259,8.756-5.213,21.477-13.606,32.934-21.259Zm54-38.67c-14.245,7.9-37.29,22.74-54.8,34.052,6.447-4.022,13.795-8.567,22.145-13.708,11.5-7.072,23.887-14.681,32.658-20.344Zm-.929,10.165c-7.74,4.124-19.487,11.617-30.944,19.1l1.205-.726c10.7-6.505,22.319-13.548,29.739-18.4Zm-71.4-32.614c-9.584,6-18.3,11.646-25.557,16.5C250.976,350.337,259.892,344.573,269.011,338.648Zm103.375-57.111c-4.211,1.452-13.142,5.518-32.033,16.859S298.634,324.65,278.3,337.864c-8.872,5.808-16.336,10.6-22.638,14.637,12.227-7.522,28.65-17.353,50.591-30.334C332.962,306.324,362.817,288.667,372.387,281.537Zm-13.635,42.6-3.078,1.96q-15.247,9.686-28.882,18.224C338.916,337.036,350.373,329.906,358.751,324.141Zm-96.3-9.656c-13.316,8.045-26.254,15.973-34.85,21.39,4.356-2.222,9.6-5.2,15.523-8.713C248.943,323.2,255.463,318.914,262.448,314.485Zm34.1-38.365c-5.576,3.717-11.065,7.406-16.206,10.847q-15.247,10.281-27.024,17.977l8-4.937c29.405-18.122,71.865-44.318,84.353-53.815a114.874,114.874,0,0,0-13.4,7.086c-4.966,3.47-11.283,7.638-19.284,12.691-5.213,3.267-10.746,6.665-16.438,10.121ZM230.458,223.845Z" transform="translate(-193.817 -200.512)" fill="#fff"/>
      </g>
      <path id="Path_1625" data-name="Path 1625" d="M288.522,202.55h-.973c-52.653.973-92.339,41.254-92.339,90.815a90.422,90.422,0,0,0,10.513,42.46c2.9,6.9,9.932,23.786,16.888,45.625,6.447,20.155,9.816,40.441,9.816,43.563v.929a6.81,6.81,0,0,0,6.8,7.028h94.3a6.81,6.81,0,0,0,6.8-7.028v-.929c0-3.064,3.369-23.35,9.8-43.563,6.97-21.782,13.926-38.728,16.888-45.625A90.844,90.844,0,0,0,288.595,202.55Z" transform="translate(-161.913 -167.409)" fill="none" stroke="#fff" stroke-linecap="round" stroke-linejoin="round" stroke-width="2"/>
      <path id="Path_1626" data-name="Path 1626" d="M283.894,213.548a74.694,74.694,0,0,0-8.074-3.078" transform="translate(-125.469 -163.828)" fill="none" stroke="#fff" stroke-linecap="round" stroke-linejoin="round" stroke-width="3"/>
      <path id="Path_1627" data-name="Path 1627" d="M309.594,234.623s-7.406-11.762-23.684-19.763" transform="translate(-120.907 -161.844)" fill="none" stroke="#fff" stroke-linecap="round" stroke-linejoin="round" stroke-width="3"/>
      <path id="Path_1628" data-name="Path 1628" d="M258.96,354.463V307.821s3.587-22.711-8.219-22.711-10.905,11.82,2.715,24.526,34.531.915,37.261-9.076-4.545-14.521-9.09-6.36,0,100.849,0,100.849" transform="translate(-140.526 -130.083)" fill="none" stroke="#fff" stroke-linecap="round" stroke-linejoin="round" stroke-width="3"/>
      <line id="Line_356" data-name="Line 356" x2="5.024" y2="15.813" transform="translate(93.182 11.544)" fill="none" stroke="#fff" stroke-linecap="round" stroke-linejoin="round" stroke-width="3"/>
      <line id="Line_357" data-name="Line 357" x1="16.539" y2="12.938" transform="translate(199.751 46.032)" fill="none" stroke="#fff" stroke-linecap="round" stroke-linejoin="round" stroke-width="3"/>
      <line id="Line_358" data-name="Line 358" x1="6.23" y2="27.358" transform="translate(148.739)" fill="none" stroke="#fff" stroke-linecap="round" stroke-linejoin="round" stroke-width="3"/>
      <rect id="Rectangle_527" data-name="Rectangle 527" width="104.218" height="5.765" rx="1.59" transform="translate(72.329 272.357)" fill="#263238" stroke="#fff" stroke-linecap="round" stroke-linejoin="round" stroke-width="1"/>
      <rect id="Rectangle_528" data-name="Rectangle 528" width="104.218" height="5.765" rx="1.59" transform="translate(72.329 285.339)" fill="#263238" stroke="#fff" stroke-linecap="round" stroke-linejoin="round" stroke-width="1"/>
      <rect id="Rectangle_529" data-name="Rectangle 529" width="104.218" height="5.765" rx="1.59" transform="translate(72.329 298.32)" fill="#263238" stroke="#fff" stroke-linecap="round" stroke-linejoin="round" stroke-width="1"/>
      <path id="Path_1629" data-name="Path 1629" d="M276,392.52H224.86l14.724,20.329a13.606,13.606,0,0,0,11.036,5.634h45.015a13.636,13.636,0,0,0,11.051-5.663l14.608-20.228Z" transform="translate(-148.508 -81.523)" fill="#263238" stroke="#fff" stroke-linecap="round" stroke-linejoin="round" stroke-width="1"/>
    </g>
    <g id="freepik--hand-3--inject-2" transform="translate(427.211 323.147)">
      <path id="Path_1630" data-name="Path 1630" d="M343.812,246.179s-9.293,10.165-16.9,15.218S314,273.174,320.985,276.616c4.2,2.062,10.165-.842,10.165-.842s-9.308,2.527-10.992,10.992S337,291.8,337,291.8s-13.519,9.293-9.293,12.677,12.677.842,16.9.842S369.979,291.8,375.1,291.8s15.218,10.992,15.218,19.444,13.475,7.609,15.2-18.6-5.068-48.181-16.06-54.948S343.812,246.179,343.812,246.179Z" transform="translate(-296.311 -224.896)" fill="#fff" stroke="#263238" stroke-linecap="round" stroke-miterlimit="10" stroke-width="1"/>
      <path id="Path_1631" data-name="Path 1631" d="M332.2,266.766l33.732-12.6s14.811-3.209,25.441,14.3" transform="translate(-289.767 -216.775)" fill="none" stroke="#263238" stroke-linecap="round" stroke-miterlimit="10" stroke-width="1"/>
      <path id="Path_1632" data-name="Path 1632" d="M336.27,271.34l30.494-5.068s13.534-.842,21.985,15.218" transform="translate(-287.927 -211.199)" fill="none" stroke="#263238" stroke-linecap="round" stroke-miterlimit="10" stroke-width="1"/>
      <path id="Path_1633" data-name="Path 1633" d="M376.661,308.771l-22.827,5.082,13.519,54.091s11.849,23.669,15.218,33.82,38.045,43.9,38.045,43.9l40.572-38.887S442.6,384.8,441.758,379.72s-4.24-64.241-4.24-72.692-16.9-28.752-16.9-28.752-6.941-9.947-10.324-26.849-18.877-23.858-27.358-23.016S351.292,231.795,342,238.576s-17.759,15.218-9.293,17.759c14.042,4.211,37.014-14.521,48.094-1.568,5.082,5.91,11.08,31.946,11.922,35.388,0,0-4.226,16.06-16.06,18.587h0" transform="translate(-291.114 -228.343)" fill="#fff" stroke="#263238" stroke-linecap="round" stroke-miterlimit="10" stroke-width="1"/>
      <path id="Path_1634" data-name="Path 1634" d="M303.4,229.771a1.568,1.568,0,0,1,2.033-.2l3.456,2.4a1.571,1.571,0,0,1-1.786,2.585l-3.456-2.41a1.568,1.568,0,0,1-.392-2.178.929.929,0,0,1,.145-.189Z" transform="translate(-302.978 -227.917)" fill="#263238" stroke="#263238" stroke-linecap="round" stroke-miterlimit="10" stroke-width="1"/>
      <path id="Path_1635" data-name="Path 1635" d="M306.3,231.891a3.558,3.558,0,0,1,4.647-.479l10.833,5.576L428.131,306.95a8.409,8.409,0,0,1-9.6,13.81L315.317,244.612l-8.437-7.261a3.587,3.587,0,0,1-.9-5A2.9,2.9,0,0,1,306.3,231.891Z" transform="translate(-301.911 -227.249)" fill="#0129ff" stroke="#263238" stroke-linecap="round" stroke-miterlimit="10" stroke-width="1"/>
      <path id="Path_1636" data-name="Path 1636" d="M402.076,289.514l-30.7-20.184A11.617,11.617,0,0,0,363,280.192a9.673,9.673,0,0,0,.116,1.452l29.362,21.665a8.409,8.409,0,0,0,9.6-13.81Z" transform="translate(-275.842 -209.813)" fill="#263238" stroke="#263238" stroke-linecap="round" stroke-miterlimit="10" stroke-width="1"/>
      <path id="Path_1637" data-name="Path 1637" d="M384.143,392.114c-9.293-13.519-21.128-48.181-26.138-54.948s-18.674-21.782-23.742-36.942-8.393-27.3-8.393-39.991,10.905-14.87,19.357-1.336,18.587,34.313,18.587,34.313,6.767,8.451,20.329,5.91" transform="translate(-292.629 -218.694)" fill="#fff" stroke="#263238" stroke-linecap="round" stroke-miterlimit="10" stroke-width="1"/>
      <path id="Path_1638" data-name="Path 1638" d="M336.491,254.324l2.9,5.649s-.639,0-5.155,2.57a18.4,18.4,0,0,0-6.578,6.375s-4.356-12.169-.508-15.973a6.128,6.128,0,0,1,3.514-1.844A5.808,5.808,0,0,1,336.491,254.324Z" transform="translate(-292.766 -218.069)" fill="#fff" stroke="#263238" stroke-linecap="round" stroke-miterlimit="10" stroke-width="1"/>
      <path id="Path_1639" data-name="Path 1639" d="M431.3,339.36S408.921,345.982,397.3,357.6a266.836,266.836,0,0,0-21.564,24.875l20.736,24.047s17.425-19.908,29.042-29.042a223.621,223.621,0,0,1,24.875-16.583Z" transform="translate(-270.082 -178.152)" fill="#fff" stroke="#263238" stroke-linecap="round" stroke-miterlimit="10" stroke-width="1"/>
      <path id="Path_1640" data-name="Path 1640" d="M448.7,509.147,383.2,403.84s16.583-24.875,30.683-37.3,32.338-15.755,32.338-15.755l81.9,78.6Z" transform="translate(-266.709 -172.989)" fill="#263238" stroke="#fff" stroke-linecap="round" stroke-miterlimit="10" stroke-width="1"/>
      <path id="Path_1641" data-name="Path 1641" d="M341.4,274.535l1.452-.145" transform="translate(-285.607 -207.525)" fill="none" stroke="#263238" stroke-linecap="round" stroke-miterlimit="10" stroke-width="1"/>
      <path id="Path_1642" data-name="Path 1642" d="M332.69,281.378s.77-4.632,10.078-6.578" transform="translate(-289.545 -207.34)" fill="none" stroke="#263238" stroke-linecap="round" stroke-miterlimit="10" stroke-width="1"/>
      <path id="Path_1643" data-name="Path 1643" d="M341.883,277.08s-.653,1.96-7.173,4.574" transform="translate(-288.632 -206.309)" fill="none" stroke="#263238" stroke-linecap="round" stroke-miterlimit="10" stroke-width="1"/>
      <path id="Path_1644" data-name="Path 1644" d="M342.291,272.81a21.491,21.491,0,0,0-9.061,3.674" transform="translate(-289.301 -208.24)" fill="none" stroke="#263238" stroke-linecap="round" stroke-miterlimit="10" stroke-width="1"/>
    </g>
    <g id="freepik--hand-2--inject-2" transform="translate(227.329 18.65)">
      <path id="Path_1645" data-name="Path 1645" d="M209.571,199.791s13.708,1.118,22.391,4.008,17.222,2.9,15.639-4.676c-.944-4.574-6.9-7.493-6.9-7.493s7.711,5.808,15.421,1.931-6.375-16.452-6.375-16.452,15.654,4.966,15.726-.45-7.115-10.528-9.715-13.868-26.24-11.719-29.362-15.712-.668-18.761,6.012-23.96-2.294-15.32-23.945-.6-34.85,33.587-33.529,46.467S209.571,199.791,209.571,199.791Z" transform="translate(-161.025 24.85)" fill="#fff" stroke="#263238" stroke-linecap="round" stroke-miterlimit="10" stroke-width="1"/>
      <path id="Path_1646" data-name="Path 1646" d="M228.178,178.861,197.51,159.983s-11.617-9.715-4.356-28.853" transform="translate(-153.828 32.203)" fill="none" stroke="#263238" stroke-linecap="round" stroke-miterlimit="10" stroke-width="1"/>
      <path id="Path_1647" data-name="Path 1647" d="M227.989,171.27l-22.682-20.91s-8.974-10.165-1.452-26.69" transform="translate(-149.268 28.83)" fill="none" stroke="#263238" stroke-linecap="round" stroke-miterlimit="10" stroke-width="1"/>
      <path id="Path_1648" data-name="Path 1648" d="M237.239,162.756l18.006,14.913,34.487-43.9S311.95,123.8,317.8,114.895s10.833-57.111,10.833-57.111L272.888,50s-5.678,28.229-9.134,32.048-58.549,28.5-65.214,33.7-12.314,30.988-12.314,30.988a186.143,186.143,0,0,1-11.617,30.494c-12.706,25.731-10.441,23.756-4.589,29.913s20.1,18.674,31.148,21.869,24.787,14.608,21.709.653c-3.166-14.3-34.183-20.329-30.77-37,1.554-7.638,18.471-28.389,20.62-31.133,0,0,15.262-6.52,24.541,1.263h0" transform="translate(-165.328 -4.477)" fill="#fff" stroke="#263238" stroke-linecap="round" stroke-miterlimit="10" stroke-width="1"/>
      <path id="Path_1649" data-name="Path 1649" d="M208.644,209.467a1.568,1.568,0,0,1-1.452-1.452l-.218-4.211a1.568,1.568,0,1,1,3.122-.174l.232,4.211a1.568,1.568,0,0,1-1.452,1.655Z" transform="translate(-146.507 64.255)" fill="#263238" stroke="#263238" stroke-linecap="round" stroke-miterlimit="10" stroke-width="1"/>
      <path id="Path_1650" data-name="Path 1650" d="M212.841,250.848a3.558,3.558,0,0,1-3.238-3.369l-2.236-11.98L197.3,108.6a8.412,8.412,0,0,1,16.8-.9l3.253,128.235-.61,11.167a3.572,3.572,0,0,1-3.383,3.761,3.152,3.152,0,0,1-.523-.015Z" transform="translate(-150.878 18.01)" fill="#0129ff" stroke="#263238" stroke-linecap="round" stroke-miterlimit="10" stroke-width="1"/>
      <path id="Path_1651" data-name="Path 1651" d="M197.254,108.581l2.9,36.622a11.617,11.617,0,0,0,13.722,0,10.16,10.16,0,0,0,1.089-.987l-.915-36.477a8.412,8.412,0,1,0-16.8.9Z" transform="translate(-150.9 18.028)" fill="#263238" stroke="#263238" stroke-linecap="round" stroke-miterlimit="10" stroke-width="1"/>
      <path id="Path_1652" data-name="Path 1652" d="M299.438,94.65c-4.763,15.7-25.789,37.276-29.449,44.885a379.532,379.532,0,0,1-28.4,49.647c-3.616,5.416-7.522,6.186-9.9,8.132-3.485,2.9-5.271,5.881-11.225,10.5-10,7.783-18.427.537-12.938-14.434s15.567-35.78,15.567-35.78,2.527-10.528-7.769-19.647" transform="translate(-147.038 15.71)" fill="#fff" stroke="#263238" stroke-linecap="round" stroke-miterlimit="10" stroke-width="1"/>
      <path id="Path_1653" data-name="Path 1653" d="M208.691,170.832l2.73-5.692s.392.508,5.2,2.483a18.369,18.369,0,0,0,9.061,1.278s-6.927,10.92-12.343,10.237a6.055,6.055,0,0,1-3.6-1.641,5.808,5.808,0,0,1-1.046-6.665Z" transform="translate(-146.002 47.579)" fill="#fff" stroke="#263238" stroke-linecap="round" stroke-miterlimit="10" stroke-width="1"/>
      <path id="Path_1654" data-name="Path 1654" d="M239.754,18.679,228.21,93.651s13.926,12.241,32.425,15.538,52.276,8.292,52.276,8.292l29.565-98.83Z" transform="translate(-136.899 -18.65)" fill="#263238" stroke="#fff" stroke-linecap="round" stroke-miterlimit="10" stroke-width="1"/>
      <path id="Path_1655" data-name="Path 1655" d="M285.994,76.947a5.707,5.707,0,1,1-5.707-5.707A5.707,5.707,0,0,1,285.994,76.947Z" transform="translate(-115.935 5.126)" fill="#fff" stroke="#263238" stroke-linecap="round" stroke-linejoin="round" stroke-width="2"/>
      <path id="Path_1656" data-name="Path 1656" d="M217.513,156.617l-.973-.987" transform="translate(-142.175 43.279)" fill="none" stroke="#263238" stroke-linecap="round" stroke-miterlimit="10" stroke-width="1"/>
      <path id="Path_1657" data-name="Path 1657" d="M229.91,161.436s-4.124,2.236-11.37-3.906" transform="translate(-141.271 44.138)" fill="none" stroke="#263238" stroke-linecap="round" stroke-miterlimit="10" stroke-width="1"/>
      <path id="Path_1658" data-name="Path 1658" d="M220.32,156.116s1.946-.682,8.016,2.9" transform="translate(-140.467 43.476)" fill="none" stroke="#263238" stroke-linecap="round" stroke-miterlimit="10" stroke-width="1"/>
      <path id="Path_1659" data-name="Path 1659" d="M217.07,158.88a21.535,21.535,0,0,0,8.451,4.879" transform="translate(-141.936 44.749)" fill="none" stroke="#263238" stroke-linecap="round" stroke-miterlimit="10" stroke-width="1"/>
    </g>
    <g id="freepik--hand-1--inject-2" transform="translate(28.19 417.578)">
      <path id="Path_1660" data-name="Path 1660" d="M246.29,337.854s1.321,13.693,4.356,22.333,3.209,17.178-4.443,15.712c-4.589-.886-7.595-6.781-7.595-6.781s5.91,7.624,2.164,15.378-16.554-6.128-16.554-6.128,5.2,15.567-.2,15.726-10.644-6.956-14.013-9.5-12.111-26.138-16.162-29.129-18.761-.392-23.844,6.36-15.392-2.062-.958-24,33.064-35.431,45.9-34.212S246.29,337.854,246.29,337.854Z" transform="translate(32.151 -288.779)" fill="#fff" stroke="#263238" stroke-linecap="round" stroke-miterlimit="10" stroke-width="1"/>
      <path id="Path_1661" data-name="Path 1661" d="M225.838,356.562,206.5,326.17s-9.889-11.486-28.926-3.892" transform="translate(39.345 -281.48)" fill="none" stroke="#263238" stroke-linecap="round" stroke-miterlimit="10" stroke-width="1"/>
      <path id="Path_1662" data-name="Path 1662" d="M218.278,356.492l-21.244-22.377s-10.3-8.814-26.7-1.075" transform="translate(36.072 -276.879)" fill="none" stroke="#263238" stroke-linecap="round" stroke-miterlimit="10" stroke-width="1"/>
      <path id="Path_1663" data-name="Path 1663" d="M213.886,366.786l15.16,17.8-43.374,35.054s-23.7,11.762-32.5,17.832-56.85,12.183-56.85,12.183l-8.974-55.47s28.084-6.346,31.8-9.889,42.111-48.747,47.15-55.5,30.814-12.779,30.814-12.779,11.53-3.761,24.41-15.218,29.449-7.667,35.693-1.9,23.234,21.782,26.588,32.73,5.01,22.842-3.267,19.778c-13.751-5.1-20.823-33.863-37.464-30.218-7.609,1.67-28.113,18.877-30.814,21.085,0,0-6.3,15.363,1.626,24.512h0" transform="translate(-1.443 -293.374)" fill="#fff" stroke="#263238" stroke-linecap="round" stroke-miterlimit="10" stroke-width="1"/>
      <path id="Path_1664" data-name="Path 1664" d="M256.14,336.5a1.568,1.568,0,0,0-1.452-1.452l-4.211-.16a1.569,1.569,0,0,0-.116,3.137l4.211.16a1.583,1.583,0,0,0,1.626-1.452,1.1,1.1,0,0,0-.058-.232Z" transform="translate(71.571 -274.605)" fill="#263238" stroke="#263238" stroke-linecap="round" stroke-miterlimit="10" stroke-width="1"/>
      <path id="Path_1665" data-name="Path 1665" d="M297.607,340.094a3.587,3.587,0,0,0-3.427-3.195l-12.009-2.062-127.03-8.175a8.414,8.414,0,0,0-.653,16.815l128.264,1.336,11.152-.755a3.587,3.587,0,0,0,3.717-3.441A3.152,3.152,0,0,0,297.607,340.094Z" transform="translate(25.254 -278.328)" fill="#0129ff" stroke="#263238" stroke-linecap="round" stroke-miterlimit="10" stroke-width="1"/>
      <path id="Path_1666" data-name="Path 1666" d="M155.128,326.662l36.651,2.367a11.617,11.617,0,0,1,.16,13.722,14.269,14.269,0,0,1-.973,1.1l-36.448-.378a8.414,8.414,0,0,1,.653-16.815Z" transform="translate(25.267 -278.328)" fill="#263238" stroke="#263238" stroke-linecap="round" stroke-miterlimit="10" stroke-width="1"/>
      <path id="Path_1667" data-name="Path 1667" d="M132.68,419c15.567-5.2,45.887-25.746,54-28.1s27.982-6.1,41.2-15.189,23.132-16.757,30.77-26.893.261-18.427-14.637-12.72-35.591,16.147-35.591,16.147-10.484,2.672-19.763-7.493" transform="translate(19.05 -274.901)" fill="#fff" stroke="#263238" stroke-linecap="round" stroke-miterlimit="10" stroke-width="1"/>
      <path id="Path_1668" data-name="Path 1668" d="M217.563,337.21l-5.663,2.8s.523.392,2.57,5.155a18.4,18.4,0,0,1,1.452,9.061s10.818-7.086,10.049-12.5a6.128,6.128,0,0,0-1.684-3.587,5.808,5.808,0,0,0-6.723-.929Z" transform="translate(54.866 -273.861)" fill="#fff" stroke="#263238" stroke-linecap="round" stroke-miterlimit="10" stroke-width="1"/>
      <path id="Path_1669" data-name="Path 1669" d="M119.5,354.57s13.882,18.776,16.162,35.039a265.829,265.829,0,0,1,2.236,32.832L95.507,432.606s-1.917-26.37-5.692-40.659a223.619,223.619,0,0,0-9.874-28.214Z" transform="translate(-4.794 -265.707)" fill="#fff" stroke="#263238" stroke-linecap="round" stroke-miterlimit="10" stroke-width="1"/>
      <path id="Path_1670" data-name="Path 1670" d="M144.823,387.108c-3.775-18.413-16.336-32.048-16.336-32.048L28.19,371.033V484.3l118.666-48.95S148.584,405.521,144.823,387.108Z" transform="translate(-28.19 -265.486)" fill="#263238" stroke="#fff" stroke-linecap="round" stroke-miterlimit="10" stroke-width="1"/>
      <path id="Path_1671" data-name="Path 1671" d="M92.767,412.357A4.443,4.443,0,1,1,88.41,408a4.443,4.443,0,0,1,4.356,4.356Z" transform="translate(-3.012 -241.552)" fill="#fff"/>
      <path id="Path_1672" data-name="Path 1672" d="M101.347,408.748a4.443,4.443,0,1,1-1.3-3.151,4.443,4.443,0,0,1,1.3,3.151Z" transform="translate(0.867 -243.229)" fill="#fff"/>
      <path id="Path_1673" data-name="Path 1673" d="M196.707,349.188l-.987-.958" transform="translate(47.551 -268.574)" fill="none" stroke="#263238" stroke-linecap="round" stroke-miterlimit="10" stroke-width="1"/>
      <path id="Path_1674" data-name="Path 1674" d="M201.72,361.526s2.178-4.168-4.08-11.326" transform="translate(48.419 -267.683)" fill="none" stroke="#263238" stroke-linecap="round" stroke-miterlimit="10" stroke-width="1"/>
      <path id="Path_1675" data-name="Path 1675" d="M196.265,352s-.668,1.96,2.977,7.972" transform="translate(47.776 -266.869)" fill="none" stroke="#263238" stroke-linecap="round" stroke-miterlimit="10" stroke-width="1"/>
      <path id="Path_1676" data-name="Path 1676" d="M199,348.71a21.433,21.433,0,0,1,5.01,8.393" transform="translate(49.034 -268.357)" fill="none" stroke="#263238" stroke-linecap="round" stroke-miterlimit="10" stroke-width="1"/>
    </g>
  </g>
</svg>
