<svg xmlns="http://www.w3.org/2000/svg" width="660.859" height="583.977" viewBox="0 0 660.859 583.977">
  <g id="Create-bro" transform="translate(-39.74 -52.684)">
    <g id="freepik--Bulb--inject-102" transform="translate(126.167 53.94)">
      <path id="Path_1677" data-name="Path 1677" d="M284.466,462.167c-14.329-21.816-75.5-113.547-93.4-116-17.443-2.391-79.431,90.362-96.2,116Z" transform="translate(-94.87 113.447)" fill="#2e353a" stroke="#2e353a" stroke-linecap="round" stroke-linejoin="round" stroke-width="1"/>
      <line id="Line_359" data-name="Line 359" y2="211.538" transform="translate(268.036 39.621)" fill="none" stroke="#2e353a" stroke-linecap="round" stroke-linejoin="round" stroke-width="3"/>
      <line id="Line_360" data-name="Line 360" y2="205.86" transform="translate(293.171 45.299)" fill="none" stroke="#2e353a" stroke-linecap="round" stroke-linejoin="round" stroke-width="3"/>
      <line id="Line_361" data-name="Line 361" y2="199.395" transform="translate(320.728 157.95)" fill="none" stroke="#2e353a" stroke-linecap="round" stroke-linejoin="round" stroke-width="3"/>
      <line id="Line_362" data-name="Line 362" y2="312.046" transform="translate(349.905 45.299)" fill="none" stroke="#2e353a" stroke-linecap="round" stroke-linejoin="round" stroke-width="3"/>
      <line id="Line_363" data-name="Line 363" y2="211.538" transform="translate(379.082 45.299)" fill="none" stroke="#2e353a" stroke-linecap="round" stroke-linejoin="round" stroke-width="3"/>
      <line id="Line_364" data-name="Line 364" x2="133.743" transform="translate(246.157 67.98)" fill="none" stroke="#2e353a" stroke-linecap="round" stroke-linejoin="round" stroke-width="3"/>
      <line id="Line_365" data-name="Line 365" x2="145.036" transform="translate(246.157 114.994)" fill="none" stroke="#2e353a" stroke-linecap="round" stroke-linejoin="round" stroke-width="3"/>
      <line id="Line_366" data-name="Line 366" x2="161.284" transform="translate(243.735 157.95)" fill="none" stroke="#2e353a" stroke-linecap="round" stroke-linejoin="round" stroke-width="3"/>
      <line id="Line_367" data-name="Line 367" x2="163.722" transform="translate(241.297 205.781)" fill="none" stroke="#2e353a" stroke-linecap="round" stroke-linejoin="round" stroke-width="3"/>
      <line id="Line_368" data-name="Line 368" x2="124.007" transform="translate(272.094 257.639)" fill="none" stroke="#2e353a" stroke-linecap="round" stroke-linejoin="round" stroke-width="3"/>
      <line id="Line_369" data-name="Line 369" x2="81.051" transform="translate(304.511 307.893)" fill="none" stroke="#2e353a" stroke-linecap="round" stroke-linejoin="round" stroke-width="3"/>
      <line id="Line_370" data-name="Line 370" x2="28.611" y2="22.398" transform="translate(91.133 59.707)" fill="none" stroke="#2e353a" stroke-linecap="round" stroke-linejoin="round" stroke-width="2"/>
      <line id="Line_371" data-name="Line 371" x2="9.956" y2="14.927" transform="translate(148.355 36.082)" fill="none" stroke="#2e353a" stroke-linecap="round" stroke-linejoin="round" stroke-width="2"/>
      <line id="Line_372" data-name="Line 372" x2="8.714" y2="27.368" transform="translate(199.364)" fill="none" stroke="#2e353a" stroke-linecap="round" stroke-linejoin="round" stroke-width="2"/>
      <path id="Path_1678" data-name="Path 1678" d="M422.627,390.777H375.44V278.583H311.423V79.88a157.289,157.289,0,0,0-137.5,230.79c5.128,11.938,17.176,41.178,29.24,78.991,11.152,34.9,16.971,69.994,16.971,75.294v1.573A11.765,11.765,0,0,0,231.882,478.7h162.4a11.781,11.781,0,0,0,11.75-12.174v-1.573C406,459.717,411.711,425.3,422.627,390.777Z" transform="translate(-60.028 -39.079)" fill="#0129ff" stroke="#2e353a" stroke-linecap="round" stroke-linejoin="round" stroke-width="2" opacity="0.3"/>
      <path id="Path_1679" data-name="Path 1679" d="M220.81,97.942a126.32,126.32,0,0,1,13.983-5.332" transform="translate(-22.72 -31.786)" fill="none" stroke="#2e353a" stroke-linecap="round" stroke-linejoin="round" stroke-width="2"/>
      <path id="Path_1680" data-name="Path 1680" d="M187.51,133.8s12.819-20.448,40.99-34.21" transform="translate(-41.798 -27.788)" fill="none" stroke="#2e353a" stroke-linecap="round" stroke-linejoin="round" stroke-width="2"/>
      <path id="Path_1681" data-name="Path 1681" d="M189.65,265.26c5.835,19.063,13.558,45.472,16.232,60.226,4.53,24.883,1.573,37.749,11.325,39.967" transform="translate(-40.572 67.123)" fill="none" stroke="#2e353a" stroke-linecap="round" stroke-linejoin="round" stroke-width="2"/>
      <path id="Path_1682" data-name="Path 1682" d="M185.11,250.8s1.573,5.112,4.105,12.945" transform="translate(-43.172 58.839)" fill="none" stroke="#2e353a" stroke-linecap="round" stroke-linejoin="round" stroke-width="2"/>
      <path id="Path_1683" data-name="Path 1683" d="M259.763,401.56V251.192s6.292-39.322-14.156-39.322-18.875,20.448,4.719,42.468,59.77,1.573,64.488-15.729-7.864-25.166-15.729-11.01,0,174.591,0,174.591" transform="translate(-16.673 36.536)" fill="none" stroke="#2e353a" stroke-linecap="round" stroke-linejoin="round" stroke-width="2"/>
      <rect id="Rectangle_596" data-name="Rectangle 596" width="169.73" height="39.385" transform="translate(168.629 438.71)" fill="#fff" stroke="#2e353a" stroke-linecap="round" stroke-linejoin="round" stroke-width="2"/>
      <rect id="Rectangle_597" data-name="Rectangle 597" width="169.73" height="39.385" transform="translate(168.629 487.47)" fill="#fff" stroke="#2e353a" stroke-linecap="round" stroke-linejoin="round" stroke-width="2"/>
      <rect id="Rectangle_598" data-name="Rectangle 598" width="169.73" height="9.374" transform="translate(168.629 478.095)" fill="#2e353a" stroke="#2e353a" stroke-linecap="round" stroke-linejoin="round" stroke-width="1"/>
      <rect id="Rectangle_599" data-name="Rectangle 599" width="169.73" height="39.385" transform="translate(168.629 536.229)" fill="#fff" stroke="#2e353a" stroke-linecap="round" stroke-linejoin="round" stroke-width="2"/>
      <line id="Line_373" data-name="Line 373" x2="12.615" transform="translate(320.602 472.826)" fill="none" stroke="#2e353a" stroke-linecap="round" stroke-linejoin="round" stroke-width="1"/>
      <line id="Line_374" data-name="Line 374" x2="139.232" transform="translate(175.299 472.826)" fill="none" stroke="#2e353a" stroke-linecap="round" stroke-linejoin="round" stroke-width="1"/>
      <line id="Line_375" data-name="Line 375" x2="40.659" transform="translate(287.886 522.357)" fill="none" stroke="#2e353a" stroke-linecap="round" stroke-linejoin="round" stroke-width="1"/>
      <line id="Line_376" data-name="Line 376" x2="82.718" transform="translate(200.496 522.357)" fill="none" stroke="#2e353a" stroke-linecap="round" stroke-linejoin="round" stroke-width="1"/>
      <line id="Line_377" data-name="Line 377" x2="6.999" transform="translate(186.954 522.357)" fill="none" stroke="#2e353a" stroke-linecap="round" stroke-linejoin="round" stroke-width="1"/>
      <rect id="Rectangle_600" data-name="Rectangle 600" width="169.73" height="9.374" transform="translate(168.629 526.855)" fill="#2e353a" stroke="#2e353a" stroke-linecap="round" stroke-linejoin="round" stroke-width="1"/>
      <rect id="Rectangle_601" data-name="Rectangle 601" width="58.103" height="30.247" transform="translate(190.729 544.865)" fill="#0129ff" stroke="#2e353a" stroke-linecap="round" stroke-linejoin="round" stroke-width="1"/>
      <rect id="Rectangle_602" data-name="Rectangle 602" width="58.103" height="30.247" transform="translate(266.337 544.865)" fill="#0129ff" stroke="#2e353a" stroke-linecap="round" stroke-linejoin="round" stroke-width="1"/>
    </g>
    <g id="freepik--Ground--inject-102" transform="translate(40.24 577.628)">
      <path id="Path_1684" data-name="Path 1684" d="M388,438.813c-11.136-9.768-58.685-50.836-72.526-51.905-13.558-1.085-61.689,40.455-74.712,51.905Z" transform="translate(74.636 -386.887)" fill="#2e353a" stroke="#2e353a" stroke-linecap="round" stroke-linejoin="round" stroke-width="1"/>
      <line id="Line_378" data-name="Line 378" x2="13.653" transform="translate(646.206 51.926)" fill="#fff" stroke="#2e353a" stroke-linecap="round" stroke-linejoin="round" stroke-width="1"/>
      <line id="Line_379" data-name="Line 379" x2="611.319" transform="translate(21.234 51.926)" fill="#fff" stroke="#2e353a" stroke-linecap="round" stroke-linejoin="round" stroke-width="1"/>
      <line id="Line_380" data-name="Line 380" x2="10.617" transform="translate(0 51.926)" fill="#fff" stroke="#2e353a" stroke-linecap="round" stroke-linejoin="round" stroke-width="1"/>
    </g>
    <g id="freepik--Trucks--inject-102" transform="translate(67.184 137.193)">
      <path id="Path_1685" data-name="Path 1685" d="M448.476,362.83H407.66v57.253H465.4V391.457Z" transform="translate(143.307 39.767)" fill="#2e353a" stroke="#2e353a" stroke-linecap="round" stroke-linejoin="round" stroke-width="1"/>
      <rect id="Rectangle_603" data-name="Rectangle 603" width="18.702" height="13.008" transform="translate(590.007 459.85)" fill="#fff" stroke="#2e353a" stroke-linecap="round" stroke-linejoin="round" stroke-width="1"/>
      <path id="Path_1686" data-name="Path 1686" d="M423.889,430.615s20.448-11.01,13.37-66.061L411.306,350.4l-44.827-7.078-40.109,1.573V367.7s22.807,19.661,25.166,25.953a43.6,43.6,0,0,1,2.359,13.37v22.02Z" transform="translate(96.737 28.59)" fill="#0129ff" stroke="#2e353a" stroke-linecap="round" stroke-linejoin="round" stroke-width="1"/>
      <line id="Line_381" data-name="Line 381" x1="13.37" y2="66.061" transform="translate(520.626 393.144)" fill="none" stroke="#2e353a" stroke-linecap="round" stroke-linejoin="round" stroke-width="1"/>
      <line id="Line_382" data-name="Line 382" x1="14.942" y2="80.217" transform="translate(493.101 378.988)" fill="none" stroke="#2e353a" stroke-linecap="round" stroke-linejoin="round" stroke-width="1"/>
      <line id="Line_383" data-name="Line 383" x1="11.01" y2="59.77" transform="translate(452.206 371.91)" fill="none" stroke="#2e353a" stroke-linecap="round" stroke-linejoin="round" stroke-width="1"/>
      <path id="Path_1687" data-name="Path 1687" d="M327.37,356.82s25.953,11.01,36.176,18.088,8.651,22.02,8.651,22.02" transform="translate(97.31 36.324)" fill="none" stroke="#2e353a" stroke-linecap="round" stroke-linejoin="round" stroke-width="1"/>
      <rect id="Rectangle_604" data-name="Rectangle 604" width="121.946" height="10.224" transform="translate(429.383 460.259)" fill="#fff" stroke="#2e353a" stroke-linecap="round" stroke-linejoin="round" stroke-width="1"/>
      <path id="Path_1688" data-name="Path 1688" d="M423.37,391.413h25.465L435.167,367.82h-11.8Z" transform="translate(152.308 42.625)" fill="#fff" stroke="#2e353a" stroke-linecap="round" stroke-linejoin="round" stroke-width="1"/>
      <rect id="Rectangle_605" data-name="Rectangle 605" width="11.01" height="23.593" transform="translate(560.735 410.445)" fill="#fff" stroke="#2e353a" stroke-linecap="round" stroke-linejoin="round" stroke-width="1"/>
      <rect id="Rectangle_606" data-name="Rectangle 606" width="74.24" height="17.726" transform="translate(430.028 459.85)" fill="#fff" stroke="#2e353a" stroke-linecap="round" stroke-linejoin="round" stroke-width="1"/>
      <circle id="Ellipse_88" data-name="Ellipse 88" cx="15.619" cy="15.619" r="15.619" transform="translate(553.673 464.111) rotate(-10.24)" fill="#2e353a" stroke="#2e353a" stroke-linecap="round" stroke-linejoin="round" stroke-width="1"/>
      <circle id="Ellipse_89" data-name="Ellipse 89" cx="9.107" cy="9.107" r="9.107" transform="translate(562.685 467.651)" fill="#fff" stroke="#2e353a" stroke-linecap="round" stroke-linejoin="round" stroke-width="1"/>
      <circle id="Ellipse_90" data-name="Ellipse 90" cx="15.619" cy="15.619" r="15.619" transform="translate(433.4 464.071) rotate(-10.04)" fill="#2e353a" stroke="#2e353a" stroke-linecap="round" stroke-linejoin="round" stroke-width="1"/>
      <circle id="Ellipse_91" data-name="Ellipse 91" cx="9.107" cy="9.107" r="9.107" transform="translate(442.359 467.651)" fill="#fff" stroke="#2e353a" stroke-linecap="round" stroke-linejoin="round" stroke-width="1"/>
      <circle id="Ellipse_92" data-name="Ellipse 92" cx="15.619" cy="15.619" r="15.619" transform="translate(467.107 475.752) rotate(-42.56)" fill="#2e353a" stroke="#2e353a" stroke-linecap="round" stroke-linejoin="round" stroke-width="1"/>
      <circle id="Ellipse_93" data-name="Ellipse 93" cx="9.107" cy="9.107" r="9.107" transform="translate(480.062 467.651)" fill="#fff" stroke="#2e353a" stroke-linecap="round" stroke-linejoin="round" stroke-width="1"/>
      <rect id="Rectangle_607" data-name="Rectangle 607" width="49.546" height="26.739" rx="3.25" transform="translate(439.623 432.466)" fill="#2e353a" stroke="#2e353a" stroke-linecap="round" stroke-linejoin="round" stroke-width="1"/>
      <path id="Path_1689" data-name="Path 1689" d="M324.37,427.149V349.37H340.1v77.779" transform="translate(95.591 32.056)" fill="none" stroke="#2e353a" stroke-linecap="round" stroke-linejoin="round" stroke-width="1"/>
      <line id="Line_384" data-name="Line 384" x2="15.446" transform="translate(420.072 391.728)" fill="none" stroke="#2e353a" stroke-linecap="round" stroke-linejoin="round" stroke-width="1"/>
      <line id="Line_385" data-name="Line 385" x2="15.446" transform="translate(420.072 403.871)" fill="none" stroke="#2e353a" stroke-linecap="round" stroke-linejoin="round" stroke-width="1"/>
      <line id="Line_386" data-name="Line 386" x2="15.446" transform="translate(420.072 416.013)" fill="none" stroke="#2e353a" stroke-linecap="round" stroke-linejoin="round" stroke-width="1"/>
      <line id="Line_387" data-name="Line 387" x2="15.446" transform="translate(420.072 428.172)" fill="none" stroke="#2e353a" stroke-linecap="round" stroke-linejoin="round" stroke-width="1"/>
      <line id="Line_388" data-name="Line 388" x2="15.446" transform="translate(420.072 440.315)" fill="none" stroke="#2e353a" stroke-linecap="round" stroke-linejoin="round" stroke-width="1"/>
      <line id="Line_389" data-name="Line 389" x2="15.446" transform="translate(420.072 452.457)" fill="none" stroke="#2e353a" stroke-linecap="round" stroke-linejoin="round" stroke-width="1"/>
      <path id="Path_1690" data-name="Path 1690" d="M134.672,600.757H106.36V106.87l28.312,32.921Z" transform="translate(-29.304 -106.87)" fill="none" stroke="#2e353a" stroke-linecap="round" stroke-linejoin="round" stroke-width="1"/>
      <path id="Path_1691" data-name="Path 1691" d="M106.54,364.649H134.3L106.54,337.8H134.3Z" transform="translate(-29.201 25.427)" fill="none" stroke="#2e353a" stroke-linecap="round" stroke-linejoin="round" stroke-width="1"/>
      <path id="Path_1692" data-name="Path 1692" d="M106.54,347.149H134.3L106.54,320.3H134.3Z" transform="translate(-29.201 15.402)" fill="none" stroke="#2e353a" stroke-linecap="round" stroke-linejoin="round" stroke-width="1"/>
      <path id="Path_1693" data-name="Path 1693" d="M106.54,329.649H134.3L106.54,302.8H134.3Z" transform="translate(-29.201 5.376)" fill="none" stroke="#2e353a" stroke-linecap="round" stroke-linejoin="round" stroke-width="1"/>
      <path id="Path_1694" data-name="Path 1694" d="M106.54,312.149H134.3L106.54,285.3H134.3Z" transform="translate(-29.201 -4.649)" fill="none" stroke="#2e353a" stroke-linecap="round" stroke-linejoin="round" stroke-width="1"/>
      <path id="Path_1695" data-name="Path 1695" d="M106.54,294.649H134.3L106.54,267.8H134.3Z" transform="translate(-29.201 -14.675)" fill="none" stroke="#2e353a" stroke-linecap="round" stroke-linejoin="round" stroke-width="1"/>
      <path id="Path_1696" data-name="Path 1696" d="M106.54,277.149H134.3L106.54,250.3H134.3Z" transform="translate(-29.201 -24.7)" fill="none" stroke="#2e353a" stroke-linecap="round" stroke-linejoin="round" stroke-width="1"/>
      <path id="Path_1697" data-name="Path 1697" d="M106.54,259.649H134.3L106.54,232.8H134.3Z" transform="translate(-29.201 -34.726)" fill="none" stroke="#2e353a" stroke-linecap="round" stroke-linejoin="round" stroke-width="1"/>
      <path id="Path_1698" data-name="Path 1698" d="M106.54,242.149H134.3L106.54,215.3H134.3Z" transform="translate(-29.201 -44.752)" fill="none" stroke="#2e353a" stroke-linecap="round" stroke-linejoin="round" stroke-width="1"/>
      <path id="Path_1699" data-name="Path 1699" d="M106.54,224.649H134.3L106.54,197.8H134.3Z" transform="translate(-29.201 -54.777)" fill="none" stroke="#2e353a" stroke-linecap="round" stroke-linejoin="round" stroke-width="1"/>
      <path id="Path_1700" data-name="Path 1700" d="M106.54,207.149H134.3L106.54,180.3H134.3Z" transform="translate(-29.201 -64.803)" fill="none" stroke="#2e353a" stroke-linecap="round" stroke-linejoin="round" stroke-width="1"/>
      <path id="Path_1701" data-name="Path 1701" d="M106.54,189.649H134.3L106.54,162.8H134.3Z" transform="translate(-29.201 -74.828)" fill="none" stroke="#2e353a" stroke-linecap="round" stroke-linejoin="round" stroke-width="1"/>
      <path id="Path_1702" data-name="Path 1702" d="M106.54,172.149H134.3L106.54,145.3H134.3Z" transform="translate(-29.201 -84.854)" fill="none" stroke="#2e353a" stroke-linecap="round" stroke-linejoin="round" stroke-width="1"/>
      <path id="Path_1703" data-name="Path 1703" d="M106.54,154.649H134.3L106.54,127.8H134.3Z" transform="translate(-29.201 -94.879)" fill="none" stroke="#2e353a" stroke-linecap="round" stroke-linejoin="round" stroke-width="1"/>
      <path id="Path_1704" data-name="Path 1704" d="M252.93,148.485l-13.716-8.635H141.334l-11.954,8.635Z" transform="translate(-16.116 -87.976)" fill="none" stroke="#2e353a" stroke-linecap="round" stroke-linejoin="round" stroke-width="1"/>
      <rect id="Rectangle_608" data-name="Rectangle 608" width="239.079" height="6.292" transform="translate(0 59.77)" fill="#2e353a" stroke="#2e353a" stroke-linecap="round" stroke-linejoin="round" stroke-width="1"/>
      <path id="Path_1705" data-name="Path 1705" d="M252.4,158.744,106.36,106.87l48.162,51.874" transform="translate(-29.304 -106.87)" fill="none" stroke="#2e353a" stroke-linecap="round" stroke-linejoin="round" stroke-width="1"/>
      <line id="Line_390" data-name="Line 390" x1="77.072" y2="59.77" transform="translate(0)" fill="none" stroke="#2e353a" stroke-linecap="round" stroke-linejoin="round" stroke-width="1"/>
      <rect id="Rectangle_609" data-name="Rectangle 609" width="58.983" height="37.749" transform="translate(66.848 73.139)" fill="#2e353a" stroke="#2e353a" stroke-linecap="round" stroke-linejoin="round" stroke-width="1"/>
      <rect id="Rectangle_610" data-name="Rectangle 610" width="34.399" height="11.01" transform="translate(79.132 81.004)" fill="#fff" stroke="#2e353a" stroke-linecap="round" stroke-linejoin="round" stroke-width="1"/>
      <line id="Line_391" data-name="Line 391" y2="67.823" transform="translate(239.079 66.061)" fill="#fff" stroke="#2e353a" stroke-linecap="round" stroke-linejoin="round" stroke-width="1"/>
      <rect id="Rectangle_611" data-name="Rectangle 611" width="17.475" height="19.803" transform="translate(230.57 157.053)" fill="#2e353a" stroke="#2e353a" stroke-linecap="round" stroke-linejoin="round" stroke-width="1"/>
      <path id="Path_1706" data-name="Path 1706" d="M203.96,215.628l8.745-24.458,8.745,24.458" transform="translate(26.61 -58.575)" fill="none" stroke="#2e353a" stroke-linecap="round" stroke-linejoin="round" stroke-width="1"/>
      <path id="Path_1707" data-name="Path 1707" d="M179.81,362.689l37.749,59.675L227,415.459,199.219,359.9a15.021,15.021,0,0,0-13.448-8.3h0a7.22,7.22,0,0,0-5.961,11.089Z" transform="translate(12.13 33.333)" fill="#0129ff" stroke="#2e353a" stroke-linecap="round" stroke-linejoin="round" stroke-width="1"/>
      <path id="Path_1708" data-name="Path 1708" d="M221.435,387.26,182.6,414.88s3.46,14.659,25.89,13.794,21.58-24.16,21.58-24.16Z" transform="translate(14.373 53.762)" fill="#2e353a" stroke="#fff" stroke-linecap="round" stroke-linejoin="round" stroke-width="1"/>
      <path id="Path_1709" data-name="Path 1709" d="M138.71,387.641l70.34-31.694a11.136,11.136,0,0,1,13.527,3.539h0A11.12,11.12,0,0,1,220,375.215l-76.961,53.871Z" transform="translate(-10.771 35.262)" fill="#0129ff" stroke="#2e353a" stroke-linecap="round" stroke-linejoin="round" stroke-width="1"/>
      <rect id="Rectangle_612" data-name="Rectangle 612" width="72.494" height="11.215" transform="translate(45.095 461.737)" fill="#fff" stroke="#2e353a" stroke-linecap="round" stroke-linejoin="round" stroke-width="1"/>
      <rect id="Rectangle_613" data-name="Rectangle 613" width="62.994" height="25.89" transform="translate(19.205 429.808)" fill="#2e353a" stroke="#2e353a" stroke-linecap="round" stroke-linejoin="round" stroke-width="1"/>
      <path id="Path_1710" data-name="Path 1710" d="M106.144,361.47h53.478a4.719,4.719,0,0,1,4.719,4.719v50.49H101.41v-50.49a4.719,4.719,0,0,1,4.734-4.719Z" transform="translate(-32.14 38.988)" fill="#0129ff" stroke="#2e353a" stroke-linecap="round" stroke-linejoin="round" stroke-width="1"/>
      <path id="Path_1711" data-name="Path 1711" d="M73.644,428.854H176.779a12.284,12.284,0,0,0,12.284-12.284h0a12.3,12.3,0,0,0-12.284-12.3H73.644a12.3,12.3,0,0,0-12.284,12.3h0A12.284,12.284,0,0,0,73.644,428.854Z" transform="translate(-55.084 63.507)" fill="#2e353a" stroke="#2e353a" stroke-linecap="round" stroke-linejoin="round" stroke-width="1"/>
      <path id="Path_1712" data-name="Path 1712" d="M83.53,428.854H186.649a12.3,12.3,0,0,0,12.3-12.284h0a12.3,12.3,0,0,0-12.3-12.3H83.53a12.3,12.3,0,0,0-12.3,12.3h0A12.3,12.3,0,0,0,83.53,428.854Z" transform="translate(-49.43 63.507)" fill="#fff" stroke="#2e353a" stroke-linecap="round" stroke-linejoin="round" stroke-width="1"/>
      <rect id="Rectangle_614" data-name="Rectangle 614" width="113.044" height="8.635" transform="translate(19.205 455.698)" fill="#fff" stroke="#2e353a" stroke-linecap="round" stroke-linejoin="round" stroke-width="1"/>
      <path id="Path_1713" data-name="Path 1713" d="M90.06,414.92a7.77,7.77,0,1,1-7.77-7.77,7.77,7.77,0,0,1,7.77,7.77Z" transform="translate(-47.545 65.157)" fill="#2e353a" stroke="#2e353a" stroke-linecap="round" stroke-linejoin="round" stroke-width="1"/>
      <circle id="Ellipse_94" data-name="Ellipse 94" cx="7.77" cy="7.77" r="7.77" transform="translate(47.69 472.307)" fill="#2e353a" stroke="#2e353a" stroke-linecap="round" stroke-linejoin="round" stroke-width="1"/>
      <circle id="Ellipse_95" data-name="Ellipse 95" cx="7.77" cy="7.77" r="7.77" transform="translate(68.389 472.307)" fill="#2e353a" stroke="#2e353a" stroke-linecap="round" stroke-linejoin="round" stroke-width="1"/>
      <path id="Path_1714" data-name="Path 1714" d="M129.56,414.92a7.77,7.77,0,1,1-7.77-7.77,7.77,7.77,0,0,1,7.77,7.77Z" transform="translate(-24.916 65.157)" fill="#2e353a" stroke="#2e353a" stroke-linecap="round" stroke-linejoin="round" stroke-width="1"/>
      <path id="Path_1715" data-name="Path 1715" d="M142.73,414.92a7.77,7.77,0,1,1-7.77-7.77,7.77,7.77,0,0,1,7.77,7.77Z" transform="translate(-17.371 65.157)" fill="#2e353a" stroke="#2e353a" stroke-linecap="round" stroke-linejoin="round" stroke-width="1"/>
      <path id="Path_1716" data-name="Path 1716" d="M155.89,414.92a7.754,7.754,0,1,1-2.266-5.493,7.77,7.77,0,0,1,2.266,5.493Z" transform="translate(-9.832 65.157)" fill="#2e353a" stroke="#2e353a" stroke-linecap="round" stroke-linejoin="round" stroke-width="1"/>
      <path id="Path_1717" data-name="Path 1717" d="M191.791,363.046a4.31,4.31,0,1,0-1.257,3.057,4.326,4.326,0,0,0,1.257-3.057Z" transform="translate(14.682 37.412)" fill="#2e353a" stroke="#2e353a" stroke-linecap="round" stroke-linejoin="round" stroke-width="1"/>
      <rect id="Rectangle_615" data-name="Rectangle 615" width="45.74" height="27.62" transform="translate(77.024 407.363)" fill="#fff" stroke="#2e353a" stroke-linecap="round" stroke-linejoin="round" stroke-width="1"/>
      <rect id="Rectangle_616" data-name="Rectangle 616" width="25.025" height="27.62" transform="translate(97.739 407.363)" fill="#fff" stroke="#2e353a" stroke-linecap="round" stroke-linejoin="round" stroke-width="1"/>
    </g>
  </g>
</svg>
