<svg xmlns="http://www.w3.org/2000/svg" width="16" height="24" viewBox="0 0 16 24">
  <g id="fi-rr-smartphone" transform="translate(-4)">
    <path id="Path_1412" data-name="Path 1412" d="M15,0H9A5.006,5.006,0,0,0,4,5V19a5.006,5.006,0,0,0,5,5h6a5.006,5.006,0,0,0,5-5V5A5.006,5.006,0,0,0,15,0ZM9,2h6a3,3,0,0,1,3,3V16H6V5A3,3,0,0,1,9,2Zm6,20H9a3,3,0,0,1-3-3V18H18v1A3,3,0,0,1,15,22Z"/>
    <circle id="Ellipse_58" data-name="Ellipse 58" cx="1" cy="1" r="1" transform="translate(11 19)"/>
  </g>
</svg>
