<svg xmlns="http://www.w3.org/2000/svg" xmlns:xlink="http://www.w3.org/1999/xlink" width="563.141" height="487.31" viewBox="0 0 563.141 487.31">
  <defs>
    <clipPath id="clip-path">
      <path id="Path_993" data-name="Path 993" d="M368.929,217.445l-18.717,3.4L324.2,225.575l-34.071,6.2a5.049,5.049,0,0,1-5.88-4.071l-7.482-41.137a5.073,5.073,0,0,1,4.071-5.88l19.817-3.668,28.827-5.232,30.159-5.489a5.049,5.049,0,0,1,5.88,4.071L373,211.5a5.049,5.049,0,0,1-4.071,5.941Z" transform="translate(-276.685 -166.212)" fill="#ff8400" stroke="#263238" stroke-linecap="round" stroke-linejoin="round" stroke-width="1"/>
    </clipPath>
  </defs>
  <g id="Completed-bro" transform="translate(-17.811 -65.094)">
    <g id="freepik--Document--inject-19" transform="translate(145.992 65.646)">
      <rect id="Rectangle_359" data-name="Rectangle 359" width="239.746" height="333.28" transform="matrix(0.994, -0.111, 0.111, 0.994, 0.001, 26.516)" fill="#fff" stroke="#263238" stroke-linecap="round" stroke-linejoin="round" stroke-width="1"/>
      <rect id="Rectangle_360" data-name="Rectangle 360" width="239.746" height="46.113" transform="matrix(0.994, -0.111, 0.111, 0.994, 0, 26.517)" fill="#bfbfbf" stroke="#263238" stroke-linecap="round" stroke-linejoin="round" stroke-width="1"/>
      <path id="Path_902" data-name="Path 902" d="M282.871,82.922,180.009,94.364a3.521,3.521,0,1,0,.733,6.993L283.6,89.914a3.521,3.521,0,0,0-.782-6.993Z" transform="translate(-110.797 -61.804)" fill="#fff"/>
      <path id="Path_903" data-name="Path 903" d="M253.454,97l-51.419,5.721a1.736,1.736,0,0,0-1.553,1.932,1.76,1.76,0,0,0,1.932,1.565l51.431-5.721a1.76,1.76,0,0,0-.391-3.5Z" transform="translate(-105.5 -58.67)" fill="#fff"/>
      <path id="Path_904" data-name="Path 904" d="M299.993,129.422,165.212,144.409a1.31,1.31,0,0,0,.293,2.6L300.25,132.025a1.31,1.31,0,0,0-.293-2.6Z" transform="translate(-113.604 -51.457)" opacity="0.3"/>
      <path id="Path_905" data-name="Path 905" d="M304.517,137.073,149.552,154.31a1.31,1.31,0,1,0,.293,2.6L304.81,139.677a1.312,1.312,0,1,0-.293-2.6Z" transform="translate(-117.089 -49.756)" opacity="0.3"/>
      <path id="Path_906" data-name="Path 906" d="M264.926,148.4,150.4,161.141a1.31,1.31,0,0,0,.293,2.6l114.512-12.739a1.311,1.311,0,1,0-.281-2.6Z" transform="translate(-116.9 -47.235)" opacity="0.3"/>
      <rect id="Rectangle_361" data-name="Rectangle 361" width="20.453" height="20.453" rx="2.74" transform="matrix(0.994, -0.111, 0.111, 0.994, 203.562, 74.889)" fill="none" stroke="#263238" stroke-linecap="round" stroke-linejoin="round" stroke-width="1" opacity="0.3"/>
      <path id="Path_907" data-name="Path 907" d="M294.01,134.827l4.5,4.242,5.917-9.059" transform="translate(-84.687 -51.324)" fill="none" stroke="#ff8400" stroke-linecap="round" stroke-linejoin="round" stroke-width="3"/>
      <path id="Path_908" data-name="Path 908" d="M304.017,165.662,169.272,180.649a1.31,1.31,0,0,0,.293,2.6L304.31,168.265a1.31,1.31,0,0,0-.293-2.6Z" transform="translate(-112.701 -43.393)" opacity="0.3"/>
      <path id="Path_909" data-name="Path 909" d="M308.547,173.312,153.582,190.549a1.31,1.31,0,1,0,.293,2.6L308.84,175.915a1.31,1.31,0,0,0-.293-2.6Z" transform="translate(-116.192 -41.691)" opacity="0.3"/>
      <path id="Path_910" data-name="Path 910" d="M268.956,184.643,154.432,197.381a1.31,1.31,0,0,0,.293,2.6l114.512-12.739a1.311,1.311,0,1,0-.281-2.6Z" transform="translate(-116.003 -39.171)" opacity="0.3"/>
      <rect id="Rectangle_362" data-name="Rectangle 362" width="20.453" height="20.453" rx="2.74" transform="matrix(0.994, -0.111, 0.111, 0.994, 208.493, 119.182)" fill="none" stroke="#263238" stroke-linecap="round" stroke-linejoin="round" stroke-width="1" opacity="0.3"/>
      <path id="Path_911" data-name="Path 911" d="M298.05,171.067l4.487,4.242,5.917-9.059" transform="translate(-83.788 -43.26)" fill="none" stroke="#ff8400" stroke-linecap="round" stroke-linejoin="round" stroke-width="3"/>
      <path id="Path_912" data-name="Path 912" d="M308.028,201.908,173.283,216.9a1.308,1.308,0,0,0,.293,2.592l134.745-15.012a1.31,1.31,0,1,0-.293-2.6Z" transform="translate(-111.786 -35.336)" opacity="0.3"/>
      <path id="Path_913" data-name="Path 913" d="M312.589,209.553,157.611,226.79a1.284,1.284,0,0,0-1.149,1.443,1.308,1.308,0,0,0,1.443,1.161L312.87,212.157a1.311,1.311,0,1,0-.281-2.6Z" transform="translate(-115.295 -33.629)" opacity="0.3"/>
      <path id="Path_914" data-name="Path 914" d="M272.986,220.884,158.462,233.622a1.31,1.31,0,0,0,.293,2.6l114.512-12.751a1.31,1.31,0,0,0-.281-2.6Z" transform="translate(-115.106 -31.108)" opacity="0.3"/>
      <rect id="Rectangle_363" data-name="Rectangle 363" width="20.453" height="20.453" rx="2.74" transform="matrix(0.994, -0.111, 0.111, 0.994, 213.422, 163.476)" fill="none" stroke="#263238" stroke-linecap="round" stroke-linejoin="round" stroke-width="1" opacity="0.3"/>
      <path id="Path_915" data-name="Path 915" d="M302.08,207.309l4.487,4.242,5.929-9.071" transform="translate(-82.891 -35.199)" fill="none" stroke="#ff8400" stroke-linecap="round" stroke-linejoin="round" stroke-width="3"/>
      <path id="Path_916" data-name="Path 916" d="M312.058,238.144,177.313,253.132a1.308,1.308,0,0,0,.293,2.592l134.745-14.988a1.308,1.308,0,1,0-.293-2.592Z" transform="translate(-110.889 -27.269)" opacity="0.3"/>
      <path id="Path_917" data-name="Path 917" d="M316.618,245.791,161.641,263.029a1.284,1.284,0,0,0-1.149,1.443,1.308,1.308,0,0,0,1.443,1.161L316.9,248.4a1.31,1.31,0,1,0-.281-2.6Z" transform="translate(-114.398 -25.564)" opacity="0.3"/>
      <path id="Path_918" data-name="Path 918" d="M277.056,257.122,162.531,269.86a1.284,1.284,0,0,0-1.149,1.443,1.308,1.308,0,0,0,1.443,1.161l114.512-12.739a1.31,1.31,0,1,0-.281-2.6Z" transform="translate(-114.2 -23.043)" opacity="0.3"/>
      <rect id="Rectangle_364" data-name="Rectangle 364" width="20.453" height="20.453" rx="2.74" transform="matrix(0.994, -0.111, 0.111, 0.994, 218.353, 207.782)" fill="none" stroke="#263238" stroke-linecap="round" stroke-linejoin="round" stroke-width="1" opacity="0.3"/>
      <path id="Path_919" data-name="Path 919" d="M306.11,243.537l4.487,4.242,5.929-9.059" transform="translate(-81.995 -27.135)" fill="none" stroke="#ff8400" stroke-linecap="round" stroke-linejoin="round" stroke-width="3"/>
      <path id="Path_920" data-name="Path 920" d="M316.118,274.371,181.373,289.359a1.31,1.31,0,1,0,.281,2.6L316.4,276.975a1.31,1.31,0,1,0-.281-2.6Z" transform="translate(-110.01 -19.204)" opacity="0.3"/>
      <path id="Path_921" data-name="Path 921" d="M320.667,282,165.69,299.242a1.308,1.308,0,1,0,.293,2.592L320.948,284.6a1.308,1.308,0,1,0-.281-2.592Z" transform="translate(-113.52 -17.509)" opacity="0.3"/>
      <path id="Path_922" data-name="Path 922" d="M281.056,293.362,166.532,306.1a1.31,1.31,0,1,0,.293,2.6L281.35,295.966a1.32,1.32,0,0,0,1.149-1.455,1.3,1.3,0,0,0-1.443-1.149Z" transform="translate(-113.311 -14.979)" opacity="0.3"/>
      <rect id="Rectangle_365" data-name="Rectangle 365" width="20.453" height="20.453" rx="2.74" transform="matrix(0.994, -0.111, 0.111, 0.994, 223.284, 252.088)" fill="none" stroke="#263238" stroke-linecap="round" stroke-linejoin="round" stroke-width="1" opacity="0.3"/>
      <path id="Path_923" data-name="Path 923" d="M310.14,279.777l4.487,4.242,5.929-9.059" transform="translate(-81.098 -19.072)" fill="none" stroke="#ff8400" stroke-linecap="round" stroke-linejoin="round" stroke-width="3"/>
      <path id="Path_924" data-name="Path 924" d="M319.187,302,184.442,317.014a1.31,1.31,0,0,0,.293,2.6L319.48,304.63a1.284,1.284,0,0,0,1.149-1.443A1.308,1.308,0,0,0,319.187,302Z" transform="translate(-109.326 -13.056)" opacity="0.3"/>
      <path id="Path_925" data-name="Path 925" d="M323.738,309.68,168.772,326.918a1.308,1.308,0,1,0,.281,2.592l154.977-17.237a1.308,1.308,0,0,0-.293-2.592Z" transform="translate(-112.837 -11.346)" opacity="0.3"/>
      <path id="Path_926" data-name="Path 926" d="M284.115,321,169.6,333.74a1.31,1.31,0,1,0,.293,2.6l114.512-12.739a1.31,1.31,0,0,0-.293-2.6Z" transform="translate(-112.629 -8.829)" opacity="0.3"/>
      <rect id="Rectangle_366" data-name="Rectangle 366" width="20.453" height="20.453" rx="2.74" transform="matrix(0.994, -0.111, 0.111, 0.994, 227.048, 285.877)" fill="none" stroke="#263238" stroke-linecap="round" stroke-linejoin="round" stroke-width="1" opacity="0.3"/>
      <path id="Path_927" data-name="Path 927" d="M313.21,307.427l4.487,4.242,5.929-9.059" transform="translate(-80.415 -12.919)" fill="none" stroke="#ff8400" stroke-linecap="round" stroke-linejoin="round" stroke-width="3"/>
    </g>
    <g id="freepik--Stamp--inject-19" transform="translate(209.428 188.964)">
      <path id="Path_928" data-name="Path 928" d="M226.468,203.47c-.807-1.43-1.614-1.577-2.616-1.015l-1.491.844,3.851,6.785,1.491-.844c1-.562,1.284-1.333.477-2.763Z" transform="translate(-164.065 -158.591)" fill="none"/>
      <path id="Path_929" data-name="Path 929" d="M205.42,232.483a6.418,6.418,0,0,0-.99-4l-1.5-2.665-2.983,1.687,1.626,2.861c.807,1.43.477,2.311-.526,2.873s-1.932.416-2.738-1.015l-3.484-6.186-3.741.734,3.985,7.029c1.822,3.215,4.462,4.132,7.555,2.445a7.016,7.016,0,0,0,1.357-1.015,1.919,1.919,0,0,1,.648-2.323A2.763,2.763,0,0,1,205.42,232.483Z" transform="translate(-171.025 -153.324)" fill="#ff8400"/>
      <path id="Path_930" data-name="Path 930" d="M189.689,225.385l.709,1.223h4.12l-1.8-3.179c-.807-1.43-.489-2.335.513-2.9s1.944-.391,2.751,1.051l1.223,2.139,2.971-1.687-1.1-1.944c-1.822-3.2-4.462-4.132-7.555-2.372a6.357,6.357,0,0,0-1.858,1.516,6.442,6.442,0,0,0,2.176.306l-2.934,1.1a5.819,5.819,0,0,0,.782,4.743Z" transform="translate(-171.553 -155.322)" fill="#ff8400"/>
      <path id="Path_931" data-name="Path 931" d="M208.743,214.458a7.165,7.165,0,0,1,1.223-.477c1.577-.709,1.932-2.983,1.8-4.584l-1.626-2.017-4.377,2.445,2.738,4.817A.991.991,0,0,1,208.743,214.458Z" transform="translate(-167.759 -157.427)" fill="#ff8400"/>
      <path id="Path_932" data-name="Path 932" d="M226.77,224.952l2.971-1.687L218.383,203.24l-2.824,1.589c.9.22,1.553.648,1.577,1.308-.88.122-1.956,0-2.91.171l5.721,14.829h0l-7.237-9.022a1.222,1.222,0,0,1-.44,1.064c-.33.232-.807.232-1.064.538s-.22.672-.44.941-.562.342-.831.538a10.216,10.216,0,0,0-.868,1.027,1.222,1.222,0,0,1-.538.33l8.044,14.181,2.738-1.565-8.032-14.157h0L221.6,227.874l2.983-1.687-6.027-15.563h0Z" transform="translate(-167.142 -158.348)" fill="#ff8400"/>
      <path id="Path_933" data-name="Path 933" d="M232.079,208.393a1.809,1.809,0,0,1,.917,1.076,6.027,6.027,0,0,0-.917-4.34l-1.479-2.616c-1.822-3.2-4.352-4.071-7.506-2.286l-4.633,2.628,11.369,20.037,2.946-1.675c-.954-.6-2.017-1.112-2.922-1.76a2.983,2.983,0,0,1-1.015-1.088,1.3,1.3,0,0,1,.147-1.406,1.43,1.43,0,0,1,1.516-.208l-1.8-3.178,1.491-.844a6.43,6.43,0,0,0,2.091-1.809C231.663,209.933,230.575,207.83,232.079,208.393Zm-3.509,1.54-1.491.844-3.851-6.785,1.491-.844c1-.562,1.809-.416,2.616,1.015l1.711,3.007C229.854,208.539,229.573,209.309,228.57,209.933Z" transform="translate(-164.933 -159.222)" fill="#ff8400"/>
      <path id="Path_934" data-name="Path 934" d="M246.975,212.774l-1.614-2.861-5.183,2.934-7.58-13.362-.342.269a1.822,1.822,0,0,1-.782.428.623.623,0,0,1-.721-.391,1.32,1.32,0,0,1,0-.575,5.367,5.367,0,0,0-1.027-3.166l-2.445,1.418,11.357,20.025Z" transform="translate(-162.97 -159.948)" fill="#ff8400"/>
      <path id="Path_935" data-name="Path 935" d="M243.8,207.409c.342-.892,1.406-1.223,2-2.029a2.741,2.741,0,0,0,.147-.257l-1.223-2.054,3.093-1.748a1.346,1.346,0,0,0-.293-.526,4.89,4.89,0,0,0-1.406-.44,1.064,1.064,0,0,1,.819-1.528,1.242,1.242,0,0,0,.611-.1.684.684,0,0,0,.159-.477l-.281-.489-4.328,2.445-3.154-5.575,5.428-3.093-1.626-2.861-8.558,4.89L243.6,208.4a3.338,3.338,0,0,1,.2-.99Z" transform="translate(-161.21 -161.588)" fill="#ff8400"/>
      <path id="Path_936" data-name="Path 936" d="M253.614,205.631l-1.626-2.861-5.44,3.081-1.626-2.8-2,1.883-.7.672,2.812,4.951Z" transform="translate(-159.646 -158.453)" fill="#ff8400"/>
      <path id="Path_937" data-name="Path 937" d="M249.374,186.6a.931.931,0,0,1-.721.941,2.214,2.214,0,0,1-.623-.1,4.89,4.89,0,0,1-1.125-.11.819.819,0,0,1-.22-.135l-3.594,2.042,1.626,2.873,3.289-1.87,9.78,17.115,3.142-1.785-9.78-17.115,3.3-1.87-1.626-2.861-3.374,1.907C249.386,185.955,249.41,186.285,249.374,186.6Z" transform="translate(-159.452 -162.689)" fill="#ff8400"/>
      <path id="Path_938" data-name="Path 938" d="M261.078,199.752l2.445,4.315,3.3-1.87a3.669,3.669,0,0,1,.293-.623,7.788,7.788,0,0,1,2.848-2.518l1.516-.941-1-1.785-5.44,3.093-3.325-5.868,4.328-2.445-1.626-2.861-4.328,2.445-3.154-5.611,5.44-3.081-1.626-2.861-8.558,4.89,6.174,10.893C259.855,194.128,260.6,196.989,261.078,199.752Z" transform="translate(-157.427 -163.711)" fill="#ff8400"/>
      <path id="Path_939" data-name="Path 939" d="M209.876,232.073c.513.086.819.6,1.223.941a1.663,1.663,0,0,0,.5.318,6.757,6.757,0,0,0,.685-.318c3.081-1.748,3.729-4.535,1.919-7.751l-.183-.318-4.23-.11,1.381,2.445c.807,1.43.489,2.335-.513,2.9s-1.944.379-2.751-1.051L201.8,218.307c-.819-1.43-.489-2.323.513-2.9s1.932-.379,2.751,1.051L209.2,223.8a16.689,16.689,0,0,1,3.888-.489l-4.78-8.423c-1.809-3.2-4.536-4.071-7.628-2.323s-3.741,4.548-1.919,7.751l5.9,10.416a5.611,5.611,0,0,0,4.01,3.142,1.224,1.224,0,0,1,0-.22C208.531,232.855,209.118,231.926,209.876,232.073Z" transform="translate(-169.54 -156.471)" fill="#ff8400"/>
      <path id="Path_940" data-name="Path 940" d="M242.322,182.32l9.6-5.44c-2.751.758-5.171,3.056-8.007,2.738a3.081,3.081,0,0,0-1.565,0,1.516,1.516,0,0,0-.513,1.993,2.69,2.69,0,0,0,.489.709Z" transform="translate(-159.772 -164.213)" fill="#ff8400"/>
      <path id="Path_941" data-name="Path 941" d="M225.645,194.454a1.063,1.063,0,0,1,.122-.611,2.2,2.2,0,0,0,.733.122l3.313-1.87a9.156,9.156,0,0,1,1.76-1.54,9.278,9.278,0,0,1,1.98-.782l.734-.22L240.4,186.1a1.137,1.137,0,0,1,.257-.33,1.224,1.224,0,0,1,.306-.147l-6.308-1.907-1.7.954-.183,1.345-7.274,3.888a6.455,6.455,0,0,1-2.359.892,4.045,4.045,0,0,1-.941,0l-10.367,5.88a6.408,6.408,0,0,0,.416,1.43,4.511,4.511,0,0,1-1.7-.7l-2.127,1.223c1.516,1,3.007,2.029,4.462,3.117Z" transform="translate(-167.167 -162.691)" fill="#ff8400"/>
      <path id="Path_942" data-name="Path 942" d="M260.154,172.432l-5.012-2.812-2.372,1.345a9.78,9.78,0,0,0,5.171,2.787Z" transform="translate(-157.298 -165.829)" fill="#ff8400"/>
      <path id="Path_943" data-name="Path 943" d="M286.374,202.719l-18.924-33.362a5.624,5.624,0,0,0-7.641-2.115l-2.274,1.3.868.844c.9.9,1.834,1.822,2.677,2.787l1.149-.648a.7.7,0,0,1,.941.257l18.937,33.374a.7.7,0,0,1-.269.941l-25.758,14.67c2.225.134,4.474-.183,6.7.073a23.234,23.234,0,0,1,2.384.428l19.1-10.831a5.623,5.623,0,0,0,2.115-7.714Z" transform="translate(-156.562 -166.519)" fill="#ff8400"/>
      <path id="Path_944" data-name="Path 944" d="M188.52,238.123l-8.9-15.721a.7.7,0,0,1,.257-.954l25.673-14.572c-.086-.2-.2-.391-.269-.587a3.509,3.509,0,0,1,1.076.122l10.379-5.88c-.342-.11-.672-.244-1-.367l-4.89-1.944-3.912,2.225,4.254,2.6c-1.479-.9-4.5-1.027-7.1-.99l-26.565,15.122a5.611,5.611,0,0,0-2.115,7.641l7.726,13.619c.355-.1.721-.183,1.076-.245a15.893,15.893,0,0,1,2.958-.147,11.1,11.1,0,0,1,1.357.073Z" transform="translate(-174.675 -159.465)" fill="#ff8400"/>
      <path id="Path_945" data-name="Path 945" d="M213.264,241.358a5.465,5.465,0,0,0,1.467.941c.55.245,1.284.831.856,1.223-1.98.9-4.425.232-6.369,1.223-1.064.513-2.09,1.528-3.227,1.223a15.539,15.539,0,0,1,3.668,3.093L258.2,221.529a3.592,3.592,0,0,1,.1-.6,2.531,2.531,0,0,1,3.154-2.445,6.37,6.37,0,0,1,1.87.2l6.051-3.435a22.777,22.777,0,0,0-2.934-3.985Z" transform="translate(-167.707 -156.564)" fill="#ff8400"/>
      <path id="Path_946" data-name="Path 946" d="M210.313,244.656a8.826,8.826,0,0,1-3.166-1.822l-9.682,5.5a.685.685,0,0,1-.941-.257l-8.558-15a5.929,5.929,0,0,0-2.555-.293c-.99.2-1.858,1.345-1.32,2.188a2.849,2.849,0,0,1,2.445,1.516,7.8,7.8,0,0,1-1.724,1.039l7.335,12.971a5.624,5.624,0,0,0,7.763,2.115l12.69-7.2-.147-.086A20.783,20.783,0,0,0,210.313,244.656Z" transform="translate(-172.617 -151.781)" fill="#ff8400"/>
      <g id="Group_4261" data-name="Group 4261" opacity="0.2">
        <path id="Path_947" data-name="Path 947" d="M205.42,232.483a6.418,6.418,0,0,0-.99-4l-1.5-2.665-2.983,1.687,1.626,2.861c.807,1.43.477,2.311-.526,2.873s-1.932.416-2.738-1.015l-3.484-6.186-3.741.734,3.985,7.029c1.822,3.215,4.462,4.132,7.555,2.445a7.016,7.016,0,0,0,1.357-1.015,1.919,1.919,0,0,1,.648-2.323A2.763,2.763,0,0,1,205.42,232.483Z" transform="translate(-171.025 -153.324)"/>
        <path id="Path_948" data-name="Path 948" d="M189.689,225.385l.709,1.223h4.12l-1.8-3.179c-.807-1.43-.489-2.335.513-2.9s1.944-.391,2.751,1.051l1.223,2.139,2.971-1.687-1.1-1.944c-1.822-3.2-4.462-4.132-7.555-2.372a6.357,6.357,0,0,0-1.858,1.516,6.442,6.442,0,0,0,2.176.306l-2.934,1.1a5.819,5.819,0,0,0,.782,4.743Z" transform="translate(-171.553 -155.322)"/>
        <path id="Path_949" data-name="Path 949" d="M208.743,214.458a7.165,7.165,0,0,1,1.223-.477c1.577-.709,1.932-2.983,1.8-4.584l-1.626-2.017-4.377,2.445,2.738,4.817A.991.991,0,0,1,208.743,214.458Z" transform="translate(-167.759 -157.427)"/>
        <path id="Path_950" data-name="Path 950" d="M226.77,224.952l2.971-1.687L218.383,203.24l-2.824,1.589c.9.22,1.553.648,1.577,1.308-.88.122-1.956,0-2.91.171l5.721,14.829h0l-7.237-9.022a1.222,1.222,0,0,1-.44,1.064c-.33.232-.807.232-1.064.538s-.22.672-.44.941-.562.342-.831.538a10.216,10.216,0,0,0-.868,1.027,1.222,1.222,0,0,1-.538.33l8.044,14.181,2.738-1.565-8.032-14.157h0L221.6,227.874l2.983-1.687-6.027-15.563h0Z" transform="translate(-167.142 -158.348)"/>
        <path id="Path_951" data-name="Path 951" d="M232.079,208.393a1.809,1.809,0,0,1,.917,1.076,6.027,6.027,0,0,0-.917-4.34l-1.479-2.616c-1.822-3.2-4.352-4.071-7.506-2.286l-4.633,2.628,11.369,20.037,2.946-1.675c-.954-.6-2.017-1.112-2.922-1.76a2.983,2.983,0,0,1-1.015-1.088,1.3,1.3,0,0,1,.147-1.406,1.43,1.43,0,0,1,1.516-.208l-1.8-3.178,1.491-.844a6.43,6.43,0,0,0,2.091-1.809C231.663,209.933,230.575,207.83,232.079,208.393Zm-3.509,1.54-1.491.844-3.851-6.785,1.491-.844c1-.562,1.809-.416,2.616,1.015l1.711,3.007C229.854,208.539,229.573,209.309,228.57,209.933Z" transform="translate(-164.933 -159.222)"/>
        <path id="Path_952" data-name="Path 952" d="M246.975,212.774l-1.614-2.861-5.183,2.934-7.58-13.362-.342.269a1.822,1.822,0,0,1-.782.428.623.623,0,0,1-.721-.391,1.32,1.32,0,0,1,0-.575,5.367,5.367,0,0,0-1.027-3.166l-2.445,1.418,11.357,20.025Z" transform="translate(-162.97 -159.948)"/>
        <path id="Path_953" data-name="Path 953" d="M243.8,207.409c.342-.892,1.406-1.223,2-2.029a2.741,2.741,0,0,0,.147-.257l-1.223-2.054,3.093-1.748a1.346,1.346,0,0,0-.293-.526,4.89,4.89,0,0,0-1.406-.44,1.064,1.064,0,0,1,.819-1.528,1.242,1.242,0,0,0,.611-.1.684.684,0,0,0,.159-.477l-.281-.489-4.328,2.445-3.154-5.575,5.428-3.093-1.626-2.861-8.558,4.89L243.6,208.4a3.338,3.338,0,0,1,.2-.99Z" transform="translate(-161.21 -161.588)"/>
        <path id="Path_954" data-name="Path 954" d="M253.614,205.631l-1.626-2.861-5.44,3.081-1.626-2.8-2,1.883-.7.672,2.812,4.951Z" transform="translate(-159.646 -158.453)"/>
        <path id="Path_955" data-name="Path 955" d="M249.374,186.6a.931.931,0,0,1-.721.941,2.214,2.214,0,0,1-.623-.1,4.89,4.89,0,0,1-1.125-.11.819.819,0,0,1-.22-.135l-3.594,2.042,1.626,2.873,3.289-1.87,9.78,17.115,3.142-1.785-9.78-17.115,3.3-1.87-1.626-2.861-3.374,1.907C249.386,185.955,249.41,186.285,249.374,186.6Z" transform="translate(-159.452 -162.689)"/>
        <path id="Path_956" data-name="Path 956" d="M261.078,199.752l2.445,4.315,3.3-1.87a3.669,3.669,0,0,1,.293-.623,7.788,7.788,0,0,1,2.848-2.518l1.516-.941-1-1.785-5.44,3.093-3.325-5.868,4.328-2.445-1.626-2.861-4.328,2.445-3.154-5.611,5.44-3.081-1.626-2.861-8.558,4.89,6.174,10.893C259.855,194.128,260.6,196.989,261.078,199.752Z" transform="translate(-157.427 -163.711)"/>
        <path id="Path_957" data-name="Path 957" d="M209.876,232.073c.513.086.819.6,1.223.941a1.663,1.663,0,0,0,.5.318,6.757,6.757,0,0,0,.685-.318c3.081-1.748,3.729-4.535,1.919-7.751l-.183-.318-4.23-.11,1.381,2.445c.807,1.43.489,2.335-.513,2.9s-1.944.379-2.751-1.051L201.8,218.307c-.819-1.43-.489-2.323.513-2.9s1.932-.379,2.751,1.051L209.2,223.8a16.689,16.689,0,0,1,3.888-.489l-4.78-8.423c-1.809-3.2-4.536-4.071-7.628-2.323s-3.741,4.548-1.919,7.751l5.9,10.416a5.611,5.611,0,0,0,4.01,3.142,1.224,1.224,0,0,1,0-.22C208.531,232.855,209.118,231.926,209.876,232.073Z" transform="translate(-169.54 -156.471)"/>
        <path id="Path_958" data-name="Path 958" d="M242.322,182.32l9.6-5.44c-2.751.758-5.171,3.056-8.007,2.738a3.081,3.081,0,0,0-1.565,0,1.516,1.516,0,0,0-.513,1.993,2.69,2.69,0,0,0,.489.709Z" transform="translate(-159.772 -164.213)"/>
        <path id="Path_959" data-name="Path 959" d="M225.645,194.454a1.063,1.063,0,0,1,.122-.611,2.2,2.2,0,0,0,.733.122l3.313-1.87a9.156,9.156,0,0,1,1.76-1.54,9.278,9.278,0,0,1,1.98-.782l.734-.22L240.4,186.1a1.137,1.137,0,0,1,.257-.33,1.224,1.224,0,0,1,.306-.147l-6.308-1.907-1.7.954-.183,1.345-7.274,3.888a6.455,6.455,0,0,1-2.359.892,4.045,4.045,0,0,1-.941,0l-10.367,5.88a6.408,6.408,0,0,0,.416,1.43,4.511,4.511,0,0,1-1.7-.7l-2.127,1.223c1.516,1,3.007,2.029,4.462,3.117Z" transform="translate(-167.167 -162.691)"/>
        <path id="Path_960" data-name="Path 960" d="M260.154,172.432l-5.012-2.812-2.372,1.345a9.78,9.78,0,0,0,5.171,2.787Z" transform="translate(-157.298 -165.829)"/>
        <path id="Path_961" data-name="Path 961" d="M286.374,202.719l-18.924-33.362a5.624,5.624,0,0,0-7.641-2.115l-2.274,1.3.868.844c.9.9,1.834,1.822,2.677,2.787l1.149-.648a.7.7,0,0,1,.941.257l18.937,33.374a.7.7,0,0,1-.269.941l-25.758,14.67c2.225.134,4.474-.183,6.7.073a23.234,23.234,0,0,1,2.384.428l19.1-10.831a5.623,5.623,0,0,0,2.115-7.714Z" transform="translate(-156.562 -166.519)"/>
        <path id="Path_962" data-name="Path 962" d="M188.52,238.123l-8.9-15.721a.7.7,0,0,1,.257-.954l25.673-14.572c-.086-.2-.2-.391-.269-.587a3.509,3.509,0,0,1,1.076.122l10.379-5.88c-.342-.11-.672-.244-1-.367l-4.89-1.944-3.912,2.225,4.254,2.6c-1.479-.9-4.5-1.027-7.1-.99l-26.565,15.122a5.611,5.611,0,0,0-2.115,7.641l7.726,13.619c.355-.1.721-.183,1.076-.245a15.893,15.893,0,0,1,2.958-.147,11.1,11.1,0,0,1,1.357.073Z" transform="translate(-174.675 -159.465)"/>
        <path id="Path_963" data-name="Path 963" d="M213.264,241.358a5.465,5.465,0,0,0,1.467.941c.55.245,1.284.831.856,1.223-1.98.9-4.425.232-6.369,1.223-1.064.513-2.09,1.528-3.227,1.223a15.539,15.539,0,0,1,3.668,3.093L258.2,221.529a3.592,3.592,0,0,1,.1-.6,2.531,2.531,0,0,1,3.154-2.445,6.37,6.37,0,0,1,1.87.2l6.051-3.435a22.777,22.777,0,0,0-2.934-3.985Z" transform="translate(-167.707 -156.564)"/>
        <path id="Path_964" data-name="Path 964" d="M210.313,244.656a8.826,8.826,0,0,1-3.166-1.822l-9.682,5.5a.685.685,0,0,1-.941-.257l-8.558-15a5.929,5.929,0,0,0-2.555-.293c-.99.2-1.858,1.345-1.32,2.188a2.849,2.849,0,0,1,2.445,1.516,7.8,7.8,0,0,1-1.724,1.039l7.335,12.971a5.624,5.624,0,0,0,7.763,2.115l12.69-7.2-.147-.086A20.783,20.783,0,0,0,210.313,244.656Z" transform="translate(-172.617 -151.781)"/>
      </g>
    </g>
    <g id="freepik--left-hand--inject-19" transform="translate(18.49 216.807)">
      <path id="Path_965" data-name="Path 965" d="M174.382,206.78c7.457,5.477,13.692,31.785,14.254,55.905s12.225,64.793,13.619,71.456.88,16.272,9.536,2.9,33.973-36.59,44.524-28.876-7.213,33.643-16.834,47.6-10.6,38.546-22.127,53.937-21.944,38.631-33.24,38.277S98,503.128,98,503.128l1.467-75.967L166.7,317.136Z" transform="translate(-0.798 -185.404)" fill="rgba(0,0,0,0.7)" opacity="0.3"/>
      <path id="Path_966" data-name="Path 966" d="M280.143,315.782c-.379,2.384-13.545,19.829-21.284,32.885s-14.988,35.783-16.932,39.12-25.673,24.181-32.176,32.9-18.118,12.567-29.719,20.783c-7.457,5.281-30.7,32.531-46.358,51.345-8.7,10.452-15.074,18.338-15.074,18.338L18.49,485.051S26.779,478.217,37.683,469h.073l.11-.086c17.922-15.22,42.9-36.7,49.793-44.8,11.113-13.056,26.59-28.57,26.59-28.57-.941-18.13.978-35.306-.721-41.834-.88-3.411-2.445-22.812-3.668-28.778-2.971-15.245-15.893-31.04-17.347-37.262S74,254.95,82.329,250.06a7.665,7.665,0,0,1,5.086-1.112c11.247,1.553,20.514,28.717,26.9,35.636A82.718,82.718,0,0,1,121.719,295c5.037,7.983,9.976,16.956,9.976,16.956,1.932-7.738-12.091-35.306-15.966-61.419s-14.988-40.135,0-41.749a9.352,9.352,0,0,1,3.668.318c10.55,3.081,15.122,25,21.431,46.272.587,1.956,5.391,16,9.132,26.834h0c2.445,7.091,4.4,12.8,4.4,12.8.477-13.3-3.668-25.673-4.352-37.727-.293-4.829,1.223-24.181-.685-43.521-1.638-16.32-.892-22.934,5.489-24.218a15.893,15.893,0,0,1,4.144-.2c11.064.7,14.988,30.1,14.988,41.565,0,6.663,1.137,19.67,2.09,29.426.7,7.054,1.3,12.408,1.3,12.408s1.932-16.2.489-51.138c-.33-7.653.171-13.13,3.179-15.342,1.65-1.223,4.034-1.43,7.457-.5,9.67,2.616,12.812,38.448,12.812,51.993s7.738,36.749,9.193,55.013,7.787,40.71,7.787,40.71,3.582,1.455,5.99.978,19.108-25.147,19.108-25.147c7.775-16.883,22.91-22.005,31.15-20.11C278.285,310.073,280.73,312.408,280.143,315.782Z" transform="translate(-18.49 -189.294)" fill="#fff"/>
      <path id="Path_967" data-name="Path 967" d="M259.179,293.957c-.379,2.384-13.545,19.829-21.284,32.885s-14.988,35.783-16.932,39.12-25.673,24.181-32.176,32.9-18.118,12.567-29.719,20.783c-7.457,5.281-30.7,32.531-46.358,51.345,1.724-6.822,5.587-15.538,15.685-23.912,17.531-14.56,18.582-25.978,28.008-35.648s26.027-6.773,31.993-18.338,26.773-22.25,31.125-32.409-4.352-12.311,3.386-24.536,15.245-15.2,14.144-19.988-4.352-12.054,2.359-18.105c4.193-3.765,9.12-8.5,14.157-10.673C257.321,288.248,259.766,290.583,259.179,293.957Z" transform="translate(2.475 -167.47)" fill="#ff8400" opacity="0.4"/>
      <path id="Path_968" data-name="Path 968" d="M151.187,369.607c-3.215-1.614-.636-4.829-2.9-7.506s-7.421,14.609-8.558,14.67-4.6-8.79-5.966-9.67-2.176,2.824-4.12,9.67-9.083,10.318-13.228,15.208-29.071,31.48-35.2,41.468S37.274,463.2,34.34,465.329c17.922-15.2,42.9-36.675,49.793-44.78,11.113-13.056,26.59-28.57,26.59-28.57-.941-18.13.978-35.306-.721-41.834-.88-3.411-2.445-22.812-3.668-28.778-2.971-15.245-15.893-31.04-17.347-37.262S70.477,251.39,78.8,246.5a7.665,7.665,0,0,1,5.086-1.112c-1.895,1.345-3.741,3.276-2.017,6.113,3.068,4.963,6.443,10.184,6.443,15.673s9.352,13.215,12.983,18.338.244,3.313,2.665,10.33,5.318,5.55,6.76,12.641,9.511,11.614,8.227,20.453,3.863,21.137,3.863,21.137,4.193-11.919,2.665-18.338.244-14.511-1.223-16.687c-1.223-1.956-4.572-15.232-6.113-23.484,5.037,7.983,9.976,16.956,9.976,16.956,1.932-7.738-12.091-35.306-15.966-61.419s-14.988-40.135,0-41.749a9.352,9.352,0,0,1,3.668.318c6.394,11.944,1.944,20.783.526,25.966-1.553,5.648,7.69,20.147,9.059,30.135,1.223,9.328,3.741,8.362,4.071,8.191-.281.257-2.665,2.69-1.223,9.609,1.5,7.335,12.225,24.756,12.225,29.621s-.88,12.873-.88,15.245,8.558,18.24,9.584,22.4-.4-8.007,1.932-12.225,3.57-18.937,3.875-18.142C159.011,326.685,154.415,371.2,151.187,369.607Z" transform="translate(-14.963 -185.735)" fill="#ff8400" opacity="0.4"/>
      <path id="Path_969" data-name="Path 969" d="M137.955,263.882c-2.738,4.144-2.665,36.492-7.335,36.6-2.262,0-3.362-8.13-4.279-18.338,2.445,7.091,4.4,12.8,4.4,12.8.477-13.3-3.668-25.673-4.352-37.727-.293-4.829,1.223-24.181-.685-43.521-1.638-16.32-.892-22.934,5.489-24.218,1.345,4.352,4.646,9.487,5.489,14.254,1.149,6.577-1.1,12.017-3.032,12.836s-2.262,5.061.159,5.685,0,31.492,1.125,35.453S140.706,259.8,137.955,263.882Z" transform="translate(5.201 -189.253)" fill="#ff8400" opacity="0.4"/>
      <path id="Path_970" data-name="Path 970" d="M158.142,224.625c-5.025,2.213-5.293,6.174-6.8,11.858s2.152,13.985,0,27.03,5.7,21.455,0,36.052-3.02-12.225-3.973-24.45a150.969,150.969,0,0,1,.073-17.873c.7,7.054,1.3,12.408,1.3,12.408s1.932-16.2.489-51.138c-.33-7.653.171-13.13,3.179-15.342C157.567,207.852,162.421,222.742,158.142,224.625Z" transform="translate(10.136 -186.207)" fill="#ff8400" opacity="0.4"/>
      <path id="Path_971" data-name="Path 971" d="M118.6,511.149s49.817-61.419,61.431-69.683,23.228-12.091,29.719-20.783,30.245-29.511,32.176-32.9,9.193-26.113,16.932-39.12,20.9-30.563,21.284-32.885c1.687-10.648-25.392-11.125-36.761,13.545,0,0-16.687,24.658-19.108,25.147s-5.99-.978-5.99-.978-6.333-22.433-7.787-40.71-9.193-41.5-9.193-55.013-3.142-49.377-12.812-51.993-11.137,4.01-10.636,15.893c1.443,34.939-.489,51.138-.489,51.138s-3.386-30.355-3.386-41.834-3.924-40.881-14.988-41.565c-10.159-.648-11.577,5.061-9.633,24.45s.391,38.692.685,43.521c.721,12.091,4.89,24.45,4.352,37.727,0,0-12.58-36.419-13.545-39.658-7.005-23.741-11.858-48.191-25.159-46.724-14.988,1.614-3.863,15.636,0,41.749s17.9,53.68,15.966,61.419c0,0-11.6-21.064-17.384-27.372-7.335-7.934-18.411-42.507-31.956-34.524-8.325,4.89,8.778,31.467,10.22,37.69s14.377,22.005,17.347,37.262c1.223,5.966,2.751,25.367,3.668,28.778,1.7,6.528-.22,23.7.721,41.834,0,0-15.477,15.477-26.59,28.533s-69.17,60.942-69.17,60.942" transform="translate(-18.486 -189.28)" fill="none" stroke="#263238" stroke-linecap="round" stroke-linejoin="round" stroke-width="1"/>
      <path id="Path_972" data-name="Path 972" d="M181.92,323.61a22.873,22.873,0,0,1,0,17.176" transform="translate(17.875 -159.408)" fill="none" stroke="#263238" stroke-linecap="round" stroke-linejoin="round" stroke-width="1"/>
      <path id="Path_973" data-name="Path 973" d="M185.25,324.45a8.13,8.13,0,0,1,2.9,9.132" transform="translate(18.616 -159.221)" fill="none" stroke="#263238" stroke-linecap="round" stroke-linejoin="round" stroke-width="1"/>
      <path id="Path_974" data-name="Path 974" d="M148.45,257.55s3.875,27.323,2.176,32.4" transform="translate(10.427 -174.107)" fill="none" stroke="#263238" stroke-linecap="round" stroke-linejoin="round" stroke-width="1"/>
      <path id="Path_975" data-name="Path 975" d="M129.66,275.75a25.672,25.672,0,0,1,0,7.971" transform="translate(6.246 -170.057)" fill="none" stroke="#263238" stroke-linecap="round" stroke-linejoin="round" stroke-width="1"/>
      <path id="Path_976" data-name="Path 976" d="M111.07,289.59s.721,4.12,0,5.086" transform="translate(2.11 -166.978)" fill="none" stroke="#263238" stroke-linecap="round" stroke-linejoin="round" stroke-width="1"/>
      <path id="Path_977" data-name="Path 977" d="M211.35,308.58s4.377,2.372,5.807,5.807" transform="translate(24.423 -162.752)" fill="none" stroke="#263238" stroke-linecap="round" stroke-linejoin="round" stroke-width="1"/>
      <path id="Path_978" data-name="Path 978" d="M129.79,216.118a8.692,8.692,0,0,0,8.056-2.188" transform="translate(6.275 -183.813)" fill="none" stroke="#263238" stroke-linecap="round" stroke-linejoin="round" stroke-width="1"/>
      <path id="Path_979" data-name="Path 979" d="M131,247.86s8.7,2.9,11.858,0" transform="translate(6.544 -176.263)" fill="none" stroke="#263238" stroke-linecap="round" stroke-linejoin="round" stroke-width="1"/>
      <path id="Path_980" data-name="Path 980" d="M154.19,255.022s5.795-2.176,9.67-.966" transform="translate(11.704 -174.966)" fill="none" stroke="#263238" stroke-linecap="round" stroke-linejoin="round" stroke-width="1"/>
      <path id="Path_981" data-name="Path 981" d="M108.89,261.957s4.6-6.051,8.227-4.352" transform="translate(1.625 -174.162)" fill="none" stroke="#263238" stroke-linecap="round" stroke-linejoin="round" stroke-width="1"/>
      <path id="Path_982" data-name="Path 982" d="M94.428,275.75s-4.108,1.932-5.318,3.985" transform="translate(-2.776 -170.057)" fill="none" stroke="#263238" stroke-linecap="round" stroke-linejoin="round" stroke-width="1"/>
      <path id="Path_983" data-name="Path 983" d="M96.82,363.563a22.848,22.848,0,0,0,2.665-3.668c.721-1.455-.245-16.932,0-26.9" transform="translate(-1.061 -157.319)" fill="none" stroke="#263238" stroke-linecap="round" stroke-linejoin="round" stroke-width="1"/>
      <path id="Path_984" data-name="Path 984" d="M143.812,407.84c-5.7,6.382-23.167,17.946-30.172,24.951" transform="translate(2.682 -140.666)" fill="none" stroke="#263238" stroke-linecap="round" stroke-linejoin="round" stroke-width="1"/>
      <path id="Path_985" data-name="Path 985" d="M157.375,289.59c-2.9,8.227.244,18.619,0,23.228s-1.223,25.673-1.223,25.673" transform="translate(12.138 -166.978)" fill="none" stroke="#263238" stroke-linecap="round" stroke-linejoin="round" stroke-width="1"/>
      <path id="Path_986" data-name="Path 986" d="M136.068,289.59c-3.863,6.528-2.653,15.232-1.443,19.56s.134,22.005.134,22.005" transform="translate(7.088 -166.978)" fill="none" stroke="#263238" stroke-linecap="round" stroke-linejoin="round" stroke-width="1"/>
      <path id="Path_987" data-name="Path 987" d="M101.582,306.6a23.509,23.509,0,0,0,2.445,12.335" transform="translate(-0.016 -163.193)" fill="none" stroke="#263238" stroke-linecap="round" stroke-linejoin="round" stroke-width="1"/>
      <path id="Path_988" data-name="Path 988" d="M121.3,296.12c-2.176,7.983.733,11.6.978,12.812" transform="translate(4.207 -165.525)" fill="none" stroke="#263238" stroke-linecap="round" stroke-linejoin="round" stroke-width="1"/>
    </g>
    <g id="freepik--right-hand--inject-19" transform="translate(334.135 143.807)">
      <path id="Path_989" data-name="Path 989" d="M282.591,269.345l-4.12-23.912a8,8,0,0,1,6.858-9.279l9.23-1.223s-3.081-6.247,6.834-24.45,57.58-66.553,93.717,14.67S464.268,471.89,464.268,471.89s-97.544-113.6-100.649-119.415-32.8-2.335-39.658-17.946-21.259-60.16-21.259-60.16L291.552,275.9A8.007,8.007,0,0,1,282.591,269.345Z" transform="translate(-276.313 -118.463)" fill="rgba(0,0,0,0.7)" opacity="0.3"/>
      <path id="Path_990" data-name="Path 990" d="M368.929,217.445l-18.717,3.4L324.2,225.575l-34.071,6.2a5.049,5.049,0,0,1-5.88-4.071l-7.482-41.137a5.073,5.073,0,0,1,4.071-5.88l19.817-3.668,28.827-5.232,30.159-5.489a5.049,5.049,0,0,1,5.88,4.071L373,211.5a5.049,5.049,0,0,1-4.071,5.941Z" transform="translate(-276.685 -121.43)" fill="#ff8400"/>
      <g id="Group_4262" data-name="Group 4262" transform="translate(0 44.782)" clip-path="url(#clip-path)">
        <path id="Path_991" data-name="Path 991" d="M351.528,189.12l-5.477,30.709-26.015,4.731c-7.531-3.313-19.951-9.083-22.433-12.225-2.958-3.668-2.543-25.281-1.112-36.333l28.827-5.232C335.476,177.775,351.528,189.12,351.528,189.12Z" transform="translate(-272.523 -165.198)" fill="rgba(0,0,0,0.7)" opacity="0.3"/>
        <path id="Path_992" data-name="Path 992" d="M295.3,228.369l-5.171.941a5.049,5.049,0,0,1-5.88-4.071L276.765,184.1a5.073,5.073,0,0,1,4.071-5.88l5.159-.941a5.061,5.061,0,0,0-4.059,5.88l7.482,41.137a5.049,5.049,0,0,0,5.88,4.071Z" transform="translate(-276.685 -163.749)" fill="rgba(0,0,0,0.7)" opacity="0.3"/>
      </g>
      <path id="Path_994" data-name="Path 994" d="M368.929,217.445l-18.717,3.4L324.2,225.575l-34.071,6.2a5.049,5.049,0,0,1-5.88-4.071l-7.482-41.137a5.073,5.073,0,0,1,4.071-5.88l19.817-3.668,28.827-5.232,30.159-5.489a5.049,5.049,0,0,1,5.88,4.071L373,211.5a5.049,5.049,0,0,1-4.071,5.941Z" transform="translate(-276.685 -121.43)" fill="none" stroke="#263238" stroke-linecap="round" stroke-linejoin="round" stroke-width="1"/>
      <rect id="Rectangle_367" data-name="Rectangle 367" width="89.884" height="51.733" rx="4.125" transform="matrix(0.984, -0.181, 0.181, 0.984, 3.241, 58.019)" fill="none" stroke="#263238" stroke-linecap="round" stroke-linejoin="round" stroke-width="0.996"/>
      <rect id="Rectangle_368" data-name="Rectangle 368" width="80.062" height="46.089" rx="2" transform="translate(8.125 61.519) rotate(-10.3)" fill="none" stroke="#263238" stroke-linecap="round" stroke-linejoin="round" stroke-width="1"/>
      <path id="Path_995" data-name="Path 995" d="M359,216.663l-5.135.929a5.049,5.049,0,0,0,4.034-5.868l-7.482-41.137a5.049,5.049,0,0,0-5.88-4.071l5.171-.941a5.073,5.073,0,0,1,5.88,4.071l7.482,41.137A5.073,5.073,0,0,1,359,216.663Z" transform="translate(-261.586 -121.589)" fill="none" stroke="#263238" stroke-linecap="round" stroke-linejoin="round" stroke-width="1"/>
      <path id="Path_996" data-name="Path 996" d="M517.115,356.417l-50.624,135.8s-21.174-40.343-40.734-77.678c-15.624-29.854-30.22-57.849-32.189-61.969-4.413-9.279-19.487-28.717-19.487-28.717S358.617,315,351.538,299.583s-14.866-70.563-14.866-70.563-20.33-7.653-25.184-11-9.279-34.3-9.279-37.837,4.89-10.611,4.89-10.611-1.088-5.183,5.122-10.416a28.534,28.534,0,0,1,6.687-4.1h.122s-.807-11.7,5.281-15.11a6.851,6.851,0,0,1,.9-.428c5.428-2.09,23.228-4.792,23.228-4.792a25.38,25.38,0,0,1,8.619-4.976c3.154-.868,20.465,3.154,30.135,5.538,3.888.954,6.54,1.638,6.54,1.638s16.357.746,19.45,2.592a30.82,30.82,0,0,1,5.868,5h0l.306.355s14.585,3.032,17.677,8.374,4.413,31.846,2.213,49.071S441,248.775,441,248.775s4.56,22.58,8.093,31.149S517.115,356.417,517.115,356.417Z" transform="translate(-271.005 -129.569)" fill="#fff"/>
      <path id="Path_997" data-name="Path 997" d="M425.757,412.658c-15.624-29.854-30.22-57.849-32.189-61.969-4.413-9.279-19.487-28.717-19.487-28.717s-15.465-8.851-22.543-24.267-14.866-70.563-14.866-70.563-20.33-7.653-25.184-11-9.279-34.3-9.279-37.837,4.89-10.611,4.89-10.611-1.088-5.183,5.122-10.416v7.433c-.147,7,8.105,49.243,10.147,47.959s5.2-4.377,4.364-7.1c0,0-4-16.394-7.775-52.384h.122s-.807-11.7,5.281-15.11A28.118,28.118,0,0,0,322.369,146c-.134,5.7,6.638,54.512,9.291,55.746s9.377-5.269,9.377-5.269-2.3-13.851-1.479-19.756c0,0,20.453,12.47,21.064,26.626.061,1.553,3.985,23.741,3.985,23.741s-17.592,33.5.367,64.059c0,0-9.132-5.477-11.308-14.181,0,0-2.653,25.6,16.21,39.12,0,0,13.533-13.289,26.9-14.976,0,0,.245.88-8.7,7.934s-10.159,10.2-10.159,10.2,9.682-9.78,17.421-10.2c0,0-7.983,9.23-7.738,11.161s22.824,40.538,31.039,67.47C421.979,398.929,424.265,407.046,425.757,412.658Z" transform="translate(-271.005 -127.692)" fill="#ff8400" opacity="0.4"/>
      <path id="Path_998" data-name="Path 998" d="M351.41,154.611s6.516,4.89,8.448,0a28.045,28.045,0,0,0,2.091-8.215s2.506-1.149,4.89,4.89,26.284,7.58,31.883,10.673,7.824,0,7.824,0a7.335,7.335,0,0,1,1.834,9.083c-2.714,5.611,4.976,6.113,7.958,1.98s.672,11.822-6.7,13.448c0,0,.208,6.968-4.535,11.748h4.022s-10.709,8.5-13.558,8.961,10.6,5.22,8.105,6.223-9.56.917-9.56.917,4.572,3.166,4.609,5.257-2.164,3.668-3.154,1.919-8.888-26.785-12.824-36.04S362.547,168.878,351.41,154.611Z" transform="translate(-260.058 -125.858)" fill="#ff8400" opacity="0.4"/>
      <path id="Path_999" data-name="Path 999" d="M403.625,143.42c-13.717-3.753-32.115-9.1-32.115-9.1l.257-.134c3.888.954,6.54,1.638,6.54,1.638s16.357.746,19.45,2.592a30.819,30.819,0,0,1,5.868,5Z" transform="translate(-255.585 -128.555)" fill="#ff8400" opacity="0.4"/>
      <path id="Path_1000" data-name="Path 1000" d="M385.723,159.459c-11.932-2.445-20.453,7.751-20.453,7.751s11.858,10.734,14.487,15.342S386.75,202.7,386.75,202.7c5,.807,14.218-4.352,16.43-18.044S397.593,161.892,385.723,159.459Z" transform="translate(-256.974 -123.017)" fill="#ff8400"/>
      <path id="Path_1001" data-name="Path 1001" d="M466.491,492.225s-68.46-130.368-72.923-139.647-19.487-28.717-19.487-28.717-15.465-8.851-22.543-24.267-14.866-70.563-14.866-70.563-20.33-7.653-25.184-11-9.279-34.3-9.279-37.837,4.89-10.611,4.89-10.611-1.76-8.374,11.932-14.572c0,0-.88-12.824,6.186-15.538,5.428-2.09,23.228-4.792,23.228-4.792a25.38,25.38,0,0,1,8.619-4.976c4.413-1.223,36.675,7.176,36.675,7.176s16.357.746,19.45,2.592a31.32,31.32,0,0,1,6.125,5.294s14.585,3.032,17.677,8.374,4.413,31.846,2.213,49.072,1.748,46.455,1.748,46.455,4.56,22.58,8.093,31.15,68.069,76.615,68.069,76.615" transform="translate(-271.005 -129.581)" fill="none" stroke="#263238" stroke-linecap="round" stroke-linejoin="round" stroke-width="1"/>
      <path id="Path_1002" data-name="Path 1002" d="M402.151,223.92s-3.093-.66-7.066-15.245-5.025-21.406-13.264-30.049c-5.844-6.113-19.218-16.1-25.844-23.607s-13.949-13.57-19.67-8.924c-4.572,3.668-7.555,13.191-3.533,27.885,5.171,18.876,21.479,27.861,21.479,27.861l3.985,23.741s-17.3,34.646,2.2,67.348" transform="translate(-264.625 -126.267)" fill="none" stroke="#263238" stroke-linecap="round" stroke-linejoin="round" stroke-width="1"/>
      <path id="Path_1003" data-name="Path 1003" d="M365.22,167.209s8.558-10.184,20.453-7.751,19.621,11.492,17.457,25.2S391.7,203.505,386.7,202.7" transform="translate(-256.985 -123.016)" fill="none" stroke="#263238" stroke-linecap="round" stroke-linejoin="round" stroke-width="1"/>
      <path id="Path_1004" data-name="Path 1004" d="M340.748,133.73a79.828,79.828,0,0,0-4.108,13.875" transform="translate(-263.344 -128.657)" fill="none" stroke="#263238" stroke-linecap="round" stroke-linejoin="round" stroke-width="1"/>
      <path id="Path_1005" data-name="Path 1005" d="M334.08,172.89s1.027,15.1,3.154,19.731,5.66,8.4,7.2,14.364,1.773,15.245,2.213,16.577,3,1.675,3,1.675c3.668.086,5.147-1.822,7.262-4.731" transform="translate(-263.914 -119.944)" fill="none" stroke="#263238" stroke-linecap="round" stroke-linejoin="round" stroke-width="1"/>
      <path id="Path_1006" data-name="Path 1006" d="M316,150.36s3.313,32.25,5.966,45.954S329.3,212,336.991,216.424s11.932,13.448,12.6,14.8,3.191,1.5,3.191,1.5a8.924,8.924,0,0,0,7.115-4.658" transform="translate(-267.937 -124.957)" fill="none" stroke="#263238" stroke-linecap="round" stroke-linejoin="round" stroke-width="1"/>
      <path id="Path_1007" data-name="Path 1007" d="M306.232,162.28c-.831,1.284,6.259,34.035,9.951,43.534s4.108,11,13.875,13.692,17.188,7.164,19.829,5.587" transform="translate(-270.125 -122.305)" fill="none" stroke="#263238" stroke-linecap="round" stroke-linejoin="round" stroke-width="1"/>
      <path id="Path_1008" data-name="Path 1008" d="M361.71,147.46s5.073,12.152,1.724,20.147" transform="translate(-257.766 -125.602)" fill="none" stroke="#263238" stroke-linecap="round" stroke-linejoin="round" stroke-width="1"/>
      <path id="Path_1009" data-name="Path 1009" d="M377.07,135.53a174.816,174.816,0,0,0,25.587,7.91" transform="translate(-254.348 -128.257)" fill="none" stroke="#263238" stroke-linecap="round" stroke-linejoin="round" stroke-width="1"/>
      <path id="Path_1010" data-name="Path 1010" d="M406.33,169.88s-3.888,7.1-9.78,8.631" transform="translate(-250.014 -120.614)" fill="none" stroke="#263238" stroke-linecap="round" stroke-linejoin="round" stroke-width="1"/>
      <path id="Path_1011" data-name="Path 1011" d="M397.063,163.55s-1.394,3.668-2.873,4.682" transform="translate(-250.539 -122.022)" fill="none" stroke="#263238" stroke-linecap="round" stroke-linejoin="round" stroke-width="1"/>
      <path id="Path_1012" data-name="Path 1012" d="M403.693,187.41s-8.839,6.687-17.323,8.423" transform="translate(-252.279 -116.713)" fill="none" stroke="#263238" stroke-linecap="round" stroke-linejoin="round" stroke-width="1"/>
      <path id="Path_1013" data-name="Path 1013" d="M383.4,197s3.668,4.633,13.191,5.073" transform="translate(-252.94 -114.579)" fill="none" stroke="#263238" stroke-linecap="round" stroke-linejoin="round" stroke-width="1"/>
      <path id="Path_1014" data-name="Path 1014" d="M360,181.734s8.655-8.313,13.594-7.164" transform="translate(-258.146 -119.594)" fill="none" stroke="#263238" stroke-linecap="round" stroke-linejoin="round" stroke-width="1"/>
      <path id="Path_1015" data-name="Path 1015" d="M375.271,181.79s-6.553,4.89-7.751,4.89" transform="translate(-256.473 -117.963)" fill="none" stroke="#263238" stroke-linecap="round" stroke-linejoin="round" stroke-width="1"/>
      <path id="Path_1016" data-name="Path 1016" d="M318.67,203.4s2.176.4,3.875-2.225" transform="translate(-267.343 -113.649)" fill="none" stroke="#263238" stroke-linecap="round" stroke-linejoin="round" stroke-width="1"/>
      <path id="Path_1017" data-name="Path 1017" d="M325,193.965s5.257-3.252,8.692-3.875" transform="translate(-265.934 -116.117)" fill="none" stroke="#263238" stroke-linecap="round" stroke-linejoin="round" stroke-width="1"/>
      <path id="Path_1018" data-name="Path 1018" d="M362.88,285.661c1.088-.966,11.247-9.181,17.531-12.091" transform="translate(-257.506 -97.542)" fill="none" stroke="#263238" stroke-linecap="round" stroke-linejoin="round" stroke-width="1"/>
      <path id="Path_1019" data-name="Path 1019" d="M375.4,280.281c-.721-.22-6.492,5.819-9.536,8.24" transform="translate(-256.843 -96.05)" fill="none" stroke="#263238" stroke-linecap="round" stroke-linejoin="round" stroke-width="1"/>
      <path id="Path_1020" data-name="Path 1020" d="M376,294.93s19.352,36.675,23.7,51.345" transform="translate(-254.586 -92.789)" fill="none" stroke="#263238" stroke-linecap="round" stroke-linejoin="round" stroke-width="1"/>
      <path id="Path_1021" data-name="Path 1021" d="M422.36,252.51c1.638,9.01,6.956,15.648,9.866,19.242" transform="translate(-244.271 -102.228)" fill="none" stroke="#263238" stroke-linecap="round" stroke-linejoin="round" stroke-width="1"/>
      <path id="Path_1022" data-name="Path 1022" d="M372.672,162.617c-2.812,1.736.147,7.408,1.712,10.306s8.558,7.506,10.012,11.858,10.648,4.23,13.448,0,2.445-12.677-5.183-19.108S376.67,160.172,372.672,162.617Z" transform="translate(-255.586 -122.641)" fill="#fff" opacity="0.4"/>
    </g>
    <g id="freepik--speech-bubble--inject-19" transform="translate(332.306 426.622)">
      <path id="Path_1023" data-name="Path 1023" d="M340.423,361.715a55.869,55.869,0,0,0-41.957,100.454" transform="translate(-275.188 -360.92)" fill="none" stroke="#263238" stroke-linecap="round" stroke-linejoin="round" stroke-width="1"/>
      <path id="Path_1024" data-name="Path 1024" d="M350.715,371.058A55.576,55.576,0,0,0,333.6,362.72" transform="translate(-262.191 -360.52)" fill="none" stroke="#263238" stroke-linecap="round" stroke-linejoin="round" stroke-width="1"/>
      <path id="Path_1025" data-name="Path 1025" d="M343,462.6a55.832,55.832,0,0,0,12.739-88.021" transform="translate(-260.1 -357.881)" fill="none" stroke="#263238" stroke-linecap="round" stroke-linejoin="round" stroke-width="1"/>
      <path id="Path_1026" data-name="Path 1026" d="M345.548,463.7l3.325,2.934L343.69,448.87" transform="translate(-259.946 -341.351)" fill="none" stroke="#263238" stroke-linecap="round" stroke-linejoin="round" stroke-width="1"/>
      <path id="Path_1027" data-name="Path 1027" d="M313.21,451.9a55.648,55.648,0,0,0,24.67-1.333l10.526,9.291" transform="translate(-266.728 -340.973)" fill="none" stroke="#263238" stroke-linecap="round" stroke-linejoin="round" stroke-width="1"/>
      <path id="Path_1028" data-name="Path 1028" d="M302.73,448.56a56.152,56.152,0,0,0,6.406,2.311" transform="translate(-269.06 -341.42)" fill="none" stroke="#263238" stroke-linecap="round" stroke-linejoin="round" stroke-width="1"/>
      <path id="Path_1029" data-name="Path 1029" d="M330.47,384.39a28.118,28.118,0,1,1-9.951.086" transform="translate(-270.199 -355.698)" fill="none" stroke="#263238" stroke-linecap="round" stroke-linejoin="round" stroke-width="1"/>
      <path id="Path_1030" data-name="Path 1030" d="M321.068,438.72a31.149,31.149,0,0,1-25.477-35.93" transform="translate(-270.748 -351.604)" fill="none" stroke="#263238" stroke-linecap="round" stroke-linejoin="round" stroke-width="1"/>
      <path id="Path_1031" data-name="Path 1031" d="M349.1,415.72a31.174,31.174,0,0,1-24.8,20.245" transform="translate(-264.261 -348.727)" fill="none" stroke="#263238" stroke-linecap="round" stroke-linejoin="round" stroke-width="1"/>
      <path id="Path_1032" data-name="Path 1032" d="M297.47,399.732a31.15,31.15,0,0,1,59.01,18.228" transform="translate(-270.231 -356.321)" fill="none" stroke="#263238" stroke-linecap="round" stroke-linejoin="round" stroke-width="1"/>
      <line id="Line_241" data-name="Line 241" y1="0.379" x2="0.355" transform="translate(74.245 44.804)" fill="none" stroke="#263238" stroke-linecap="round" stroke-linejoin="round" stroke-width="2"/>
      <line id="Line_242" data-name="Line 242" y1="2.677" x2="2.482" transform="translate(69.257 47.885)" fill="none" stroke="#263238" stroke-linecap="round" stroke-linejoin="round" stroke-width="2"/>
      <path id="Path_1033" data-name="Path 1033" d="M306.93,405.8l11.993,15.941L335.207,404.2" transform="translate(-268.126 -351.29)" fill="none" stroke="#263238" stroke-linecap="round" stroke-linejoin="round" stroke-width="2"/>
    </g>
  </g>
</svg>
