<svg xmlns="http://www.w3.org/2000/svg" width="1516.561" height="589.053" viewBox="0 0 1516.561 589.053">
  <g id="Group_4311" data-name="Group 4311" transform="translate(-194.218 -211.339)">
    <g id="Group_4310" data-name="Group 4310">
      <g id="Rectangle_620" data-name="Rectangle 620" transform="translate(1276 684)" fill="#fff" stroke="#707070" stroke-width="1">
        <rect width="1" height="1" stroke="none"/>
        <rect x="0.5" y="0.5" fill="none"/>
      </g>
      <g id="Group_4303" data-name="Group 4303" transform="translate(1098 204.166)">
        <path id="Path_1837" data-name="Path 1837" d="M150.2,79.969c-2.33-2.413-6.379-4.644-13.4-4.826-15.782-.38-11.568,10.791-15.782,13.485s-5.387-1.537-9.635,1.157-2.314,8.081-5.768,8.858-8.081-3.47-12.328-.777-4.231,4.958-6.164,4.958-5.768-1.537-8.081,0-4.958,3.47-4.958,3.47H115.4" transform="translate(418.112 126.317)" fill="none" stroke="#263238" stroke-linecap="round" stroke-linejoin="round" stroke-width="1"/>
        <path id="Path_1838" data-name="Path 1838" d="M123.8,84.051l-1.19-.545a10.412,10.412,0,0,0-1.421-4.065" transform="translate(448.855 129.127)" fill="none" stroke="#263238" stroke-linecap="round" stroke-linejoin="round" stroke-width="1"/>
        <path id="Path_1839" data-name="Path 1839" d="M102.27,101.263h50.784s1.157-3.47-3.074-5.784-6.164-.38-7.7-2.314,3.057-5.867-4.115-10.3" transform="translate(436.508 131.366)" fill="none" stroke="#263238" stroke-linecap="round" stroke-linejoin="round" stroke-width="1"/>
      </g>
      <path id="Path_1841" data-name="Path 1841" d="M412.318,159.1l-1.206-.545a10.328,10.328,0,0,0-1.421-4.065" transform="translate(637.132 178.105)" fill="none" stroke="#263238" stroke-linecap="round" stroke-linejoin="round" stroke-width="1"/>
      <g id="Group_4306" data-name="Group 4306" transform="translate(-488 -98.733)">
        <path id="Path_1840" data-name="Path 1840" d="M438.709,155.019c-2.347-2.429-6.4-4.66-13.419-4.826-15.782-.38-11.568,10.775-15.782,13.469s-5.388-1.537-9.618,1.157-2.314,8.1-5.784,8.858-8.081-3.47-12.312-.76-4.247,4.958-6.164,4.958-5.784-1.537-8.081,0-4.958,3.47-4.958,3.47h41.315" transform="translate(606.394 175.295)" fill="none" stroke="#263238" stroke-linecap="round" stroke-linejoin="round" stroke-width="1"/>
        <path id="Path_1842" data-name="Path 1842" d="M390.78,176.317h50.768s1.157-3.47-3.074-5.768-6.164-.4-7.7-2.314,3.057-5.867-4.115-10.3" transform="translate(624.791 180.357)" fill="none" stroke="#263238" stroke-linecap="round" stroke-linejoin="round" stroke-width="1"/>
      </g>
      <g id="Group_4305" data-name="Group 4305" transform="translate(290.114 109.189)">
        <path id="Path_1843" data-name="Path 1843" d="M666.472,52.89c-4.2-4.363-11.568-8.379-24.161-8.693-28.458-.694-20.889,19.517-28.458,24.293s-9.717-2.776-17.352,2.082-4.165,14.576-10.395,15.964-14.576-6.3-22.211-1.339-7.635,9.023-11.105,9.023-10.411-2.776-14.576,0-9.023,6.247-9.023,6.247h74.516" transform="translate(715.118 106.116)" fill="none" stroke="#263238" stroke-linecap="round" stroke-linejoin="round" stroke-width="1"/>
        <path id="Path_1844" data-name="Path 1844" d="M618.86,60.283c-.677-.331-1.388-.661-2.148-.992a18.825,18.825,0,0,0-2.562-7.321" transform="translate(770.563 111.201)" fill="none" stroke="#263238" stroke-linecap="round" stroke-linejoin="round" stroke-width="1"/>
        <path id="Path_1845" data-name="Path 1845" d="M580.05,91.295h91.521s2.082-6.247-5.553-10.411-11.089-.694-13.865-4.165c-2.479-3.09,5.5-10.577-7.42-18.559" transform="translate(748.309 115.24)" fill="none" stroke="#263238" stroke-linecap="round" stroke-linejoin="round" stroke-width="1"/>
      </g>
      <g id="Group_4304" data-name="Group 4304" transform="translate(-446.009 139.885)">
        <path id="Path_1846" data-name="Path 1846" d="M340.186,130.65h-83.8s-2.861-10.3,7.621-17.154,15.227-1.14,19.038-6.858S272.563,86.046,301.12,71.189c0,0,1.912-32.027,40.937-33.168,16.837-.5,24.457,5.4,28.529,12.907" transform="translate(384.731 102.079)" fill="none" stroke="#263238" stroke-linecap="round" stroke-linejoin="round" stroke-width="1"/>
        <line id="Line_394" data-name="Line 394" x1="13.948" transform="translate(736.54 232.729)" fill="none" stroke="#263238" stroke-linecap="round" stroke-linejoin="round" stroke-width="1"/>
        <path id="Path_1847" data-name="Path 1847" d="M163.98,55.38c1.2,4.875,2.49,9.089,5.42,11.32,10.468,8,13.315-4.578,23.8,3.437s5.64,24.012,14.265,26.293,20-10.279,30.469-2.281,10.468,14.873,15.227,14.873,14.278-4.561,19.987,0,12.38,10.3,12.38,10.3H178.492" transform="translate(596.412 113.426)" fill="none" stroke="#263238" stroke-linecap="round" stroke-linejoin="round" stroke-width="1"/>
      </g>
      <g id="freepik--Arrows--inject-2" transform="translate(1414.096 226.746)">
        <path id="Path_1848" data-name="Path 1848" d="M667.718,336.525l58.948-119.053,17.7,8.759-4.214-65.79-54.866,36.539,17.7,8.759L644.02,324.791" transform="translate(-624.04 -44.758)" fill="none" stroke="#263238" stroke-linecap="round" stroke-linejoin="round" stroke-width="1"/>
        <path id="Path_1849" data-name="Path 1849" d="M646.853,201.412,684,126.384l11.155,5.52L692.514,90.44l-34.589,23.021,11.155,5.52L631.93,194.025" transform="translate(-631.93 -90.44)" fill="none" stroke="#263238" stroke-linecap="round" stroke-linejoin="round" stroke-width="1"/>
      </g>
      <g id="freepik--Gears--inject-2" transform="translate(543.174 295.61)">
        <path id="Path_1858" data-name="Path 1858" d="M183.346,233.559l14.873,3.305,3.437-15.072-14.262-3.305v-1.273a33.779,33.779,0,0,0-2.71-13.32l11.568-9.222-9.635-12.081-11.006,8.891a33.944,33.944,0,0,0-13.436-7.139V170H146.724v13.849a33.746,33.746,0,0,0-14.031,6.3l-11.188-8.924L111.871,193.3l10.924,8.709a33.845,33.845,0,0,0-3.636,14.758l-14.229,3.305,3.437,15.072L122.4,231.94a34.325,34.325,0,0,0,9.056,11.734l-6.61,13.568,13.931,6.71L145.2,250.6a33.564,33.564,0,0,0,14.493.347l6.61,13.832,13.931-6.71-6.478-13.452A34.242,34.242,0,0,0,183.346,233.559ZM138.1,217.347a15.171,15.171,0,1,1,15.171,15.171A15.171,15.171,0,0,1,138.1,217.347Z" transform="translate(-104.93 -107.383)" fill="none" stroke="#263238" stroke-linecap="round" stroke-linejoin="round" stroke-width="1"/>
        <path id="Path_1859" data-name="Path 1859" d="M719.1,318.613l10.064,2.3,2.33-10.213-9.668-2.214v-.859a23.133,23.133,0,0,0-1.818-9.04l7.833-6.247-6.61-8.263-7.3,6.048a22.837,22.837,0,0,0-9.106-4.826V275.53H694.26v9.37a23.02,23.02,0,0,0-9.5,4.28l-7.585-6.049-6.61,8.263,7.4,5.9a22.79,22.79,0,0,0-2.462,9.916l-9.5,2.148,2.33,10.213,9.519-2.165a23.318,23.318,0,0,0,6.131,7.949l-4.429,9.188,9.436,4.545,4.363-9.056a22.542,22.542,0,0,0,5.421.678,24.031,24.031,0,0,0,4.4-.43l4.512,9.37,9.453-4.545-4.4-9.106a23.45,23.45,0,0,0,6.363-7.387Zm-30.672-10.907A10.279,10.279,0,1,1,698.7,317.985,10.279,10.279,0,0,1,688.426,307.706Z" transform="translate(261.226 -38.514)" fill="none" stroke="#263238" stroke-linecap="round" stroke-linejoin="round" stroke-width="1"/>
        <path id="Path_1860" data-name="Path 1860" d="M195.042,184.217l12.2,2.776,2.809-12.361-11.7-2.661V170.93a27.715,27.715,0,0,0-2.165-10.907l9.5-7.569-7.9-9.916-9.089,7.238a27.946,27.946,0,0,0-11.023-5.85V132.11H165V143.5a27.8,27.8,0,0,0-11.568,5.173l-9.188-7.321-7.9,9.916L145.3,158.4a27.814,27.814,0,0,0-2.975,12.1l-11.684,2.677,2.826,12.361,11.568-2.628a28.1,28.1,0,0,0,7.42,9.618l-5.371,11.122,11.436,5.5,5.272-10.957a27.778,27.778,0,0,0,6.61.81,28.341,28.341,0,0,0,5.321-.512l5.454,11.337,11.436-5.5-5.321-11.023a27.78,27.78,0,0,0,7.751-9.089ZM157.941,171a12.484,12.484,0,1,0,0-.066Z" transform="translate(-88.152 -132.11)" fill="none" stroke="#263238" stroke-linecap="round" stroke-linejoin="round" stroke-width="1"/>
      </g>
      <g id="freepik--character-3--inject-2" transform="translate(1273.938 365.574)">
        <path id="Path_1861" data-name="Path 1861" d="M578.7,420.477s-10.263,6.61-12.312,8.263-11.486,3.7-10.246,6.61,13.122,4.512,16.41,4.512,15.981-6.61,19.269-7.371,3.305-4.512,2.049-7.387a34.324,34.324,0,0,0-4.958-6.974l-8.61,2.462Z" transform="translate(-541.304 -15.416)" fill="#fff" stroke="#263238" stroke-linecap="round" stroke-linejoin="round" stroke-width="1"/>
        <path id="Path_1862" data-name="Path 1862" d="M647.056,420.1s-7.8,9.436-9.023,11.486-8.263,5.321-8.263,8.61,11.9,1.653,15.584,1.223a14.873,14.873,0,0,0,10.659-7.37c2.066-4.115,3.7-12.725,1.239-16S647.056,420.1,647.056,420.1Z" transform="translate(-493.182 -16.163)" fill="#fff" stroke="#263238" stroke-linecap="round" stroke-linejoin="round" stroke-width="1"/>
        <path id="Path_1863" data-name="Path 1863" d="M597.844,312.356l-.331,2.479L594.969,334.5s-22.806,32.209-31.152,48.983c-4.264,8.56-10.213,18.724-9.387,21.583l25.367,90.1a16.526,16.526,0,0,0,6.148,1.653,16.777,16.777,0,0,0,5.735-1.223l-1.157-83.39,35.2-38.72,4.512,5.734s11.684,41.447,16.609,48.008,47.4,68.038,47.4,68.038a17.666,17.666,0,0,0,6.974,1.653c3.7,0,5.338-4.958,5.338-4.958s-30.557-75.441-31.4-77.9-.215-62.8-.215-62.8L669.98,322.14l-5.734-18.46s-10.659,2.876-28.706,2.049-35.267-2.049-35.267-2.049Z" transform="translate(-542.4 -90.107)" fill="#263238" stroke="#263238" stroke-linecap="round" stroke-linejoin="round" stroke-width="1"/>
        <path id="Path_1864" data-name="Path 1864" d="M554.16,191.911s-5.734,8.61-6.61,13.948a13.981,13.981,0,0,0,2.875,9.916l-3.305,6.974s11.073,22.558,17.633,32.8,17.22,27.483,23.781,30.771S607.8,303.131,607.8,303.131l7.387-16s-21.649-27.152-35.217-46.008a364.4,364.4,0,0,1-22.558-35.68,65.941,65.941,0,0,1,.826-10.659,55.705,55.705,0,0,0,.81-9.436Z" transform="translate(-547.12 -167.329)" fill="#263238" stroke="#263238" stroke-linecap="round" stroke-linejoin="round" stroke-width="1"/>
        <path id="Path_1865" data-name="Path 1865" d="M600.027,243.984s-16.823,20.1-20.1,33.217.81,53.726.81,59.494-3.305,11.9,1.24,16,18.046,2.049,22.955,1.653,28.309,0,35.283-2.066,10.246-4.958,10.246-9.833-8.61-43.877-9.916-50.437,3.305-29.119-2.859-39.795S611.91,239.886,600.027,243.984Z" transform="translate(-526.536 -130.41)" fill="#fff" stroke="#263238" stroke-linecap="round" stroke-linejoin="round" stroke-width="1"/>
        <path id="Path_1866" data-name="Path 1866" d="M609.474,244.91s-20.509,20.905-23.384,31.978S572.968,309.3,569.7,318.732a191.9,191.9,0,0,1-9.916,21.732l3.685,14.758,9.436-10.246s9.436-32.408,14.361-45.942,5.734-26.243,6.61-29.929S609.474,244.91,609.474,244.91Z" transform="translate(-538.858 -128.46)" fill="#263238" stroke="#263238" stroke-linecap="round" stroke-linejoin="round" stroke-width="1"/>
        <path id="Path_1867" data-name="Path 1867" d="M596.293,247.071s-12.312,33.63-11.9,36.093,6.148,93.5,6.148,93.5,5.751,13.948,31.581,11.9,45.909-5.751,45.909-5.751-7.784-30.755-14.758-44.7-10.659-22.145-10.659-28.706S639.74,258.969,638.1,252a36.439,36.439,0,0,0-3.7-10.246l-2.446-2.049Z" transform="translate(-522.801 -131.86)" fill="#0129ff" stroke="#263238" stroke-linecap="round" stroke-linejoin="round" stroke-width="1"/>
        <path id="Path_1868" data-name="Path 1868" d="M585.63,286.35l20.1,49.215s-8.263,3.305-11.072,6.148a66.237,66.237,0,0,1-4.958,4.512Z" transform="translate(-521.988 -101.416)" fill="#0129ff" stroke="#263238" stroke-linecap="round" stroke-linejoin="round" stroke-width="1"/>
        <path id="Path_1869" data-name="Path 1869" d="M611.149,208.4s-12.709,10.246-12.709,13.122-3.305,6.974-3.305,6.974-6.61.826-6.974,3.305,2.049,7.387,2.049,7.387-4.1,13.948-2.446,17.22,13.518,3.7,13.518,3.7l.413,9.023,28.309-4.512-.413-6.974s15.171-16.41,22.558-23.384S650.1,215,641.078,205.561s-30.358-9.436-31.994-4.512a6.313,6.313,0,0,0,2.066,7.354Z" transform="translate(-520.851 -159.214)" fill="#fff" stroke="#263238" stroke-linecap="round" stroke-linejoin="round" stroke-width="1"/>
        <path id="Path_1870" data-name="Path 1870" d="M595.31,213.374a5.652,5.652,0,0,1,5.734.413" transform="translate(-515.671 -149.427)" fill="none" stroke="#263238" stroke-linecap="round" stroke-linejoin="round" stroke-width="1"/>
        <path id="Path_1871" data-name="Path 1871" d="M595.629,217.573c-.314,1.322-.116,2.512.43,2.628s1.256-.826,1.57-2.148.116-2.5-.43-2.628S595.943,216.251,595.629,217.573Z" transform="translate(-515.56 -147.71)" fill="#263238"/>
        <path id="Path_1872" data-name="Path 1872" d="M632.694,205.541c-9.023-9.436-30.358-9.436-31.994-4.512a6.313,6.313,0,0,0,2.049,7.387s13.948,1.653,11.9,5.338-9.023,3.685-7.387,6.148,7.387,7.784,5.338,9.023-3.305,3.685-2.049,4.512,3.305-1.239,8.263-.413,3.685,12.3-.826,13.948-6.61-.413,1.653,6.974a10.36,10.36,0,0,0,3.305,1.95c4.1-4.412,15.022-16.047,20.938-21.649C651.071,227.273,641.717,214.977,632.694,205.541Z" transform="translate(-512.451 -159.228)" fill="#263238" stroke="#263238" stroke-linecap="round" stroke-linejoin="round" stroke-width="1"/>
        <path id="Path_1873" data-name="Path 1873" d="M613.822,228.926l-7.387-1.636-4.925,3.685" transform="translate(-511.625 -139.959)" fill="none" stroke="#263238" stroke-linecap="round" stroke-linejoin="round" stroke-width="1"/>
        <path id="Path_1874" data-name="Path 1874" d="M630.041,235.23l-37.729,10.246-2.462,7.8,44.7-8.2Z" transform="translate(-519.234 -134.777)" fill="#0129ff" stroke="#263238" stroke-linecap="round" stroke-linejoin="round" stroke-width="1"/>
        <path id="Path_1875" data-name="Path 1875" d="M561.006,211.322l-1.24-8.61s3.685-11.882,3.685-14.758-2.859-9.436-2.859-11.072-2.462-4.1-3.305-.826-2.462,15.584-2.462,15.584-5.321,9.023-4.958,13.535,4.5,13.948,4.5,13.948l7.387-4.512Z" transform="translate(-545.339 -174.445)" fill="#fff" stroke="#263238" stroke-linecap="round" stroke-linejoin="round" stroke-width="1"/>
        <path id="Path_1876" data-name="Path 1876" d="M565.811,203.337l-5.321-6.577-9.849,7.8,5.734,9.85Z" transform="translate(-544.823 -159.883)" fill="#fff" stroke="#263238" stroke-linecap="round" stroke-linejoin="round" stroke-width="1"/>
        <path id="Path_1877" data-name="Path 1877" d="M654.571,286.539a30.936,30.936,0,0,0-14.361-16,125.6,125.6,0,0,0-21.732-8.263L562.7,198.72,551.63,209.792s23.384,48.8,27.9,57,56.585,64.452,56.585,64.452" transform="translate(-544.177 -158.604)" fill="#0129ff" stroke="#263238" stroke-linecap="round" stroke-linejoin="round" stroke-width="1"/>
      </g>
      <g id="freepik--character-2--inject-2" transform="translate(887.68 413.874)">
        <path id="Path_1878" data-name="Path 1878" d="M323.8,414.44s-7.85,11.155-9.5,17.352-1.239,14.46,2.892,13.634,13.634-11.155,14.46-14.047,3.718-16.113,3.718-16.113l-9.916-.826Z" transform="translate(-313.392 -66.124)" fill="#fff" stroke="#263238" stroke-linecap="round" stroke-linejoin="round" stroke-width="1"/>
        <path id="Path_1879" data-name="Path 1879" d="M405.44,419.016s0,11.568,2.479,13.221,19.418,8.676,24.376,9.089,6.61-.413,3.718-6.2S416.6,418.19,416.6,418.19Z" transform="translate(-253.322 -63.677)" fill="#fff" stroke="#263238" stroke-linecap="round" stroke-linejoin="round" stroke-width="1"/>
        <path id="Path_1880" data-name="Path 1880" d="M360.255,300.44l-9.5,40.076-4.958,75.193s-18.179,31.4-19.831,42.968-7.024,35.118-7.024,35.118,7.437,3.305,8.676,3.305,16.113-21.484,24.376-29.747,26.855-43.794,27.681-45.447,14.047-54.123,14.873-55.775,5.784-3.718,5.784-3.718,24.888,35.779,27.9,38.787c4.809,4.809,12.593,16.989,12.593,16.989S457.759,485.531,459,488.837a44.059,44.059,0,0,1,1.653,9.5l15.286,3.305s1.239-45.033.413-55.775-4.132-33.878-4.132-33.878-25.2-69-26.442-70.649-8.676-18.179-8.676-18.179l-2.479-15.7A95.42,95.42,0,0,1,390,309.116C365.213,304.158,360.255,300.44,360.255,300.44Z" transform="translate(-309.772 -140.521)" fill="#263238" stroke="#263238" stroke-linecap="round" stroke-linejoin="round" stroke-width="1"/>
        <path id="Path_1881" data-name="Path 1881" d="M379.33,233.481a275.232,275.232,0,0,1-27.9,16.179c-12.675,6.065-15.7,12.13-15.7,15.154s-11.023,53.164-10.2,55.908,8.263,6.891,12.956,8,11.287-.281,12.659-1.388,5.784-19.831,5.784-19.831-2.479,33.878-3.57,38.291,9.089,15.7,19,17.633,36.622,1.917,43.513-.281,11.568-2.76,13.766-6.891,3.586-33.6,3.867-35.531S436,301.172,436,301.172l7.156,24.244,2.76,4.958s1.372-3.041,9.916-8,11.287-5.5,11.287-5.5-4.958-16.245-7.982-25.615-6.065-26.442-9.916-33.333-10.742-9.916-20.112-15.7-23.136-9.089-24.789-9.916S387.94,230.259,379.33,233.481Z" transform="translate(-305.495 -185.592)" fill="#fff" stroke="#263238" stroke-linecap="round" stroke-linejoin="round" stroke-width="1"/>
        <line id="Line_395" data-name="Line 395" y1="20.145" x2="5.817" transform="translate(51.442 101.764)" fill="none" stroke="#263238" stroke-linecap="round" stroke-linejoin="round" stroke-width="1"/>
        <line id="Line_396" data-name="Line 396" y1="4.561" x2="0.992" transform="translate(134.535 92.212)" fill="none" stroke="#263238" stroke-linecap="round" stroke-linejoin="round" stroke-width="1"/>
        <line id="Line_397" data-name="Line 397" y1="14.675" x2="3.156" transform="translate(130.502 100.905)" fill="none" stroke="#263238" stroke-linecap="round" stroke-linejoin="round" stroke-width="1"/>
        <path id="Path_1882" data-name="Path 1882" d="M362.44,256.182l5.784,8.263,3.305,7.437-8.263,68.583,11.568,10.742,9.089-11.981-8.263-66.517,4.958-9.5,6.594-10.792-11.965-6.974Z" transform="translate(-281.384 -176.414)" fill="#0129ff" stroke="#263238" stroke-linecap="round" stroke-linejoin="round" stroke-width="1"/>
        <path id="Path_1883" data-name="Path 1883" d="M362.929,232.568s-5.734,1.5-6.99,4.958.5,24.475,2.247,28.97a80.061,80.061,0,0,0,4.958,9.8s15.336-9.8,18.079-10.3,18.493,7.751,18.493,7.751.5-9.75-4.958-23.483-18.179-21.484-23.731-22A8.478,8.478,0,0,0,362.929,232.568Z" transform="translate(-285.905 -187.637)" fill="#fff" stroke="#263238" stroke-linecap="round" stroke-linejoin="round" stroke-width="1"/>
        <path id="Path_1884" data-name="Path 1884" d="M358.62,230.81s.76,8.742,1.5,14.725,10,25.748,13.221,28.491,9.916-6.247,12.246-10.246a45.5,45.5,0,0,1,3.305-5.239s-15.981-7.751-20.971-16.741-4.512-13.221-6.759-13.5S358.62,230.81,358.62,230.81Z" transform="translate(-283.876 -187.614)" fill="#fff" stroke="#263238" stroke-linecap="round" stroke-linejoin="round" stroke-width="1"/>
        <path id="Path_1885" data-name="Path 1885" d="M363.5,242.81l12.279,19.831s5.652-5.222,6.61-8.263S363.5,242.81,363.5,242.81Z" transform="translate(-280.692 -178.13)" fill="#263238" stroke="#263238" stroke-linecap="round" stroke-linejoin="round" stroke-width="1"/>
        <path id="Path_1886" data-name="Path 1886" d="M356.21,226.391a20.164,20.164,0,0,0-1.173,8.974c.38,5.47,3.5,9.37,5.074,9.75a22.808,22.808,0,0,0,4.3.4s.38,9.75,4.677,16.394,18.741,16,23.021,11.32,9.767-23.417,11.717-32.391a163.522,163.522,0,0,0,2.727-17.567l-28.871-6.61-13.667-3.107Z" transform="translate(-286.276 -197.225)" fill="#fff" stroke="#263238" stroke-linecap="round" stroke-linejoin="round" stroke-width="1"/>
        <path id="Path_1887" data-name="Path 1887" d="M372.785,229s1.57,5.074-1.553,8.263-4.3,3.123-4.3,3.123.777,5.073-.4,5.073a3.834,3.834,0,0,1-3.9-3.917,11.4,11.4,0,0,0-1.95-5.85l-4.677-2.727a39.514,39.514,0,0,1,.38-17.171c2.347-8.974,19.121-12.494,33.184-12.1s17.551,18.344,17.551,18.344a67.011,67.011,0,0,1,8.594,4.677c1.173,1.173,2.347,3.9-4.3,7.42s-18.344,4.677-25.367,1.95A74.051,74.051,0,0,1,372.785,229Z" transform="translate(-286.077 -203.672)" fill="#263238" stroke="#263238" stroke-linecap="round" stroke-linejoin="round" stroke-width="1"/>
        <path id="Path_1888" data-name="Path 1888" d="M372.719,232.767c-.463,1.454-1.4,2.446-2.132,2.231s-.942-1.653-.5-3.041,1.4-2.446,2.115-2.214S373.165,231.329,372.719,232.767Z" transform="translate(-276.542 -186.679)" fill="#263238"/>
        <path id="Path_1889" data-name="Path 1889" d="M382.536,233.532c-.446,1.454-1.4,2.446-2.115,2.214s-.958-1.653-.512-3.024,1.4-2.446,2.132-2.231S382.982,232.077,382.536,233.532Z" transform="translate(-270.13 -186.188)" fill="#263238"/>
        <path id="Path_1890" data-name="Path 1890" d="M368,229.628s2.512-3.751,8.263-2.248" transform="translate(-277.755 -188.432)" fill="none" stroke="#263238" stroke-linecap="round" stroke-linejoin="round" stroke-width="1"/>
        <path id="Path_1891" data-name="Path 1891" d="M378.73,228.844a5.09,5.09,0,0,1,7.486.512" transform="translate(-270.753 -188.16)" fill="none" stroke="#263238" stroke-linecap="round" stroke-linejoin="round" stroke-width="1"/>
        <path id="Path_1892" data-name="Path 1892" d="M379.671,239.18a24.79,24.79,0,0,0-6.99,1.239c-3.751,1.256-9.238-.248-6.743,3.008s7.238,4.247,12.229,4.247,9.5-.248,11.006-2.5,3.735-4.5,2-4.759-8.494-.744-9.255-.744a10.444,10.444,0,0,1-2.247-.5Z" transform="translate(-279.511 -180.499)" fill="#263238" stroke="#263238" stroke-linecap="round" stroke-linejoin="round" stroke-width="1"/>
        <path id="Path_1893" data-name="Path 1893" d="M382.34,230.41s-.5,13.733-.992,16.245a3.305,3.305,0,0,1-6,1.487,34.2,34.2,0,0,1-4-6.743" transform="translate(-275.569 -186.223)" fill="#fff" stroke="#263238" stroke-linecap="round" stroke-linejoin="round" stroke-width="1"/>
        <path id="Path_1894" data-name="Path 1894" d="M419.152,279.483s-11.9,1.95-16.857,5.255-6.693,6.181-5.454,9.354a47.083,47.083,0,0,0,4.131,8.941c2.066,3.305,5.784.826,5.784.826a3.652,3.652,0,0,1,.413-5.371c2.892-2.892,13.634-7.024,13.634-7.024h3.718c1.653,0,0-4.545-1.239-6.61S422.044,278.656,419.152,279.483Z" transform="translate(-259.184 -154.268)" fill="#fff" stroke="#263238" stroke-linecap="round" stroke-linejoin="round" stroke-width="1"/>
        <path id="Path_1895" data-name="Path 1895" d="M325.44,291.44s0,11.981.826,23.963,10.742,45.447,10.742,45.447l9.916-2.479s-.413-31.4-.413-41.315-.413-21.9-.413-21.9Z" transform="translate(-305.53 -146.394)" fill="#fff" stroke="#263238" stroke-linecap="round" stroke-linejoin="round" stroke-width="1"/>
        <path id="Path_1896" data-name="Path 1896" d="M324.453,287.431a2.991,2.991,0,0,1,4.726-2.066,21.385,21.385,0,0,0,9.056,3.388,41.727,41.727,0,0,0,11.981.38,2.413,2.413,0,0,1,2.628,3.09c-1.041,3.421-2.611,8.081-3.867,9.337-2.066,2.066-11.981,2.066-16.939.413s-6.2-2.892-7.437-7.024a21.484,21.484,0,0,1-.149-7.519Z" transform="translate(-306.344 -150.731)" fill="#fff" stroke="#263238" stroke-linecap="round" stroke-linejoin="round" stroke-width="1"/>
        <path id="Path_1897" data-name="Path 1897" d="M441.593,315.843a18.079,18.079,0,0,1,4.958-7.85c3.718-3.305,5.371-4.131,1.653-4.545s-8.263,5.371-8.263,5.371Z" transform="translate(-230.807 -138.571)" fill="#fff" stroke="#263238" stroke-linecap="round" stroke-linejoin="round" stroke-width="1"/>
        <path id="Path_1898" data-name="Path 1898" d="M402.8,299.085a31.847,31.847,0,0,0,8.676,6.2c6.2,3.305,37.184,20.244,37.184,20.244l11.155-6.61s-17.352-7.85-25.2-16.113-14.047-16.113-14.047-16.113S399.908,287.929,402.8,299.085Z" transform="translate(-255.226 -149.494)" fill="#fff" stroke="#263238" stroke-linecap="round" stroke-linejoin="round" stroke-width="1"/>
        <path id="Path_1899" data-name="Path 1899" d="M427.19,309.732s1.653,8.676,4.545,9.089,16.939-.826,18.179-3.305,2.066-11.155,0-11.568S427.19,309.732,427.19,309.732Z" transform="translate(-239.128 -138.244)" fill="#fff" stroke="#263238" stroke-linecap="round" stroke-linejoin="round" stroke-width="1"/>
        <path id="Path_1900" data-name="Path 1900" d="M338.044,343.354a18.178,18.178,0,0,0-7.42-5.6c-4.644-1.768-6.478-1.967-3.14-3.669S337.1,336.2,337.1,336.2Z" transform="translate(-305.309 -118.851)" fill="#fff" stroke="#263238" stroke-linecap="round" stroke-linejoin="round" stroke-width="1"/>
        <path id="Path_1901" data-name="Path 1901" d="M354.207,331.39s1.52,8.693-1.041,10.1-16.129,5.206-18.179,3.305-5.883-9.717-4.082-10.825S354.207,331.39,354.207,331.39Z" transform="translate(-302.269 -120.323)" fill="#fff" stroke="#263238" stroke-linecap="round" stroke-linejoin="round" stroke-width="1"/>
      </g>
      <g id="freepik--Plants--inject-2" transform="translate(435.927 652.703)">
        <path id="Path_1902" data-name="Path 1902" d="M96.269,378.731s1.438-5.206,1.471-5.536c.562-3.95-.694-11.882-4.71-13.832a5.288,5.288,0,0,0-7.189,3.19c-1.074,2.958.3,6.61,1.9,9.073C89.658,374.566,96.269,378.731,96.269,378.731Z" transform="translate(-10.39 -341.199)" fill="#263238"/>
        <path id="Path_1903" data-name="Path 1903" d="M46.819,375.065c3.206,1.4,11.023,1.223,11.039,1.223s-1.653-5.123-1.834-5.437c-1.653-3.586-7.156-9.519-11.568-8.924a5.272,5.272,0,0,0-4.231,6.61C40.953,371.594,44.093,373.875,46.819,375.065Z" transform="translate(-40.034 -339.252)" fill="#263238"/>
        <path id="Path_1904" data-name="Path 1904" d="M49.276,406.676c3.305.479,10.3-1.537,10.858-1.653a91.625,91.625,0,0,0,4.231,11.717c.959,2.231,2,4.429,3.057,6.61-.628-.942-1.206-1.768-1.306-1.884-2.595-3.008-9.4-7.288-13.5-5.553a5.288,5.288,0,0,0-2.347,7.5c1.52,2.76,5.156,4.115,8.1,4.545s8.974-1.173,10.544-1.653c.43.843.826,1.653,1.256,2.528,2.016,4.032,4.065,8.048,5.933,12.031.661,1.4,1.256,2.826,1.867,4.231-.562-.826-1.058-1.52-1.14-1.653-2.595-3.008-9.4-7.3-13.5-5.553a5.288,5.288,0,0,0-2.347,7.486c1.52,2.743,5.156,4.115,8.1,4.545s8.379-1.025,10.263-1.537c.578,1.454,1.157,2.925,1.653,4.363.314.992.678,1.934.942,2.942s.562,1.983.826,2.958c.463,1.917.942,3.867,1.339,5.751.3,1.289.545,2.529.793,3.784-.645-1.4-1.95-4.131-2.082-4.346-2.132-3.305-8.263-8.643-12.527-7.552a5.272,5.272,0,0,0-3.437,7.057c1.074,2.958,4.462,4.859,7.3,5.734,3.123.958,10.064.083,10.924,0,.413,2.066.793,4.082,1.14,6,.694,3.983,1.239,7.585,1.653,10.659h2.909c-.5-3.19-1.14-6.957-1.967-11.155-.413-2.1-.909-4.346-1.421-6.61a56.749,56.749,0,0,0,6.1-2.875c2.281,2.479,8.131,5.371,8.891,5.734-.793,1.95-1.653,3.851-2.363,5.635-1.52,3.487-2.975,6.61-4.264,9.288h3.14c1.107-2.446,2.314-5.222,3.553-8.263.81-1.983,1.653-4.132,2.479-6.329.843.182,7.7,1.57,10.907.843,2.892-.645,6.412-2.281,7.718-5.156a5.272,5.272,0,0,0-2.842-7.272c-4.214-1.421-10.676,3.305-13.039,6.611-.132.2-1.421,2.413-2.214,3.818.347-.892.678-1.768,1.008-2.694.678-1.851,1.306-3.7,1.967-5.685l.892-2.958c.314-.975.512-2.049.793-3.09.578-2.413,1.041-4.958,1.454-7.387,1.653.578,7.354,2.595,10.345,2.38s6.61-1.306,8.4-3.933a5.272,5.272,0,0,0-1.768-7.652c-3.966-2.049-11.072,1.653-13.882,4.528-.182.182-1.983,2.413-2.942,3.669.231-1.5.479-3.008.661-4.545.545-4.412.975-8.908,1.4-13.386.132-1.372.281-2.743.43-4.1.562.215,7.354,2.727,10.692,2.5,2.975-.2,6.693-1.289,8.412-3.933a5.272,5.272,0,0,0-1.785-7.652c-3.95-2.049-11.056,1.653-13.882,4.528-.215.215-2.793,3.454-3.421,4.3.331-3.008.678-6,1.124-8.941a97.173,97.173,0,0,1,2.5-11.882c.264.1,7.338,2.776,10.758,2.529,2.958-.2,6.61-1.289,8.4-3.933a5.272,5.272,0,0,0-1.768-7.652c-3.966-2.049-11.056,1.653-13.882,4.528-.182.2-2.165,2.644-3.074,3.834l-.215-.116a66.829,66.829,0,0,1,4.677-11.172c1.008-1.983,2.082-3.834,3.173-5.6,1.273.645,7.09,3.471,10.2,3.586s6.776-.545,8.775-2.991a5.272,5.272,0,0,0-.925-7.8c-3.7-2.462-11.188.512-14.3,2.991-.165.132-1.653,1.653-2.859,2.842.5-.793,1.008-1.653,1.5-2.363,1.867-2.809,3.751-5.255,5.437-7.42.959-1.223,1.851-2.314,2.71-3.305,1.653,0,7.883-.215,10.626-1.5s5.784-3.636,6.429-6.71a5.272,5.272,0,0,0-4.412-6.495c-4.429-.479-9.7,5.6-11.32,9.238-.149.314-1.768,5.487-1.653,5.487h.1c-.843.958-1.735,1.983-2.677,3.14-1.653,2.132-3.669,4.545-5.6,7.338a88.559,88.559,0,0,0-5.817,9.255,69.84,69.84,0,0,0-4.958,11.188s0,0,0,.132v-5.239c-.5-3.95-3.818-11.271-8.263-12.081a5.255,5.255,0,0,0-6.082,4.958c-.264,3.14,2.016,6.28,4.231,8.263,2.5,2.231,9.436,4.4,9.916,4.561a93.936,93.936,0,0,0-2.876,12.081c-.413,2.38-.777,4.809-1.091,7.222v-2.281c-.512-3.933-3.818-11.271-8.263-12.081a5.272,5.272,0,0,0-6.082,4.958c-.248,3.14,2.016,6.28,4.231,8.263s8.147,3.966,9.7,4.479l-.347,2.793c-.529,4.479-1.041,8.941-1.653,13.3-.231,1.537-.512,3.041-.777,4.561v-1.983c-.512-3.95-3.818-11.271-8.263-12.081a5.255,5.255,0,0,0-6.082,4.958c-.264,3.14,2.016,6.28,4.231,8.263s7.569,3.768,9.42,4.379c-.331,1.537-.645,3.074-1.025,4.545-.3,1.008-.5,1.983-.843,2.975l-.942,2.942c-.678,1.834-1.355,3.735-2.049,5.52-.479,1.239-.959,2.413-1.438,3.6.248-1.537.661-4.545.661-4.793a20.442,20.442,0,0,0-2.743-9.916,7.006,7.006,0,0,0,0-1.173,5.272,5.272,0,0,0-6.445-4.478c-4.313,1.157-7.04,8.726-7.255,12.692,0,.231.149,2.793.281,4.412-.231-.942-.43-1.851-.661-2.809-.446-1.917-.959-3.8-1.487-5.834l-.892-2.942c-.281-.992-.711-2.016-1.041-3.024-.859-2.33-1.834-4.644-2.876-6.957,1.653-.4,7.569-1.9,9.916-3.735s4.859-4.76,4.826-7.916a5.272,5.272,0,0,0-5.8-5.387c-4.446.479-8.263,7.552-9.089,11.453,0,.231-.314,3.107-.43,4.677-.628-1.388-1.256-2.776-1.95-4.148-1.983-4-4.1-7.982-6.214-11.948-.645-1.223-1.273-2.446-1.9-3.669.595-.132,7.635-1.768,10.3-3.8,2.363-1.818,4.859-4.776,4.842-7.916a5.272,5.272,0,0,0-5.768-5.387c-4.429.479-8.263,7.536-9.089,11.436,0,.3-.43,4.412-.463,5.47-1.4-2.694-2.776-5.387-4.016-8.081a94.349,94.349,0,0,1-4.313-11.271c.281,0,7.652-1.653,10.362-3.818,2.363-1.818,4.859-4.776,4.842-7.916a5.272,5.272,0,0,0-5.7-5.4c-4.429.479-8.263,7.536-9.073,11.436,0,.264-.347,3.4-.446,4.958h-.248a67.758,67.758,0,0,1-2.281-11.915c-.248-2.214-.364-4.346-.413-6.412,1.4-.182,7.8-1.025,10.461-2.628s5.354-4.214,5.685-7.354a5.272,5.272,0,0,0-5.073-5.982c-4.462,0-9.056,6.61-10.3,10.362,0,.215-.512,2.38-.81,3.966v-2.809c0-3.305.231-6.445.43-9.188.132-1.553.3-2.958.446-4.264,1.289-.876,6.445-4.528,8.032-7.123s2.809-6.214,1.653-9.139a5.255,5.255,0,0,0-7.255-2.975c-3.966,2.049-4.958,10.015-4.346,13.948a55.09,55.09,0,0,0,1.653,5.5h0c-.182,1.256-.347,2.611-.512,4.1-.264,2.727-.545,5.817-.628,9.205a88.236,88.236,0,0,0,.264,10.924,67.278,67.278,0,0,0,2.016,12.081v.132c-.711-1.107-2.776-4.115-2.958-4.33-2.595-3.008-9.4-7.3-13.5-5.553a5.272,5.272,0,0,0-2.347,7.486C42.7,404.875,46.334,406.246,49.276,406.676Z" transform="translate(-39.78 -348.189)" fill="#263238"/>
        <path id="Path_1905" data-name="Path 1905" d="M46.819,375.065c3.206,1.4,11.023,1.223,11.039,1.223s-1.653-5.123-1.834-5.437c-1.653-3.586-7.156-9.519-11.568-8.924a5.272,5.272,0,0,0-4.231,6.61C40.953,371.594,44.093,373.875,46.819,375.065Z" transform="translate(-40.034 -339.252)" fill="#263238" opacity="0.3"/>
        <path id="Path_1906" data-name="Path 1906" d="M96.269,378.731s1.438-5.206,1.471-5.536c.562-3.95-.694-11.882-4.71-13.832a5.288,5.288,0,0,0-7.189,3.19c-1.074,2.958.3,6.61,1.9,9.073C89.658,374.566,96.269,378.731,96.269,378.731Z" transform="translate(-10.39 -341.199)" fill="#263238" opacity="0.3"/>
        <path id="Path_1907" data-name="Path 1907" d="M49.276,406.676c3.305.479,10.3-1.537,10.858-1.653a91.625,91.625,0,0,0,4.231,11.717c.959,2.231,2,4.429,3.057,6.61-.628-.942-1.206-1.768-1.306-1.884-2.595-3.008-9.4-7.288-13.5-5.553a5.288,5.288,0,0,0-2.347,7.5c1.52,2.76,5.156,4.115,8.1,4.545s8.974-1.173,10.544-1.653c.43.843.826,1.653,1.256,2.528,2.016,4.032,4.065,8.048,5.933,12.031.661,1.4,1.256,2.826,1.867,4.231-.562-.826-1.058-1.52-1.14-1.653-2.595-3.008-9.4-7.3-13.5-5.553a5.288,5.288,0,0,0-2.347,7.486c1.52,2.743,5.156,4.115,8.1,4.545s8.379-1.025,10.263-1.537c.578,1.454,1.157,2.925,1.653,4.363.314.992.678,1.934.942,2.942s.562,1.983.826,2.958c.463,1.917.942,3.867,1.339,5.751.3,1.289.545,2.529.793,3.784-.645-1.4-1.95-4.131-2.082-4.346-2.132-3.305-8.263-8.643-12.527-7.552a5.272,5.272,0,0,0-3.437,7.057c1.074,2.958,4.462,4.859,7.3,5.734,3.123.958,10.064.083,10.924,0,.413,2.066.793,4.082,1.14,6,.694,3.983,1.239,7.585,1.653,10.659h2.909c-.5-3.19-1.14-6.957-1.967-11.155-.413-2.1-.909-4.346-1.421-6.61a56.749,56.749,0,0,0,6.1-2.875c2.281,2.479,8.131,5.371,8.891,5.734-.793,1.95-1.653,3.851-2.363,5.635-1.52,3.487-2.975,6.61-4.264,9.288h3.14c1.107-2.446,2.314-5.222,3.553-8.263.81-1.983,1.653-4.132,2.479-6.329.843.182,7.7,1.57,10.907.843,2.892-.645,6.412-2.281,7.718-5.156a5.272,5.272,0,0,0-2.842-7.272c-4.214-1.421-10.676,3.305-13.039,6.611-.132.2-1.421,2.413-2.214,3.818.347-.892.678-1.768,1.008-2.694.678-1.851,1.306-3.7,1.967-5.685l.892-2.958c.314-.975.512-2.049.793-3.09.578-2.413,1.041-4.958,1.454-7.387,1.653.578,7.354,2.595,10.345,2.38s6.61-1.306,8.4-3.933a5.272,5.272,0,0,0-1.768-7.652c-3.966-2.049-11.072,1.653-13.882,4.528-.182.182-1.983,2.413-2.942,3.669.231-1.5.479-3.008.661-4.545.545-4.412.975-8.908,1.4-13.386.132-1.372.281-2.743.43-4.1.562.215,7.354,2.727,10.692,2.5,2.975-.2,6.693-1.289,8.412-3.933a5.272,5.272,0,0,0-1.785-7.652c-3.95-2.049-11.056,1.653-13.882,4.528-.215.215-2.793,3.454-3.421,4.3.331-3.008.678-6,1.124-8.941a97.173,97.173,0,0,1,2.5-11.882c.264.1,7.338,2.776,10.758,2.529,2.958-.2,6.61-1.289,8.4-3.933a5.272,5.272,0,0,0-1.768-7.652c-3.966-2.049-11.056,1.653-13.882,4.528-.182.2-2.165,2.644-3.074,3.834l-.215-.116a66.829,66.829,0,0,1,4.677-11.172c1.008-1.983,2.082-3.834,3.173-5.6,1.273.645,7.09,3.471,10.2,3.586s6.776-.545,8.775-2.991a5.272,5.272,0,0,0-.925-7.8c-3.7-2.462-11.188.512-14.3,2.991-.165.132-1.653,1.653-2.859,2.842.5-.793,1.008-1.653,1.5-2.363,1.867-2.809,3.751-5.255,5.437-7.42.959-1.223,1.851-2.314,2.71-3.305,1.653,0,7.883-.215,10.626-1.5s5.784-3.636,6.429-6.71a5.272,5.272,0,0,0-4.412-6.495c-4.429-.479-9.7,5.6-11.32,9.238-.149.314-1.768,5.487-1.653,5.487h.1c-.843.958-1.735,1.983-2.677,3.14-1.653,2.132-3.669,4.545-5.6,7.338a88.559,88.559,0,0,0-5.817,9.255,69.84,69.84,0,0,0-4.958,11.188s0,0,0,.132v-5.239c-.5-3.95-3.818-11.271-8.263-12.081a5.255,5.255,0,0,0-6.082,4.958c-.264,3.14,2.016,6.28,4.231,8.263,2.5,2.231,9.436,4.4,9.916,4.561a93.936,93.936,0,0,0-2.876,12.081c-.413,2.38-.777,4.809-1.091,7.222v-2.281c-.512-3.933-3.818-11.271-8.263-12.081a5.272,5.272,0,0,0-6.082,4.958c-.248,3.14,2.016,6.28,4.231,8.263s8.147,3.966,9.7,4.479l-.347,2.793c-.529,4.479-1.041,8.941-1.653,13.3-.231,1.537-.512,3.041-.777,4.561v-1.983c-.512-3.95-3.818-11.271-8.263-12.081a5.255,5.255,0,0,0-6.082,4.958c-.264,3.14,2.016,6.28,4.231,8.263s7.569,3.768,9.42,4.379c-.331,1.537-.645,3.074-1.025,4.545-.3,1.008-.5,1.983-.843,2.975l-.942,2.942c-.678,1.834-1.355,3.735-2.049,5.52-.479,1.239-.959,2.413-1.438,3.6.248-1.537.661-4.545.661-4.793a20.442,20.442,0,0,0-2.743-9.916,7.006,7.006,0,0,0,0-1.173,5.272,5.272,0,0,0-6.445-4.478c-4.313,1.157-7.04,8.726-7.255,12.692,0,.231.149,2.793.281,4.412-.231-.942-.43-1.851-.661-2.809-.446-1.917-.959-3.8-1.487-5.834l-.892-2.942c-.281-.992-.711-2.016-1.041-3.024-.859-2.33-1.834-4.644-2.876-6.957,1.653-.4,7.569-1.9,9.916-3.735s4.859-4.76,4.826-7.916a5.272,5.272,0,0,0-5.8-5.387c-4.446.479-8.263,7.552-9.089,11.453,0,.231-.314,3.107-.43,4.677-.628-1.388-1.256-2.776-1.95-4.148-1.983-4-4.1-7.982-6.214-11.948-.645-1.223-1.273-2.446-1.9-3.669.595-.132,7.635-1.768,10.3-3.8,2.363-1.818,4.859-4.776,4.842-7.916a5.272,5.272,0,0,0-5.768-5.387c-4.429.479-8.263,7.536-9.089,11.436,0,.3-.43,4.412-.463,5.47-1.4-2.694-2.776-5.387-4.016-8.081a94.349,94.349,0,0,1-4.313-11.271c.281,0,7.652-1.653,10.362-3.818,2.363-1.818,4.859-4.776,4.842-7.916a5.272,5.272,0,0,0-5.7-5.4c-4.429.479-8.263,7.536-9.073,11.436,0,.264-.347,3.4-.446,4.958h-.248a67.758,67.758,0,0,1-2.281-11.915c-.248-2.214-.364-4.346-.413-6.412,1.4-.182,7.8-1.025,10.461-2.628s5.354-4.214,5.685-7.354a5.272,5.272,0,0,0-5.073-5.982c-4.462,0-9.056,6.61-10.3,10.362,0,.215-.512,2.38-.81,3.966v-2.809c0-3.305.231-6.445.43-9.188.132-1.553.3-2.958.446-4.264,1.289-.876,6.445-4.528,8.032-7.123s2.809-6.214,1.653-9.139a5.255,5.255,0,0,0-7.255-2.975c-3.966,2.049-4.958,10.015-4.346,13.948a55.09,55.09,0,0,0,1.653,5.5h0c-.182,1.256-.347,2.611-.512,4.1-.264,2.727-.545,5.817-.628,9.205a88.236,88.236,0,0,0,.264,10.924,67.278,67.278,0,0,0,2.016,12.081v.132c-.711-1.107-2.776-4.115-2.958-4.33-2.595-3.008-9.4-7.3-13.5-5.553a5.272,5.272,0,0,0-2.347,7.486C42.7,404.875,46.334,406.246,49.276,406.676Z" transform="translate(-39.78 -348.189)" fill="#263238" opacity="0.3"/>
        <path id="Path_1908" data-name="Path 1908" d="M703.595,378.731s1.421-5.206,1.471-5.536c.545-3.95-.711-11.882-4.726-13.832a5.288,5.288,0,0,0-7.189,3.19c-1.074,2.958.3,6.61,1.917,9.073C696.952,374.566,703.578,378.731,703.595,378.731Z" transform="translate(385.942 -341.199)" fill="#263238"/>
        <path id="Path_1909" data-name="Path 1909" d="M654.089,375.065c3.206,1.4,11.023,1.223,11.039,1.223s-1.653-5.123-1.834-5.437c-1.653-3.586-7.139-9.519-11.568-8.924a5.272,5.272,0,0,0-4.231,6.61C648.223,371.594,651.363,373.875,654.089,375.065Z" transform="translate(356.272 -339.252)" fill="#263238"/>
        <path id="Path_1910" data-name="Path 1910" d="M656.539,406.631c3.305.479,10.3-1.537,10.858-1.653a94.2,94.2,0,0,0,4.231,11.717c.959,2.231,2,4.429,3.074,6.61l-1.306-1.884c-2.611-3.008-9.42-7.288-13.518-5.553a5.3,5.3,0,0,0-2.347,7.5c1.52,2.76,5.156,4.115,8.1,4.545s8.974-1.173,10.56-1.653l1.24,2.528c2.016,4.032,4.065,8.048,5.933,12.031.661,1.4,1.273,2.826,1.867,4.231-.562-.826-1.041-1.52-1.124-1.653-2.611-3.008-9.42-7.3-13.518-5.553a5.288,5.288,0,0,0-2.347,7.5c1.52,2.743,5.156,4.115,8.1,4.545s8.4-1.025,10.263-1.537c.578,1.454,1.157,2.925,1.653,4.363.314.992.694,1.934.942,2.942s.562,1.983.826,2.958c.463,1.917.942,3.867,1.339,5.751.3,1.289.545,2.529.793,3.784-.628-1.4-1.95-4.131-2.082-4.346-2.115-3.305-8.263-8.643-12.527-7.552a5.272,5.272,0,0,0-3.437,7.057c1.074,2.958,4.462,4.859,7.3,5.734,3.124.958,10.064.083,10.924,0,.413,2.066.81,4.082,1.14,6,.694,3.983,1.24,7.585,1.653,10.659h2.909c-.5-3.19-1.14-6.957-1.967-11.155-.413-2.1-.892-4.346-1.421-6.61a56.759,56.759,0,0,0,6.1-2.875c2.281,2.479,8.131,5.371,8.891,5.734-.793,1.95-1.653,3.851-2.363,5.635-1.52,3.487-2.958,6.61-4.264,9.288h3.156c1.091-2.446,2.3-5.222,3.537-8.263.826-1.983,1.653-4.132,2.479-6.329.843.182,7.7,1.57,10.907.843,2.909-.645,6.412-2.281,7.718-5.156a5.272,5.272,0,0,0-2.925-7.288c-4.214-1.421-10.676,3.305-13.039,6.61-.132.2-1.421,2.413-2.214,3.818.347-.892.677-1.768,1.008-2.694.677-1.851,1.306-3.7,1.967-5.685l.892-2.958c.314-.975.529-2.049.793-3.09.578-2.413,1.041-4.958,1.454-7.387,1.653.578,7.371,2.595,10.345,2.38s6.61-1.306,8.4-3.933a5.272,5.272,0,0,0-1.768-7.652c-3.966-2.049-11.072,1.653-13.882,4.528-.182.182-1.983,2.413-2.942,3.669.231-1.5.479-3.008.661-4.545.562-4.412.975-8.908,1.4-13.386.132-1.372.281-2.743.43-4.1.578.215,7.354,2.727,10.692,2.5,2.975-.2,6.61-1.289,8.412-3.933a5.288,5.288,0,0,0-1.768-7.652c-3.966-2.049-11.073,1.653-13.9,4.528-.215.215-2.793,3.454-3.4,4.3.314-3.008.661-6,1.124-8.941a94.177,94.177,0,0,1,2.562-11.783c.264.1,7.337,2.776,10.758,2.529,2.975-.2,6.693-1.289,8.412-3.933a5.288,5.288,0,0,0-1.785-7.651c-3.95-2.049-11.056,1.653-13.882,4.528-.182.2-2.165,2.644-3.074,3.834l-.215-.116A66.836,66.836,0,0,1,730,392.137c1.008-1.983,2.082-3.834,3.173-5.6,1.273.645,7.09,3.47,10.2,3.586s6.792-.545,8.775-2.991a5.271,5.271,0,0,0-.909-7.8c-3.718-2.462-11.188.512-14.312,2.991-.165.132-1.735,1.653-2.859,2.842.5-.793,1.008-1.653,1.5-2.363,1.867-2.809,3.751-5.255,5.437-7.42.959-1.223,1.868-2.314,2.71-3.305,1.653,0,7.883-.215,10.643-1.5s5.768-3.636,6.412-6.71a5.272,5.272,0,0,0-4.412-6.495c-4.429-.479-9.7,5.6-11.32,9.238-.132.314-1.768,5.487-1.653,5.487h.1c-.843.958-1.653,1.983-2.677,3.14-1.653,2.132-3.669,4.545-5.6,7.338a91.364,91.364,0,0,0-5.817,9.255,69.841,69.841,0,0,0-4.958,11.188V397.9c-.512-3.95-3.834-11.271-8.263-12.081a5.255,5.255,0,0,0-6.082,4.958c-.264,3.14,2.016,6.28,4.231,8.263,2.5,2.231,9.453,4.4,9.916,4.561A91.263,91.263,0,0,0,721.3,415.72c-.43,2.38-.793,4.809-1.107,7.222v-2.281c-.512-3.933-3.818-11.271-8.263-12.081a5.288,5.288,0,0,0-6.1,4.958c-.248,3.14,2.016,6.28,4.247,8.263s8.131,3.966,9.684,4.479l-.347,2.793c-.529,4.479-1.041,8.941-1.653,13.3-.231,1.537-.5,3.041-.777,4.561v-1.983c-.512-3.95-3.818-11.271-8.263-12.081a5.255,5.255,0,0,0-6.082,4.958c-.248,3.14,2.016,6.28,4.231,8.263s7.569,3.768,9.42,4.379c-.331,1.537-.645,3.074-1.025,4.545-.3,1.008-.5,1.983-.843,2.975l-.942,2.942c-.677,1.834-1.355,3.735-2.049,5.52-.479,1.24-.958,2.413-1.421,3.6.231-1.537.645-4.545.645-4.792a20.443,20.443,0,0,0-2.743-9.916,7,7,0,0,0,0-1.173,5.288,5.288,0,0,0-6.462-4.479c-4.313,1.157-7.04,8.726-7.238,12.692,0,.231.132,2.793.264,4.412-.215-.942-.43-1.851-.661-2.809-.446-1.917-.958-3.8-1.487-5.834l-.892-2.942c-.281-.992-.694-2.016-1.041-3.024-.859-2.33-1.834-4.644-2.875-6.957,1.653-.4,7.569-1.9,9.916-3.735s4.859-4.76,4.842-7.916a5.288,5.288,0,0,0-5.7-5.4c-4.429.479-8.263,7.552-9.089,11.453,0,.231-.314,3.107-.43,4.677-.628-1.388-1.256-2.776-1.934-4.148-1.983-4-4.115-7.982-6.23-11.948-.645-1.223-1.273-2.446-1.9-3.669.595-.132,7.652-1.768,10.3-3.8,2.363-1.818,4.859-4.776,4.842-7.916a5.272,5.272,0,0,0-5.7-5.4c-4.429.479-8.263,7.536-9.089,11.436,0,.3-.43,4.412-.463,5.47-1.4-2.694-2.76-5.387-4-8.081a91.736,91.736,0,0,1-4.363-11.254c.281,0,7.652-1.653,10.362-3.818,2.363-1.818,4.958-4.776,4.842-7.916a5.272,5.272,0,0,0-5.7-5.4c-4.429.479-8.263,7.536-9.073,11.436,0,.264-.347,3.4-.446,4.958h-.248a67.748,67.748,0,0,1-2.281-11.915c-.248-2.214-.347-4.346-.413-6.412,1.4-.182,7.817-1.025,10.461-2.628s5.354-4.214,5.685-7.354a5.272,5.272,0,0,0-5.073-5.982c-4.462,0-9.056,6.61-10.279,10.362,0,.215-.512,2.38-.826,3.966v-2.809c0-3.305.215-6.445.43-9.188.132-1.553.281-2.958.43-4.264,1.289-.876,6.445-4.528,8.032-7.123s2.826-6.214,1.653-9.139a5.272,5.272,0,0,0-7.271-2.975c-3.966,2.049-4.958,10.015-4.346,13.948a55.1,55.1,0,0,0,1.653,5.5h0c-.182,1.256-.347,2.611-.512,4.1-.264,2.727-.545,5.817-.628,9.205a95.214,95.214,0,0,0,.264,10.924,70.35,70.35,0,0,0,2.016,12.081v.132c-.694-1.107-2.76-4.115-2.958-4.33-2.595-3.008-9.4-7.3-13.5-5.553a5.272,5.272,0,0,0-2.347,7.486C649.962,404.829,653.6,406.2,656.539,406.631Z" transform="translate(356.532 -348.144)" fill="#263238"/>
        <path id="Path_1911" data-name="Path 1911" d="M654.089,375.065c3.206,1.4,11.023,1.223,11.039,1.223s-1.653-5.123-1.834-5.437c-1.653-3.586-7.139-9.519-11.568-8.924a5.272,5.272,0,0,0-4.231,6.61C648.223,371.594,651.363,373.875,654.089,375.065Z" transform="translate(356.272 -339.252)" fill="#263238" opacity="0.3"/>
        <path id="Path_1912" data-name="Path 1912" d="M703.595,378.731s1.421-5.206,1.471-5.536c.545-3.95-.711-11.882-4.726-13.832a5.288,5.288,0,0,0-7.189,3.19c-1.074,2.958.3,6.61,1.917,9.073C696.952,374.566,703.578,378.731,703.595,378.731Z" transform="translate(385.942 -341.199)" fill="#263238" opacity="0.3"/>
        <path id="Path_1913" data-name="Path 1913" d="M656.539,406.631c3.305.479,10.3-1.537,10.858-1.653a94.2,94.2,0,0,0,4.231,11.717c.959,2.231,2,4.429,3.074,6.61l-1.306-1.884c-2.611-3.008-9.42-7.288-13.518-5.553a5.3,5.3,0,0,0-2.347,7.5c1.52,2.76,5.156,4.115,8.1,4.545s8.974-1.173,10.56-1.653l1.24,2.528c2.016,4.032,4.065,8.048,5.933,12.031.661,1.4,1.273,2.826,1.867,4.231-.562-.826-1.041-1.52-1.124-1.653-2.611-3.008-9.42-7.3-13.518-5.553a5.288,5.288,0,0,0-2.347,7.5c1.52,2.743,5.156,4.115,8.1,4.545s8.4-1.025,10.263-1.537c.578,1.454,1.157,2.925,1.653,4.363.314.992.694,1.934.942,2.942s.562,1.983.826,2.958c.463,1.917.942,3.867,1.339,5.751.3,1.289.545,2.529.793,3.784-.628-1.4-1.95-4.131-2.082-4.346-2.115-3.305-8.263-8.643-12.527-7.552a5.272,5.272,0,0,0-3.437,7.057c1.074,2.958,4.462,4.859,7.3,5.734,3.124.958,10.064.083,10.924,0,.413,2.066.81,4.082,1.14,6,.694,3.983,1.24,7.585,1.653,10.659h2.909c-.5-3.19-1.14-6.957-1.967-11.155-.413-2.1-.892-4.346-1.421-6.61a56.759,56.759,0,0,0,6.1-2.875c2.281,2.479,8.131,5.371,8.891,5.734-.793,1.95-1.653,3.851-2.363,5.635-1.52,3.487-2.958,6.61-4.264,9.288h3.156c1.091-2.446,2.3-5.222,3.537-8.263.826-1.983,1.653-4.132,2.479-6.329.843.182,7.7,1.57,10.907.843,2.909-.645,6.412-2.281,7.718-5.156a5.272,5.272,0,0,0-2.925-7.288c-4.214-1.421-10.676,3.305-13.039,6.61-.132.2-1.421,2.413-2.214,3.818.347-.892.677-1.768,1.008-2.694.677-1.851,1.306-3.7,1.967-5.685l.892-2.958c.314-.975.529-2.049.793-3.09.578-2.413,1.041-4.958,1.454-7.387,1.653.578,7.371,2.595,10.345,2.38s6.61-1.306,8.4-3.933a5.272,5.272,0,0,0-1.768-7.652c-3.966-2.049-11.072,1.653-13.882,4.528-.182.182-1.983,2.413-2.942,3.669.231-1.5.479-3.008.661-4.545.562-4.412.975-8.908,1.4-13.386.132-1.372.281-2.743.43-4.1.578.215,7.354,2.727,10.692,2.5,2.975-.2,6.61-1.289,8.412-3.933a5.288,5.288,0,0,0-1.768-7.652c-3.966-2.049-11.073,1.653-13.9,4.528-.215.215-2.793,3.454-3.4,4.3.314-3.008.661-6,1.124-8.941a94.177,94.177,0,0,1,2.562-11.783c.264.1,7.337,2.776,10.758,2.529,2.975-.2,6.693-1.289,8.412-3.933a5.288,5.288,0,0,0-1.785-7.651c-3.95-2.049-11.056,1.653-13.882,4.528-.182.2-2.165,2.644-3.074,3.834l-.215-.116A66.836,66.836,0,0,1,730,392.137c1.008-1.983,2.082-3.834,3.173-5.6,1.273.645,7.09,3.47,10.2,3.586s6.792-.545,8.775-2.991a5.271,5.271,0,0,0-.909-7.8c-3.718-2.462-11.188.512-14.312,2.991-.165.132-1.735,1.653-2.859,2.842.5-.793,1.008-1.653,1.5-2.363,1.867-2.809,3.751-5.255,5.437-7.42.959-1.223,1.868-2.314,2.71-3.305,1.653,0,7.883-.215,10.643-1.5s5.768-3.636,6.412-6.71a5.272,5.272,0,0,0-4.412-6.495c-4.429-.479-9.7,5.6-11.32,9.238-.132.314-1.768,5.487-1.653,5.487h.1c-.843.958-1.653,1.983-2.677,3.14-1.653,2.132-3.669,4.545-5.6,7.338a91.364,91.364,0,0,0-5.817,9.255,69.841,69.841,0,0,0-4.958,11.188V397.9c-.512-3.95-3.834-11.271-8.263-12.081a5.255,5.255,0,0,0-6.082,4.958c-.264,3.14,2.016,6.28,4.231,8.263,2.5,2.231,9.453,4.4,9.916,4.561A91.263,91.263,0,0,0,721.3,415.72c-.43,2.38-.793,4.809-1.107,7.222v-2.281c-.512-3.933-3.818-11.271-8.263-12.081a5.288,5.288,0,0,0-6.1,4.958c-.248,3.14,2.016,6.28,4.247,8.263s8.131,3.966,9.684,4.479l-.347,2.793c-.529,4.479-1.041,8.941-1.653,13.3-.231,1.537-.5,3.041-.777,4.561v-1.983c-.512-3.95-3.818-11.271-8.263-12.081a5.255,5.255,0,0,0-6.082,4.958c-.248,3.14,2.016,6.28,4.231,8.263s7.569,3.768,9.42,4.379c-.331,1.537-.645,3.074-1.025,4.545-.3,1.008-.5,1.983-.843,2.975l-.942,2.942c-.677,1.834-1.355,3.735-2.049,5.52-.479,1.24-.958,2.413-1.421,3.6.231-1.537.645-4.545.645-4.792a20.443,20.443,0,0,0-2.743-9.916,7,7,0,0,0,0-1.173,5.288,5.288,0,0,0-6.462-4.479c-4.313,1.157-7.04,8.726-7.238,12.692,0,.231.132,2.793.264,4.412-.215-.942-.43-1.851-.661-2.809-.446-1.917-.958-3.8-1.487-5.834l-.892-2.942c-.281-.992-.694-2.016-1.041-3.024-.859-2.33-1.834-4.644-2.875-6.957,1.653-.4,7.569-1.9,9.916-3.735s4.859-4.76,4.842-7.916a5.288,5.288,0,0,0-5.7-5.4c-4.429.479-8.263,7.552-9.089,11.453,0,.231-.314,3.107-.43,4.677-.628-1.388-1.256-2.776-1.934-4.148-1.983-4-4.115-7.982-6.23-11.948-.645-1.223-1.273-2.446-1.9-3.669.595-.132,7.652-1.768,10.3-3.8,2.363-1.818,4.859-4.776,4.842-7.916a5.272,5.272,0,0,0-5.7-5.4c-4.429.479-8.263,7.536-9.089,11.436,0,.3-.43,4.412-.463,5.47-1.4-2.694-2.76-5.387-4-8.081a91.736,91.736,0,0,1-4.363-11.254c.281,0,7.652-1.653,10.362-3.818,2.363-1.818,4.958-4.776,4.842-7.916a5.272,5.272,0,0,0-5.7-5.4c-4.429.479-8.263,7.536-9.073,11.436,0,.264-.347,3.4-.446,4.958h-.248a67.748,67.748,0,0,1-2.281-11.915c-.248-2.214-.347-4.346-.413-6.412,1.4-.182,7.817-1.025,10.461-2.628s5.354-4.214,5.685-7.354a5.272,5.272,0,0,0-5.073-5.982c-4.462,0-9.056,6.61-10.279,10.362,0,.215-.512,2.38-.826,3.966v-2.809c0-3.305.215-6.445.43-9.188.132-1.553.281-2.958.43-4.264,1.289-.876,6.445-4.528,8.032-7.123s2.826-6.214,1.653-9.139a5.272,5.272,0,0,0-7.271-2.975c-3.966,2.049-4.958,10.015-4.346,13.948a55.1,55.1,0,0,0,1.653,5.5h0c-.182,1.256-.347,2.611-.512,4.1-.264,2.727-.545,5.817-.628,9.205a95.214,95.214,0,0,0,.264,10.924,70.35,70.35,0,0,0,2.016,12.081v.132c-.694-1.107-2.76-4.115-2.958-4.33-2.595-3.008-9.4-7.3-13.5-5.553a5.272,5.272,0,0,0-2.347,7.486C649.962,404.829,653.6,406.2,656.539,406.631Z" transform="translate(356.532 -348.144)" fill="#263238" opacity="0.3"/>
      </g>
      <g id="freepik--character-1--inject-2" transform="translate(462.617 211.839)">
        <path id="Path_1914" data-name="Path 1914" d="M177.94,363.792s2.066-.413,19-5.371a73.806,73.806,0,0,0,28.921-17.352l-5.371-33.878L186.2,312.148Z" transform="translate(23.274 65.918)" fill="#0129ff" stroke="#263238" stroke-linecap="round" stroke-linejoin="round" stroke-width="1"/>
        <path id="Path_1915" data-name="Path 1915" d="M129.58,410.94s-5.784,11.568-6.61,22.31,5.371,14.46,7.437,11.568,5.371-13.221,5.784-17.765l1.239-13.634Z" transform="translate(-12.649 133.626)" fill="#fff" stroke="#263238" stroke-linecap="round" stroke-linejoin="round" stroke-width="1"/>
        <path id="Path_1916" data-name="Path 1916" d="M219.835,415.44s-1.653,14.873-2.1,21.9S226,450.971,227.222,451.4s2.479,0,4.545-4.958,2.082-16.939.859-20.658-3.7-9.5-3.7-9.5Z" transform="translate(49.234 136.562)" fill="#fff" stroke="#263238" stroke-linecap="round" stroke-linejoin="round" stroke-width="1"/>
        <path id="Path_1917" data-name="Path 1917" d="M221.628,283.69s-16.675,19.831-22.459,36.357-10.395,36.985-14.312,47.925a270.785,270.785,0,0,0-8.263,28.507s-10.742,10.742-13.634,20.244-36.77,79.738-36.77,79.738,2.066,2.892,3.718,3.305,5.371-1.653,5.371-1.653,59.907-78.5,63.625-84.283,15.452-19.17,16.691-21.236,10.577-30.821,13.882-34.953a68.265,68.265,0,0,0,6.412-10.477l2.479,1.653,2.892.413s13.006,26.177,16.311,36.919,12.808,69.409,15.287,80.151,5.784,38.836,5.784,38.836a45.348,45.348,0,0,0,4.545,1.239c2.066.413,7.437-1.239,7.437-1.239s9.5-42.968,9.916-57.841-2.479-47.925-2.479-52.883-7.437-73.128-11.155-82.217S270.793,287,270.793,287Z" transform="translate(-10.499 50.582)" fill="#263238" stroke="#263238" stroke-linecap="round" stroke-linejoin="round" stroke-width="1"/>
        <path id="Path_1918" data-name="Path 1918" d="M208.913,236.44l-24.789,7.85s0,47.925.413,54.123-2.892,16.526-.826,19,11.981,12.395,30.16,12.808,23.136-5.371,23.136-5.371l3.718-16.113s11.981-32.226,11.981-37.184-11.981-19.418-19-25.2S208.913,236.44,208.913,236.44Z" transform="translate(26.592 19.746)" fill="#fff" stroke="#263238" stroke-linecap="round" stroke-linejoin="round" stroke-width="1"/>
        <path id="Path_1919" data-name="Path 1919" d="M179.518,270.69a135.056,135.056,0,0,1-16.526,9.5L129.94,296.719l3.718,7.85a209.91,209.91,0,0,1,24.376-2.892c10.742-.413,28.92-7.437,30.16-9.5s5.371-13.221,5.371-13.221Z" transform="translate(-8.051 42.098)" fill="#fff" stroke="#263238" stroke-linecap="round" stroke-linejoin="round" stroke-width="1"/>
        <path id="Path_1920" data-name="Path 1920" d="M220.673,236.69s-17.766,48.752-18.592,55.775-7.85,24.789-8.263,27.268-11.981,27.681-11.981,27.681,12.395-38.836,13.634-46.686a30.854,30.854,0,0,0-1.653-14.873s-8.379,17.782-9.618,19.021-9.651,15.435-9.651,15.435L159.94,292.878s16.113-28.094,19.418-32.639,10.329-16.939,15.287-19.418S220.673,236.69,220.673,236.69Z" transform="translate(11.527 19.91)" fill="#0129ff" stroke="#263238" stroke-linecap="round" stroke-linejoin="round" stroke-width="1"/>
        <path id="Path_1921" data-name="Path 1921" d="M218.945,240.44s-12.808,53.71-12.808,62.386-1.239,35.531-2.479,50.4-3.718,62.386-3.718,62.386a102.247,102.247,0,0,0,23.963.826c11.568-1.239,31.4-9.089,31.4-9.089S244.973,355.3,240.842,342.9a314.21,314.21,0,0,1-8.676-32.639c0-1.239,11.155-37.6,11.155-42.555S223.49,241.679,218.945,240.44Z" transform="translate(37.631 22.357)" fill="#0129ff" stroke="#263238" stroke-linecap="round" stroke-linejoin="round" stroke-width="1"/>
        <path id="Path_1922" data-name="Path 1922" d="M124.78,293.946a18.178,18.178,0,0,0-1.653-9.122c-2.248-4.429-3.47-5.8.132-4.826s5.718,8.032,5.718,8.032Z" transform="translate(-13.898 47.978)" fill="#fff" stroke="#263238" stroke-linecap="round" stroke-linejoin="round" stroke-width="1"/>
        <path id="Path_1923" data-name="Path 1923" d="M146.538,295.548s-4.726,7.47-7.569,6.792-15.452-6.991-15.683-9.767,2.165-11.122,4.247-10.758S146.538,295.548,146.538,295.548Z" transform="translate(-12.404 49.35)" fill="#fff" stroke="#263238" stroke-linecap="round" stroke-linejoin="round" stroke-width="1"/>
        <path id="Path_1924" data-name="Path 1924" d="M240.285,210.98a61.889,61.889,0,0,1,2.429,9.833,27.881,27.881,0,0,1-1.124,6s6.759,6.015,7.139,7.519-3.751,3.751-3.751,3.751.364,15.766.364,16.89-18.393,1.884-18.393,1.884l-19.22,22.525-9.007-22.145,4.132-12.395s-12.395-7.139-7.883-18.03,14.642-16.89,24.789-18.393a59.494,59.494,0,0,1,19.831.744Z" transform="translate(33.743 1.132)" fill="#fff" stroke="#263238" stroke-linecap="round" stroke-linejoin="round" stroke-width="1"/>
        <path id="Path_1925" data-name="Path 1925" d="M217.825,238.241l-9.42-1.8-.545,12.675Z" transform="translate(42.799 19.746)" fill="#263238" stroke="#263238" stroke-linecap="round" stroke-linejoin="round" stroke-width="1"/>
        <path id="Path_1926" data-name="Path 1926" d="M221.281,221.163c0,1.322-.479,2.38-1.091,2.38s-1.091-1.058-1.091-2.38.5-2.363,1.091-2.363S221.281,219.858,221.281,221.163Z" transform="translate(50.135 8.235)" fill="#263238"/>
        <path id="Path_1927" data-name="Path 1927" d="M218.22,218.471s1.091-2.181,5.09-1.091" transform="translate(49.56 7.109)" fill="none" stroke="#263238" stroke-linecap="round" stroke-linejoin="round" stroke-width="1"/>
        <path id="Path_1928" data-name="Path 1928" d="M226.34,229.224s-4.743.727-6.61-1.834" transform="translate(50.546 13.84)" fill="none" stroke="#263238" stroke-linecap="round" stroke-linejoin="round" stroke-width="1"/>
        <path id="Path_1929" data-name="Path 1929" d="M247.181,220.243s-12.378-3.008-14.642,1.5-.364,6.759-2.248,10.891-9.007,9.387-9.007,9.387-6.759-7.519-9.023-3.768-1.5,9.387.76,11.271,8.627.744,8.627.744l-9.75,4.512s.364,5.635-8.643,7.883-19.831-3.751-18.393-11.254S198.743,239.4,198.743,239.4,185.522,223.251,196.5,211.3s32.292-6.379,32.292-6.379,3.008-3.305,11.568-4.132,12.395,7.883,12.395,12.775S247.181,220.243,247.181,220.243Z" transform="translate(27.706 -3.554)" fill="#263238" stroke="#263238" stroke-linecap="round" stroke-linejoin="round" stroke-width="1"/>
        <path id="Path_1930" data-name="Path 1930" d="M954.011,170.661,949.6,85.42l-73.276,39.811,1.653,6.61,27.714,14.146L775.282,401.563,361.4,514.105,75.29,318.834a11.576,11.576,0,0,0-13.056,19.121L352.7,536.217a11.568,11.568,0,0,0,6.61,2.016,11.12,11.12,0,0,0,3.024-.413L786.305,422.551a11.568,11.568,0,0,0,7.271-5.9L926.314,156.565Z" transform="translate(-55.532 -78.81)" fill="#263238" stroke="#263238" stroke-linecap="round" stroke-linejoin="round" stroke-width="1"/>
        <path id="Path_1931" data-name="Path 1931" d="M953.011,166.661,948.6,81.42l-71.624,46.422,27.714,14.146L774.283,397.563,360.4,510.105,74.29,314.834a11.576,11.576,0,0,0-13.056,19.121L351.7,532.217a11.569,11.569,0,0,0,6.61,2.016,11.124,11.124,0,0,0,3.024-.413L785.305,418.551a11.568,11.568,0,0,0,7.272-5.9L925.314,152.565Z" transform="translate(-56.184 -81.42)" fill="#0129ff" stroke="#263238" stroke-linecap="round" stroke-linejoin="round" stroke-width="1"/>
        <path id="Path_1932" data-name="Path 1932" d="M937.81,90.35,890.2,121.171l22.327,11.386L776.7,398.808,355.6,513.251,66.393,315.831a3.312,3.312,0,0,0-3.735,5.47L353.185,519.614a3.305,3.305,0,0,0,1.867.578,3.84,3.84,0,0,0,.859-.116L779.887,404.791a3.305,3.305,0,0,0,2.082-1.653L918.458,135.7l22.327,11.386Z" transform="translate(-52.898 -75.592)" fill="#fff"/>
        <path id="Path_1933" data-name="Path 1933" d="M233.553,294.854l-2.264,8.709a100.812,100.812,0,0,1-8.891,14.113c-5.454,7.222-25.037,27.367-25.037,27.367l-5.536,6.825-.645,5.982,4.5,1.735s2.248.876,4.082,1.818,6.61,1.8,8.081.694,4.958-10.081,4.958-10.081l1.322-6.924s23.269-18.261,28.59-23.8,9.916-10.51,11.469-13.717.281-13.039.281-13.039Z" transform="translate(31.914 57.663)" fill="#fff" stroke="#263238" stroke-linecap="round" stroke-linejoin="round" stroke-width="1"/>
        <path id="Path_1934" data-name="Path 1934" d="M218.082,280.963,214,324.856a92.83,92.83,0,0,0,11.9,3.4c6.528,1.388,20.162-2.214,20.162-2.214s-2.1-36.539-4.826-49.909-10.329-23.368-15.22-25.037" transform="translate(46.806 29.314)" fill="#0129ff" stroke="#263238" stroke-linecap="round" stroke-linejoin="round" stroke-width="1"/>
      </g>
    </g>
    <g id="freepik--Floor--inject-2" transform="translate(424.617 790.284)">
      <line id="Line_398" data-name="Line 398" x2="299.121" transform="translate(826.301)" fill="none" stroke="#263238" stroke-linecap="round" stroke-linejoin="round" stroke-width="1"/>
      <line id="Line_399" data-name="Line 399" x2="21.484" transform="translate(789.944)" fill="none" stroke="#263238" stroke-linecap="round" stroke-linejoin="round" stroke-width="1"/>
      <line id="Line_400" data-name="Line 400" x2="522.222" transform="translate(249.543)" fill="none" stroke="#263238" stroke-linecap="round" stroke-linejoin="round" stroke-width="1"/>
      <line id="Line_401" data-name="Line 401" x2="234.67" fill="none" stroke="#263238" stroke-linecap="round" stroke-linejoin="round" stroke-width="1"/>
    </g>
  </g>
</svg>
