<svg xmlns="http://www.w3.org/2000/svg" xmlns:xlink="http://www.w3.org/1999/xlink" width="519.407" height="466.945" viewBox="0 0 519.407 466.945">
  <defs>
    <clipPath id="clip-path">
      <path id="Path_1950" data-name="Path 1950" d="M219.552,205.881s-2.806,69.492-2.2,81.1-1.809,82.107-1.809,82.107a9.914,9.914,0,0,0,7.015,2.6c4.638,0,5.8-1.8,5.8-1.8l24.64-129.1s3.8,50.463,8.407,70.732a359.748,359.748,0,0,0,10.169,35.946s.846,2.145,6.25,1.078c4.708-.928,6.412-6.412,6.412-6.412s-1-51.02-.8-82.5-.8-60.876-.8-60.876-21.231,6.957-36.445,8.813a72.321,72.321,0,0,1-26.635-1.681Z" transform="translate(-215.54 -198.75)" fill="#263238" stroke="#263238" stroke-linecap="round" stroke-linejoin="round" stroke-width="1"/>
    </clipPath>
    <clipPath id="clip-path-2">
      <path id="Path_1974" data-name="Path 1974" d="M234.257,117.437s5.056,3.131,7.467.487,1.032-3.247,1.994-5.172,2.864-.858,3.1,2.76-2.922,3.85.928,4.337,4.232,1.658,13.393-2.447,13.115-15.619,13.115-21.892S261,79.369,253.053,78.117s-20.489,3.676-23.863,12.349.487,20.721.731,22.171S230.163,116.729,234.257,117.437Z" transform="translate(-227.813 -77.924)" fill="#263238"/>
    </clipPath>
  </defs>
  <g id="Problem_solving-bro" data-name="Problem solving-bro" transform="translate(-24.13 -77.391)">
    <g id="freepik--Labyrinth--inject-6" transform="translate(24.13 231.501)" opacity="0.6">
      <path id="Path_1935" data-name="Path 1935" d="M283.822,210.37c-78.7,0-152.283,21.15-201.877,57.977l8.291,4.058c46.44-34.531,114.8-54.673,188.241-55.658v18.321c-118.077,1.82-213.252,60.2-213.252,131.748,0,23.087,9.937,44.8,27.342,63.694L66.28,440.1c-20.269-21.857-31.47-46.95-31.47-73.283,0-25.324,10.668-50.359,30.844-72.379l-9.346-3.108C35.262,314.3,24.13,340.4,24.13,366.816c0,31.945,15.886,62.615,45.941,88.856,29.36,25.58,70.141,45.153,117.937,56.586l3.942-5.983c-51.3-12.245-92.822-33.766-120.28-60.621l26.3-9.6c38.59,37.453,107.455,62.442,185.852,62.442,120.523,0,218.586-59.137,218.586-131.678,0-45.118-37.7-86.607-100.881-110.969l-5.8,5.415c60.064,23.191,95.929,62.615,95.929,105.519,0,45.222-40,84.937-99.825,106.957l-13.706-13.114c24.78-9.056,45.976-21.753,61.63-37.43l-9.149-3.316c-31.308,31.308-86.2,50.069-146.857,50.069-52.748,0-101.762-14.32-134.507-39.285l-8.384,3.989a184.052,184.052,0,0,0,47.773,25.626l-13.184,13.393c-59.67-22.031-99.559-61.688-99.559-106.852,0-69.063,93.274-125.231,207.918-125.231a325.625,325.625,0,0,1,85.714,11.085l4.406-5.8a340.185,340.185,0,0,0-84.809-11.6V216.9c134.9,1.67,243.7,68.274,243.7,149.918,0,82.71-111.7,150-249,150a413.167,413.167,0,0,1-50.069-3.073l-2.134,6.3A429.422,429.422,0,0,0,283.8,523.2c143.181,0,259.738-70.176,259.738-156.434S427,210.37,283.822,210.37ZM197.911,463.476c26.032,8.407,55.38,12.941,85.922,12.941S343.214,472,368.9,463.882l13.741,13.161c-29.406,9.613-63.068,15.074-98.816,15.074s-69.631-5.5-99.118-15.167Z" transform="translate(-24.13 -210.37)" fill="#fff"/>
      <path id="Path_1936" data-name="Path 1936" d="M441.525,401.918c8.987-13.2,13.532-27.18,13.532-41.547,0-60.436-81.62-109.612-181.933-109.612-42.683,0-84.183,9.091-116.836,25.58l6.865,4.928c30.74-15.526,69.793-24.072,109.971-24.072a265.537,265.537,0,0,1,77.69,11.248l-14.831,19.04a210.5,210.5,0,0,0-62.859-9.276,226.414,226.414,0,0,0-25.974,1.484l2.018,6.32a209.8,209.8,0,0,1,23.956-1.345c68.309,0,123.967,32.92,125.637,73.817H362.9c-.591-10.436-6.111-20.454-16.048-29.047l-8.755,3.687c9.276,8.012,14.181,17.393,14.181,27.249,0,24.675-31.945,45.559-72.727,47.541l.846,6.412a136.827,136.827,0,0,0,32.467-5.461L331.5,427.417a194.262,194.262,0,0,1-58.418,8.7c-43.761,0-82.328-13.543-104.881-34.033l31.377-10.552c9.473,8.117,22.658,14.668,38.532,18.715l4.163-5.925q-4-1.032-7.734-2.319l15.955-14.958a77.227,77.227,0,0,0,22.588,3.27,81.583,81.583,0,0,0,11.723-.835l-2.5-6.25a63.667,63.667,0,0,1-9.276.661c-21.568,0-39.1-10.563-39.1-23.55s17.637-23.492,39.2-23.492,39.088,10.575,39.088,23.562c0,5.577-3.3,11-9.276,15.248l8.117,4.163c7.641-5.4,11.851-12.3,11.851-19.411,0-16.535-22.321-29.986-49.768-29.986a77.238,77.238,0,0,0-22.855,3.351l-16.176-14.9a121.964,121.964,0,0,1,39.019-6.192c16.848,0,32.931,3.142,46.509,9.1l6.285-5.206c-15.41-6.76-33.627-10.332-52.794-10.332-30.461,0-58.6,9.2-75.278,24.571l8.94,3.479A70.661,70.661,0,0,1,225.2,322.385l16.164,14.877c-10.992,5.508-18.019,13.8-18.019,23.075s7.12,17.683,18.263,23.191l-15.979,15c-19.712-8.871-31.667-22.9-31.667-38.161a30.148,30.148,0,0,1,2.389-11.688l-10.3-1.565a34.264,34.264,0,0,0-2.713,13.254c0,9.16,3.827,17.938,10.726,25.661l-31.308,10.529C153,385.8,147.441,373.475,147.441,360.372c0-28.989,28-55.774,71.358-68.32l-4.638-5.8c-45.419,13.149-75.3,40.735-77.3,70.895h-34.9c1.078-21.475,12.929-41.8,34.485-58.963l-8.511-3.884C103.889,313.445,91.18,336.288,91.18,360.4c0,17.08,6.343,33.441,18.854,48.631l9.566-2.852c-10.981-13.346-16.918-27.644-17.66-42.567h34.914c2.818,43.819,62.847,78.953,136.27,78.953,75.208,0,136.4-36.862,136.4-82.165,0-29.36-25.7-55.148-64.239-69.689l14.935-19.144c50.336,18,84.16,51.02,84.16,88.81,0,13.532-4.279,26.67-12.755,39.1Zm-100.765,22.24L322.15,405.606c22.576-8.952,38.079-23.84,40.468-40.712h35.946C396.141,389.79,373.669,411.45,340.761,424.159Z" transform="translate(-13.432 -203.926)" fill="#fff"/>
    </g>
    <g id="freepik--Character--inject-6" transform="translate(164.048 77.924)">
      <path id="Path_1937" data-name="Path 1937" d="M299.716,332.14c-.1-.336-.441-1.38-6.957-.87l-13.068.986c-1.507-1.16-19.133-14.425-19.19-14.3-.649-.58-10.343-8.94-13.346-11.34a4.812,4.812,0,0,0,2.852-1.02c.406-.475,2.122-2.667,2.423-3.061,6.064-3.838,17.579-11.108,18.3-11.491,1.994-1.067,2.238-2.052,2.087-2.69-.22-.986-1.473-1.565-3.479-1.635-1.229,0-5.647-.858-10.761-1.786-8.894-1.623-21.081-3.838-26.843-3.989a85.809,85.809,0,0,0-17.95,1.728c-2.586.348-5.949.881-9.763,1.6a16.86,16.86,0,0,0-2.864-4.9c1.577-1.7,1.473-3.224.51-4.058-.7-.6-8.778-1.577-9.184-.823-2.887,0-6.122.22-9.2.487.383-.3-.881-.742-2.238.209-1.96.209-3.792.452-5.357.731-8.314,1.461-19.631,5.334-20.7,8.117-.371.974.255,1.844,1.264,2.574-1.276.383-.29,1.287,1.31.8a11.5,11.5,0,0,0,1.078.51c-.591.128.788,1.02,1.925.754h0a.962.962,0,0,0-.441.858c.081,1.716,5.38,2.389,5.427,2.389a8.7,8.7,0,0,0,1.09.058,14.264,14.264,0,0,0,3.942-.615c.707.232,1.438.452,2.18.673a11.046,11.046,0,0,0-1.438,1.252c-2.852,1.16-6.6,2.76-10,4.314h-.162a131.9,131.9,0,0,0-15.213,7.259,1.971,1.971,0,0,0-1.16,1.936c.278,2.806,7.85,6.841,22.484,12l.232.081a23.108,23.108,0,0,0,7.769,1.391,22.4,22.4,0,0,0,4.928-.568c3.815,4.035,14.923,20.872,18.077,23.052,1.809,1.264,9.671,17.695,14.228,22.229-.51.417.278,1.276.823.823,1.09,1.159,3.409,4.313,3.954,3.989l.7.707c-.383.186.359,1.16.858.87l2.319,2.319c-.7,1.391-1.7,3.908-.626,5.09a5.392,5.392,0,0,0,4.186,1.6,14.6,14.6,0,0,0,5.392-1.241c4.058-1.67,5.914-3.954,5.519-6.83a3.849,3.849,0,0,0-.348-1.16.568.568,0,0,0,.116-.487l-4.279-15.48c.452-1.055-7.6-34.624-7.6-34.624a.6.6,0,0,0,.348-.209c4.487,2.76,16.593,10,24.733,13.23-.348.383-.707.765-1.09,1.16a.58.58,0,0,0,0,.823.557.557,0,0,0,.812,0c.5-.487.974-1,1.438-1.519a33.627,33.627,0,0,0,10.8,1.275c4.441,1.322,7.514,2.1,7.583,2.11a3.785,3.785,0,0,0,.87,0,11.7,11.7,0,0,0,2.157.174,37.292,37.292,0,0,0,6.03-.661l.533-.081a25.655,25.655,0,0,1,3.711-.22,51.02,51.02,0,0,0,6.366-.383c4.8-.615,9.8-2.064,11.282-2.98C299.82,332.883,299.8,332.4,299.716,332.14Zm-48.852-39.865-5.8,9.137-2.725,1.426-.267-.209a1.265,1.265,0,0,0,0-.29c-.348-.928-6.331-7.85-10.645-12.43h.615Z" transform="translate(-144.796 -46.606)" opacity="0.3"/>
      <path id="Path_1938" data-name="Path 1938" d="M278.1,199.72l-7.2,6.006s-1.4,2.2-.406,3.409a19.584,19.584,0,0,1,2.006,3.2s1.16,2.4,2.4,2.806,2.609.6,3.409-.8,4.8-8.813,4.8-8.813Z" transform="translate(-124.799 -58.491)" fill="#fff" stroke="#263238" stroke-linecap="round" stroke-linejoin="round" stroke-width="1"/>
      <path id="Path_1939" data-name="Path 1939" d="M216.862,345.116s-5.485,11.909-5.728,17.15.962,10.726,6.957,7.386,8.523-11.885,9.775-17.393a29.787,29.787,0,0,0,.951-8.569Z" transform="translate(-134.216 -35.522)" fill="#fff" stroke="#263238" stroke-linecap="round" stroke-linejoin="round" stroke-width="1"/>
      <path id="Path_1940" data-name="Path 1940" d="M274.937,321.56s8.813,5,13.1,7.386,5.717,5.948,3.815,7.862-7.143,3.1-11.433,1.658-6.192-5-8.581-5.473-7.386-.951-8.117-7.386S274.937,321.56,274.937,321.56Z" transform="translate(-125.826 -39.122)" fill="#fff" stroke="#263238" stroke-linecap="round" stroke-linejoin="round" stroke-width="1"/>
      <path id="Path_1941" data-name="Path 1941" d="M219.552,205.881s-2.806,69.492-2.2,81.1-1.809,82.107-1.809,82.107a9.914,9.914,0,0,0,7.015,2.6c4.638,0,5.8-1.8,5.8-1.8l24.64-129.1s3.8,50.463,8.407,70.732a359.748,359.748,0,0,0,10.169,35.946s.846,2.145,6.25,1.078c4.708-.928,6.412-6.412,6.412-6.412s-1-51.02-.8-82.5-.8-60.876-.8-60.876-21.231,6.957-36.445,8.813a72.321,72.321,0,0,1-26.635-1.681Z" transform="translate(-133.509 -58.646)" fill="#263238" stroke="#fff" stroke-width="1"/>
      <g id="Group_4307" data-name="Group 4307" transform="translate(82.031 140.104)" clip-path="url(#clip-path)">
        <path id="Path_1942" data-name="Path 1942" d="M248.962,263.76a265.661,265.661,0,0,1-22.031,44.828,207.321,207.321,0,0,1-13.161,19.225" transform="translate(-215.822 -188.378)" fill="none" stroke="#8a8a8a" stroke-linecap="round" stroke-linejoin="round" stroke-width="1"/>
        <path id="Path_1943" data-name="Path 1943" d="M233.174,309a136.1,136.1,0,0,1-8.569,14.228,67.253,67.253,0,0,1-10.865,12.558" transform="translate(-215.827 -181.16)" fill="none" stroke="#8a8a8a" stroke-linecap="round" stroke-linejoin="round" stroke-width="1"/>
        <path id="Path_1944" data-name="Path 1944" d="M240.317,288.34a174.172,174.172,0,0,1-7.467,18.553" transform="translate(-212.778 -184.456)" fill="none" stroke="#8a8a8a" stroke-linecap="round" stroke-linejoin="round" stroke-width="1"/>
        <path id="Path_1945" data-name="Path 1945" d="M278.921,247.52s-12.755,39.193-26.461,60.563" transform="translate(-209.65 -190.969)" fill="none" stroke="#8a8a8a" stroke-linecap="round" stroke-linejoin="round" stroke-width="1"/>
        <path id="Path_1946" data-name="Path 1946" d="M277.318,258.05c-3.641,23.4-7.746,47.008-18.008,68.413" transform="translate(-208.557 -189.289)" fill="none" stroke="#8a8a8a" stroke-linecap="round" stroke-linejoin="round" stroke-width="1"/>
        <path id="Path_1947" data-name="Path 1947" d="M247.63,240.581l2.551-6.111,7.12-4.07" transform="translate(-210.42 -193.7)" fill="none" stroke="#8a8a8a" stroke-linecap="round" stroke-linejoin="round" stroke-width="1"/>
        <path id="Path_1948" data-name="Path 1948" d="M280.477,196.56s-8.349,8.036-29.221,10.274-30.5,0-30.5,0-2.632,1.264-1,3.2c0,0-1.252,1.936,5.485,3.548a64.149,64.149,0,0,0,10.169,1.531l-.209-3.479,3.85-.649v4.267a77.692,77.692,0,0,0,10.6-.522v-3.745l2.887-.313-.232,3.711,1.16-.186a87.418,87.418,0,0,0,15.735-4.035v-5.589l4.174-.325L273,208.642a24.989,24.989,0,0,0,7.12-4.395A5.462,5.462,0,0,0,280.477,196.56Z" transform="translate(-214.952 -199.099)" fill="#969696"/>
        <path id="Path_1949" data-name="Path 1949" d="M230.114,325.21a195.689,195.689,0,0,1-16.234,13.915" transform="translate(-215.805 -178.574)" fill="none" stroke="#8a8a8a" stroke-linecap="round" stroke-linejoin="round" stroke-width="1"/>
      </g>
      <path id="Path_1951" data-name="Path 1951" d="M219.552,205.881s-2.806,69.492-2.2,81.1-1.809,82.107-1.809,82.107a9.914,9.914,0,0,0,7.015,2.6c4.638,0,5.8-1.8,5.8-1.8l24.64-129.1s3.8,50.463,8.407,70.732a359.748,359.748,0,0,0,10.169,35.946s.846,2.145,6.25,1.078c4.708-.928,6.412-6.412,6.412-6.412s-1-51.02-.8-82.5-.8-60.876-.8-60.876-21.231,6.957-36.445,8.813a72.321,72.321,0,0,1-26.635-1.681Z" transform="translate(-133.509 -58.646)" fill="none" stroke="#fff" stroke-linecap="round" stroke-linejoin="round" stroke-width="1"/>
      <path id="Path_1952" data-name="Path 1952" d="M269.77,124.42a22.936,22.936,0,0,1,16.025,7.41c6.957,7.618,22.031,44.863,24.629,47.866s1.635,8.859-2.029,11.943c-1.16,1.009-25.209,25.9-25.209,25.9l-5.009-5.8L292.4,182.107l-17.022-29.186" transform="translate(-124.857 -70.505)" fill="#0129ff" stroke="#263238" stroke-linecap="round" stroke-linejoin="round" stroke-width="1"/>
      <path id="Path_1953" data-name="Path 1953" d="M276.36,147.452,277,142.28l1.936,15.063-2.365-2.795Z" transform="translate(-123.805 -67.656)" fill="#263238" stroke="#263238" stroke-linecap="round" stroke-linejoin="round" stroke-width="1"/>
      <path id="Path_1954" data-name="Path 1954" d="M297.407,178.617c-5.056.278-8.117-4.487-8.117-4.487a9.276,9.276,0,0,0,8.685,6.459" transform="translate(-121.742 -62.574)" fill="none" stroke="#263238" stroke-linecap="round" stroke-linejoin="round" stroke-width="1"/>
      <path id="Path_1955" data-name="Path 1955" d="M286.677,151.962c-.441,17.845-2.574,56.25-3.119,59.473-.6,3.606-4.8,5.8-21.428,10.819s-39.645,3.2-41.245-.406-4.812-21.22-4.812-29.638-8-41.048-1-48.457S241.3,126.359,241.3,126.359c15.422-6.018,32.247-3.815,39.054-1.16a10.714,10.714,0,0,1,2.945,1.623" transform="translate(-134.041 -70.809)" fill="#0129ff"/>
      <path id="Path_1956" data-name="Path 1956" d="M242.66,144.474l6.609,5.612-4.615,57.27,11.016,11.422,7.409-16.628-10.007-52.864,4.8-7.815-7.607-7.2Z" transform="translate(-129.182 -68.934)" fill="#fff" stroke="#263238" stroke-linecap="round" stroke-linejoin="round" stroke-width="1"/>
      <path id="Path_1957" data-name="Path 1957" d="M260.8,183.65,244.7,195.535l-.325,3.942,3.664,3.792L262.492,192.6Z" transform="translate(-128.908 -61.055)" fill="#263238"/>
      <path id="Path_1958" data-name="Path 1958" d="M254.249,157.232l-1.693-8.952-4.337,3.189-.87,10.853Z" transform="translate(-128.434 -66.699)" fill="#263238"/>
      <path id="Path_1959" data-name="Path 1959" d="M256.715,165.96,246.5,173.509l-.87,10.853,12.778-9.439Z" transform="translate(-128.708 -63.878)" fill="#263238"/>
      <path id="Path_1960" data-name="Path 1960" d="M238.1,122.79S232.3,129,232.3,131s5.4,17.231,6.807,18.634,12.407-7.41,12.407-7.41,11.6,6.807,12.419,5.8-1-12.013-3.2-17.614S246.713,117.189,238.1,122.79Z" transform="translate(-130.835 -71.078)" fill="#0129ff" stroke="#263238" stroke-linecap="round" stroke-linejoin="round" stroke-width="1"/>
      <path id="Path_1961" data-name="Path 1961" d="M239.55,130.3s6.006,15.422,12.013,16.234,7.212-12.407,6.807-16.234S244.71,121.092,239.55,130.3Z" transform="translate(-129.678 -70.378)" fill="#263238" stroke="#263238" stroke-linecap="round" stroke-linejoin="round" stroke-width="1"/>
      <path id="Path_1962" data-name="Path 1962" d="M268.948,103.484s-.962,16.871-2.887,24.1-4.337,14.935-8.43,15.909-12.755-3.142-16.871-6.957-8.43-22.889-8.43-28.432,15.178-10.366,23.608-10.6a16.3,16.3,0,0,1,13.01,5.983Z" transform="translate(-130.83 -74.801)" fill="#fff" stroke="#263238" stroke-linecap="round" stroke-linejoin="round" stroke-width="1"/>
      <path id="Path_1963" data-name="Path 1963" d="M256.174,117.23v9.4l-3.734.557" transform="translate(-127.622 -71.652)" fill="none" stroke="#263238" stroke-linecap="round" stroke-linejoin="round" stroke-width="1"/>
      <path id="Path_1964" data-name="Path 1964" d="M244.09,117.23s2.215,2.493,8.581.7" transform="translate(-128.954 -71.652)" fill="none" stroke="#263238" stroke-linecap="round" stroke-linejoin="round" stroke-width="1"/>
      <path id="Path_1965" data-name="Path 1965" d="M256.38,117.357s2.621.835,5.392-1.8" transform="translate(-126.993 -71.919)" fill="none" stroke="#263238" stroke-linecap="round" stroke-linejoin="round" stroke-width="1"/>
      <path id="Path_1966" data-name="Path 1966" d="M255.9,116.657s1.16-3.073,6.169-4.047" transform="translate(-127.07 -72.39)" fill="none" stroke="#263238" stroke-linecap="round" stroke-linejoin="round" stroke-width="1"/>
      <path id="Path_1967" data-name="Path 1967" d="M253.4,117.037a9.914,9.914,0,0,0-9.276-2.435" transform="translate(-128.949 -72.12)" fill="none" stroke="#263238" stroke-linecap="round" stroke-linejoin="round" stroke-width="1"/>
      <line id="Line_402" data-name="Line 402" y1="0.649" x2="3.734" transform="translate(124.61 59.353)" fill="none" stroke="#263238" stroke-linecap="round" stroke-linejoin="round" stroke-width="1"/>
      <path id="Path_1968" data-name="Path 1968" d="M246,118.76a4.418,4.418,0,0,0,4.058,0" transform="translate(-128.649 -71.408)" fill="none" stroke="#263238" stroke-linecap="round" stroke-linejoin="round" stroke-width="1"/>
      <path id="Path_1969" data-name="Path 1969" d="M256.88,117.926a4.383,4.383,0,0,0,3.931-.986" transform="translate(-126.913 -71.699)" fill="none" stroke="#263238" stroke-linecap="round" stroke-linejoin="round" stroke-width="1"/>
      <path id="Path_1970" data-name="Path 1970" d="M234.257,117.437s5.056,3.131,7.467.487,1.032-3.247,1.994-5.172,2.864-.858,3.1,2.76-2.922,3.85.928,4.337,4.232,1.658,13.393-2.447,13.115-15.619,13.115-21.892S261,79.369,253.053,78.117s-20.489,3.676-23.863,12.349.487,20.721.731,22.171S230.163,116.729,234.257,117.437Z" transform="translate(-131.551 -77.924)" fill="#263238" stroke="#fff" stroke-width="1"/>
      <g id="Group_4308" data-name="Group 4308" transform="translate(96.262)" clip-path="url(#clip-path-2)">
        <path id="Path_1971" data-name="Path 1971" d="M263.795,92c-5.7,7.12-16.6,14.587-37.245,14.332" transform="translate(-228.015 -75.678)" fill="none" stroke="#fff" stroke-linecap="round" stroke-linejoin="round" stroke-width="1"/>
        <path id="Path_1972" data-name="Path 1972" d="M264.328,81.17A27.029,27.029,0,0,1,261,89.785" transform="translate(-222.518 -77.406)" fill="none" stroke="#fff" stroke-linecap="round" stroke-linejoin="round" stroke-width="1"/>
        <path id="Path_1973" data-name="Path 1973" d="M261.592,77.66s-15.781,22.426-37.662,25.44" transform="translate(-228.433 -77.966)" fill="none" stroke="#fff" stroke-linecap="round" stroke-linejoin="round" stroke-width="1"/>
      </g>
      <path id="Path_1975" data-name="Path 1975" d="M237.7,115.456s-2.632-8.384-6.853-8.476-1.82,8.789,0,11.827a3.734,3.734,0,0,0,4.893,1.507" transform="translate(-131.442 -73.288)" fill="#fff" stroke="#263238" stroke-linecap="round" stroke-linejoin="round" stroke-width="1"/>
      <path id="Path_1976" data-name="Path 1976" d="M231.034,114.191s-.974-4.058.974-3.247,2.922,3.722,2.922,3.722-1.623-.162-1.461.812,1.3.974,1.3.974" transform="translate(-131.076 -72.672)" fill="none" stroke="#263238" stroke-linecap="round" stroke-linejoin="round" stroke-width="1"/>
      <path id="Path_1977" data-name="Path 1977" d="M225.211,135.026a95.9,95.9,0,0,0-18.622,13.416c-7.815,7.618,3.8,54.673,5.206,60.482,2.029,8.384,5.009,12.21,9.207,12.013s18.425-24.826,22.831-35.447a147.439,147.439,0,0,0,6.957-23.632s5.612-2.2,6.609-4.2a25.363,25.363,0,0,0,1.6-4.209s1.009,3,2.806,2.2,2.609-5.4,3-8.615-7.8-6.006-7.8-6.006,1-4.2,3.4-4.8,5.206-2.806,4.406-4.012-7.607,3.015-7.607,3.015-5.4,8.407-7.41,12.21c-1.31,2.493-4.5,9.427-6.551,13.915a46.709,46.709,0,0,1-4.511,7.815l-9.763,13.706s-.394-24.629-.394-25.638" transform="translate(-135.365 -69.295)" fill="#0129ff" stroke="#263238" stroke-linecap="round" stroke-linejoin="round" stroke-width="1"/>
      <line id="Line_403" data-name="Line 403" y1="8.604" x2="3.444" transform="translate(93.58 86.892)" fill="none" stroke="#263238" stroke-linecap="round" stroke-linejoin="round" stroke-width="1"/>
      <path id="Path_1978" data-name="Path 1978" d="M214.936,191.37c0-2.319,12.755-15.48,12.755-15.48s-14.054,9.021-15.561,11.6" transform="translate(-134.053 -62.293)" fill="none" stroke="#263238" stroke-linecap="round" stroke-linejoin="round" stroke-width="1"/>
      <path id="Path_1979" data-name="Path 1979" d="M251.956,157.674a25.359,25.359,0,0,0,1.6-4.209s1.009,3,2.806,2.2,2.609-5.4,3-8.615-7.2-6.2-7.2-6.2,1.16-3.606,2.794-4.638c2.11-1.31,5.206-2.806,4.406-4.012-.452-.684-2.864,0-4.847.719a7.537,7.537,0,0,0-4.082,3.479c-1.739,3.1-4.708,8.441-6.088,11.05-1.16,2.319-3.989,8.314-6.03,12.755.881,1.531,2.737,3.363,6.6,3.687.278-1.287.429-2.041.429-2.041S250.959,159.669,251.956,157.674Z" transform="translate(-129.874 -69.309)" fill="#fff" stroke="#263238" stroke-linecap="round" stroke-linejoin="round" stroke-width="1"/>
      <path id="Path_1980" data-name="Path 1980" d="M249.91,145.84a62.126,62.126,0,0,1,6.006,2.806,1.31,1.31,0,0,1,.6,1.8" transform="translate(-128.025 -67.088)" fill="#fff" stroke="#263238" stroke-linecap="round" stroke-linejoin="round" stroke-width="1"/>
      <path id="Path_1981" data-name="Path 1981" d="M249.57,142.56s6.807,3.2,7.8,4.2" transform="translate(-128.08 -67.611)" fill="#fff" stroke="#263238" stroke-linecap="round" stroke-linejoin="round" stroke-width="1"/>
    </g>
  </g>
</svg>
